<svg width="160" height="160" viewBox="0 0 160 160" version="1.1" xmlns="http://www.w3.org/2000/svg" xmlns:xlink="http://www.w3.org/1999/xlink">
<title>book</title>
<desc>Created using Figma</desc>
<g id="Canvas" transform="translate(-3835 -707)">
<g id="book">
<g id="Vector 71">
<use xlink:href="#path0_fill" transform="translate(3844 716)" fill="#FFFFFF"/>
<use xlink:href="#path1_stroke" transform="translate(3844 716)"/>
</g>
<g id="Vector 74">
<use xlink:href="#path2_fill" transform="translate(3848.51 758.833)" fill="#FFFFFF"/>
</g>
<g id="Vector">
<use xlink:href="#path3_stroke" transform="translate(3847.76 759.041)"/>
</g>
<g id="Vector 71">
<use xlink:href="#path4_fill" transform="translate(3844 716)" fill="#333333"/>
<use xlink:href="#path5_stroke" transform="translate(3844 716)"/>
</g>
<g id="Vector 72">
<use xlink:href="#path6_fill" transform="translate(3892.19 748.931)" fill="#FFFFFF"/>
<use xlink:href="#path7_fill" transform="translate(3892.19 748.931)" fill="#FFFFFF"/>
<use xlink:href="#path8_stroke" transform="translate(3892.19 748.931)"/>
</g>
</g>
</g>
<defs>
<path id="path0_fill" d="M 67.6192 2.26531L 140.498 39.2653L 131.205 52.67L 140.498 57.3878L 76.6351 148L 4.50806 104.204C 3.00537 103.952 0 102.694 0 99.6735L 0 84.5714L 63.1113 0C 62.5102 3.62449 65.8661 3.02041 67.6192 2.26531Z"/>
<path id="path1_stroke" d="M 67.6192 2.26531L 68.0719 1.37364L 67.654 1.16149L 67.2236 1.34688L 67.6192 2.26531ZM 140.498 39.2653L 141.319 39.835L 141.973 38.8927L 140.95 38.3736L 140.498 39.2653ZM 140.498 57.3878L 141.315 57.9638L 141.981 57.0192L 140.95 56.4961L 140.498 57.3878ZM 76.6351 148L 76.1161 148.855L 76.9144 149.34L 77.4525 148.576L 76.6351 148ZM 63.1113 0L 64.0978 0.163598L 62.3098 -0.598074L 63.1113 0ZM 0 84.5714L -0.801441 83.9734L -1 84.2394L -1 84.5714L 0 84.5714ZM 76.6351 131.388L 76.1096 132.239L 76.9165 132.737L 77.4569 131.957L 76.6351 131.388ZM 13.4338 92.35L 12.9083 93.2008L 12.9083 93.2008L 13.4338 92.35ZM 131.205 52.67L 130.383 52.1002L 130.383 52.1002L 131.205 52.67ZM 5.3095 87.4348L 68.4207 2.86338L 66.8178 1.66723L 3.70662 86.2387L 5.3095 87.4348ZM 67.1665 3.15697L 140.045 40.157L 140.95 38.3736L 68.0719 1.37364L 67.1665 3.15697ZM 139.68 56.8117L 75.8177 147.424L 77.4525 148.576L 141.315 57.9638L 139.68 56.8117ZM 77.1541 147.145L 5.02708 103.349L 3.98904 105.059L 76.1161 148.855L 77.1541 147.145ZM 67.2236 1.34688C 66.4035 1.70011 65.3636 1.93907 64.6891 1.79659C 64.3974 1.73497 64.2594 1.6226 64.1792 1.48523C 64.0832 1.32063 63.9685 0.943507 64.0978 0.163598L 62.1247 -0.163598C 61.9535 0.868738 62.0329 1.77529 62.4518 2.49321C 62.8866 3.23836 63.5845 3.60738 64.2757 3.75341C 65.5673 4.02624 67.0818 3.5856 68.0148 3.18373L 67.2236 1.34688ZM 62.3098 -0.598074L -0.801441 83.9734L 0.801441 85.1695L 63.9127 0.598074L 62.3098 -0.598074ZM 3.86599 86.0701C 3.53035 86.3529 3.17391 86.5968 2.75585 86.783C 2.34807 86.9684 2.02849 87.0232 1.81681 86.9963C 1.66681 86.9772 1.51591 86.9171 1.36253 86.6471C 1.17925 86.3246 1 85.6991 1 84.5714L -1 84.5714C -0.999998 85.8601 -0.803578 86.8833 -0.376389 87.6351C 0.0807037 88.4396 0.775062 88.8798 1.56424 88.9803C 2.29174 89.0729 3.00526 88.8666 3.58361 88.6036C 4.15169 88.3415 4.73443 87.9498 5.15013 87.6034L 3.86599 86.0701ZM 4.67326 103.218C 3.99889 103.108 3.10021 102.818 2.30087 102.185C 1.54287 101.601 1 100.8 1 99.6735L -1 99.6735C -1 101.567 -0.0401864 102.906 1.08018 103.769C 2.15919 104.583 3.51454 105.048 4.34286 105.19L 4.67326 103.218ZM -1 84.5714L -1 99.6735L 1 99.6735L 1 84.5714L -1 84.5714ZM 5.50806 104.204L 5.50806 86.8367L 3.50806 86.8367L 3.50806 104.204L 5.50806 104.204ZM 77.1606 130.537L 13.9594 91.4992L 12.9083 93.2008L 76.1096 132.239L 77.1606 130.537ZM 13.9594 91.4992L 5.03357 85.9859L 3.98255 87.6875L 12.9083 93.2008L 13.9594 91.4992ZM 130.752 53.5616L 140.045 58.2794L 140.95 56.4961L 131.658 51.7783L 130.752 53.5616ZM 139.676 38.6956L 130.383 52.1002L 132.027 53.2397L 141.319 39.835L 139.676 38.6956ZM 130.383 52.1002L 75.8133 130.818L 77.4569 131.957L 132.027 53.2397L 130.383 52.1002Z"/>
<path id="path2_fill" d="M 0 60.6159L 0 45.5139L 72.8783 88.5547C 94.1658 57.3438 136.14 -4.02079 133.736 0.207777C 131.331 4.43635 134.737 11.5343 136.741 14.5547L 71.3757 105.167L 0 60.6159Z"/>
<path id="path3_stroke" d="M 72.8784 97.4082L 72.6208 97.8367L 73.0174 98.075L 73.2857 97.6982L 72.8784 97.4082ZM 72.8784 92.8776L 72.6176 93.3042L 73.0153 93.5473L 73.2857 93.1675L 72.8784 92.8776ZM 73.6297 100.429L 73.3741 100.858L 73.767 101.092L 74.0349 100.721L 73.6297 100.429ZM 73.2857 97.6982L 135.645 10.1063L 134.831 9.52634L 72.471 97.1182L 73.2857 97.6982ZM 73.1359 96.9796L 0.257546 53.1837L -0.257546 54.0408L 72.6208 97.8367L 73.1359 96.9796ZM -0.260786 48.7531L 72.6176 93.3042L 73.1391 92.451L 0.260786 47.8999L -0.260786 48.7531ZM 73.2857 93.1675L 135.4 5.91988L 134.586 5.33991L 72.471 92.5876L 73.2857 93.1675ZM 135.4 5.91988L 135.645 5.5757L 134.831 4.99573L 134.586 5.33991L 135.4 5.91988ZM 134.74 -0.0413167C 134.633 1.254 134.392 3.34854 134.494 5.65233L 135.493 5.60746C 135.391 3.38369 135.628 1.3528 135.736 0.0413167L 134.74 -0.0413167ZM 134.494 5.65233C 134.63 8.68253 135.367 12.1654 137.889 14.6996L 138.598 13.9943C 136.336 11.7209 135.624 8.54157 135.493 5.60746L 134.494 5.65233ZM -0.255607 57.0624L 73.3741 100.858L 73.8853 99.9989L 0.255607 56.2029L -0.255607 57.0624ZM 74.0349 100.721L 137.897 12.3745L 137.087 11.7887L 73.2245 100.136L 74.0349 100.721Z"/>
<path id="path4_fill" d="M 67.6192 2.26531L 140.498 39.2653L 76.6351 131.388L 4.50806 86.8367L 3.75662 103.449C 2.25397 103.449 0.500882 102.19 0 101.184L 0 84.5714L 63.1113 0C 62.5102 3.62449 65.8661 3.02041 67.6192 2.26531Z"/>
<path id="path5_stroke" d="M 67.6192 2.26531L 68.0719 1.37364L 67.654 1.16149L 67.2236 1.34688L 67.6192 2.26531ZM 140.498 39.2653L 141.319 39.835L 141.973 38.8927L 140.95 38.3736L 140.498 39.2653ZM 76.6351 131.388L 76.1096 132.239L 76.9165 132.737L 77.4569 131.957L 76.6351 131.388ZM 63.1113 0L 64.0978 0.163598L 62.3098 -0.598074L 63.1113 0ZM 0 84.5714L -0.801441 83.9734L -1 84.2394L -1 84.5714L 0 84.5714ZM 0 101.184L -1 101.184L -1 101.419L -0.895322 101.629L 0 101.184ZM 3.75662 103.449L 3.75662 104.449L 4.7124 104.449L 4.75559 103.494L 3.75662 103.449ZM 5.3095 87.4348L 68.4207 2.86338L 66.8178 1.66723L 3.70662 86.2387L 5.3095 87.4348ZM 67.1665 3.15697L 140.045 40.157L 140.95 38.3736L 68.0719 1.37364L 67.1665 3.15697ZM 139.676 38.6956L 75.8133 130.818L 77.4569 131.957L 141.319 39.835L 139.676 38.6956ZM 77.1606 130.537L 5.03357 85.9859L 3.98255 87.6875L 76.1096 132.239L 77.1606 130.537ZM 67.2236 1.34688C 66.4035 1.70011 65.3636 1.93907 64.6891 1.79659C 64.3974 1.73497 64.2594 1.6226 64.1792 1.48523C 64.0832 1.32063 63.9685 0.943507 64.0978 0.163598L 62.1247 -0.163598C 61.9535 0.868738 62.0329 1.77529 62.4518 2.49321C 62.8866 3.23836 63.5845 3.60738 64.2757 3.75341C 65.5673 4.02624 67.0818 3.5856 68.0148 3.18373L 67.2236 1.34688ZM 62.3098 -0.598074L -0.801441 83.9734L 0.801441 85.1695L 63.9127 0.598074L 62.3098 -0.598074ZM 3.86599 86.0701C 3.53035 86.3529 3.17391 86.5968 2.75585 86.783C 2.34807 86.9684 2.02849 87.0232 1.81681 86.9963C 1.66681 86.9772 1.51591 86.9171 1.36253 86.6471C 1.17925 86.3246 1 85.6991 1 84.5714L -1 84.5714C -0.999998 85.8601 -0.803578 86.8833 -0.376389 87.6351C 0.0807037 88.4396 0.775062 88.8798 1.56424 88.9803C 2.29174 89.0729 3.00526 88.8666 3.58361 88.6036C 4.15169 88.3415 4.73443 87.9498 5.15013 87.6034L 3.86599 86.0701ZM -1 84.5714L -1 101.184L 1 101.184L 1 84.5714L -1 84.5714ZM -0.895322 101.629C -0.535586 102.352 0.187655 103.04 0.963852 103.536C 1.74857 104.038 2.74969 104.449 3.75662 104.449L 3.75662 102.449C 3.26089 102.449 2.63415 102.231 2.04144 101.851C 1.44021 101.467 1.03647 101.022 0.895322 100.738L -0.895322 101.629ZM 3.50908 86.7915L 2.75764 103.404L 4.75559 103.494L 5.50704 86.8819L 3.50908 86.7915Z"/>
<path id="path6_fill" d="M 17.72 16.5688L 8.8119 12.5688C 15.72 -0.931211 29.3235 -1.95475 40.2213 2.0688C 48.9396 5.28765 56.8119 19.0688 49.972 30.0289C 43.7064 40.0688 30.6178 41.908 23.735 40.95L 17.72 48.5484L 7.39581 42.2256L 16.312 30.0289C 23.6537 36.0068 41.4163 31.6238 40.2213 22.5566C 38.312 8.06879 24.3119 8.06881 17.72 16.5688Z"/>
<path id="path7_fill" d="M 8.10154 49.2963C 4.27776 48.1467 -2.03883 49.4684 0.645159 56.7686C 3.32914 64.0688 18.3121 55.0688 8.10154 49.2963Z"/>
<path id="path8_stroke" d="M 8.8119 12.5688L 8.36679 12.341L 8.12712 12.8094L 8.60709 13.0249L 8.8119 12.5688ZM 17.72 16.5688L 17.5152 17.0249L 17.8741 17.1861L 18.1151 16.8752L 17.72 16.5688ZM 40.2213 22.5566L 39.7256 22.622L 39.7256 22.622L 40.2213 22.5566ZM 16.312 30.0289L 16.6277 29.6412L 16.2192 29.3086L 15.9084 29.7339L 16.312 30.0289ZM 7.39581 42.2256L 6.99217 41.9306L 6.67192 42.3686L 7.13468 42.652L 7.39581 42.2256ZM 17.72 48.5484L 17.4589 48.9748L 17.8369 49.2063L 18.1121 48.8587L 17.72 48.5484ZM 23.735 40.95L 23.8039 40.4548L 23.5206 40.4153L 23.343 40.6397L 23.735 40.95ZM 49.972 30.0289L 49.5478 29.7642L 49.5478 29.7642L 49.972 30.0289ZM 40.2213 2.0688L 40.3945 1.59975L 40.2213 2.0688ZM 8.10154 49.2963L 8.34761 48.861L 8.29899 48.8335L 8.2455 48.8175L 8.10154 49.2963ZM 0.645159 56.7686L 0.175872 56.9411L 0.175872 56.9411L 0.645159 56.7686ZM 8.60709 13.0249L 17.5152 17.0249L 17.9248 16.1127L 9.01671 12.1127L 8.60709 13.0249ZM 18.1151 16.8752C 21.3129 12.7518 26.2858 10.7205 30.6457 11.4357C 34.9547 12.1425 38.7947 15.5579 39.7256 22.622L 40.717 22.4913C 39.7387 15.0675 35.6239 11.239 30.8076 10.4489C 26.0421 9.66713 20.719 11.8859 17.3249 16.2624L 18.1151 16.8752ZM 39.7256 22.622C 39.9996 24.7011 39.1968 26.5265 37.6706 28.0344C 36.1161 29.5782 33.8881 30.729 31.3311 31.4538C 26.2034 32.9125 20.1212 32.4858 16.6277 29.6412L 15.9963 30.4167C 19.8444 33.55 26.3144 33.9207 31.6047 32.4156C 34.2567 31.6585 36.7042 30.387 38.3734 28.7457C 40.0711 27.0684 41.0405 24.9458 40.717 22.4913L 39.7256 22.622ZM 15.9084 29.7339L 6.99217 41.9306L 7.79946 42.5207L 16.7157 30.324L 15.9084 29.7339ZM 7.13468 42.652L 17.4589 48.9748L 17.9812 48.122L 7.65694 41.7992L 7.13468 42.652ZM 18.1121 48.8587L 24.127 41.2604L 23.343 40.6397L 17.328 48.238L 18.1121 48.8587ZM 23.6661 41.4452C 27.1529 41.9285 32.2582 41.7007 37.2393 40.0893C 42.21 38.4727 47.1914 35.4038 50.3961 30.2937L 49.5478 29.7642C 46.4869 34.694 41.7912 37.5646 36.9306 39.1381C 32.0803 40.7167 27.1999 40.9296 23.8039 40.4548L 23.6661 41.4452ZM 50.3961 30.2937C 53.9207 24.6459 53.6428 18.2836 51.3916 12.9514C 49.1463 7.63332 44.9083 3.26629 40.3945 1.59975L 40.0481 2.53786C 44.2526 4.09016 48.3099 8.22314 50.4703 13.3404C 52.6249 18.4435 52.8631 24.4518 49.5478 29.7642L 50.3961 30.2937ZM 40.3945 1.59975C 34.8902 -0.428905 28.6149 -1.19194 22.8965 0.263089C 17.131 1.73908 11.8862 5.46341 8.36679 12.341L 9.25701 12.7966C 12.6458 6.17419 17.6567 2.63674 23.1445 1.23185C 28.6793 -0.194011 34.6547 0.542963 40.0481 2.53786L 40.3945 1.59975ZM 8.2455 48.8175C 6.24546 48.2162 3.54715 48.2399 1.66386 49.4423C 0.704879 50.0546 -0.0380205 50.9722 -0.345742 52.2418C -0.650686 53.5 -0.517136 55.0562 0.175872 56.9411L 1.11445 56.5961C 0.465458 54.8309 0.382084 53.4843 0.626121 52.4774C 0.86738 51.482 1.43937 50.7721 2.20201 50.2852C 3.76195 49.2892 6.13384 49.2268 7.95758 49.7751L 8.2455 48.8175ZM 0.175872 56.9411C 0.925992 58.9814 2.56033 59.8896 4.34988 59.9918C 6.10822 60.0922 8.02587 59.4233 9.50468 58.3378C 10.9774 57.2566 12.1092 55.688 12.1215 53.9292C 12.134 52.1373 10.9874 50.3534 8.34761 48.861L 7.85547 49.7315C 10.321 51.1254 11.1305 52.6312 11.1215 53.9222C 11.1123 55.2463 10.2451 56.5537 8.91292 57.5316C 7.58681 58.5051 5.89364 59.0783 4.40688 58.9934C 2.95133 58.9103 1.70632 58.2059 1.11445 56.5961L 0.175872 56.9411Z"/>
</defs>
</svg>
