<svg width="161" height="160" viewBox="0 0 161 160" version="1.1" xmlns="http://www.w3.org/2000/svg" xmlns:xlink="http://www.w3.org/1999/xlink">
<title>book-open</title>
<desc>Created using Figma</desc>
<g id="Canvas" transform="translate(-4040 -707)">
<g id="book-open">
<g id="Vector 71">
<use xlink:href="#path0_fill" transform="translate(4045.5 748.745)" fill="#FFFFFF"/>
<use xlink:href="#path1_stroke" transform="translate(4045.5 748.745)"/>
</g>
<g id="Vector 74">
<use xlink:href="#path2_fill" transform="translate(4094.46 780.996)" fill="#FFFFFF"/>
</g>
<g id="Vector">
<use xlink:href="#path3_stroke" transform="translate(4093.88 780.153)"/>
</g>
<g id="Vector 73">
<use xlink:href="#path4_stroke" transform="translate(4047 816.5)"/>
</g>
<g id="letters">
<g id="Vector 75">
<use xlink:href="#path5_stroke" transform="translate(4140 764.5)"/>
</g>
<g id="Vector 76">
<use xlink:href="#path6_stroke" transform="translate(4133 779.5)"/>
</g>
<g id="Vector 77">
<use xlink:href="#path7_stroke" transform="translate(4125 791)"/>
</g>
<g id="Vector 78">
<use xlink:href="#path8_stroke" transform="translate(4118.5 801)"/>
</g>
<g id="Vector 79">
<use xlink:href="#path9_stroke" transform="translate(4089 764.5)"/>
</g>
<g id="Vector 80">
<use xlink:href="#path10_stroke" transform="translate(4082.5 774)"/>
</g>
<g id="Vector 81">
<use xlink:href="#path11_stroke" transform="translate(4077.5 783.5)"/>
</g>
<g id="Vector 82">
<use xlink:href="#path12_stroke" transform="translate(4070.5 792.5)"/>
</g>
</g>
</g>
</g>
<defs>
<path id="path0_fill" d="M 97.4049 0L 153.347 28.5L 146.214 38.8252L 153.347 42.4592L 104.326 112.255L 48.9604 78.5204C 47.8069 78.3265 40 74.5817 40 72.2551L 0 72.2551L 4.58857 65.1428L 1.5 65.1428L 40 8.25513L 97.4049 0Z"/>
<path id="path1_stroke" d="M 97.4049 0L 97.8588 -0.891031L 97.5763 -1.03494L 97.2625 -0.989818L 97.4049 0ZM 153.347 28.5L 154.169 29.0684L 154.819 28.1279L 153.801 27.609L 153.347 28.5ZM 153.347 42.4592L 154.165 43.0339L 154.827 42.0911L 153.801 41.5681L 153.347 42.4592ZM 104.326 112.255L 103.805 113.109L 104.605 113.597L 105.144 112.83L 104.326 112.255ZM 104.326 99.4592L 103.799 100.309L 104.607 100.81L 105.148 100.028L 104.326 99.4592ZM 55.8119 69.3895L 55.2851 70.2395L 55.2851 70.2395L 55.8119 69.3895ZM 146.214 38.8252L 145.391 38.2568L 145.391 38.2568L 146.214 38.8252ZM 0 72.2551L -0.840297 71.713L -1.83522 73.2551L 0 73.2551L 0 72.2551ZM 1.5 65.1428L 0.671832 64.5824L -0.384257 66.1428L 1.5 66.1428L 1.5 65.1428ZM 40 8.25513L 39.8577 7.26531L 39.4198 7.32828L 39.1718 7.69465L 40 8.25513ZM 49.7628 65.7396L 98.2073 0.596742L 96.6024 -0.596742L 48.158 64.5461L 49.7628 65.7396ZM 96.9509 0.891031L 152.893 29.391L 153.801 27.609L 97.8588 -0.891031L 96.9509 0.891031ZM 152.528 41.8844L 103.507 111.68L 105.144 112.83L 154.165 43.0339L 152.528 41.8844ZM 104.846 111.401L 49.4807 77.6664L 48.4401 79.3744L 103.805 113.109L 104.846 111.401ZM 49.1262 77.5342C 49.1997 77.5439 48.9018 77.4738 48.6055 77.3585C 48.2981 77.2395 47.9282 77.0809 47.4945 76.8796C 46.6193 76.4739 45.5813 75.939 44.5603 75.3289C 43.5386 74.7195 42.6078 74.085 41.9103 73.4481C 41.5686 73.1391 41.3413 72.894 41.1712 72.6318C 41.0117 72.3913 41 72.2723 41 72.2551L 39 72.2551C 39 72.8196 39.2322 73.3266 39.5042 73.7369C 39.7656 74.1256 40.1572 74.5562 40.5654 74.9285C 41.3678 75.6542 42.4608 76.4043 43.5351 77.0461C 44.6099 77.6873 45.74 78.2703 46.653 78.694C 47.1134 78.9074 47.5427 79.0914 47.8829 79.2234C 48.2064 79.3487 48.5395 79.4637 48.7947 79.5066L 49.1262 77.5342ZM 49.9604 78.5204L 49.9604 65.1428L 47.9604 65.1428L 47.9604 78.5204L 49.9604 78.5204ZM 104.852 98.6092L 56.3387 68.5396L 55.2851 70.2395L 103.799 100.309L 104.852 98.6092ZM 56.3387 68.5396L 49.4872 64.2929L 48.4336 65.9928L 55.2851 70.2395L 56.3387 68.5396ZM 145.76 39.7162L 152.893 43.3502L 153.801 41.5681L 146.668 37.9342L 145.76 39.7162ZM 152.524 27.9316L 145.391 38.2568L 147.036 39.3936L 154.169 29.0684L 152.524 27.9316ZM 145.391 38.2568L 103.503 98.8908L 105.148 100.028L 147.036 39.3936L 145.391 38.2568ZM 40 71.2551L 0 71.2551L 0 73.2551L 40 73.2551L 40 71.2551ZM 2.32817 65.7033L 40.8282 8.81561L 39.1718 7.69465L 0.671832 64.5824L 2.32817 65.7033ZM 40.1423 9.24494L 97.5472 0.989818L 97.2625 -0.989818L 39.8577 7.26531L 40.1423 9.24494ZM 48.9604 64.1428L 4.58857 64.1428L 4.58857 66.1428L 48.9604 66.1428L 48.9604 64.1428ZM 4.58857 64.1428L 1.5 64.1428L 1.5 66.1428L 4.58857 66.1428L 4.58857 64.1428ZM 0.840297 72.7973L 5.42887 65.685L 3.74827 64.6007L -0.840297 71.713L 0.840297 72.7973ZM 40.6217 73.0384L 49.5821 65.9261L 48.3387 64.3596L 39.3783 71.4719L 40.6217 73.0384Z"/>
<path id="path2_fill" d="M 0 45.6875L 0 34.0549L 55.9418 69.2079C 72.2822 45.1671 104.502 -3.10024 102.656 0.156906C 100.811 3.41405 103.425 7.88139 104.963 10.2079L 54.7884 80.0038L 0 45.6875Z"/>
<path id="path3_stroke" d="M 55.9418 75.0306L 55.6836 75.4588L 56.081 75.6984L 56.3496 75.3199L 55.9418 75.0306ZM 55.9418 71.5408L 55.6804 71.967L 56.079 72.2115L 56.3496 71.8301L 55.9418 71.5408ZM 56.5185 77.3571L 56.2623 77.7865L 56.6561 78.0216L 56.9242 77.6494L 56.5185 77.3571ZM 56.3496 75.3199L 104.217 7.85054L 103.402 7.27191L 55.534 74.7413L 56.3496 75.3199ZM 56.2 74.6024L 0.258202 40.8677L -0.258202 41.7241L 55.6836 75.4588L 56.2 74.6024ZM -0.261444 37.6507L 55.6804 71.967L 56.2032 71.1146L 0.261444 36.7983L -0.261444 37.6507ZM 56.3496 71.8301L 104.029 4.62586L 103.214 4.04722L 55.534 71.2515L 56.3496 71.8301ZM 104.029 4.62586L 104.217 4.36075L 103.402 3.78211L 103.214 4.04722L 104.029 4.62586ZM 103.311 -0.0411747C 103.229 0.954741 103.044 2.57531 103.122 4.3589L 104.121 4.31418C 104.043 2.61033 104.224 1.0532 104.308 0.0411747L 103.311 -0.0411747ZM 103.122 4.3589C 103.227 6.70366 103.796 9.42102 105.761 11.4031L 106.471 10.699C 104.765 8.97785 104.222 6.56355 104.121 4.31418L 103.122 4.3589ZM -0.256262 44.0518L 56.2623 77.7865L 56.7748 76.9278L 0.256262 43.1931L -0.256262 44.0518ZM 56.9242 77.6494L 105.945 9.59837L 105.134 9.01387L 56.1128 77.0649L 56.9242 77.6494Z"/>
<path id="path4_stroke" d="M 43.5 -0.5L 1 -0.5L 1 0.5L 43.5 0.5L 43.5 -0.5ZM 42.5 1.5L 0 1.5L 0 2.5L 42.5 2.5L 42.5 1.5Z"/>
<path id="path5_stroke" d="M 6 0L 6.47789 -0.147043L 6.2688 -0.826597L 5.7 -0.4L 6 0ZM 8 6.5L 7.52211 6.64704L 7.71934 7.28803L 8.27735 6.91603L 8 6.5ZM 11 4.5L 11.5 4.5L 11.5 3.56574L 10.7226 4.08397L 11 4.5ZM 11 9L 10.5 9L 10.5 9.5L 11 9.5L 11 9ZM 16.5 9L 17 9L 17 8.5L 16.5 8.5L 16.5 9ZM 16.5 13.5L 16 13.5L 16 14L 16.5 14L 16.5 13.5ZM 25 13.5L 25.4472 13.2764L 25.309 13L 25 13L 25 13.5ZM 27 17.5L 26.5528 17.7236L 26.691 18L 27 18L 27 17.5ZM 31.5 17.5L 32 17.5L 32 17L 31.5 17L 31.5 17.5ZM 31.5 20L 31 20L 31 20.809L 31.7236 20.4472L 31.5 20ZM 0.3 4.9L 6.3 0.4L 5.7 -0.4L -0.3 4.1L 0.3 4.9ZM 5.52211 0.147043L 7.52211 6.64704L 8.47789 6.35296L 6.47789 -0.147043L 5.52211 0.147043ZM 8.27735 6.91603L 11.2774 4.91603L 10.7226 4.08397L 7.72265 6.08397L 8.27735 6.91603ZM 10.5 4.5L 10.5 9L 11.5 9L 11.5 4.5L 10.5 4.5ZM 11 9.5L 16.5 9.5L 16.5 8.5L 11 8.5L 11 9.5ZM 16 9L 16 13.5L 17 13.5L 17 9L 16 9ZM 16.5 14L 20.5 14L 20.5 13L 16.5 13L 16.5 14ZM 20.5 14L 25 14L 25 13L 20.5 13L 20.5 14ZM 24.5528 13.7236L 26.5528 17.7236L 27.4472 17.2764L 25.4472 13.2764L 24.5528 13.7236ZM 27 18L 31.5 18L 31.5 17L 27 17L 27 18ZM 31 17.5L 31 20L 32 20L 32 17.5L 31 17.5ZM 31.7236 20.4472L 36.7236 17.9472L 36.2764 17.0528L 31.2764 19.5528L 31.7236 20.4472Z"/>
<path id="path6_stroke" d="M 5 0L 5.5 0L 5.5 -0.5L 5 -0.5L 5 0ZM 5 4.5L 4.5 4.5L 4.5 5L 5 5L 5 4.5ZM 8.5 4.5L 8.89043 4.18765L 8.74031 4L 8.5 4L 8.5 4.5ZM 10.5 7L 10.1096 7.31235L 10.2597 7.5L 10.5 7.5L 10.5 7ZM 17 11L 16.5039 11.062L 16.5816 11.6842L 17.1709 11.4699L 17 11ZM 22.5 9L 23 9L 23 8.28615L 22.3291 8.5301L 22.5 9ZM 22.5 13.5L 22 13.5L 22 14L 22.5 14L 22.5 13.5ZM 30.5 13.5L 31 13.5L 31 13L 30.5 13L 30.5 13.5ZM 30.5 17.5L 30 17.5L 30 18.2138L 30.6709 17.9699L 30.5 17.5ZM 0 0.5L 5 0.5L 5 -0.5L 0 -0.5L 0 0.5ZM 4.5 0L 4.5 4.5L 5.5 4.5L 5.5 0L 4.5 0ZM 5 5L 8.5 5L 8.5 4L 5 4L 5 5ZM 8.10957 4.81235L 10.1096 7.31235L 10.8904 6.68765L 8.89043 4.18765L 8.10957 4.81235ZM 10.5 7.5C 10.8333 7.5 12 7.5 14 7.5L 14 6.5C 12 6.5 10.8333 6.5 10.5 6.5L 10.5 7.5ZM 14 7.5C 14.7397 7.5 15.3143 7.98451 15.754 8.74924C 16.203 9.52037 16.4252 10.4251 16.5039 11.062L 17.4961 10.938C 17.4082 10.2415 17.1304 9.14629 16.621 8.25076C 16.1023 7.34882 15.2603 6.5 14 6.5L 14 7.5ZM 17.1709 11.4699L 22.6709 9.4699L 22.3291 8.5301L 16.8291 10.5301L 17.1709 11.4699ZM 22 9L 22 13.5L 23 13.5L 23 9L 22 9ZM 22.5 14L 30.5 14L 30.5 13L 22.5 13L 22.5 14ZM 30 13.5L 30 17.5L 31 17.5L 31 13.5L 30 13.5ZM 30.6709 17.9699L 36.1709 15.9699L 35.8291 15.0301L 30.3291 17.0301L 30.6709 17.9699Z"/>
<path id="path7_stroke" d="M 8 0L 8.5 0L 8.5 -0.5L 8 -0.5L 8 0ZM 8 3.5L 7.5 3.5L 7.5 4L 8 4L 8 3.5ZM 13 3.5L 13.5 3.5L 13.5 3L 13 3L 13 3.5ZM 13 7.5L 12.5 7.5L 12.5 8L 13 8L 13 7.5ZM 21 7.5L 21.5 7.5L 21.5 7L 21 7L 21 7.5ZM 21 11.5L 20.5 11.5L 20.5 12L 21 12L 21 11.5ZM 24 11.5L 24.5 11.5L 24.5 11L 24 11L 24 11.5ZM 24 15L 23.5 15L 23.5 15.5L 24 15.5L 24 15ZM 29 15L 29.5 15L 29.5 14.5L 29 14.5L 29 15ZM 29 18L 28.5 18L 28.5 18.809L 29.2236 18.4472L 29 18ZM 0 0.5L 8 0.5L 8 -0.5L 0 -0.5L 0 0.5ZM 7.5 0L 7.5 3.5L 8.5 3.5L 8.5 0L 7.5 0ZM 8 4L 13 4L 13 3L 8 3L 8 4ZM 12.5 3.5L 12.5 7.5L 13.5 7.5L 13.5 3.5L 12.5 3.5ZM 13 8L 21 8L 21 7L 13 7L 13 8ZM 20.5 7.5L 20.5 11.5L 21.5 11.5L 21.5 7.5L 20.5 7.5ZM 21 12L 24 12L 24 11L 21 11L 21 12ZM 23.5 11.5L 23.5 15L 24.5 15L 24.5 11.5L 23.5 11.5ZM 24 15.5L 29 15.5L 29 14.5L 24 14.5L 24 15.5ZM 28.5 15L 28.5 18L 29.5 18L 29.5 15L 28.5 15ZM 29.2236 18.4472L 35.2236 15.4472L 34.7764 14.5528L 28.7764 17.5528L 29.2236 18.4472Z"/>
<path id="path8_stroke" d="M 7.5 0L 8 0L 8 -0.693713L 7.34189 -0.474342L 7.5 0ZM 7.5 6.5L 7 6.5L 7 7L 7.5 7L 7.5 6.5ZM 11.5 6.5L 12 6.5L 12 6L 11.5 6L 11.5 6.5ZM 11.5 10L 11 10L 11 11.1019L 11.8293 10.3763L 11.5 10ZM 15.5 6.5L 16 6.5L 16 5.39812L 15.1707 6.12371L 15.5 6.5ZM 15.5 13L 15 13L 15 13.5L 15.5 13.5L 15.5 13ZM 23 13L 23.5 13L 23.5 12.5L 23 12.5L 23 13ZM 23 17.5L 22.5 17.5L 22.5 18L 23 18L 23 17.5ZM 27.5 17.5L 27.9472 17.7236L 28.309 17L 27.5 17L 27.5 17.5ZM 0.158114 2.97434L 7.65811 0.474342L 7.34189 -0.474342L -0.158114 2.02566L 0.158114 2.97434ZM 7 0L 7 6.5L 8 6.5L 8 0L 7 0ZM 7.5 7L 11.5 7L 11.5 6L 7.5 6L 7.5 7ZM 11 6.5L 11 10L 12 10L 12 6.5L 11 6.5ZM 11.8293 10.3763L 15.8293 6.87629L 15.1707 6.12371L 11.1707 9.62371L 11.8293 10.3763ZM 15 6.5L 15 13L 16 13L 16 6.5L 15 6.5ZM 15.5 13.5L 23 13.5L 23 12.5L 15.5 12.5L 15.5 13.5ZM 22.5 13L 22.5 17.5L 23.5 17.5L 23.5 13L 22.5 13ZM 23 18L 27.5 18L 27.5 17L 23 17L 23 18ZM 27.0528 17.2764C 26.6333 18.1154 26.1046 19.3449 25.9453 20.2371C 25.9051 20.4655 25.8867 20.7159 25.9038 20.9085C 25.924 21.113 25.992 21.3758 26.2063 21.5669C 26.4381 21.7737 26.7291 21.8002 26.9809 21.7545C 27.2242 21.7103 27.4846 21.5923 27.7572 21.4287L 27.2428 20.5713C 27.0154 20.7077 26.8748 20.7574 26.8023 20.7705C 26.7384 20.7821 26.7989 20.7555 26.8719 20.8206C 26.9273 20.87 26.9081 20.9026 26.899 20.8103C 26.8867 20.706 26.897 20.5928 26.9297 20.4129C 27.0621 19.6717 27.5334 18.5512 27.9472 17.7236L 27.0528 17.2764ZM 27.7572 21.4287C 29.7654 20.2237 32.2754 18.584 33.2774 17.916L 32.7226 17.084C 31.7246 17.7494 29.2346 19.3763 27.2428 20.5713L 27.7572 21.4287Z"/>
<path id="path9_stroke" d="M 3.5 0L 4 0L 4 -0.86159L 3.25193 -0.434122L 3.5 0ZM 3.5 4.5L 3 4.5L 3 5.22801L 3.67949 4.96667L 3.5 4.5ZM 10 2L 10.3536 1.64645L 10.1238 1.41668L 9.82051 1.53333L 10 2ZM 12.5 4.5L 12.1464 4.85355L 12.4819 5.18899L 12.8345 4.87165L 12.5 4.5ZM 17.5 0L 17.7481 -0.434122L 17.4342 -0.61347L 17.1655 -0.371647L 17.5 0ZM 21 2L 20.7519 2.43412L 20.9717 2.55972L 21.2031 2.45691L 21 2ZM 25.5 0L 25.5 -0.5L 25.3939 -0.5L 25.2969 -0.456906L 25.5 0ZM 0.248069 2.43412L 3.74807 0.434122L 3.25193 -0.434122L -0.248069 1.56588L 0.248069 2.43412ZM 3 0L 3 4.5L 4 4.5L 4 0L 3 0ZM 3.67949 4.96667L 10.1795 2.46667L 9.82051 1.53333L 3.32051 4.03333L 3.67949 4.96667ZM 9.64645 2.35355L 12.1464 4.85355L 12.8536 4.14645L 10.3536 1.64645L 9.64645 2.35355ZM 12.8345 4.87165L 17.8345 0.371647L 17.1655 -0.371647L 12.1655 4.12835L 12.8345 4.87165ZM 17.2519 0.434122L 20.7519 2.43412L 21.2481 1.56588L 17.7481 -0.434122L 17.2519 0.434122ZM 21.2031 2.45691L 25.7031 0.456906L 25.2969 -0.456906L 20.7969 1.54309L 21.2031 2.45691ZM 25.5 0.5L 30 0.5L 30 -0.5L 25.5 -0.5L 25.5 0.5ZM 30 0.5L 33.5 0.5L 33.5 -0.5L 30 -0.5L 30 0.5Z"/>
<path id="path10_stroke" d="M 4.5 0L 5 0L 5 -1.02232L 4.19303 -0.394676L 4.5 0ZM 4.5 3.5L 4 3.5L 4 4.60188L 4.82925 3.87629L 4.5 3.5ZM 8.5 0L 8.90687 -0.290619L 8.58609 -0.73971L 8.17075 -0.376288L 8.5 0ZM 11 3.5L 10.5931 3.79062L 10.7427 4L 11 4L 11 3.5ZM 17 3.5L 17 4L 17.3904 4L 17.4851 3.62127L 17 3.5ZM 22 0L 22.4389 -0.239426L 21.8443 -1.32954L 21.5176 -0.131559L 22 0ZM 25 5.5L 24.5611 5.73943L 24.9669 6.4834L 25.4218 5.76844L 25 5.5ZM 28.5 0L 29 0L 29 -1.71703L 28.0782 -0.268438L 28.5 0ZM 0.30697 3.89468L 4.80697 0.394676L 4.19303 -0.394676L -0.30697 3.10532L 0.30697 3.89468ZM 4 0L 4 3.5L 5 3.5L 5 0L 4 0ZM 4.82925 3.87629L 8.82925 0.376288L 8.17075 -0.376288L 4.17075 3.12371L 4.82925 3.87629ZM 8.09313 0.290619L 10.5931 3.79062L 11.4069 3.20938L 8.90687 -0.290619L 8.09313 0.290619ZM 11 4L 17 4L 17 3L 11 3L 11 4ZM 17.4851 3.62127C 17.5183 3.48436 17.5577 3.37757 17.6333 3.26624C 17.7001 3.16342 17.755 3.12996 17.7795 3.12127C 17.7852 3.11927 17.8333 3.09751 17.9635 3.16921C 18.1075 3.24854 18.3217 3.42887 18.6 3.8L 19.4 3.2C 18.7872 2.38291 18.1201 1.93962 17.4455 2.17873C 17.1408 2.28671 16.9311 2.51158 16.7948 2.72126C 16.6673 2.92243 16.565 3.18231 16.5149 3.37873L 17.4851 3.62127ZM 18.6 3.8C 18.7845 4.04603 19.004 4.24371 19.2681 4.34876C 19.5159 4.43653 19.8489 4.43207 20.0775 4.35514C 20.5409 4.18447 20.9068 3.74262 21.1845 3.30567C 21.7496 2.41036 22.2273 1.06575 22.4824 0.131559L 21.5176 -0.131559C 21.2727 0.767583 20.8504 1.97297 20.3405 2.76933C 20.0807 3.17822 19.8653 3.36761 19.7319 3.41674C 19.662 3.4497 19.6927 3.45227 19.6378 3.4196C 19.5991 3.40421 19.5155 3.35397 19.4 3.2L 18.6 3.8ZM 21.5611 0.239426L 24.5611 5.73943L 25.4389 5.26057L 22.4389 -0.239426L 21.5611 0.239426ZM 25.4218 5.76844L 28.9218 0.268438L 28.0782 -0.268438L 24.5782 5.23156L 25.4218 5.76844ZM 28 0L 28 3.5L 29 3.5L 29 0L 28 0Z"/>
<path id="path11_stroke" d="M 6 0L 6.5 0L 6.5 -0.75L 5.80769 -0.461538L 6 0ZM 6 2.5L 5.5 2.5L 5.5 3.2765L 6.2069 2.95518L 6 2.5ZM 11.5 0L 11.9682 -0.175562L 11.7803 -0.676623L 11.2931 -0.455183L 11.5 0ZM 13 4L 12.5318 4.17556L 12.7876 4.85773L 13.3322 4.3737L 13 4ZM 17.5 0L 17.8536 -0.353553L 17.5202 -0.686921L 17.1678 -0.373705L 17.5 0ZM 20 2.5L 19.6464 2.85355L 19.7929 3L 20 3L 20 2.5ZM 24 2.5L 24.1581 2.02566L 24.0811 2L 24 2L 24 2.5ZM 0.192308 2.96154L 6.19231 0.461538L 5.80769 -0.461538L -0.192308 2.03846L 0.192308 2.96154ZM 5.5 0L 5.5 2.5L 6.5 2.5L 6.5 0L 5.5 0ZM 6.2069 2.95518L 11.7069 0.455183L 11.2931 -0.455183L 5.7931 2.04482L 6.2069 2.95518ZM 11.0318 0.175562L 12.5318 4.17556L 13.4682 3.82444L 11.9682 -0.175562L 11.0318 0.175562ZM 13.3322 4.3737L 17.8322 0.373705L 17.1678 -0.373705L 12.6678 3.6263L 13.3322 4.3737ZM 17.1464 0.353553L 19.6464 2.85355L 20.3536 2.14645L 17.8536 -0.353553L 17.1464 0.353553ZM 20 3L 24 3L 24 2L 20 2L 20 3ZM 23.8419 2.97434L 25.3419 3.47434L 25.6581 2.52566L 24.1581 2.02566L 23.8419 2.97434Z"/>
<path id="path12_stroke" d="M 5 0L 5.5 0L 5.5 -0.960328L 4.71327 -0.409616L 5 0ZM 5 3.5L 4.5 3.5L 4.5 4.46033L 5.28673 3.90962L 5 3.5ZM 10 0L 10.4069 -0.290619L 10.119 -0.693629L 9.71327 -0.409616L 10 0ZM 12.5 3.5L 12.0931 3.79062L 12.4362 4.27091L 12.8536 3.85355L 12.5 3.5ZM 16 0L 16.4341 -0.248069L 16.1093 -0.816443L 15.6464 -0.353553L 16 0ZM 18 3.5L 17.5659 3.74807L 17.7098 4L 18 4L 18 3.5ZM 21 3.5L 21.3201 3.11589L 21.181 3L 21 3L 21 3.5ZM 24 6L 23.6799 6.38411L 24.1953 6.8136L 24.4596 6.19696L 24 6ZM 0.286731 3.90962L 5.28673 0.409616L 4.71327 -0.409616L -0.286731 3.09038L 0.286731 3.90962ZM 4.5 0L 4.5 3.5L 5.5 3.5L 5.5 0L 4.5 0ZM 5.28673 3.90962L 10.2867 0.409616L 9.71327 -0.409616L 4.71327 3.09038L 5.28673 3.90962ZM 9.59313 0.290619L 12.0931 3.79062L 12.9069 3.20938L 10.4069 -0.290619L 9.59313 0.290619ZM 12.8536 3.85355L 16.3536 0.353553L 15.6464 -0.353553L 12.1464 3.14645L 12.8536 3.85355ZM 15.5659 0.248069L 17.5659 3.74807L 18.4341 3.25193L 16.4341 -0.248069L 15.5659 0.248069ZM 18 4L 21 4L 21 3L 18 3L 18 4ZM 20.6799 3.88411L 23.6799 6.38411L 24.3201 5.61589L 21.3201 3.11589L 20.6799 3.88411ZM 24.4596 6.19696L 25.9596 2.69696L 25.0404 2.30304L 23.5404 5.80304L 24.4596 6.19696Z"/>
</defs>
</svg>
