<svg xmlns="http://www.w3.org/2000/svg" viewBox="0 0 561.68 366.82"><defs><style>.cls-1{fill:#fff;}.cls-2{fill:none;}</style></defs><title>capture-text</title><g id="capture-page"><path class="cls-1" d="M404.5,208.5c2,48.45,2,97,1.59,145.45-.23,24.47-.59,48.93-.89,73.4-.27,22.25-3.44,46.62,1.34,68.28l1.24,5.64,4.63-6a9.08,9.08,0,0,0,.85,4.22l5.23-4.29,3.56,6.87a17.72,17.72,0,0,1,8.24-5.49L439.18,520c11.64-14.41,30.51-21.12,48.9-23.29s37-.49,55.51-1.54a188,188,0,0,0,39-6.39l-.36,3.17a284.68,284.68,0,0,0,6.24,80.42l5.71-7.83c3.63,6.91,15.09,7.52,19.42,1,6.76,8.07,26.08,4,35.19,3.93q23.26-.09,46.46-2.18A263.1,263.1,0,0,0,700.81,481c.15,1.48,16.71-7,17.95-6.85,12.52,1,12.3,10.38,18.08,20.88,3.24-10.17-1.38-18.91,9.81-20.68,9.77-1.54,21,8,31,7.9,13.58-.09,27.16-.25,40.75-.37,18.86-.17,28.31-7.37,46.15-1.56a372.44,372.44,0,0,0,55.4,13.44c-.32-.05,11.45-17.27,13.6-18.73,7.17-4.88,20.6,10.93,29.33,10.27C959.5,393.5,961.5,300.5,958.5,208.5" transform="translate(-402.65 -207.05)"/><path d="M403,208.5c1.62,39.16,2,78.36,1.79,117.56-.17,38.78.14,77.75-1.58,116.49-.89,20.09-1.22,39.39,3.13,59.12a1.51,1.51,0,0,0,2.51.66l4.63-6-2.56-1.06a13.81,13.81,0,0,0,.9,4.62,1.53,1.53,0,0,0,2.51.66l5.23-4.29-2.36-.3,3.56,6.87a1.51,1.51,0,0,0,2.36.3,18.22,18.22,0,0,1,7.58-5.1l-1.85-1,8.88,23.44c.36,1,1.72,1.61,2.51.66,15.9-19.07,41.5-23.41,65-24,13.09-.3,26.19.32,39.27-.5A194.52,194.52,0,0,0,583,490.27l-1.9-1.45c-3.13,27.75,0,56.83,5.93,84,.3,1.38,2,1.32,2.74.36l5.71-7.83H592.9c4.79,7.94,16.49,8.32,22,1l-2.36.3c7.37,7.93,21.23,5.4,30.76,4.67,17.28-1.33,34.65-.95,52-2.47a1.55,1.55,0,0,0,1.45-1.1,269.37,269.37,0,0,0,5.6-86.73l-2.8.76c2.14,3.36,13.89-3.86,16.31-4.91,11.94-5.18,15.68,11.33,19.72,18.94a1.52,1.52,0,0,0,2.74-.36c1.46-5.05,0-15,4.59-18.25,6.38-4.49,16.13,1,22.23,3.44,7.54,3,14.1,3.13,22.19,3.07q14.55-.12,29.1-.28c15.4-.19,30.77-6.43,46-2.16,19,5.34,37.58,10.73,57.1,14a1.53,1.53,0,0,0,1.9-1.45c-.1,1.09.14.07.45-.4q.72-1.12,1.46-2.23c1.23-1.83,2.49-3.65,3.76-5.45,2-2.83,4.57-8.09,7.75-9.65,4.51-2.21,11.37,3.48,15,5.7,3.92,2.39,8.23,5.15,13,5.07a1.52,1.52,0,0,0,1.5-1.5c-2.58-71.84-2-143.73-3-215.6q-.43-30.62-1.37-61.24c-.06-1.93-3.06-1.93-3,0,2.32,71.87,1.64,143.79,2.79,215.68q.49,30.58,1.54,61.15l1.5-1.5c-9.14.15-21.39-16.67-30.39-9.84-3.23,2.45-5.66,6.95-8,10.2-1.71,2.43-5.8,6.47-6.08,9.59l1.9-1.45a379.42,379.42,0,0,1-48.14-11.16c-6.65-2-13.08-4.37-20.1-4.57-5.66-.17-11.24.91-16.79,1.92-15.78,2.86-32,2-48,2.18-8.05.07-14.56-.18-22.08-3.24-5.28-2.15-10.8-4.86-16.64-4.74-4.31.09-8.72,1.66-10.52,5.84-2.13,4.94-1.18,10.92-2.67,16.09l2.74-.36c-4.47-8.42-6.44-20.1-17.74-21.44-3-.36-5.43,1.13-8.14,2.34-2.28,1-4.54,2.07-6.85,3a19.88,19.88,0,0,0-2.3.91c-1.28.74-1.85-.18-1,1.15-.73-1.15-2.95-.82-2.8.76A266.78,266.78,0,0,1,693.82,567l1.45-1.1c-16.27,1.43-32.5,1.45-48.78,2.25-9.42.46-24.5,4.3-31.81-3.57a1.52,1.52,0,0,0-2.36.3c-4.2,5.54-13.31,4.81-16.83-1a1.52,1.52,0,0,0-2.59,0l-5.71,7.83,2.74.36c-5.91-26.9-8.93-55.7-5.83-83.19a1.51,1.51,0,0,0-1.9-1.45,191.77,191.77,0,0,1-42.44,6.51c-14,.54-28.11-.24-42.15.55-21.84,1.23-44.92,7.06-59.49,24.54l2.51.66-8.88-23.44a1.52,1.52,0,0,0-1.85-1A21.4,21.4,0,0,0,421,501l2.36.3-3.56-6.87a1.52,1.52,0,0,0-2.36-.3l-5.23,4.29,2.51.66a8.16,8.16,0,0,1-.79-3.82c0-1.16-1.71-2.16-2.56-1.06l-4.63,6,2.51.66c-4-17.95-4-35.5-3.23-53.78.84-18.8.93-37.62,1.17-56.44.49-38.8.91-77.61.49-116.41q-.36-32.88-1.66-65.74c-.08-1.92-3.08-1.93-3,0Z" transform="translate(-402.65 -207.05)"/></g><g id="capture-area"><path class="cls-2" d="M582.6,488.83l-.36,3.17a284.68,284.68,0,0,0,6.24,80.42l5.71-7.83c3.63,6.91,15.09,7.52,19.42,1,6.76,8.07,26.08,4,35.19,3.93q23.26-.09,46.46-2.18A263.1,263.1,0,0,0,700.81,481Z" transform="translate(-402.65 -207.05)"/></g><g id="capture-text"><path d="M527.38,318.34A110.92,110.92,0,0,0,517,329.5c-.7.87-.38,2.74,1.06,2.56l13.37-1.65-1.3-2.26-10.46,13.66c-1.17,1.53,1.43,3,2.59,1.51l10.46-13.66a1.51,1.51,0,0,0-1.3-2.26L518,329.06l1.06,2.56a110.92,110.92,0,0,1,10.41-11.16c1.41-1.32-.71-3.44-2.12-2.12Z" transform="translate(-402.65 -207.05)"/><path d="M686.38,372.34A110.92,110.92,0,0,0,676,383.5c-.7.87-.38,2.74,1.06,2.56l13.37-1.65-1.3-2.26-10.46,13.66c-1.17,1.53,1.43,3,2.59,1.51l10.46-13.66a1.51,1.51,0,0,0-1.3-2.26L677,383.06l1.06,2.56a110.92,110.92,0,0,1,10.41-11.16c1.41-1.32-.71-3.44-2.12-2.12Z" transform="translate(-402.65 -207.05)"/><path d="M588.38,317.07c2.49,8.69,2.62,17.46,2.62,26.43a1.5,1.5,0,0,0,3,0c0-9.22-.18-18.31-2.73-27.23a1.5,1.5,0,0,0-2.89.8Z" transform="translate(-402.65 -207.05)"/><path d="M590.11,317.28c3.88,2.66,9,5.33,12.33,8.66,1.51,1.52,1,1.2-.49,3.24-1,1.36-1.91,2.78-2.91,4.14a84.45,84.45,0,0,1-7.61,9.12c-1.34,1.39.78,3.51,2.12,2.12a91,91,0,0,0,8.57-10.42c1.24-1.73,5.41-5.85,4.65-8.34-.63-2.08-4.36-3.49-6-4.62-3.07-2.17-6.1-4.37-9.2-6.49-1.6-1.09-3.1,1.5-1.51,2.59Z" transform="translate(-402.65 -207.05)"/><path d="M613,316v26a1.5,1.5,0,0,0,3,0V316a1.5,1.5,0,0,0-3,0Z" transform="translate(-402.65 -207.05)"/><path d="M615.8,342.76c3-5,6.1-9.88,8.15-15.36l-2.74.36c2.32,4.89,5.77,9.14,8.9,13.53,1.11,1.56,3.72.06,2.59-1.51-3.13-4.39-6.58-8.64-8.9-13.53-.61-1.28-2.33-.73-2.74.36-2,5.22-5,9.9-7.85,14.64-1,1.65,1.59,3.16,2.59,1.51Z" transform="translate(-402.65 -207.05)"/><path d="M633.57,341.93c-.39-9,0-18-.57-26.93-.12-1.92-3.12-1.93-3,0,.57,9,.18,17.95.57,26.93.08,1.92,3.08,1.93,3,0Z" transform="translate(-402.65 -207.05)"/><path d="M526,371.5c0,8.06.06,16.11.38,24.17.08,1.92,3.08,1.93,3,0-.32-8.06-.38-16.11-.38-24.17a1.5,1.5,0,0,0-3,0Z" transform="translate(-402.65 -207.05)"/><path d="M529.56,396.56q2-2.38,3.91-4.85c1.12-1.45,2.18-3.44,3.63-4.58l-1.46.39c1.27.27,3.23,3.44,4.14,4.53,1.25,1.48,2.45,3,3.66,4.52s3.31-.62,2.12-2.12c-1.47-1.85-2.95-3.69-4.48-5.48-1.16-1.36-2.69-4.12-4.65-4.33-1.79-.19-2.66,1.81-3.58,3-1.76,2.3-3.54,4.58-5.41,6.8-1.24,1.47.88,3.6,2.12,2.12Z" transform="translate(-402.65 -207.05)"/><path d="M546.23,395.93c-.17-8.14-.23-16.28-.23-24.43a1.5,1.5,0,0,0-3,0c0,8.14.05,16.28.23,24.43,0,1.93,3,1.93,3,0Z" transform="translate(-402.65 -207.05)"/><path d="M556.14,371.72q-2.07,4.51-4.14,9c-.65,1.43-1.72,3.17-1.3,4.83.49,1.9,2.8,3.27,4.15,4.4l7.45,6.27c1.47,1.24,3.6-.88,2.12-2.12-2.83-2.38-7.15-4.87-9.32-7.84-2.37-3.23,2.1-9.76,3.61-13,.8-1.74-1.79-3.27-2.59-1.51Z" transform="translate(-402.65 -207.05)"/><path d="M554.93,372.85l13.83,11.41-.23-1.82-7.06,12.28a1.5,1.5,0,0,0,2.59,1.51L571.12,384a1.52,1.52,0,0,0-.23-1.82l-13.83-11.41c-1.48-1.22-3.61.89-2.12,2.12Z" transform="translate(-402.65 -207.05)"/><path d="M599.14,372.72q-2.07,4.51-4.14,9c-.65,1.43-1.72,3.17-1.3,4.83.49,1.9,2.8,3.27,4.15,4.4l7.45,6.27c1.47,1.24,3.6-.88,2.12-2.12-2.83-2.38-7.15-4.87-9.32-7.84-2.37-3.23,2.1-9.76,3.61-13,.8-1.74-1.79-3.27-2.59-1.51Z" transform="translate(-402.65 -207.05)"/><path d="M597.93,373.85l13.83,11.41-.23-1.82-7.06,12.28a1.5,1.5,0,0,0,2.59,1.51L614.12,385a1.52,1.52,0,0,0-.23-1.82l-13.83-11.41c-1.48-1.22-3.61.89-2.12,2.12Z" transform="translate(-402.65 -207.05)"/><path d="M658.14,372.72q-2.07,4.51-4.14,9c-.65,1.43-1.72,3.17-1.3,4.83.49,1.9,2.8,3.27,4.15,4.4l7.45,6.27c1.47,1.24,3.6-.88,2.12-2.12-2.83-2.38-7.15-4.87-9.32-7.84-2.37-3.23,2.1-9.76,3.61-13,.8-1.74-1.79-3.27-2.59-1.51Z" transform="translate(-402.65 -207.05)"/><path d="M656.93,373.85l13.83,11.41-.23-1.82-7.06,12.28a1.5,1.5,0,0,0,2.59,1.51L673.12,385a1.52,1.52,0,0,0-.23-1.82l-13.83-11.41c-1.48-1.22-3.61.89-2.12,2.12Z" transform="translate(-402.65 -207.05)"/><path d="M743.2,371.74c-2.06,3.17-4.78,5.32-7.33,8-1.16,1.22-3,2.79-2.92,4.64,0,2.11,2.47,3.6,3.86,4.83l9.17,8.09c1.44,1.27,3.57-.84,2.12-2.12-2.75-2.43-12.72-8.9-10.64-12.74.9-1.65,3.15-3,4.45-4.32a29.74,29.74,0,0,0,3.88-4.88c1.05-1.62-1.54-3.13-2.59-1.51Z" transform="translate(-402.65 -207.05)"/><path d="M734.94,385.27h13.83a1.5,1.5,0,0,0,0-3H734.94a1.5,1.5,0,0,0,0,3Z" transform="translate(-402.65 -207.05)"/><path d="M754,319v22.5a1.5,1.5,0,0,0,3,0V319a1.5,1.5,0,0,0-3,0Z" transform="translate(-402.65 -207.05)"/><path d="M749.56,324.56c2.55-2.5,5-4.59,6.92-7.65l-2.36.3q3.65,3.68,7.31,7.34a1.5,1.5,0,0,0,2.12-2.12q-3.66-3.66-7.31-7.34a1.52,1.52,0,0,0-2.36.3c-1.81,2.85-4.08,4.71-6.45,7-1.38,1.35.74,3.47,2.12,2.12Z" transform="translate(-402.65 -207.05)"/><path d="M511,373v22.5a1.5,1.5,0,0,0,3,0V373a1.5,1.5,0,0,0-3,0Z" transform="translate(-402.65 -207.05)"/><path d="M506.56,378.56c2.55-2.5,5-4.59,6.92-7.65l-2.36.3q3.65,3.68,7.31,7.34a1.5,1.5,0,0,0,2.12-2.12q-3.66-3.66-7.31-7.34a1.52,1.52,0,0,0-2.36.3c-1.81,2.85-4.08,4.71-6.45,7-1.38,1.35.74,3.47,2.12,2.12Z" transform="translate(-402.65 -207.05)"/><path d="M832.45,319.24l-4.35,11c-.78,2-2.43,4.51-1.77,6.73a5.18,5.18,0,0,0,1.89,2.36c2.84,2.58,6.23,4.76,9.28,7.1,1.53,1.17,3-1.43,1.51-2.59a76.79,76.79,0,0,1-6.19-4.73c-2.17-2-3.3-3.13-2.55-6.24,1-4.32,3.44-8.66,5.07-12.78.71-1.79-2.19-2.57-2.89-.8Z" transform="translate(-402.65 -207.05)"/><path d="M833.19,320.49c1.65,1.72,3.18,3.54,4.79,5.29,2.4,2.6,4.6,3.27,3.45,7.62a76.67,76.67,0,0,1-4.27,11.34c-.79,1.74,1.79,3.27,2.59,1.51,1.12-2.47,2-5,2.85-7.6.84-2.39,2.72-5.22,2.8-7.82.07-2.31-1.22-3.26-2.79-4.68-2.65-2.39-4.85-5.22-7.31-7.79-1.34-1.4-3.46.73-2.12,2.12Z" transform="translate(-402.65 -207.05)"/><path d="M847.16,321.83c1.17,7.61,1,15.35,1.89,23,.22,1.9,3.22,1.92,3,0-.91-7.91-.79-15.9-2-23.78-.29-1.9-3.18-1.09-2.89.8Z" transform="translate(-402.65 -207.05)"/><path d="M847,322.08a28.56,28.56,0,0,0,4,6.91c1.23,1.46,3.53,3.76,5.66,3.47,1.88-.26,2.37-2.23,3-3.73a57.89,57.89,0,0,0,3.12-8.71c.45-1.88-2.44-2.68-2.89-.8a40.74,40.74,0,0,1-1.82,5.55c-.35.89-1.39,4.5-2,4.67-.93.29-3.49-3.21-3.93-3.88a33.65,33.65,0,0,1-2.61-5c-.79-1.76-3.37-.23-2.59,1.51Z" transform="translate(-402.65 -207.05)"/><path d="M859.6,320c1.48,7.88,2.8,15.9,2.9,23.93a1.5,1.5,0,0,0,3,0c-.11-8.29-1.48-16.6-3-24.73-.36-1.9-3.25-1.09-2.89.8Z" transform="translate(-402.65 -207.05)"/><path d="M697.94,315.35a5.38,5.38,0,0,1,.91.15,2.37,2.37,0,0,1,.62.3l-.06-.09q.13.23,0,0l0,.14q0-.25,0,0c.1-.24-.1.05,0,0s.17-.19.34-.26a1.54,1.54,0,0,0-1,1.85,1.51,1.51,0,0,0,1.85,1,2.86,2.86,0,0,0,1.5-4c-.77-1.59-2.61-1.93-4.19-2.1a1.51,1.51,0,0,0-1.5,1.5,1.53,1.53,0,0,0,1.5,1.5Z" transform="translate(-402.65 -207.05)"/><path d="M703.89,315a1.36,1.36,0,0,1,.61,2.52c-1.62,1-.11,3.64,1.51,2.59a4.35,4.35,0,0,0-2.13-8.11c-1.93-.13-1.92,2.87,0,3Z" transform="translate(-402.65 -207.05)"/><path d="M503.94,317.35a5.38,5.38,0,0,1,.91.15,2.37,2.37,0,0,1,.62.3l-.06-.09q.13.23,0,0l0,.14q0-.25,0,0c.1-.24-.1.05,0,0s.17-.19.34-.26a1.54,1.54,0,0,0-1,1.85,1.51,1.51,0,0,0,1.85,1,2.86,2.86,0,0,0,1.5-4c-.77-1.59-2.61-1.93-4.19-2.1a1.51,1.51,0,0,0-1.5,1.5,1.53,1.53,0,0,0,1.5,1.5Z" transform="translate(-402.65 -207.05)"/><path d="M509.89,317a1.36,1.36,0,0,1,.61,2.52c-1.62,1-.11,3.64,1.51,2.59a4.35,4.35,0,0,0-2.13-8.11c-1.93-.13-1.92,2.87,0,3Z" transform="translate(-402.65 -207.05)"/><path d="M719.32,288.27q3.12-11.54,5.12-23.31c.32-1.89-2.57-2.7-2.89-.8q-2,11.78-5.12,23.31a1.5,1.5,0,0,0,2.89.8Z" transform="translate(-402.65 -207.05)"/><path d="M721.6,265.25a226.19,226.19,0,0,1,11.07,22.51c.78,1.76,3.36.24,2.59-1.51a226.19,226.19,0,0,0-11.07-22.51,1.5,1.5,0,0,0-2.59,1.51Z" transform="translate(-402.65 -207.05)"/><path d="M720.34,274.74a136.51,136.51,0,0,1,7.33,13.59c.82,1.75,3.41.23,2.59-1.51a136.51,136.51,0,0,0-7.33-13.59c-1-1.64-3.61-.14-2.59,1.51Z" transform="translate(-402.65 -207.05)"/><path d="M539.32,342.27q3.12-11.54,5.12-23.31c.32-1.89-2.57-2.7-2.89-.8q-2,11.78-5.12,23.31a1.5,1.5,0,0,0,2.89.8Z" transform="translate(-402.65 -207.05)"/><path d="M541.6,319.25a226.19,226.19,0,0,1,11.07,22.51c.78,1.76,3.36.24,2.59-1.51a226.19,226.19,0,0,0-11.07-22.51,1.5,1.5,0,0,0-2.59,1.51Z" transform="translate(-402.65 -207.05)"/><path d="M540.34,328.74a136.51,136.51,0,0,1,7.33,13.59c.82,1.75,3.41.23,2.59-1.51a136.51,136.51,0,0,0-7.33-13.59c-1-1.64-3.61-.14-2.59,1.51Z" transform="translate(-402.65 -207.05)"/><path d="M564,341c0-7-.09-14-.1-20.94l-2.56,1.06c4.6,5.93,7.46,13.78,10.82,20.46.87,1.73,3.46.21,2.59-1.51-3.51-7-6.48-14.87-11.28-21.06-.83-1.07-2.56-.13-2.56,1.06,0,7,.09,14,.1,20.94a1.5,1.5,0,0,0,3,0Z" transform="translate(-402.65 -207.05)"/><path d="M566.9,320.25c4.22,6.76,7.53,14,11.3,21a1.51,1.51,0,0,0,2.8-.76c.1-7.34.39-14.66,0-22-.1-1.92-3.1-1.93-3,0,.39,7.34.1,14.66,0,22l2.8-.76c-3.78-7-7.09-14.25-11.3-21-1-1.63-3.62-.13-2.59,1.51Z" transform="translate(-402.65 -207.05)"/><path d="M677,320v21a1.5,1.5,0,0,0,3,0V320a1.5,1.5,0,0,0-3,0Z" transform="translate(-402.65 -207.05)"/><path d="M685,319a168.52,168.52,0,0,1,1,22,1.5,1.5,0,0,0,3,0,168.52,168.52,0,0,0-1-22c-.25-1.89-3.25-1.91-3,0Z" transform="translate(-402.65 -207.05)"/><path d="M674.59,328.81q7.64,3.21,15.13,6.74c1.74.82,3.26-1.77,1.51-2.59q-7.85-3.7-15.84-7c-1.78-.75-2.55,2.16-.8,2.89Z" transform="translate(-402.65 -207.05)"/><path d="M665.44,316.44c-3.48,3.68-7.18,7.14-10.92,10.55a1.52,1.52,0,0,0,0,2.12c4.23,4.53,8.05,9.57,12.92,13.45,1.5,1.19,3.63-.92,2.12-2.12-4.87-3.88-8.69-8.92-12.92-13.45v2.12c3.74-3.41,7.44-6.87,10.92-10.55,1.33-1.4-.79-3.53-2.12-2.12Z" transform="translate(-402.65 -207.05)"/><path d="M586.44,262.44c-3.48,3.68-7.18,7.14-10.92,10.55a1.52,1.52,0,0,0,0,2.12c4.23,4.53,8.05,9.57,12.92,13.45,1.5,1.19,3.63-.92,2.12-2.12-4.87-3.88-8.69-8.92-12.92-13.45v2.12c3.74-3.41,7.44-6.87,10.92-10.55,1.33-1.4-.79-3.53-2.12-2.12Z" transform="translate(-402.65 -207.05)"/><path d="M813.44,263.44c-3.48,3.68-7.18,7.14-10.92,10.55a1.52,1.52,0,0,0,0,2.12c4.23,4.53,8.05,9.57,12.92,13.45,1.5,1.19,3.63-.92,2.12-2.12-4.87-3.88-8.69-8.92-12.92-13.45v2.12c3.74-3.41,7.44-6.87,10.92-10.55,1.33-1.4-.79-3.53-2.12-2.12Z" transform="translate(-402.65 -207.05)"/><path d="M598.32,288.27q3.12-11.54,5.12-23.31c.32-1.89-2.57-2.7-2.89-.8q-2,11.78-5.12,23.31a1.5,1.5,0,0,0,2.89.8Z" transform="translate(-402.65 -207.05)"/><path d="M600.6,265.25a226.19,226.19,0,0,1,11.07,22.51c.78,1.76,3.36.24,2.59-1.51a226.19,226.19,0,0,0-11.07-22.51,1.5,1.5,0,0,0-2.59,1.51Z" transform="translate(-402.65 -207.05)"/><path d="M599.34,274.74a136.51,136.51,0,0,1,7.33,13.59c.82,1.75,3.41.23,2.59-1.51a136.51,136.51,0,0,0-7.33-13.59c-1-1.64-3.61-.14-2.59,1.51Z" transform="translate(-402.65 -207.05)"/><path d="M620.71,288.12c.24-7.91-.6-15.7-1.39-23.56-.19-1.9-3.19-1.92-3,0,.8,7.85,1.63,15.65,1.39,23.56-.06,1.93,2.94,1.93,3,0Z" transform="translate(-402.65 -207.05)"/><path d="M616.92,265.19c1.38.5,2.46,1.92,3.47,2.91a35.3,35.3,0,0,1,3.67,3.63c.94,1.27-.06,1.75-1.1,2.76a41,41,0,0,1-3.32,2.87c-1.52,1.19.62,3.3,2.12,2.12,2-1.56,7.49-5.08,6-8.12-1-2-3.72-3.84-5.28-5.39s-2.78-3-4.79-3.69c-1.82-.66-2.6,2.24-.8,2.89Z" transform="translate(-402.65 -207.05)"/><path d="M636,264.5c0,8.07,0,16.13,0,24.2a1.5,1.5,0,0,0,3,0c0-8.07,0-16.13,0-24.2a1.5,1.5,0,0,0-3,0Z" transform="translate(-402.65 -207.05)"/><path d="M632.5,275.77l3.09-5.83,1.43-2.69.71-1.34q.84-1.4.33-.71h-1.51c1.43,1.08,2.64,4,3.58,5.54,1.19,2,2.31,4,3.4,6,.91,1.7,3.5.19,2.59-1.51-1.32-2.46-2.7-4.88-4.17-7.25-1.12-1.79-2.17-4.07-3.88-5.36a1.5,1.5,0,0,0-1.51,0c-1.46.72-2.12,3.14-2.83,4.47l-3.8,7.17c-.9,1.7,1.69,3.22,2.59,1.51Z" transform="translate(-402.65 -207.05)"/><path d="M647,265.31a34.92,34.92,0,0,0,3,14.69c1.5,3.3,3.89,8.62,8.1,8.84,11.1.58,9.93-17.67,9.35-24.19-.17-1.91-3.17-1.93-3,0a60.07,60.07,0,0,1,.36,10.4c-.25,2.91-2.59,13.81-8.07,10.15-2.42-1.61-4.16-6.46-5.05-9A32.42,32.42,0,0,1,650,265.31a1.5,1.5,0,0,0-3,0Z" transform="translate(-402.65 -207.05)"/><path d="M669.49,265.09l.34,23a1.5,1.5,0,0,0,3,0l-.34-23a1.5,1.5,0,0,0-3,0Z" transform="translate(-402.65 -207.05)"/><path d="M670.54,265.59c1.89,1.36,3.84,3.2,5.91,4.26l1.48,1.07q2.38-.52-.07,1c-1.93,2.32-5,3.6-6.7,6.16a1.51,1.51,0,0,0,0,1.51c1.91,3.63,6.43,6.74,9.58,9.24,1.5,1.19,3.63-.92,2.12-2.12s-3.2-2.59-4.71-4c-.55-.51-3.22-2.41-3.3-3.26-.27-2.87,5.62-4.64,6.78-7a2.15,2.15,0,0,0-.21-2.61c-.67-1.07-2.46-1.87-3.45-2.59L672,263c-1.57-1.13-3.07,1.47-1.51,2.59Z" transform="translate(-402.65 -207.05)"/><path d="M691.78,263.88a56.77,56.77,0,0,0-4.56,6.54c-1,1.74-3.16,4.75-3.12,6.88.07,4.68,7,8.31,9.43,11.55,1.15,1.52,3.75,0,2.59-1.51-2.22-2.94-6.83-5.23-8.2-8.64-1.56-3.87,3.79-9.91,6-12.7,1.18-1.5-.92-3.64-2.12-2.12Z" transform="translate(-402.65 -207.05)"/><path d="M686.65,278.31h7.5a1.5,1.5,0,0,0,0-3h-7.5a1.5,1.5,0,0,0,0,3Z" transform="translate(-402.65 -207.05)"/><path d="M793.78,263.88a56.77,56.77,0,0,0-4.56,6.54c-1,1.74-3.16,4.75-3.12,6.88.07,4.68,7,8.31,9.43,11.55,1.15,1.52,3.75,0,2.59-1.51-2.22-2.94-6.83-5.23-8.2-8.64-1.56-3.87,3.79-9.91,6-12.7,1.18-1.5-.92-3.64-2.12-2.12Z" transform="translate(-402.65 -207.05)"/><path d="M788.65,278.31h7.5a1.5,1.5,0,0,0,0-3h-7.5a1.5,1.5,0,0,0,0,3Z" transform="translate(-402.65 -207.05)"/><path d="M826.78,264.88a56.77,56.77,0,0,0-4.56,6.54c-1,1.74-3.16,4.75-3.12,6.88.07,4.68,7,8.31,9.43,11.55,1.15,1.52,3.75,0,2.59-1.51-2.22-2.94-6.83-5.23-8.2-8.64-1.56-3.87,3.79-9.91,6-12.7,1.18-1.5-.92-3.64-2.12-2.12Z" transform="translate(-402.65 -207.05)"/><path d="M821.65,279.31h7.5a1.5,1.5,0,0,0,0-3h-7.5a1.5,1.5,0,0,0,0,3Z" transform="translate(-402.65 -207.05)"/><path d="M533,267.56q0,10.22,0,20.44a1.5,1.5,0,0,0,3,0q0-10.22,0-20.44a1.5,1.5,0,0,0-3,0Z" transform="translate(-402.65 -207.05)"/><path d="M529.28,276.49c1.94-2.2,3.16-4.85,4.86-7.22q.67-.93,0,.06l.57.64a21.91,21.91,0,0,0,1.81,2.26c.94,1.21,1.9,2.39,3,3.5,1.33,1.4,3.45-.72,2.12-2.12-1.53-1.61-2.81-3.41-4.22-5.12-.89-1.08-2-2.81-3.57-2.58-1.44.2-2.28,1.85-3,3a43.38,43.38,0,0,1-3.64,5.52c-1.27,1.44.84,3.57,2.12,2.12Z" transform="translate(-402.65 -207.05)"/><path d="M777.5,289l.31-17.69c0-1.93-3-1.93-3,0L774.5,289c0,1.93,3,1.93,3,0Z" transform="translate(-402.65 -207.05)"/><path d="M772.67,269.34c.86-.89,1.8-1.68,2.72-2.51s1.36-1.64,2.15-2.32l-1.82.23c.78.33,1.47,1.68,2.05,2.33s1.42,1.49,2.14,2.22a1.5,1.5,0,0,0,2.12-2.12c-.8-.8-1.59-1.61-2.35-2.45s-1.41-2.12-2.45-2.56a1.59,1.59,0,0,0-1.82.23c-.79.69-1.36,1.61-2.15,2.32s-1.86,1.62-2.72,2.51c-1.34,1.39.78,3.52,2.12,2.12Z" transform="translate(-402.65 -207.05)"/><path d="M737.75,342.45c.09-5.23.23-10.46.33-15.69,0-1.93-3-1.93-3,0-.09,5.23-.23,10.46-.33,15.69,0,1.93,3,1.93,3,0Z" transform="translate(-402.65 -207.05)"/><path d="M732.67,322.61c.91-.95,1.9-1.78,2.87-2.66s1.44-1.73,2.27-2.45l-1.82.23c.84.36,1.56,1.78,2.18,2.47s1.5,1.58,2.26,2.35a1.5,1.5,0,0,0,2.12-2.12c-.85-.85-1.68-1.7-2.48-2.59s-1.48-2.23-2.57-2.7a1.59,1.59,0,0,0-1.82.23c-.84.73-1.44,1.7-2.27,2.45s-2,1.71-2.87,2.66c-1.34,1.39.78,3.52,2.12,2.12Z" transform="translate(-402.65 -207.05)"/><path d="M721,374v22.5a1.5,1.5,0,0,0,3,0V374a1.5,1.5,0,0,0-3,0Z" transform="translate(-402.65 -207.05)"/><path d="M716.56,379.56c2.55-2.5,5-4.59,6.92-7.65l-2.36.3q3.65,3.68,7.31,7.34a1.5,1.5,0,0,0,2.12-2.12q-3.66-3.66-7.31-7.34a1.52,1.52,0,0,0-2.36.3c-1.81,2.85-4.08,4.71-6.45,7-1.38,1.35.74,3.47,2.12,2.12Z" transform="translate(-402.65 -207.05)"/><path d="M704.75,397.45c.09-5.23.23-10.46.33-15.69,0-1.93-3-1.93-3,0-.09,5.23-.23,10.46-.33,15.69,0,1.93,3,1.93,3,0Z" transform="translate(-402.65 -207.05)"/><path d="M699.67,377.61c.91-.95,1.9-1.78,2.87-2.66s1.44-1.73,2.27-2.45l-1.82.23c.84.36,1.56,1.78,2.18,2.47s1.5,1.58,2.26,2.35a1.5,1.5,0,0,0,2.12-2.12c-.85-.85-1.68-1.7-2.48-2.59s-1.48-2.23-2.57-2.7a1.59,1.59,0,0,0-1.82.23c-.84.73-1.44,1.7-2.27,2.45s-2,1.71-2.87,2.66c-1.34,1.39.78,3.52,2.12,2.12Z" transform="translate(-402.65 -207.05)"/><path d="M645.75,343.45l.33-18.69c0-1.93-3-1.93-3,0l-.33,18.69c0,1.93,3,1.93,3,0Z" transform="translate(-402.65 -207.05)"/><path d="M640.67,322.61c.91-.95,1.9-1.78,2.87-2.66s1.44-1.73,2.27-2.45l-1.82.23c.84.36,1.56,1.78,2.18,2.47s1.5,1.58,2.26,2.35a1.5,1.5,0,0,0,2.12-2.12c-.85-.85-1.68-1.7-2.48-2.59s-1.48-2.23-2.57-2.7a1.59,1.59,0,0,0-1.82.23c-.84.73-1.44,1.7-2.27,2.45s-2,1.71-2.87,2.66c-1.34,1.39.78,3.52,2.12,2.12Z" transform="translate(-402.65 -207.05)"/><path d="M787,372.37c-2.6,2.79-11.53,7.43-10.82,11.92.36,2.26,3.4,4,5,5.22a68.32,68.32,0,0,0,9.77,6.33c1.7.92,3.22-1.67,1.51-2.59a69.53,69.53,0,0,1-6.24-3.75c-1.37-.94-6.1-3.47-6.55-5.18-.73-2.72,7.82-8.08,9.46-9.84,1.31-1.41-.8-3.54-2.12-2.12Z" transform="translate(-402.65 -207.05)"/><path d="M778.2,385.39h10.51a1.5,1.5,0,0,0,0-3H778.2a1.5,1.5,0,0,0,0,3Z" transform="translate(-402.65 -207.05)"/><path d="M794.79,372.92c.77,7.33,1.26,14.68,2.26,22,.26,1.9,3.15,1.09,2.89-.8-1-7-1.42-14.12-2.16-21.18-.2-1.9-3.2-1.92-3,0Z" transform="translate(-402.65 -207.05)"/><path d="M795.52,373.86c2.29,1.28,13.24,5.72,12.81,9-.15,1.13-3.72,3.94-4.53,4.85-1.8,2-3.58,4-5.49,5.92a1.5,1.5,0,0,0,2.12,2.12c2.57-2.57,4.92-5.34,7.38-8,1.42-1.54,4.46-3.58,4.1-6-.3-2.08-3.17-3.5-4.68-4.51-3.27-2.17-6.77-4-10.2-5.89-1.69-.94-3.2,1.65-1.51,2.59Z" transform="translate(-402.65 -207.05)"/><path d="M828.42,378.23l-5.28-5.82a1.52,1.52,0,0,0-2.36.3c-1.88,2.62-7,7.14-5.93,10.63.51,1.65,2.55,3.37,3.6,4.7l5.87,7.41a1.51,1.51,0,0,0,2.51-.66A48.69,48.69,0,0,1,831,385a1.52,1.52,0,0,0-1.3-2.26,58.08,58.08,0,0,0-6.84-.15c-1.92.07-1.93,3.07,0,3a58.08,58.08,0,0,1,6.84.15l-1.3-2.26A52.39,52.39,0,0,0,823.94,394l2.51-.66c-2.44-3.07-5.06-6.07-7.34-9.26-1.64-2.29-1-2.48.54-4.65l3.72-5.19-2.36.3,5.28,5.82c1.3,1.43,3.42-.69,2.12-2.12Z" transform="translate(-402.65 -207.05)"/><path d="M841.63,374.62c-2.08,2.4-4.78,4.84-6.5,7.52-.66,1-.93,1.66-.41,2.8.82,1.8,3.39,3.65,4.85,5a75.1,75.1,0,0,0,6.17,4.9c1.57,1.13,3.07-1.47,1.51-2.59-3.26-2.35-8-5.5-10.1-9.06v1.51c1.35-2.82,4.56-5.56,6.61-7.92,1.26-1.45-.86-3.58-2.12-2.12Z" transform="translate(-402.65 -207.05)"/><path d="M837,385.82h6.61a1.5,1.5,0,0,0,0-3H837a1.5,1.5,0,0,0,0,3Z" transform="translate(-402.65 -207.05)"/><path d="M857.9,372.2c-2.57,2.61-7.11,5.53-7.59,9.36a1.51,1.51,0,0,0,1.5,1.5l13.93,0-1.3-2.26c-3.2,4.16-8.16,7.17-10.67,11.78-.92,1.7,1.67,3.21,2.59,1.51,1.35-2.49,3.59-4.09,5.6-6a50.46,50.46,0,0,0,5.07-5.77c.72-.94-.27-2.25-1.3-2.26l-13.93,0,1.5,1.5c.25-2.06,5.29-5.81,6.71-7.24s-.76-3.5-2.12-2.12Z" transform="translate(-402.65 -207.05)"/><path d="M550.59,267.31a45,45,0,0,0-5.06,6.89c-.8,1.36-2.58,3.75-2.21,5.53.41,1.94,3.25,3.16,4.51,4.26,2,1.8,3.61,4.29,5.83,5.82a1.51,1.51,0,0,0,1.51,0c1.14-.58,1.49-1.73,2.1-2.81a19.88,19.88,0,0,1,5.49-6.51,1.53,1.53,0,0,0,.3-2.36A86.9,86.9,0,0,0,552.39,268c-1.49-1.19-3.63.92-2.12,2.12a86.9,86.9,0,0,1,10.68,10.1l.3-2.36a21,21,0,0,0-4.9,4.92c-.72,1-1.24,2.22-2,3.21q-.95,2.28-.45-.13-.68-.81-1.43-1.58c-1.39-1.46-5.71-3.87-5.67-6.22s4.51-7.11,5.89-8.68-.85-3.58-2.12-2.12Z" transform="translate(-402.65 -207.05)"/><path d="M753.1,264.63c.69,8,.79,15.94,1.27,23.91.12,1.92,3.12,1.93,3,0-.48-8-.58-15.95-1.27-23.91-.17-1.91-3.17-1.93-3,0Z" transform="translate(-402.65 -207.05)"/><path d="M754,264.28l11.28,8.16-.3-2.36a58.71,58.71,0,0,1-9.38,7.41,1.5,1.5,0,0,0,1.51,2.59,62.56,62.56,0,0,0,10-7.88,1.52,1.52,0,0,0-.3-2.36l-11.28-8.16c-1.57-1.13-3.07,1.47-1.51,2.59Z" transform="translate(-402.65 -207.05)"/><path d="M616.1,372.63c.69,8,.79,15.94,1.27,23.91.12,1.92,3.12,1.93,3,0-.48-8-.58-15.95-1.27-23.91-.17-1.91-3.17-1.93-3,0Z" transform="translate(-402.65 -207.05)"/><path d="M617,372.28l11.28,8.16-.3-2.36a58.71,58.71,0,0,1-9.38,7.41,1.5,1.5,0,0,0,1.51,2.59,62.56,62.56,0,0,0,10-7.88,1.52,1.52,0,0,0-.3-2.36l-11.28-8.16c-1.57-1.13-3.07,1.47-1.51,2.59Z" transform="translate(-402.65 -207.05)"/><path d="M633.1,372.63c.69,8,.79,15.94,1.27,23.91.12,1.92,3.12,1.93,3,0-.48-8-.58-15.95-1.27-23.91-.17-1.91-3.17-1.93-3,0Z" transform="translate(-402.65 -207.05)"/><path d="M634,372.28l11.28,8.16-.3-2.36a58.71,58.71,0,0,1-9.38,7.41,1.5,1.5,0,0,0,1.51,2.59,62.56,62.56,0,0,0,10-7.88,1.52,1.52,0,0,0-.3-2.36l-11.28-8.16c-1.57-1.13-3.07,1.47-1.51,2.59Z" transform="translate(-402.65 -207.05)"/><path d="M786,322v21a1.5,1.5,0,0,0,3,0V322a1.5,1.5,0,0,0-3,0Z" transform="translate(-402.65 -207.05)"/><path d="M786.45,321.87l14.24,6.35c1.75.78,3.28-1.8,1.51-2.59L788,319.28c-1.75-.78-3.28,1.8-1.51,2.59Z" transform="translate(-402.65 -207.05)"/><path d="M788.92,331.5l7.82,3.79c1.73.84,3.25-1.74,1.51-2.59l-7.82-3.79c-1.73-.84-3.25,1.74-1.51,2.59Z" transform="translate(-402.65 -207.05)"/><path d="M805.12,321.86a123.16,123.16,0,0,1,.91,20.76c-.08,1.93,2.92,1.93,3,0a123.16,123.16,0,0,0-.91-20.76c-.24-1.89-3.25-1.91-3,0Z" transform="translate(-402.65 -207.05)"/><path d="M806.68,321.91l11,10.54.3-2.36a37.53,37.53,0,0,1-9.14,3,1.51,1.51,0,0,0-.66,2.51A62.54,62.54,0,0,0,821,343.77c1.73.83,3.26-1.75,1.51-2.59a59.44,59.44,0,0,1-12.16-7.74l-.66,2.51a40.56,40.56,0,0,0,9.86-3.26,1.51,1.51,0,0,0,.3-2.36l-11-10.54c-1.39-1.34-3.52.78-2.12,2.12Z" transform="translate(-402.65 -207.05)"/></g><g id="capture-label"><path d="M633.49,529c5.09-7.58,8.06-16.14,14.91-22.49a41.92,41.92,0,0,1,24.23-10.86l-1.45-1.9c-1.63,6.29-3,12.75-4.92,18.95s-10,10-15.21,13.41c-9.86,6.44-19.86,12.75-27.53,21.85l1.82-.23c-4.46-2.83,2.22-7,3.86-9.39,2-3,3-6.57,4.37-9.87.72-1.79-2.18-2.57-2.89-.8-1.5,3.71-2.59,7.57-5.27,10.65-1.3,1.5-2.91,2.75-4,4.43-2.08,3.17-.53,5.69,2.44,7.57a1.51,1.51,0,0,0,1.82-.23c8.95-10.62,21.08-17.27,32.38-25,4-2.74,8.79-5.41,10.65-10.11,2.55-6.41,3.67-13.74,5.4-20.41a1.51,1.51,0,0,0-1.45-1.9,45.33,45.33,0,0,0-24.1,9.8c-8.42,6.82-11.75,16.31-17.62,25-1.08,1.61,1.52,3.11,2.59,1.51Z" transform="translate(-402.65 -207.05)"/><path d="M623.33,528c3.55,2.77,6.83,5.8,10.13,8.85,2.76,2.55,6.3,4,8.93,6.73,1.35,1.38,3.47-.74,2.12-2.12-2.65-2.7-6.13-4.2-8.93-6.73-3.34-3-6.57-6.08-10.13-8.85-1.51-1.17-3.64.94-2.12,2.12Z" transform="translate(-402.65 -207.05)"/><path d="M634.89,534.83c5.57-4.77,9.88-10.58,14.59-16.14,4.91-5.81,10.56-11,16-16.26,1.39-1.35-.73-3.47-2.12-2.12-5.45,5.29-11.1,10.44-16,16.26-4.7,5.57-9,11.38-14.59,16.14-1.47,1.26.66,3.37,2.12,2.12Z" transform="translate(-402.65 -207.05)"/><path d="M628.54,535.43a10.57,10.57,0,0,0,1.81,5.72c1.08,1.58,3.68.09,2.59-1.51a7.66,7.66,0,0,1-1.4-4.2c-.05-1.93-3.05-1.93-3,0Z" transform="translate(-402.65 -207.05)"/><path d="M624.75,539.54a6.78,6.78,0,0,0,2,6.19c1.41,1.31,3.54-.8,2.12-2.12a3.69,3.69,0,0,1-1.24-3.27,1.55,1.55,0,0,0-1-1.85,1.51,1.51,0,0,0-1.85,1Z" transform="translate(-402.65 -207.05)"/></g></svg>