<svg xmlns="http://www.w3.org/2000/svg" viewBox="0 0 564.69 363.75"><defs><style>.cls-1{fill:#fff;}.cls-2{fill:none;}.cls-3{fill:#f2c94c;}</style></defs><title>goal-text</title><g id="goal-page"><path class="cls-1" d="M958.5,208.5q.46,14.2.78,28.4c.77,34.18-1.87,69.71,1.56,103.65-6.87,2.11-15,2.3-22.28,3.18,5.37,6.69,14.4,11.63,19.15,18.3,3.85,5.4,3,10.11,3.06,17.31.12,14.3,1.28,29,.5,43.22-.73,13.32-10.39,16.44-23,20.26,6.15,4,19.41,9.13,23.26,15.39,3.74,6.08,2,20.16,1.12,27-1.41,10.41-2.92,20.11-2.67,30.94.22,9.39-8.77,8.74-16.25,12.45,6.62,4.59,13.84,5.69,16.83,12.91,2.32,5.59-3.58,24,.64,27.84-8.4-7.62-17.31-15.52-28.35-18.08-4.87-1.13-9.92-1.15-14.92-1.17l-71.24-.25c-6.23,0-13.33-.44-17.25-5.28l-4.45,16.09a115.51,115.51,0,0,0-7.38-13.49l-9.44,14.12a210.48,210.48,0,0,0,1.54-62.73c-.4-3.18-.27-12.6-2.68-14.83-1.83-1.69-7.17-1.12-9.54-1.25-7.74-.41-14.61.17-20.38,6-6.43,6.45-9.33,15.61-11,24.57a68.57,68.57,0,0,1-19-19.35c-1.05-1.62-2.12-3.37-3.82-4.28a10.43,10.43,0,0,0-4.41-.91,221.34,221.34,0,0,0-38.22,1.25c-3.5.42-7.07.95-10.19,2.58-7.28,3.81-10.47,12.59-16.87,17.75a39.87,39.87,0,0,0-6.56-20.83l-3.25,22.25C659.13,497,642.52,490,627.37,488.95c-13.85-.92-28.46.11-42.33.47-11,.29-10.83-4.69-15.56-14.37-5.57,16.85-7.38,19.11-25.9,20.17s-37.12-.63-55.51,1.54-37.26,8.88-48.9,23.29l-8.88-23.44a17.72,17.72,0,0,0-8.24,5.49l-3.56-6.87-5.23,4.29a9.08,9.08,0,0,1-.85-4.22l-4.63,6-1.24-5.64c-2.16-9.79-5.91-27.82-2.48-37.51,3.6-10.16,17.73-9.62,28.32-12-6.71-5.14-14.53-9.58-20.8-15.2-7.28-6.53-6.37-8.24-6.18-18.38.36-19.51.52-39,.7-58.54.46-48.49.44-97-1.59-145.45" transform="translate(-400.83 -207.05)"/><path d="M957,208.5c.71,21.95,1,43.86.73,65.82s-.54,44.21,1.61,66.23l1.1-1.45c-7.14,2-14.55,2.3-21.88,3.13a1.52,1.52,0,0,0-1.06,2.56c6,7.12,16.32,11.85,20.38,20.46,2,4.34,1.37,9.45,1.39,14.1,0,6,.28,11.9.47,17.85.18,5.65.34,11.31.28,17,0,4.95.33,10.47-1.8,15.07-3.57,7.69-13,9.92-20.4,12.16a1.52,1.52,0,0,0-.36,2.74c6.79,4.23,15.15,6.92,20.9,12.66,5.92,5.9,4.07,17.14,3.21,24.66-1.15,10-2.93,19.9-3.14,30-.12,5.5.35,9.7-5.32,12.1-3.34,1.41-6.88,2.23-10.19,3.77a1.51,1.51,0,0,0,0,2.59c4.34,2.86,9.84,4.56,13.57,8.25s3.22,7.91,2.74,12.58c-.57,5.59-3.38,14.91.86,19.67l2.12-2.12c-7.16-6.48-14.57-13.13-23.66-16.76-10.76-4.29-23.18-2.94-34.52-3l-37.6-.13c-6.6,0-13.19,0-19.79-.07-5.82-.06-12-.27-16.19-4.84a1.51,1.51,0,0,0-2.51.66l-4.45,16.09,2.74-.36a129.62,129.62,0,0,0-7.38-13.49,1.52,1.52,0,0,0-2.59,0l-9.44,14.12,2.74,1.16a216.23,216.23,0,0,0,3-46c-.3-6.94-1.26-13.81-1.71-20.73-.22-3.5,0-8.63-2.29-11.58s-7-2.31-10.28-2.36c-5.37-.07-10.66-.32-15.72,1.86-11.43,4.93-15.82,18.55-18,29.76l2.2-.9a70.4,70.4,0,0,1-11.8-10.24c-3.21-3.5-5.4-7.78-8.53-11.28-2.6-2.91-5.82-3.14-9.54-3.31-6.05-.29-12.13-.3-18.18-.07-9.2.34-21.41-.2-29.66,4.54-7.15,4.11-10.46,12.38-16.58,17.65l2.56,1.06a43.66,43.66,0,0,0-6.76-21.58c-.62-1-2.54-1-2.74.36l-3.25,22.25h2.89c-5.7-16-23.08-22.7-38.86-23.68-12.51-.78-25.07,0-37.58.42-4.6.15-10.07.91-13.15-3.28-2.19-3-3.34-6.92-4.91-10.23-.59-1.24-2.37-.77-2.74.36-2.71,8.15-4.93,16-14.23,18-14.09,3-29.47,1.32-43.76,1.44-25.73.22-54.39,3.87-71.93,24.9l2.51.66-8.88-23.44a1.52,1.52,0,0,0-1.85-1A21.4,21.4,0,0,0,421,501l2.36.3-3.56-6.87a1.52,1.52,0,0,0-2.36-.3l-5.23,4.29,2.51.66a8.16,8.16,0,0,1-.79-3.82c0-1.16-1.71-2.16-2.56-1.06l-4.63,6,2.51.66c-2.73-12.38-6.85-26.24-4.59-39,2.31-13,18-12.17,28.14-14.38,1.39-.3,1.3-2,.36-2.74-6.31-4.74-13.19-8.75-19.23-13.86-4.46-3.78-7.19-7-7.15-13,.1-16.11.53-32.23.68-48.34.33-34.1.59-68.2.13-102.3q-.4-29.39-1.58-58.77c-.08-1.92-3.08-1.93-3,0,1.51,36.51,1.92,73,1.82,109.58,0,18.14-.23,36.27-.4,54.41q-.13,13.17-.3,26.34c-.1,7.26-.94,14.86-.27,22.1.44,4.73,3.25,7.92,6.68,11,6.5,5.83,14.14,10.21,21.11,15.44l.36-2.74c-10.34,2.24-26,1.69-29.71,14.16-4,13.42,1.15,29.7,4.06,42.88a1.51,1.51,0,0,0,2.51.66l4.63-6-2.56-1.06a13.81,13.81,0,0,0,.9,4.62,1.53,1.53,0,0,0,2.51.66l5.23-4.29-2.36-.3,3.56,6.87a1.51,1.51,0,0,0,2.36.3,18.22,18.22,0,0,1,7.58-5.1l-1.85-1,8.88,23.44c.36,1,1.72,1.61,2.51.66,20.78-24.92,55.63-24,85.15-24,7.63,0,15.3,0,22.9-.72,3.73-.34,7.66-.74,11.09-2.35,7.1-3.33,9.28-11.74,11.55-18.58l-2.74.36c2.36,5,4,11.87,9.61,14.13,4,1.62,8.76.95,12.95.8,6.12-.21,12.24-.49,18.37-.61,18.82-.36,45.65.31,53.27,21.73.44,1.23,2.66,1.6,2.89,0l3.25-22.25-2.74.36A40.5,40.5,0,0,1,672.13,510a1.52,1.52,0,0,0,2.56,1.06c5.76-5,8.9-12.75,15.39-16.84,4.74-3,10.9-3.16,16.32-3.66q7.15-.67,14.33-.87t14.36.06c4.13.15,6.91-.17,10,3.39,1.33,1.55,2.33,3.52,3.56,5.17a72.65,72.65,0,0,0,16.74,15.95,1.51,1.51,0,0,0,2.2-.9c2-10.57,6-24.25,17.35-28.25,4.68-1.66,9.62-1.22,14.49-1.18,2.29,0,4.71-.37,6.42,1.29s1.67,4.47,1.88,6.71c2.16,23.19,2.95,45.81-1,68.89a1.51,1.51,0,0,0,2.74,1.16l9.44-14.12h-2.59a129.62,129.62,0,0,1,7.38,13.49,1.52,1.52,0,0,0,2.74-.36l4.45-16.09-2.51.66c6.34,6.88,16.73,5.71,25.23,5.74l38.59.14,18.8.07c6.48,0,13.2-.38,19.61.77,11.78,2.11,20.95,10.3,29.52,18.07a1.5,1.5,0,0,0,2.12-2.12c-2.4-2.7-.95-9-.59-12.21.45-4,1.34-8.37.87-12.45-1.07-9.23-11.46-12-18.05-16.32v2.59c6.38-3,15.81-3.45,16.9-12,.76-6,.25-12.22.9-18.26s1.64-12.1,2.33-18.16c.88-7.64,2.45-18.33-2.49-25-5.42-7.3-15.65-10.28-23.1-14.93l-.36,2.74c7.27-2.2,15.94-4.42,20.66-10.91,2.32-3.19,3.17-6.94,3.48-10.8a200.34,200.34,0,0,0,.09-21.6c-.2-6.9-.51-13.79-.58-20.69,0-4.75.54-9.77-.94-14.37-3.29-10.21-15.12-15.44-21.71-23.24l-1.06,2.56c7.6-.86,15.28-1.15,22.68-3.24a1.52,1.52,0,0,0,1.1-1.45c-2.15-22-1.9-44.14-1.61-66.23s0-43.87-.73-65.82c-.06-1.93-3.06-1.93-3,0Z" transform="translate(-400.83 -207.05)"/><path d="M960.74,397.07a1.5,1.5,0,0,0,0-3,1.5,1.5,0,0,0,0,3Z" transform="translate(-400.83 -207.05)"/></g><g id="goal-area"><path class="cls-2" d="M962.6,485.18c-1.41,10.41-2.92,20.11-2.67,30.94l1.22,53.19c-8.4-7.62-17.31-15.52-28.35-18.08-4.87-1.13-9.92-1.15-14.92-1.17l-71.24-.25c-6.23,0-13.33-.44-17.25-5.28l-4.45,16.09a115.51,115.51,0,0,0-7.38-13.49l-9.44,14.12a210.48,210.48,0,0,0,1.54-62.73c-.4-3.18-.27-12.6-2.68-14.83Z" transform="translate(-400.83 -207.05)"/></g><g id="goal-text"><path d="M569.52,275.46c2.28,7.11-.41,14.63,2.26,21.69a1.52,1.52,0,0,0,2.74.36c.69-1.08,2.25-3.87,3.56-4.29,1.59-.51.08-.48,1.13.84,1.31,1.64,1.94,3,3.68,4.32,1,.74,2.19-.29,2.26-1.3a191.54,191.54,0,0,0,.19-24c-.1-1.92-3.11-1.93-3,0a191.54,191.54,0,0,1-.19,24l2.26-1.3c-2.08-1.57-2.46-6.59-5.63-6.41-2.81.17-5.51,4.54-6.84,6.62l2.74.36c-2.65-7,0-14.57-2.26-21.69-.59-1.83-3.48-1-2.89.8Z" transform="translate(-400.83 -207.05)"/><path d="M589.15,274.92q2.46,10.37,3.93,20.92c.26,1.9,3.16,1.09,2.89-.8q-1.47-10.56-3.93-20.92c-.45-1.88-3.34-1.08-2.89.8Z" transform="translate(-400.83 -207.05)"/><path d="M597.73,272.13l3,24.28c.23,1.89,3.23,1.92,3,0l-3-24.28c-.23-1.89-3.23-1.92-3,0Z" transform="translate(-400.83 -207.05)"/><path d="M587.63,283.72l15,7.8c1.71.89,3.23-1.7,1.51-2.59l-15-7.8c-1.71-.89-3.23,1.7-1.51,2.59Z" transform="translate(-400.83 -207.05)"/><path d="M607.34,279.41l1.07,16c.13,1.92,3.13,1.93,3,0l-1.07-16c-.13-1.92-3.13-1.93-3,0Z" transform="translate(-400.83 -207.05)"/><path d="M605.21,276.28l3.91-8-2.36.3a41.59,41.59,0,0,1,4.12,6.3c.91,1.7,3.5.19,2.59-1.51a45.69,45.69,0,0,0-4.59-6.9,1.51,1.51,0,0,0-2.36.3l-3.91,8c-.84,1.73,1.75,3.25,2.59,1.51Z" transform="translate(-400.83 -207.05)"/><path d="M622.08,275q.51,11.18,1.86,22.28c.23,1.89,3.23,1.92,3,0q-1.35-11.11-1.86-22.28c-.09-1.92-3.09-1.93-3,0Z" transform="translate(-400.83 -207.05)"/><path d="M617.36,285.27a41.26,41.26,0,0,1,7.19-11.72l-2.36-.3L630,285.68c1,1.63,3.62.13,2.59-1.51l-7.79-12.44a1.51,1.51,0,0,0-2.36-.3,45.62,45.62,0,0,0-8,13c-.72,1.79,2.18,2.57,2.89.8Z" transform="translate(-400.83 -207.05)"/><path d="M644.49,271.84c-2.22,3.27-4.87,6.12-7.35,9.18-1.14,1.41-2.91,3.07-2.84,5,.14,4.06,6.47,8.33,9.43,10.43,1.58,1.12,3.08-1.48,1.51-2.59a34.25,34.25,0,0,1-5.13-4.37c-2.75-2.91-3.11-3.6-.38-6.92,2.51-3.06,5.13-6,7.36-9.23,1.09-1.6-1.51-3.1-2.59-1.51Z" transform="translate(-400.83 -207.05)"/><path d="M635.44,287.17a50.79,50.79,0,0,0,10.59-.39c1.9-.26,1.09-3.15-.8-2.89a47.16,47.16,0,0,1-9.79.28c-1.93-.14-1.92,2.86,0,3Z" transform="translate(-400.83 -207.05)"/><path d="M676.68,274.73a47,47,0,0,1-9.67,9,1.51,1.51,0,0,0,.76,2.8l11.45,1.1-1.06-2.56a44.69,44.69,0,0,1-10.31,8.15,1.5,1.5,0,0,0,1.51,2.59,47.39,47.39,0,0,0,10.91-8.62,1.52,1.52,0,0,0-1.06-2.56l-11.45-1.1.76,2.8a49.7,49.7,0,0,0,10.28-9.48c1.21-1.48-.9-3.62-2.12-2.12Z" transform="translate(-400.83 -207.05)"/><path d="M681.4,274.12a190.77,190.77,0,0,1,2.67,21c.14,1.91,3.14,1.93,3,0a198,198,0,0,0-2.77-21.81c-.35-1.9-3.24-1.09-2.89.8Z" transform="translate(-400.83 -207.05)"/><path d="M688.84,273.7l3.6,21.85c.31,1.9,3.2,1.09,2.89-.8l-3.6-21.85c-.31-1.9-3.2-1.09-2.89.8Z" transform="translate(-400.83 -207.05)"/><path d="M679.75,281.46a36.7,36.7,0,0,0,14,6.31c1.88.41,2.69-2.48.8-2.89a34.56,34.56,0,0,1-13.28-6c-1.56-1.14-3.06,1.46-1.51,2.59Z" transform="translate(-400.83 -207.05)"/><path d="M704.08,275.69a18.67,18.67,0,0,1-5.13,7.25c-1,.89-2.19,2-1.81,3.47s2.54,2.52,3.68,3.35l8,5.77a1.51,1.51,0,0,0,2.05-.54c1.34-2.78,5-7.31,3.41-10.58-1.7-3.54-6.22-4.71-7.52-8.6-.61-1.82-3.51-1-2.89.8a13.11,13.11,0,0,0,4.43,5.87c1.35,1.16,3.23,2.47,3.12,4.54-.1,1.79-2.32,4.79-3.13,6.46l2.05-.54c-3.42-2.47-7.87-4.81-10.68-8l.39,1.46c.39-1.65,3-3.17,4.05-4.54a22.09,22.09,0,0,0,2.88-5.38c.7-1.8-2.2-2.58-2.89-.8Z" transform="translate(-400.83 -207.05)"/><path d="M733.64,274q2.32,11,3.89,22.09a1.51,1.51,0,0,0,2.2.9c2.44-1.64,4.88-3.27,7.29-4.95,1.57-1.1.08-3.7-1.51-2.59-2.41,1.68-4.86,3.31-7.29,4.95l2.2.9q-1.57-11.11-3.89-22.09c-.4-1.89-3.29-1.09-2.89.8Z" transform="translate(-400.83 -207.05)"/><path d="M739.42,293.19c1.89-1.33,3.58-2.92,5.46-4.25,1.56-1.11.07-3.71-1.51-2.59-1.89,1.33-3.58,2.92-5.46,4.25-1.56,1.11-.07,3.71,1.51,2.59Z" transform="translate(-400.83 -207.05)"/><path d="M747.72,273.09q1.7,11.19,4.05,22.25c.4,1.89,3.29,1.09,2.89-.8q-2.35-11.07-4.05-22.25c-.29-1.9-3.18-1.09-2.89.8Z" transform="translate(-400.83 -207.05)"/><path d="M747.94,273A75.54,75.54,0,0,0,764,284l-.54-2.05A52.16,52.16,0,0,1,752.6,293.5c-1.52,1.19.62,3.3,2.12,2.12a54.75,54.75,0,0,0,11.35-12.15,1.51,1.51,0,0,0-.54-2.05,72.5,72.5,0,0,1-15.48-10.56c-1.44-1.28-3.57.83-2.12,2.12Z" transform="translate(-400.83 -207.05)"/><path d="M564.19,337.48l-8.94,8.76c-1.38,1.35-3.49,2.92-2.75,5.11.65,1.92,3.58,2.87,5.16,3.76q4.19,2.36,8.26,4.91c1.64,1,3.15-1.57,1.51-2.59-1.93-1.2-3.86-2.39-5.83-3.53-1.44-.83-3.77-1.62-4.9-2.77s-.73-1,.14-2.25a27,27,0,0,1,3.16-3.09l6.31-6.18c1.38-1.35-.74-3.47-2.12-2.12Z" transform="translate(-400.83 -207.05)"/><path d="M553.79,351.25a62,62,0,0,1,11.34-.37c1.93.11,1.92-2.89,0-3a62,62,0,0,0-11.34.37c-1.89.24-1.91,3.24,0,3Z" transform="translate(-400.83 -207.05)"/><path d="M579,336.88q-5,4.71-9.77,9.56a1.52,1.52,0,0,0,1.06,2.56l14.75.65-1.06-2.56c-4.12,3.83-8.47,7.41-12.5,11.35-1.38,1.35.74,3.47,2.12,2.12,4-3.93,8.38-7.51,12.5-11.35a1.52,1.52,0,0,0-1.06-2.56L570.25,346l1.06,2.56q4.81-4.86,9.77-9.56c1.4-1.33-.72-3.45-2.12-2.12Z" transform="translate(-400.83 -207.05)"/><path d="M597.72,338.73a52,52,0,0,0-6.4,6.58c-.94,1.11-2.56,2.48-2.42,4.11s2.34,3.33,3.5,4.38c2.34,2.11,4.86,4,7.29,6,1.48,1.22,3.61-.89,2.12-2.12s-3.19-2.58-4.77-3.88c-1.12-.92-3.5-2.37-4.17-3.7-1.36-2.71,5.13-7.74,7-9.27,1.49-1.24-.65-3.35-2.12-2.12Z" transform="translate(-400.83 -207.05)"/><path d="M608.54,338.78,604.17,345c-.88,1.27-2.39,2.81-2.33,4.5s1.45,2.64,2.5,3.63c1.92,1.82,3.9,3.58,5.84,5.37a1.51,1.51,0,0,0,2.12,0c2.17-2.65,5.86-7.16,5.62-10.83-.1-1.51-1.3-2.57-2.24-3.61-1.68-1.88-3.4-3.71-5.1-5.57-1.31-1.43-3.42.7-2.12,2.12l3.4,3.71c.72.79,2.19,1.84,2.55,2.79,1.09,2.88-2.53,7.19-4.24,9.28h2.12c-1.68-1.55-7.47-5.31-7-7.77.23-1.23,2.18-3.13,2.91-4.17l2.91-4.17c1.11-1.59-1.49-3.09-2.59-1.51Z" transform="translate(-400.83 -207.05)"/><path d="M619.48,337.58c0,6.84.35,13.68.38,20.52a1.5,1.5,0,0,0,3,0c0-6.84-.38-13.68-.38-20.52a1.5,1.5,0,0,0-3,0Z" transform="translate(-400.83 -207.05)"/><path d="M618.77,338.27,630,344.13v-2.59c-2.49,1.77-11.14,4.27-10.44,8,.31,1.68,3,3.22,4.21,4.18,2.16,1.73,4.41,3.36,6.63,5,1.55,1.15,3-1.45,1.51-2.59-1.31-1-2.62-1.94-3.92-2.92-.57-.43-4.88-3.15-5.06-4.16-.12-.68,0-.06,1-.63s1.81-1,2.73-1.49a40.1,40.1,0,0,0,4.81-2.83,1.52,1.52,0,0,0,0-2.59l-11.24-5.85c-1.71-.89-3.23,1.7-1.51,2.59Z" transform="translate(-400.83 -207.05)"/><path d="M639.56,339.2q.4,9.46,1.23,18.9c.17,1.91,3.17,1.93,3,0q-.84-9.43-1.23-18.9c-.08-1.92-3.08-1.93-3,0Z" transform="translate(-400.83 -207.05)"/><path d="M635.76,349.85,643,339.47l-2.36.3,8.66,9.4c1.31,1.42,3.43-.7,2.12-2.12l-8.66-9.4a1.52,1.52,0,0,0-2.36.3l-7.26,10.37c-1.11,1.58,1.49,3.09,2.59,1.51Z" transform="translate(-400.83 -207.05)"/><path d="M668.83,340.46c.17,6.18,0,12.36,0,18.54a1.5,1.5,0,0,0,3,0c0-6.18.17-12.36,0-18.54-.05-1.93-3.05-1.93-3,0Z" transform="translate(-400.83 -207.05)"/><path d="M677.33,340.46c0,6.35-.31,12.69-.33,19a1.5,1.5,0,0,0,3,0c0-6.35.31-12.69.33-19a1.5,1.5,0,0,0-3,0Z" transform="translate(-400.83 -207.05)"/><path d="M664.81,347.69,682,355.6c1.74.8,3.27-1.78,1.51-2.59l-17.15-7.91c-1.74-.8-3.27,1.78-1.51,2.59Z" transform="translate(-400.83 -207.05)"/><path d="M689.14,346.09a83.17,83.17,0,0,0,.71,12.83c.3,1.9,3.19,1.09,2.89-.8a78.2,78.2,0,0,1-.6-12,1.5,1.5,0,0,0-3,0Z" transform="translate(-400.83 -207.05)"/><path d="M687.38,344.25l3.43-5.51-2.36.3,5.17,4.67c1.43,1.29,3.56-.82,2.12-2.12l-5.17-4.67a1.52,1.52,0,0,0-2.36.3l-3.43,5.51c-1,1.64,1.57,3.15,2.59,1.51Z" transform="translate(-400.83 -207.05)"/><path d="M705.8,338.08a80.61,80.61,0,0,0-10.29,10.77,1.51,1.51,0,0,0,1.3,2.26,124,124,0,0,1,16.68,0l-.76-2.8L699.21,358c-1.55,1.12-.06,3.72,1.51,2.59l13.52-9.72a1.51,1.51,0,0,0-.76-2.8,124,124,0,0,0-16.68,0l1.3,2.26a76.71,76.71,0,0,1,9.82-10.16c1.42-1.31-.7-3.43-2.12-2.12Z" transform="translate(-400.83 -207.05)"/><path d="M559,418c.12-7.16.27-14.33.39-21.49,0-1.93-3-1.93-3,0-.12,7.16-.27,14.33-.39,21.49,0,1.93,3,1.93,3,0Z" transform="translate(-400.83 -207.05)"/><path d="M550.18,406.12l3.7-3.83,1.85-1.92c.87-.9,1.26-1.79,2.34-1.51,1.27.33,3.13,3,4.08,3.89l4.62,4.48c1.39,1.35,3.51-.77,2.12-2.12l-6.67-6.47c-1.11-1.08-2.64-3.3-4.4-3.43-1.43-.1-2.4,1.19-3.29,2.08-2.2,2.19-4.32,4.47-6.47,6.71-1.34,1.39.78,3.51,2.12,2.12Z" transform="translate(-400.83 -207.05)"/><path d="M578.12,395.27a75.87,75.87,0,0,1-5.6,8.93,5.72,5.72,0,0,0-1.29,3.49c.06,1.81,1.21,3,2.29,4.29,2.24,2.7,4.87,5.16,7.28,7.71a1.52,1.52,0,0,0,2.36-.3c1.94-2.81,4.5-5.64,6-8.69a3.82,3.82,0,0,0,.57-2.72c-.37-1.84-2.74-3.86-3.84-5.28l-6.17-8c-1.18-1.52-3.29.61-2.12,2.12,2.54,3.28,5.45,6.48,7.71,9.95,1.65,2.54.86,2.94-.74,5.27l-4,5.8,2.36-.3c-2.54-2.69-9.52-7.84-7.51-12.24,1.35-2.95,3.86-5.54,5.31-8.55.83-1.73-1.76-3.26-2.59-1.51Z" transform="translate(-400.83 -207.05)"/><path d="M611.91,395.79c-1.35,7.25-2,14.61-3.48,21.84-.39,1.88,2.5,2.69,2.89.8,1.48-7.23,2.13-14.58,3.48-21.84.35-1.89-2.54-2.7-2.89-.8Z" transform="translate(-400.83 -207.05)"/><path d="M612.13,396.83l12.17,22.46c.92,1.7,3.51.19,2.59-1.51l-12.17-22.46c-.92-1.7-3.51-.19-2.59,1.51Z" transform="translate(-400.83 -207.05)"/><path d="M611.52,405.89c2.38,4.45,4.8,8.87,7.18,13.32.91,1.7,3.5.19,2.59-1.51-2.38-4.45-4.8-8.87-7.18-13.32-.91-1.7-3.5-.19-2.59,1.51Z" transform="translate(-400.83 -207.05)"/><path d="M653.89,396.52q3,3.46,6,7a25.47,25.47,0,0,1,2,2.42c.86,1.34,0-1.28.09.69.19,4.27,0,8.6,0,12.88a1.5,1.5,0,0,0,3,0V413c0-2.27.57-5.27,0-7.46-.34-1.3-1.43-2.25-2.29-3.27q-3.32-3.94-6.7-7.83c-1.27-1.46-3.39.67-2.12,2.12Z" transform="translate(-400.83 -207.05)"/><path d="M665.8,406.26c2.57-3.44,5-7,7.51-10.46,1.13-1.57-1.47-3.06-2.59-1.51-2.52,3.48-4.95,7-7.51,10.46-1.16,1.55,1.45,3,2.59,1.51Z" transform="translate(-400.83 -207.05)"/><path d="M665.8,413.26c2.42-3.53,5.58-6.47,8-10,1.09-1.6-1.5-3.1-2.59-1.51-2.42,3.53-5.58,6.47-8,10-1.09,1.6,1.5,3.1,2.59,1.51Z" transform="translate(-400.83 -207.05)"/><path d="M701.18,393.39l-7,9.06c-1.05,1.37-2.65,2.81-2.45,4.7.21,2,2.47,3.44,3.81,4.69,2.39,2.23,4.8,4.45,7.17,6.69,1.4,1.33,3.53-.79,2.12-2.12q-2.37-2.24-4.76-4.45c-1.12-1-4.31-3.11-4.76-4.45-.67-2,1.93-4.16,3.07-5.64l5.36-7c1.18-1.53-1.43-3-2.59-1.51Z" transform="translate(-400.83 -207.05)"/><path d="M714.86,393l-6,8.88c-.92,1.37-3,3.52-2.62,5.37s2.82,3.21,4.05,4.24l8.33,6.95a1.52,1.52,0,0,0,2.36-.3l4.47-8.88c.74-1.47,2.25-3.54,2.08-5.3s-1.67-2.75-2.74-3.76c-2.48-2.34-5.1-4.53-7.74-6.69-1.48-1.21-3.62.9-2.12,2.12,1.76,1.44,3.51,2.89,5.21,4.4s3.55,2.49,3.62,4.84c.1,3.56-3.78,8.6-5.37,11.75l2.36-.3-5.55-4.63c-.94-.78-5.37-3.51-5.55-4.63-.3-1.83,2.85-5.19,3.81-6.61l4-5.92c1.08-1.61-1.52-3.11-2.59-1.51Z" transform="translate(-400.83 -207.05)"/><path d="M730.84,392.63c.79,8.13.2,16.31.9,24.45.16,1.91,3.17,1.93,3,0-.7-8.14-.1-16.32-.9-24.45-.19-1.9-3.19-1.92-3,0Z" transform="translate(-400.83 -207.05)"/><path d="M730.27,394.15l4.91,2.69c1.37.75,4.86,1.87,5.73,3.14q1.84.66-.44.71l-2,1.58L733.66,406a1.53,1.53,0,0,0-.3,2.36c3.11,3.18,5.91,6.64,9,9.82,1.35,1.38,3.47-.74,2.12-2.12-3.11-3.18-5.9-6.64-9-9.82l-.3,2.36c2.57-2,6-3.91,8.18-6.32.71-.8,1.51-1.25,1.36-2.51s-1.34-1.74-2.28-2.33c-3.41-2.12-7.12-3.9-10.65-5.83-1.69-.93-3.21,1.66-1.51,2.59Z" transform="translate(-400.83 -207.05)"/><path d="M785.92,392.13l-8.14,10.26c-1.1,1.39-3.59,3.49-3.35,5.58.27,2.39,3.9,4.53,5.56,5.83a60.3,60.3,0,0,0,9.43,6c1.71.89,3.23-1.7,1.51-2.59-3.51-1.82-11.85-5.56-12.1-9.67-.16-2.54,2.42-4.68,4-6.65l5.24-6.59c1.19-1.5-.92-3.63-2.12-2.12Z" transform="translate(-400.83 -207.05)"/><path d="M775.25,408.92h10.94a1.5,1.5,0,0,0,0-3H775.25a1.5,1.5,0,0,0,0,3Z" transform="translate(-400.83 -207.05)"/><path d="M793.25,393.47c2,8.89,1.74,18,2,27,.06,1.93,3.06,1.93,3,0-.3-9.32-.1-18.68-2.14-27.84-.42-1.88-3.31-1.09-2.89.8Z" transform="translate(-400.83 -207.05)"/><path d="M792.51,393.57a103.21,103.21,0,0,0,15.67,8.87v-2.59c-4.07,2.86-7.64,6.34-11.71,9.21a1.52,1.52,0,0,0,0,2.59c5.06,2.76,9.57,6.34,14.46,9.37,1.65,1,3.15-1.57,1.51-2.59-4.88-3-9.4-6.61-14.46-9.37v2.59c4.06-2.87,7.64-6.35,11.71-9.21.82-.58,1.12-2.08,0-2.59A103.21,103.21,0,0,1,794,391c-1.6-1.1-3.1,1.5-1.51,2.59Z" transform="translate(-400.83 -207.05)"/><path d="M714.76,274.38c.71,5.94-.11,22.6,9.44,22.44,9.74-.17,5.58-17.53,4.52-22.94-.37-1.89-3.26-1.09-2.89.8.64,3.24,4.28,21.11-3,18.51-3.49-1.25-3.53-6.09-3.91-9.2s-.76-6.4-1.14-9.61c-.22-1.89-3.23-1.92-3,0Z" transform="translate(-400.83 -207.05)"/><path d="M730,339c-.31,7,0,14,0,21a1.5,1.5,0,0,0,3,0c0-7-.31-14,0-21,.08-1.93-2.92-1.93-3,0Z" transform="translate(-400.83 -207.05)"/><path d="M735.28,350.85c3.61-3.46,6.77-7.24,10.28-10.79a1.5,1.5,0,0,0-2.12-2.12c-3.51,3.55-6.67,7.33-10.28,10.79-1.4,1.34.73,3.46,2.12,2.12Z" transform="translate(-400.83 -207.05)"/><path d="M735.77,348.33c2.48,4.37,5.82,8.15,8.44,12.43,1,1.64,3.6.14,2.59-1.51-2.62-4.28-6-8.06-8.44-12.43a1.5,1.5,0,0,0-2.59,1.51Z" transform="translate(-400.83 -207.05)"/><path d="M732.35,351.11c2.15,3.49,4.4,6.87,6.86,10.15,1.14,1.53,3.75,0,2.59-1.51-2.46-3.28-4.71-6.66-6.86-10.15-1-1.64-3.61-.14-2.59,1.51Z" transform="translate(-400.83 -207.05)"/><path d="M757.75,360.45l.33-18.69c0-1.93-3-1.93-3,0l-.33,18.69c0,1.93,3,1.93,3,0Z" transform="translate(-400.83 -207.05)"/><path d="M752.67,339.61c.91-.95,1.9-1.78,2.87-2.66s1.44-1.73,2.27-2.45l-1.82.23c.84.36,1.56,1.78,2.18,2.47s1.5,1.58,2.26,2.35a1.5,1.5,0,0,0,2.12-2.12c-.85-.85-1.68-1.7-2.48-2.59s-1.48-2.23-2.57-2.7a1.59,1.59,0,0,0-1.82.23c-.84.73-1.44,1.7-2.27,2.45s-2,1.71-2.87,2.66c-1.34,1.39.78,3.52,2.12,2.12Z" transform="translate(-400.83 -207.05)"/><path d="M770,360c0-7-.09-14-.1-20.94l-2.56,1.06c4.6,5.93,7.46,13.78,10.82,20.46.87,1.73,3.46.21,2.59-1.51-3.51-7-6.48-14.87-11.28-21.06-.83-1.07-2.56-.13-2.56,1.06,0,7,.09,14,.1,20.94a1.5,1.5,0,0,0,3,0Z" transform="translate(-400.83 -207.05)"/><path d="M772.9,339.25c4.22,6.76,7.53,14,11.3,21a1.51,1.51,0,0,0,2.8-.76c.1-7.34.39-14.66,0-22-.1-1.92-3.1-1.93-3,0,.39,7.34.1,14.66,0,22l2.8-.76c-3.78-7-7.09-14.25-11.3-21-1-1.63-3.62-.13-2.59,1.51Z" transform="translate(-400.83 -207.05)"/><path d="M752,418c0-7.44-.09-14.89-.1-22.33l-2.56,1.06c4.91,6.33,8,14.71,11.55,21.84.87,1.73,3.46.21,2.59-1.51-3.74-7.43-6.9-15.85-12-22.45-.83-1.07-2.56-.13-2.56,1.06,0,7.44.09,14.89.1,22.33a1.5,1.5,0,0,0,3,0Z" transform="translate(-400.83 -207.05)"/><path d="M755.29,395.82c4.5,7.21,8,14.94,12.06,22.41a1.51,1.51,0,0,0,2.8-.76c.11-7.83.42-15.64,0-23.47-.1-1.92-3.1-1.93-3,0,.42,7.83.11,15.64,0,23.47l2.8-.76c-4-7.47-7.56-15.2-12.06-22.41-1-1.63-3.62-.13-2.59,1.51Z" transform="translate(-400.83 -207.05)"/><path d="M633,419c0-7.44-.09-14.89-.1-22.33l-2.56,1.06c4.91,6.33,8,14.71,11.55,21.84.87,1.73,3.46.21,2.59-1.51-3.74-7.43-6.9-15.85-12-22.45-.83-1.07-2.56-.13-2.56,1.06,0,7.44.09,14.89.1,22.33a1.5,1.5,0,0,0,3,0Z" transform="translate(-400.83 -207.05)"/><path d="M636.29,396.82c4.5,7.21,8,14.94,12.06,22.41a1.51,1.51,0,0,0,2.8-.76c.11-7.83.42-15.64,0-23.47-.1-1.92-3.1-1.93-3,0,.42,7.83.11,15.64,0,23.47l2.8-.76c-4-7.47-7.56-15.2-12.06-22.41-1-1.63-3.62-.13-2.59,1.51Z" transform="translate(-400.83 -207.05)"/><path d="M807.56,341.94c-2.35-2.35-4.74-4.65-7.19-6.9a1.53,1.53,0,0,0-2.36.3c-1.92,2.63-4,5.1-6,7.67-.9,1.16-2.57,2.65-2.37,4.28.24,1.91,3.2,4.3,4.29,5.6l7.2,8.61a1.51,1.51,0,0,0,2.36-.3c2.16-4.11,5.59-7.38,7.6-11.58a1.52,1.52,0,0,0-1.3-2.26,53,53,0,0,0-9.32.18c-1.9.2-1.92,3.2,0,3a53,53,0,0,1,9.32-.18l-1.3-2.26c-2,4.2-5.45,7.47-7.6,11.58l2.36-.3-4.8-5.74c-1.24-1.48-4.82-4.45-5.33-6.09-.33-1.07.36-1.57,1.37-2.86.79-1,1.6-2,2.4-3,1.29-1.59,2.55-3.2,3.76-4.86l-2.36.3c2.45,2.25,4.84,4.55,7.19,6.9a1.5,1.5,0,0,0,2.12-2.12Z" transform="translate(-400.83 -207.05)"/></g><g id="goal-label"><path class="cls-3" d="M873.5,523.5c-2.53-7.69-6-15.39-11.15-21.66l13.57,5.6a1.34,1.34,0,0,0,2.15-1l6.34-16.26c3,4.78,5,11.56,7.94,16.34.29.46.66,1,1.21,1s.73-.37,1.11-.57c4.83-2.49,9.13-4.21,12.83-7.49-5,10-8,16-9,24Z" transform="translate(-400.83 -207.05)"/><path d="M874.95,523.1c-2.73-8.05-6.26-15.61-11.53-22.33L862,503.28l11,4.55c1.62.67,3.64,1.94,5.29.85s2-3.75,2.66-5.41l4.93-12.65-2.74.36a115.75,115.75,0,0,1,5.22,11c.9,2,2.07,6.1,4.47,6.83,1.91.59,4.16-1.34,5.76-2.14a51,51,0,0,0,10-6.16l-2.36-1.82c-3.91,7.84-7.91,15.59-9.15,24.36l1.45-1.1h-25a1.5,1.5,0,0,0,0,3h25a1.51,1.51,0,0,0,1.45-1.1c1.21-8.52,5-16,8.85-23.64a1.51,1.51,0,0,0-2.36-1.82,41.27,41.27,0,0,1-7.87,4.94c-.56.28-4.1,2.44-4.65,2.32s-1-1.06-1.34-1.78c-2.52-4.71-4.16-9.83-6.87-14.45a1.52,1.52,0,0,0-2.74.36l-2.82,7.23c-.76,2-1.74,6.83-3.32,8.08-1.21,1-1.38.49-3-.19l-3.39-1.4-7.63-3.15c-1.56-.65-2.25,1.5-1.46,2.51,4.94,6.29,8.21,13.46,10.76,21C872.67,525.72,875.57,524.94,874.95,523.1Z" transform="translate(-400.83 -207.05)"/></g></svg>