<svg id='hand-svg' xmlns="http://www.w3.org/2000/svg" viewBox="0 0 748.57 768.11"><defs><style>.cls-1{fill:#f3bd78;}.cls-2{fill:#cb934b;}.cls-3{fill:#ffd49d;}.cls-4{fill:#020202;}.cls-5{fill:#fff0f0;}.cls-6{fill:#fcd6d6;}.cls-7{fill:none;}
svg #move {
	transition: all 1s;
}
svg #pointer-area:hover #move path,
svg #middle-area:hover #capture path,
svg #ring-area:hover #goal path, {
	fill: cornsilk;
}
</style>
</defs><title>hand</title><g id="hand"><path class="cls-1" d="M89.68,327C78.38,342.66,71.33,360.9,64.4,378.93L16.53,503.34C9.77,520.92,2.92,538.92,2.42,557.75c-.42,15.8,3.66,31.33,6.05,47C15,647.28,9,690.66,3,733.31l-2.2,1.95c28.49-1.72,54.61,14.4,82.1,22.06,56.52,15.76,117.32-4.66,175.24,4.76,10.75,1.75,21.48,4.53,32.35,3.91s21.29-4.64,31.32-9c36.14-15.57,71.7-22.53,92.7-48.53l2.52-3.44c4-10.41,8.62-20,18-26.06,6.83-4.44,14.34-9.22,22-12,33.93-12.3,68.07-23.7,102-36,10-3.63,19.41-6.37,29-11,10.46-5.05,21.34-12.38,32-17,11-4.77,23.09-9.51,35-11,29.36-3.67,65.12,1.75,88-17-5.14-16-17.19-27.36-33-33s-35.22-7-52-7c-43,0-87.71,4.06-129,16-20.53,5.94-39,13.36-59,21-6.31,2.42-12.24,4.72-19,5s-9.81,2.31-14-3a68.75,68.75,0,0,1-11.66-24.34c-1.22-5.49-3.59-10.83-3.54-16.45s2.5-10.84,4.95-15.87q9.68-19.9,20.36-39.29l.9-1.48c21.68-29.07,31-65.24,46.33-98.1,7.46-16,16.37-31.24,25.27-46.47l45.13-77.21C585,220.09,606,182.82,604,142.68c-.64-13-4-26.4-12.92-35.85-10.63-11.31-27.94-15-43-11.11s-27.79,14.4-36.58,27.19c-9.14,13.3-14.38,28.95-23.36,42.35-7.8,11.64-18.22,21.3-26.56,32.56-19.76,26.67-26.92,60.88-45.68,88.27-6.28,9.17-13.79,17.46-20.14,26.58-13.95,20-21.93,43.54-29.73,66.68L346.2,438.13l.3.37c11.14-31.74,29.34-58.39,44.11-88.62,8-16.31,11.33-35,21.91-49.71,4.08-5.68,9.17-10.7,12.27-17,2.69-5.45,3.72-11.55,5.32-17.42,11.37-41.58,51.05-70.12,65.26-110.82,2.72-7.79,4.46-15.92,7.61-23.55,4.11-9.93,10.49-18.7,16.27-27.76a259.79,259.79,0,0,0,22.22-43.31c5.42-13.55,9.39-29.94,1.11-42-3.7-5.37-9.43-9-15.39-11.69-23-10.2-51.69-5.85-70.62,10.68-7.82,6.83-13.92,15.37-19.94,23.83L398.37,95c-10.56,14.84-21.18,29.78-29,46.22-4.88,10.21-8.65,20.91-13,31.37-6.83,16.55-15,32.5-23.36,48.36q-46.45,88.56-97.9,174.39l-1.81,1.51c29.68-47.72,46.53-102.47,75.78-150.46,11.46-18.8,24.84-36.59,33.64-56.78,5.06-11.61,8.57-23.91,14.57-35.06,4.14-7.68,9.39-14.7,14.11-22A181,181,0,0,0,389,97.19c3.54-9.61,6.12-20.84,1-29.7-3.41-5.86-9.58-9.5-15.61-12.59-12.72-6.53-27.22-11.93-41.09-8.43-16.77,4.24-27.6,20-36.87,34.63l-47,74.06c-7,11.06-14.07,22.19-19,34.33-3,7.41-5.16,15.13-8.34,22.46-8.87,20.41-25.06,36.57-38,54.72a192.86,192.86,0,0,0-24.63,47.48c-4.3,12.19-7.85,25.57-17.71,33.94L132.5,396.5c11.19-26,40.49-93.32,51.68-119.28A45.87,45.87,0,0,1,189,268.1c2.3-3.13,5.34-5.62,8.18-8.27A85.93,85.93,0,0,0,219,226.91c4.44-12,6.11-24.94,10.17-37.12,4.43-13.32,11.62-25.53,19.1-37.41,5.69-9,11.69-18.24,13.85-28.7s-.45-22.69-9.18-28.85-20.8-4.55-29.83.86-15.59,14-21.92,22.44l-14.36,19.06c-9,11.94-18.06,24-24.44,37.51-7.2,15.25-10.84,32.09-19.1,46.8-4.58,8.16-10.49,15.5-15.42,23.46-5.3,8.55-9.45,17.75-13.58,26.92L89.62,326.63" transform="translate(0.21 2.04)"/><path class="cls-2" d="M90,652.22a889.32,889.32,0,0,0,81.73-267.49,7.38,7.38,0,0,1,9.37,3.38C176,424,170.84,460.06,159.9,494.61c-3.42,10.8-7.4,21.42-11.37,32l-50.94,136a13.72,13.72,0,0,1-7.07-11.09" transform="translate(0.21 2.04)"/><path class="cls-2" d="M272,448c-4.54,13.78-12.11,9.06-19.15,21.74,9.75-4.44,20-9.3,25.9-18.26s4.91-23.27-4.68-28c-1.49,4.94-1.36,7.47-1.07,12.56C273.17,439,272.94,445.14,272,448Z" transform="translate(0.21 2.04)"/><path class="cls-2" d="M135.6,679.5C208.21,602.22,321.27,568,382.31,481.3c7.5,2,5.31,13.36.94,19.8-19.49,28.76-49.16,48.74-78.09,68L147.79,673.82" transform="translate(0.21 2.04)"/><path class="cls-2" d="M158.35,705.74q140-41.58,278.32-88.58c.08,8.13-8.95,12.84-16.59,15.61q-121.57,44.14-246.86,77c-6.82,1.79-15.75,2.77-19.37-3.28" transform="translate(0.21 2.04)"/><path class="cls-2" d="M105.76,362.2c2.41,10.56-5.5,20.42-12.84,28.37a4.29,4.29,0,0,0,3-.18c7.2-2.37,13.93-7.51,16.16-14.76s-1.51-16.39-8.83-18.36l2,5.06" transform="translate(0.21 2.04)"/></g><g id="dots"><path d="M29.63,547.06a1.5,1.5,0,0,0,0-3,1.5,1.5,0,0,0,0,3Z" transform="translate(0.21 2.04)"/><path d="M39.78,531.83a1.5,1.5,0,0,0,0-3,1.5,1.5,0,0,0,0,3Z" transform="translate(0.21 2.04)"/><path d="M48.24,511.53a1.5,1.5,0,0,0,0-3,1.5,1.5,0,0,0,0,3Z" transform="translate(0.21 2.04)"/><path d="M53.31,489.54a1.5,1.5,0,0,0,0-3,1.5,1.5,0,0,0,0,3Z" transform="translate(0.21 2.04)"/><path d="M61.77,469.23a1.5,1.5,0,0,0,0-3,1.5,1.5,0,0,0,0,3Z" transform="translate(0.21 2.04)"/><path d="M70.23,452.32a1.5,1.5,0,0,0,0-3,1.5,1.5,0,0,0,0,3Z" transform="translate(0.21 2.04)"/><path d="M77,469.23a1.5,1.5,0,0,0,0-3,1.5,1.5,0,0,0,0,3Z" transform="translate(0.21 2.04)"/><path d="M68.54,491.23a1.5,1.5,0,0,0,0-3,1.5,1.5,0,0,0,0,3Z" transform="translate(0.21 2.04)"/><path d="M63.46,506.45a1.5,1.5,0,0,0,0-3,1.5,1.5,0,0,0,0,3Z" transform="translate(0.21 2.04)"/><path d="M55,523.37a1.5,1.5,0,0,0,0-3,1.5,1.5,0,0,0,0,3Z" transform="translate(0.21 2.04)"/><path d="M49.93,538.6a1.5,1.5,0,0,0,0-3,1.5,1.5,0,0,0,0,3Z" transform="translate(0.21 2.04)"/><path d="M43.16,558.9a1.5,1.5,0,0,0,0-3,1.5,1.5,0,0,0,0,3Z" transform="translate(0.21 2.04)"/><path d="M26.24,575.82a1.5,1.5,0,0,0,0-3,1.5,1.5,0,0,0,0,3Z" transform="translate(0.21 2.04)"/><path d="M27.94,558.9a1.5,1.5,0,0,0,0-3,1.5,1.5,0,0,0,0,3Z" transform="translate(0.21 2.04)"/></g><g id="pinky"><path class="cls-2" d="M241.5,164.5c-3,11-5.16,12.85-10.07,25-3,7.41-5.16,15.13-8.34,22.46-8.87,20.41-25.06,36.57-38,54.72a192.86,192.86,0,0,0-24.63,47.48c-4.3,12.19-7.85,25.57-17.71,33.94l-1.29,2.41c-4.67,5.55-9.44,7.68-16.35,9.91l13.72-24.87c10.28-18.64,20.66-37.52,26-58.12,1.77-6.81,3.1-14,7.38-19.6a64,64,0,0,1,6.55-6.68c8.54-8.27,13.37-19.53,20.62-28.95C215,202,230.29,182,235.41,153.9c1.7-9.35,9.16-16.7,15-24.23a97.84,97.84,0,0,1,11.72-12.73s-.59,15.55-6.59,22.55C251.63,144,241.5,164.5,241.5,164.5Z" transform="translate(0.21 2.04)"/><path class="cls-2" d="M189.05,156.41l15.14,6.44A25,25,0,0,1,210,166c4.54,3.58,8.07,8,13,11,1.56,1,1.75,3.57,3.48,3,3.18-1.12,3.9-5.27,3.76-8.64-.08-1.9-1.27-.68-2.24-2.31-1.9-3.19-5-7.31-8.43-8.71-5.54-2.25-10.2-6.33-15.79-8.45a24.82,24.82,0,0,0-13.26-1.18,7.32,7.32,0,0,0-3.63,1.51,3.11,3.11,0,0,0-.9,3.58c.88,1.69,3.26,1.67,5.15,1.42" transform="translate(0.21 2.04)"/><path class="cls-3" d="M2.42,556.75c.5-18.83,7.35-36.83,14.12-54.41L64.4,377.93c6.93-18,11.81-32.76,23.1-48.43l2.12-3.87c8.22-18.25,14.1-32,22.32-50.29l1.56-2.84c4.13-9.17,9-20,14.35-28.55,4.94-8,10.84-15.29,15.42-23.46,8.25-14.71,11.9-31.55,19.1-46.8,6.38-13.52,15.44-25.57,24.44-37.51l14.36-19.06c6.33-8.41,12.9-17,21.92-22.44l.41.81c-.81,13-8.48,30.15-18.5,38.5-24,20-30.22,47.58-45.18,71.61a113.64,113.64,0,0,0-9,16.32c-3.26,7.87-4.71,16.35-6.75,24.62-10.83,43.84-38.38,81.53-54.87,123.57-9.84,25.09-15.69,51.6-25.58,76.67-8.32,21.1-19.46,41-27.18,62.35-9.24,25.52-11.92,26.1-30,46.36Z" transform="translate(0.21 2.04)"/><path class="cls-4" d="M191.95,155.47c11,.44,19,8.54,26.11,16,1.33,1.4,3.45-.72,2.12-2.12-7.73-8.13-16.39-16.44-28.23-16.91-1.93-.08-1.93,2.92,0,3Z" transform="translate(0.21 2.04)"/><path class="cls-4" d="M196.36,170.59A22.66,22.66,0,0,1,206.83,177c1.32,1.41,3.44-.71,2.12-2.12a25.64,25.64,0,0,0-11.79-7.17,1.5,1.5,0,0,0-.8,2.89Z" transform="translate(0.21 2.04)"/><path class="cls-4" d="M158,227.77a25.8,25.8,0,0,1,17.4,15c.73,1.76,3.64,1,2.89-.8a28.94,28.94,0,0,0-19.5-17.09,1.5,1.5,0,0,0-.8,2.89Z" transform="translate(0.21 2.04)"/><path class="cls-4" d="M150.45,245.72a117.74,117.74,0,0,1,15.67,7c1.7.92,3.22-1.67,1.51-2.59a123.17,123.17,0,0,0-16.39-7.34c-1.82-.66-2.6,2.24-.8,2.89Z" transform="translate(0.21 2.04)"/><path class="cls-4" d="M230.95,193.9a199.2,199.2,0,0,1,16.95-38.06c6.25-10.53,13.84-20.76,15.91-33.14,1.51-9.07-.23-19.36-6.71-26.23-7.45-7.89-19.26-8.51-28.94-4.87-10.7,4-18.46,13-25.25,21.79-8.79,11.41-17.54,22.9-26,34.59-7.93,11-14.83,22.48-19.79,35.15-5.14,13.13-8.88,26.89-16.05,39.14-7,12-15.63,22.65-21.78,35.16-6.49,13.2-12.24,26.78-18.28,40.19l-9.54,21.2c-1.92,4.27-3.69,8.54-6.34,12.4-7,10.22-12.17,21.3-16.66,32.8-11.07,28.29-21.79,56.73-32.7,85.08L19.37,491.8c-5.14,13.36-10.69,26.67-14.43,40.51A109.8,109.8,0,0,0,2.23,577c2.39,17.06,6.17,33.73,7.13,51,2,35.15-2.94,70.2-7.82,104.92-.27,1.89,2.62,2.7,2.89.8,4-28.59,8.06-57.3,8.35-86.22a269.31,269.31,0,0,0-2.58-41.25C8.14,592,4.46,577.89,3.95,563.43,3,535.49,16,508.8,25.84,483.31l31.43-81.7c5-13,9.87-26.14,15-39.11,4.59-11.52,10.58-21.45,16.91-32,6.17-10.28,10.3-22.2,15.22-33.13,5.77-12.82,11.28-25.8,17.48-38.42,5.89-12,14-22.31,20.88-33.66,6.46-10.6,10.32-22.38,14.51-34a158.3,158.3,0,0,1,18.1-35.92c7.77-11.41,16.36-22.28,24.66-33.3,8.73-11.59,18.17-25.46,33.25-28.9,16-3.65,28,7.67,28,23.52,0,14.79-9.81,26.84-16.83,39a208.11,208.11,0,0,0-16.43,37.38c-.62,1.83,2.28,2.62,2.89.8Z" transform="translate(0.21 2.04)"/><path class="cls-5" d="M217.61,123.44c.77,3.93,4.13,7,7.86,8.43s7.82,1.68,11.82,1.86c2.77.12,5.63.24,8.24-.72,3.43-1.25,5.94-4.15,8.3-6.94,5.56-6.58,11.49-15,8.47-23.08a19.51,19.51,0,0,0-3.64-5.71c-6.18-7.22-16.18-12.73-25-9.26-6.49,2.55-10.36,9.08-13.75,15.18-2.14,3.85-4.31,7.81-4.91,12.17s.73,9.28,4.37,11.75" transform="translate(0.21 2.04)"/><path class="cls-4" d="M216.16,123.84c1.78,6.47,7.56,9.74,13.86,10.77,6.72,1.1,14.6,1.8,20.23-2.69A44.87,44.87,0,0,0,263.35,114c2.54-6.93.69-13-4.13-18.35-9.15-10.21-24.27-14.59-34.2-3-7.11,8.28-18.23,26.42-6.73,35.53,1.5,1.19,3.63-.92,2.12-2.12-9.34-7.39-.39-21.24,4.69-28.6,3.32-4.81,8-9,14.24-9,5.9,0,11.44,3.22,15.64,7.15,4.85,4.54,8.09,10.14,5.75,16.85-1.88,5.4-5.7,10.15-9.49,14.34-4.76,5.26-9.77,5.74-16.51,5.3-6.37-.42-13.73-2-15.65-9.05a1.5,1.5,0,0,0-2.89.8Z" transform="translate(0.21 2.04)"/><path class="cls-6" d="M216,117c1.11-.91-2.2-4,1-4,17,0,22-1,34,13.5l.72,1c-5.09,3.95-2.76,5.74-9.15,5.88-4.75.1-2.57.61-6.9,1.17-7,.9-16.34-2.8-18.78-9.41-1.89-5.15-2.06-1.2-.89-8.15Z" transform="translate(0.21 2.04)"/><path class="cls-4" d="M218.74,129.8c5.1,3.73,10.5,5,16.83,5.35,7.82.46,13-.84,18.3-6.82,4.67-5.27,9.78-11.63,10.61-18.85.77-6.73-3.13-12.21-8-16.52-10.35-9.26-24.1-10.2-32.92,1.45-7.8,10.3-14.67,23.74-5.18,35.16,1.24,1.49,3.35-.65,2.12-2.12-8.08-9.73-1.59-21.14,4.53-30,3.52-5.09,8.42-9.24,15-9,5.87.24,11.38,3.63,15.48,7.64,4.91,4.8,7.48,10.32,4.93,17.08-2.06,5.46-6.23,10.66-10.32,14.75-7.41,7.43-22,5-29.89-.75C218.7,126.06,217.2,128.67,218.74,129.8Z" transform="translate(0.21 2.04)"/></g><g id="ring"><path class="cls-3" d="M138,357c-2.33,3-5,4-3,9,1.67,4.17,5.45,6.44,8.2,10,.92-17.11,14.51-30.37,23.11-45.19,7.35-12.68,11.22-27.11,18.41-39.89,4.49-8,10.22-15.21,15.92-22.39L219,245.38c3.57-4.49,7.17-9.05,9.49-14.3,2.16-4.88,3.13-10.21,5.17-15.13,3.28-7.91,9.15-14.41,13.75-21.62,5.25-8.21,8.9-17.4,14.56-25.32,4.12-5.77,6.63-12.44,11-18,7.71-9.73,17.42-18.68,21.1-30.54C302,95,315,75,328,49.63,310.74,59.22,300.15,76,290,93c-6.92,11.58-13.68,22.13-23,36-8.2,12.2-16.5,25.85-23.78,38.63C236,180.24,232.18,194.38,225,207c-9.08,15.95-17.72,30.53-29,45-6.29,8.07-12,17-19.06,26.16C175,283,175.11,281.68,173,286s-5.58,10.41-7,15c-2.59,8.38-6.55,16.94-10,25-6,14-9.35,14.83-16.85,27.94Z" transform="translate(0.21 2.04)"/><g id="stroke"><path class="cls-4" d="M234.6,399.59c28.68-46.4,45.39-98.89,73-145.84C321,231,337.21,210,346.92,185.29c5.36-13.66,10.32-26.86,18.5-39.16,7.44-11.18,14.57-22.27,20.1-34.55,4.74-10.53,10.3-22.84,8.51-34.68-1.67-11-10.47-17-19.73-21.71-11-5.55-23.29-10.37-35.82-9.14-10.62,1-19.72,6.7-27,14.24-7.77,8-13.62,17.71-19.57,27.09l-24.56,38.71C252.67,149.22,235.63,172,226.4,198c-5.19,14.61-11.32,27.56-20.57,40.07-8.54,11.53-18.05,22.32-26,34.26a194.67,194.67,0,0,0-19.88,38.39c-5.12,13.32-8.08,28.42-19.19,38.31-1.44,1.29.68,3.4,2.12,2.12,8.09-7.21,12.08-17.17,15.55-27.19,4.25-12.26,8.91-24.19,15.16-35.59,11.86-21.62,29.38-39,42.4-59.75,6.58-10.5,10.28-21.77,14.59-33.29,4.78-12.79,11.92-24.41,19.2-35.9q22.87-36.12,45.81-72.2C308.6,66.66,324.22,43.92,352.09,50a82.77,82.77,0,0,1,18.28,6.63c5.57,2.69,11.55,5.6,15.76,10.24,9.89,10.9,3.65,26.93-1.22,38.65A196.77,196.77,0,0,1,366,140a166.73,166.73,0,0,0-18.08,34.37C343.11,186.9,338,199,331.19,210.6c-6.5,11-13.77,21.61-20.58,32.45-30.92,49.23-48,105.58-78.6,155-1,1.65,1.58,3.16,2.59,1.51Z" transform="translate(0.21 2.04)"/></g><g id="shad"><path class="cls-2" d="M386.53,69.73Q374.71,100.38,360,129.81c-5.85,11.71-12.14,23.4-21.09,33a85.89,85.89,0,0,0-6.64,7.32c-2.91,3.93-4.71,8.55-6.59,13.07a280.79,280.79,0,0,1-43.24,71.37,54.78,54.78,0,0,0-6,8.08,58,58,0,0,0-3.46,8.19c-2,5.37-4.26,10.64-6.51,15.9l-22.24,51.9c-10.43,24.35-20.89,48.75-33.63,72,17.29-5.89,22.95-12.67,31.48-28.34,7.9-14.5,14.94-29.45,21.79-44.47,13.49-29.56,26.25-59.59,43.2-87.4,11.46-18.8,24.84-36.59,33.64-56.78,5.06-11.61,8.57-23.91,14.57-35.06,4.14-7.68,9.39-14.7,14.11-22A181,181,0,0,0,387,101.19c3.54-9.61,6.12-20.84,1-29.7Z" transform="translate(0.21 2.04)"/></g><path class="cls-4" d="M287.55,139.86a99.48,99.48,0,0,1,39.9,30.58c1.19,1.52,3.3-.62,2.12-2.12a101.29,101.29,0,0,0-40.5-31c-1.76-.74-3.29,1.84-1.51,2.59Z" transform="translate(0.21 2.04)"/><path class="cls-4" d="M310.2,141.23A56.45,56.45,0,0,1,327.14,153a1.5,1.5,0,0,0,2.12-2.12,58.65,58.65,0,0,0-17.55-12.21c-1.75-.79-3.27,1.8-1.51,2.59Z" transform="translate(0.21 2.04)"/><path class="cls-4" d="M235.51,241.34a35,35,0,0,0,21.95,7.32,1.5,1.5,0,0,0,0-3A32.39,32.39,0,0,1,237,238.75c-1.53-1.18-3,1.43-1.51,2.59Z" transform="translate(0.21 2.04)"/><path class="cls-4" d="M240.3,222.05c9.23,2.13,20.79,3.06,29,8.11,5.41,3.34,9.58,8.74,16.54,7.52,1.9-.33,1.09-3.23-.8-2.89-6.69,1.18-12.91-7.2-18.91-9.48-7.92-3-16.77-4.24-25-6.15-1.88-.43-2.68,2.46-.8,2.89Z" transform="translate(0.21 2.04)"/><path class="cls-4" d="M219.46,259.28a46.39,46.39,0,0,0,27.74,8.91,1.5,1.5,0,0,0,0-3,43.55,43.55,0,0,1-26.22-8.5c-1.56-1.14-3.06,1.47-1.51,2.59Z" transform="translate(0.21 2.04)"/><path class="cls-5" d="M316.27,93.7c2.71,7.89,11.81,11.29,19.87,13.41,9.7,2.55,20.16,4.67,29.56,1.17,13.76-5.12,20.58-20.21,25.95-33.87a30.18,30.18,0,0,0,2.49-9c.59-9.44-7.56-17.13-15.87-21.66a73.66,73.66,0,0,0-20.15-7.41c-5.07-1.06-10.53-1.54-15.26.57-5,2.25-8.41,7-11.51,11.61-4.87,7.18-9.79,14.44-12.85,22.55s-4.13,17.3-1.17,25.45" transform="translate(0.21 2.04)"/><path class="cls-4" d="M314.82,94.1c2.49,6.27,7.71,9.83,13.84,12.21a74.16,74.16,0,0,0,25.9,5.3c17.29,0,27.77-12.53,34.47-27.1,3.11-6.78,7.51-14.78,6.47-22.42s-7-13.62-13.21-17.68c-13-8.54-35.38-16.82-47.47-3.06a105.72,105.72,0,0,0-16.3,25.76c-4.22,9.44-5.91,19.83-2.64,29.81.6,1.83,3.5,1,2.89-.8-5.24-16,3.24-31,11.92-44,4.37-6.51,8.81-14,17.31-15,8.15-1,17.35,2.18,24.69,5.51,6.63,3,13.25,7,17.28,13.25,5,7.72,1.35,15.67-1.87,23.27-5,11.78-12,24.9-25.32,28.45-8.84,2.36-18.28.21-26.89-2.13-7.09-1.93-15.25-4.78-18.19-12.19-.7-1.77-3.61-1-2.89.8Z" transform="translate(0.21 2.04)"/><path class="cls-6" d="M316,82.5a15.74,15.74,0,0,1,5-2c18.85-4.75,44.08,4.92,55,21l.72,1c-5.09,3.95-10.76,6.74-17.15,6.88-4.75.1-9.18.48-13.57-.39-10-2-18.67-3.4-24-8s-7.17-10.55-6-17.5Z" transform="translate(0.21 2.04)"/><path class="cls-4" d="M314.82,94.1c2.49,6.27,7.71,9.83,13.84,12.21a74.16,74.16,0,0,0,25.9,5.3c17.29,0,27.77-12.53,34.47-27.1,3.11-6.78,7.51-14.78,6.47-22.42s-7-13.62-13.21-17.68c-13-8.54-35.38-16.82-47.47-3.06a105.72,105.72,0,0,0-16.3,25.76c-4.22,9.44-5.91,19.83-2.64,29.81.6,1.83,3.5,1,2.89-.8-5.24-16,3.24-31,11.92-44,4.37-6.51,8.81-14,17.31-15,8.15-1,17.35,2.18,24.69,5.51,6.63,3,13.25,7,17.28,13.25,5,7.72,1.35,15.67-1.87,23.27-5,11.78-12,24.9-25.32,28.45-8.84,2.36-18.28.21-26.89-2.13-7.09-1.93-15.25-4.78-18.19-12.19-.7-1.77-3.61-1-2.89.8Z" transform="translate(0.21 2.04)"/></g><g id="ring-area"><path class="cls-7" d="M176.93,436.12a309.62,309.62,0,0,0,85.35-112.54c9.51-21.42,16.62-44,28.7-64.1,7.1-11.81,15.82-22.56,23.45-34,9.56-14.4,17.36-29.87,25.14-45.31l35.63-70.73c6.86-13.61,13.87-29.18,8.74-43.53-7.24-20.25-35.81-25.22-54.81-15.14s-30.51,29.82-41,48.58L153,340.05c-7.89,14.05-15.91,28.5-18.37,44.42s1.8,33.91,14.65,43.64,34.73,6.94,41.4-7.73" transform="translate(0.21 2.04)"/></g><g id="middle"><g id="shad-2" data-name="shad"><path class="cls-2" d="M366,379.36c-6,17.93-10,41.85-21,57.17-4.68,6.55-12.14,12.63-19,16.82-4.43,2.73-20.66,5.57-23,8.64,12.27-16.22,24.73-32.8,31.32-52C342,387.9,351.68,356.35,361,335c7.78-17.83,5.74-6.06,22-33,6.58-10.9,23.67-36,30-47,2.71-4.74,3.1-15,7-20,9.42-12.1,7-11,16-24,6.29-9.08,7.83-17.6,15-26,6-7.07,16-26.8,22-33.95,19.8-23.8,17.58-60.12,36.31-84.77C518.89,53.64,535.07,43.4,545,31c-3,32-21,60-38.55,85.79-9,13.26-12.21,27.59-17.13,42.63-5,15.23-18.24,25.57-27.75,38.4-19.76,26.67-26.92,60.88-45.68,88.27-6.28,9.17-13.79,17.46-20.14,26.58C381.81,332.72,373.83,356.22,366,379.36Z" transform="translate(0.21 2.04)"/></g><path class="cls-3" d="M215.19,444c6-22.49,16.74-43.06,28.81-63,6.88-11.34,12.12-22.66,19-34,6.06-10,9.09-17.57,16-27,5.33-7.28,11-20.93,15-29,8-16,18.71-30.95,26-48,9.23-21.6,25.09-49.7,35-71,20-43,39-74,68-116.35,4.44-6.48,25.64-43.29,32-38.65,5.48,4-10.41,41.77-13.4,47.87C434.59,79.13,417,95.74,410,110c-3.62,7.37-5.14,17.76-9,25-8,15-15,18-21,30-8.75,17.49-13,38-22.59,56.91C351,234.56,341.35,237.9,335,249c-4.26,7.44-5.17,21.11-10,28.22-8.32,12.37-14.9,24.7-22,37.78-5.87,10.74-13.11,21.5-19.1,32.18-12.54,22.34-33.73,39.37-43.67,63-2.6,6.16-4.37,12.66-7.19,18.73a59.33,59.33,0,0,1-18.23,22.42,21.82,21.82,0,0,1,3-17.27" transform="translate(0.21 2.04)"/><path d="M494.81,155.37c3.79-11.17,6.34-22.43,12.22-32.79,5.62-9.9,12.4-19.09,18-29a262.81,262.81,0,0,0,14.82-30.34c3.7-9,7-18.51,6.93-28.34-.07-19.32-16.07-29.84-33.38-33.61A70.35,70.35,0,0,0,461,10.67C443,22.29,431.57,42.94,419.42,60c-14.08,19.79-28.88,39.25-41.84,59.79-12.79,20.28-20,42.65-29.86,64.32-10.15,22.21-21.93,43.7-33.47,65.21q-39.48,73.58-82.43,145.22a1.5,1.5,0,0,0,2.59,1.51q35.93-60,69.48-121.32,16.73-30.62,32.86-61.58c10.36-20,18.85-40.46,27.46-61.24,8.7-21,21.51-39.42,34.61-57.84C412.53,74.86,426,55.43,440,36.35c12.37-16.92,27.5-29.67,48.79-32.87C506.43.81,534.58,5.05,542,24.2c4.07,10.58,1,22.62-2.81,32.81a236,236,0,0,1-15.78,33.51c-6,10.71-13.39,20.6-19.37,31.33-5.77,10.34-8.31,21.61-12.09,32.72-.62,1.83,2.27,2.62,2.89.8Z" transform="translate(0.21 2.04)"/><path d="M416.7,106.13a69,69,0,0,1,57.38,17.51c1.42,1.31,3.54-.81,2.12-2.12a72.2,72.2,0,0,0-60.3-18.28c-1.9.3-1.09,3.19.8,2.89Z" transform="translate(0.21 2.04)"/><path d="M412.26,128.08a115.9,115.9,0,0,0,57.17,18.7c1.93.11,1.92-2.89,0-3a112.84,112.84,0,0,1-55.66-18.29c-1.62-1.06-3.13,1.54-1.51,2.59Z" transform="translate(0.21 2.04)"/><path d="M422.53,118a64.79,64.79,0,0,1,25.94,7.82c6,3.36,11.31,7.59,18.44,8,1.93.12,1.92-2.88,0-3-8.49-.55-15.61-7.46-23.24-10.72A69,69,0,0,0,422.53,115c-1.92-.17-1.91,2.83,0,3Z" transform="translate(0.21 2.04)"/><path d="M337.48,240.6a354.23,354.23,0,0,1,52.87,17.64c1.76.75,3.29-1.84,1.51-2.59a359,359,0,0,0-53.59-17.94c-1.87-.47-2.67,2.43-.8,2.89Z" transform="translate(0.21 2.04)"/><path d="M338.3,256.74c13.33-1.55,24.38,18.66,38,9.65,1.6-1.06.1-3.66-1.51-2.59-7,4.64-14.72-.94-20.63-4.84-4.86-3.21-9.89-5.92-15.88-5.22-1.89.22-1.92,3.22,0,3Z" transform="translate(0.21 2.04)"/><path d="M338.12,272.22a35.09,35.09,0,0,0,22.41,9.6c1.93.11,1.92-2.89,0-3a31.78,31.78,0,0,1-20.29-8.72c-1.41-1.32-3.53.8-2.12,2.12Z" transform="translate(0.21 2.04)"/><path class="cls-5" d="M441.5,63.5c2.77,10.72,16.8,10.61,27.64,12.9,9.81,2.08,17.55,6,27.36,8.1,1.7.36,5.56-1.14,7.23-1.61a9.75,9.75,0,0,0,3.9-2.54C523,65.86,536.76,45.66,543.89,28.94c.61-1.44-1.75-6.53-2.39-8.44-1-3-.78-2.42-3-5s-1.89-4.63-5-6C516.65,2.11,508.2.87,489.87-.71c-3.52-.3-6.93.49-10.39,1.2a25.39,25.39,0,0,0-12.32,6C453,19.28,445.28,38.82,441.5,57.5A17,17,0,0,0,441.5,63.5Z" transform="translate(0.21 2.04)"/><path d="M440.05,63.9c2.44,7.9,9.84,10.52,17.32,12,5,1,10,1.54,15,2.84,6.25,1.66,12.24,4.12,18.45,5.9,4.94,1.41,7.67,1.66,12.52,0,4.66-1.61,7.9-5.5,11.21-9A172.45,172.45,0,0,0,536,47.24a145,145,0,0,0,7.4-13.62c2.14-4.53,2.34-6.09.56-10.8-1-2.63-1.73-5.12-3.5-7.32-1.43-1.77-2.37-4.1-4-5.72s-3.88-2.28-5.89-3.12a110,110,0,0,0-29.32-7.74c-10.77-1.31-22.41-2.25-32,4-9.71,6.39-16.57,17.86-21.19,28.24A117.83,117.83,0,0,0,442.22,48c-1.41,5.15-3.08,10.55-2.16,15.92.33,1.9,3.22,1.09,2.89-.8-.77-4.51.8-9.24,2-13.56A119.16,119.16,0,0,1,449.36,36a79.35,79.35,0,0,1,15-24.62C472.19,3,482.06.06,493.41,1.1c8.44.78,16.83,1.81,25,4.27a93.49,93.49,0,0,1,12.71,4.71c3.3,1.56,6.17,5.28,8.08,8.52,1.4,2.38,3.16,6.92,3,9.61-.29,4.2-3.82,9-5.86,12.68a170.17,170.17,0,0,1-17.2,25C513.82,72.21,506.5,83,497.35,83c-5.3.05-11.63-3.21-16.6-4.89a99.79,99.79,0,0,0-14.92-3.9c-8.06-1.39-20-1.82-22.88-11.16C442.38,61.26,439.48,62,440.05,63.9Z" transform="translate(0.21 2.04)"/><path class="cls-6" d="M445,50.5a15.74,15.74,0,0,1,5-2c18.85-4.75,51.08,3.42,62,19.5l3,5c-5.09,3.95-10.61,10.86-17,11-4.75.1-18.61-6.12-23-7-10-2-21.67-2.4-27-7s-8.17-5.05-7-12Z" transform="translate(0.21 2.04)"/><path d="M440.05,63.9c2.44,7.9,9.84,10.52,17.32,12,5,1,10,1.54,15,2.84,6.25,1.66,12.24,4.12,18.45,5.9,4.94,1.41,7.67,1.66,12.52,0,4.66-1.61,7.9-5.5,11.21-9A172.45,172.45,0,0,0,536,47.24a145,145,0,0,0,7.4-13.62c2.14-4.53,2.34-6.09.56-10.8-1-2.63-1.73-5.12-3.5-7.32-1.43-1.77-2.37-4.1-4-5.72s-3.88-2.28-5.89-3.12a110,110,0,0,0-29.32-7.74c-10.77-1.31-22.41-2.25-32,4-9.71,6.39-16.57,17.86-21.19,28.24A117.83,117.83,0,0,0,442.22,48c-1.41,5.15-3.08,10.55-2.16,15.92.33,1.9,3.22,1.09,2.89-.8-.77-4.51.8-9.24,2-13.56A119.16,119.16,0,0,1,449.36,36a79.35,79.35,0,0,1,15-24.62C472.19,3,482.06.06,493.41,1.1c8.44.78,16.83,1.81,25,4.27a93.49,93.49,0,0,1,12.71,4.71c3.3,1.56,6.17,5.28,8.08,8.52,1.4,2.38,3.16,6.92,3,9.61-.29,4.2-3.82,9-5.86,12.68a170.17,170.17,0,0,1-17.2,25C513.82,72.21,506.5,83,497.35,83c-5.3.05-11.63-3.21-16.6-4.89a99.79,99.79,0,0,0-14.92-3.9c-8.06-1.39-20-1.82-22.88-11.16C442.38,61.26,439.48,62,440.05,63.9Z" transform="translate(0.21 2.04)"/></g><g id="middle-area"><path class="cls-7" d="M326.5,462.26c7.94-21.41,15.49-43,24.16-64.1,47-114.3,125.95-212.66,178.9-324.31,9.76-20.58,17.56-47.92,1.2-63.77-8.24-8-20.59-10.28-32-9.46-24.41,1.74-46.63,15.8-63.21,33.81s-28.33,39.83-39.9,61.4L241.33,383.46c-6.48,12.09-13.12,24.73-13.59,38.43-.61,17.95,10.38,35.48,26.28,43.82s35.89,7.69,51.82-.61c22-11.45,35.06-35.45,40.32-59.69" transform="translate(0.21 2.04)"/></g><g id="pointer"><path class="cls-2" d="M448,476.57,422,526s1,30,10,47c5.91,11.16-15-4-20-22-.58-2.1-6.62-18.18-9-30-3.13-15.58,4.42-52.92,5.39-55.57,6-16.41,22.47-29,30.61-44.43,7.56-14.3,9.44-26.7,17-41,4.75-9,6.88-22.8,13.27-30.68,10-12.27,23.44-21.28,33-33.82,9.36-12.21,14.55-27.14,22.85-40.12,6.75-10.55,15.44-19.67,23.21-29.48,25.73-32.49,40.87-72,55.62-110.91l.5.5c2,40.14-19.49,84.59-39.77,119.28L519.61,332c-8.9,15.23-17.82,30.49-25.27,46.47-15.33,32.86-24.65,69-46.33,98.1" transform="translate(0.21 2.04)"/><path class="cls-2" d="M475.94,210.64c10.06-1.64,21.25-1.14,31.13,3.23C520.89,220,533,228,546.92,235.4c3.32,1.76,7.59,4.07,10.29,1.45s.7-7.28-1.75-10.19c-7.14-8.46-16.9-14.23-26.64-19.51-8.26-4.48-17.05-8.84-26.45-8.88-9.68,0-18.72,4.48-27.33,8.9a2.26,2.26,0,0,0-.91.69c-.74,1.13.86,2.36,2.19,2.58a11.23,11.23,0,0,0,5-.29" transform="translate(0.21 2.04)"/><path class="cls-3" d="M534.83,106.12c-7,32.62-19.31,65.76-44.34,87.83-8.94,7.88-19.52,14.4-25.66,24.6-2.78,4.61-4.5,9.76-6.39,14.79a222.49,222.49,0,0,1-29.54,54.32c-6,8.05-12.49,15.71-17.84,24.19C388.26,348,389,394.93,367.8,432c-7.07,12.34-16.39,23.22-25.71,34-3.84,4.43-8.2,9.14-14,10a533.46,533.46,0,0,0,39.71-97.13c5.45-18.29,10.08-37.25,20.62-53.16,7.22-10.91,14.25-19.83,21.6-30.66,7-10.36,14.44-22.23,19.07-33.87,5.11-12.87,11.82-24.26,16.93-37.13,2.42-6.08,5.77-13,10-18,5.86-6.92,12.23-11.78,17.32-19.3,2.1-3.1,3.45-6.64,5.2-10,6.28-11.94,17.41-20.64,24.43-32.15,4.54-7.45,7.24-15.88,11.55-23.47s10.85-14.65,19.41-16.31" transform="translate(0.21 2.04)"/><g id="v"><path d="M449.3,477.32c16.64-22.6,26.13-49.11,36.45-74.94,11.71-29.3,27.28-56.18,43.17-83.36s32.41-54.43,47.77-82.1c13.79-24.83,26.32-51.5,28.57-80.21,1.8-23-3.15-50.3-26.77-60.3-23-9.75-48,1.11-63.34,19.24-8.52,10.09-13.86,22.15-19.77,33.83-6.92,13.68-16,24.89-26,36.41a160,160,0,0,0-22.68,33.83c-6.19,12.42-11.23,25.37-17,38a195.89,195.89,0,0,1-24.91,40.62c-10.29,13-19,26.42-25.74,41.65-6.63,15.06-11.7,30.74-17,46.31l-17.35,51.43c-.62,1.83,2.28,2.62,2.89.8,9.46-28,18.21-56.46,28.75-84.13,5.24-13.76,11.38-27.27,19.65-39.5,7.81-11.55,17.44-21.72,24.75-33.62C434.47,259,441.72,233.62,454.75,211c7.18-12.44,16.77-22.68,26-33.6,8.4-10,14.59-21,20.35-32.63,6.08-12.31,12.45-24.37,22.69-33.78,9.41-8.65,21.5-14.79,34.44-15.26,13.16-.48,26.56,4.62,34.55,15.39,7.77,10.47,9.88,24.09,9.88,36.82,0,28.87-11.64,56.12-25.06,81.13-14.21,26.49-30,52.17-45.2,78.11-16.51,28.26-33.74,56.14-46.28,86.46-11.61,28.09-21.15,57.4-39.36,82.13-1.15,1.56,1.46,3.05,2.59,1.51Z" transform="translate(0.21 2.04)"/></g><path class="cls-5" d="M519.75,148.5A291.45,291.45,0,0,1,532.88,107c1.31-3.27,2.78-6.66,5.51-8.9,2.53-2.08,5.85-2.92,9.09-3.47a72.6,72.6,0,0,1,42.85,5.83c6.64,3.13,13.09,7.61,16.16,14.28,3.16,6.87,2.18,15.09-.9,22s-8.05,12.78-13,18.49c-7.92,9.14-17.41,18.88-29.5,19.15-4.75.1-9.39-1.32-13.9-2.83-6.68-2.24-13.44-4.81-18.78-9.41s-12.06-6.7-10.89-13.65" transform="translate(0.21 2.04)"/><path d="M521.2,148.89c2-8.29,4.28-16.49,7-24.59q1.93-5.84,4.11-11.6c1.71-4.51,3.23-10.26,7.15-13.37,6.39-5.07,17.79-4.61,25.56-4a70.43,70.43,0,0,1,25.25,6.76c7,3.39,13.64,8.33,15.91,16.08,2.6,8.83-1.23,18.14-6.14,25.38a122,122,0,0,1-15.29,18c-5.48,5.4-12.2,10.56-20.14,11.27-8.63.77-19.19-3.45-26.71-7.46-3.64-1.94-6.67-4.63-10-7-3.61-2.6-7.35-4.82-6.86-9.83.19-1.92-2.81-1.91-3,0-.75,7.58,6.24,10.63,11.33,14.71,7.29,5.84,16.41,9.38,25.43,11.61,18.81,4.65,32-9.95,42.84-23.17s19-32.6,3.76-45.93c-13.6-11.94-35.18-15.36-52.55-12.78-4.56.68-9.26,1.72-12.58,5.15-3.13,3.24-4.6,8-6.18,12.06a298.38,298.38,0,0,0-11.74,38c-.45,1.88,2.44,2.68,2.89.8Z" transform="translate(0.21 2.04)"/><path class="cls-6" d="M519.5,148.5a15.74,15.74,0,0,1,5-2c18.85-4.75,44.08,4.92,55,21l.72,1c-5.09,3.95-10.76,6.74-17.15,6.88-4.75.1-9.39-1.32-13.9-2.83-6.68-2.24-13.44-4.81-18.78-9.41s-12.06-6.7-10.89-13.65Z" transform="translate(0.21 2.04)"/><path d="M478.64,213.21a62.65,62.65,0,0,1,42.4,8.46c10.39,6.43,19.09,16,31.65,18,1.89.3,2.7-2.59.8-2.89-14.38-2.32-24-14.77-36.72-20.87a66.31,66.31,0,0,0-38.93-5.6c-1.9.29-1.09,3.18.8,2.89Z" transform="translate(0.21 2.04)"/><path d="M501.08,204.16a84.26,84.26,0,0,1,32.24,11.3,1.5,1.5,0,0,0,1.51-2.59,87.9,87.9,0,0,0-33.75-11.71c-1.91-.25-1.89,2.75,0,3Z" transform="translate(0.21 2.04)"/><path d="M439.54,288.61a82.13,82.13,0,0,1,65.25,15.74c1.51,1.17,3.65-.94,2.12-2.12a85.4,85.4,0,0,0-68.17-16.52c-1.9.36-1.09,3.25.8,2.89Z" transform="translate(0.21 2.04)"/><path d="M442.71,303.73A119.62,119.62,0,0,1,457.44,310c4,2.12,6,5.08,8.33,8.81,2.58,4.13,6.59,7.54,11.6,5.14,1.74-.83.22-3.42-1.51-2.59-5.2,2.5-7.68-4.9-9.76-7.93a17.4,17.4,0,0,0-4.64-4.56c-5.3-3.59-12-5.79-17.93-8-1.81-.67-2.59,2.22-.8,2.89Z" transform="translate(0.21 2.04)"/><path d="M444.89,321.12a16.43,16.43,0,0,1,10.45,8,1.5,1.5,0,0,0,2.59-1.51,19.44,19.44,0,0,0-12.24-9.36c-1.87-.47-2.67,2.42-.8,2.89Z" transform="translate(0.21 2.04)"/><path d="M521.2,148.89c2-8.29,4.28-16.49,7-24.59q1.93-5.84,4.11-11.6c1.71-4.51,3.23-10.26,7.15-13.37,6.39-5.07,17.79-4.61,25.56-4a70.43,70.43,0,0,1,25.25,6.76c7,3.39,13.64,8.33,15.91,16.08,2.6,8.83-1.23,18.14-6.14,25.38a122,122,0,0,1-15.29,18c-5.48,5.4-12.2,10.56-20.14,11.27-8.63.77-19.19-3.45-26.71-7.46-3.64-1.94-6.67-4.63-10-7-3.61-2.6-7.35-4.82-6.86-9.83.19-1.92-2.81-1.91-3,0-.75,7.58,6.24,10.63,11.33,14.71,7.29,5.84,16.41,9.38,25.43,11.61,18.81,4.65,32-9.95,42.84-23.17s19-32.6,3.76-45.93c-13.6-11.94-35.18-15.36-52.55-12.78-4.56.68-9.26,1.72-12.58,5.15-3.13,3.24-4.6,8-6.18,12.06a298.38,298.38,0,0,0-11.74,38c-.45,1.88,2.44,2.68,2.89.8Z" transform="translate(0.21 2.04)"/></g><g id="pointer-area"><path class="cls-7" d="M348.33,432.73c-5.44,19.11-10.43,41.28,1,57.52,9.45,13.4,28.08,18.09,44.06,14.41s29.53-14.31,40.57-26.44c44.48-48.87,53.58-120.77,91.52-174.88,14.33-20.43,32.57-38,45.8-59.16,12.71-20.31,20.4-43.28,28-66,3.86-11.56,7.76-23.49,6.93-35.64-2-29.93-38.35-51.82-65.78-39.64-16.48,7.32-27.19,23.23-37,38.35L441.21,237.1c-41.59,64.08-84.15,130.57-96.49,206" transform="translate(0.21 2.04)"/></g><g id="big"><path class="cls-2" d="M264.8,762.73c8.78-11.1,22.31-17.11,35.16-23.06,34.33-15.89,67.65-34.26,98-56.86,11.38-8.48,25.14-23.92,38.05-29.8,9.09-4.14,16.38-11.3,26-14,22.21-6.24,40.32-8.12,62-16,10.26-3.73,12.91-1.95,22-8,4.51-3,11.68-6.94,17-8,25-5,36.94-11.5,40-14,22-18,40-30,83-15,2.54,2.46,0,9.14-3,11s-9.76.56-13.29.84C629,593,596,618,555,631c-32.26,10.23-59.21,27.82-94,36-17,4-31,16-39,30-3.41,6-8.63,11.68-13,17-6,7.27-12.76,11.46-21,16-36.71,20.23-83,41-120,34.83-2.57-.43-6.25-1.62-5.19-4" transform="translate(0.21 2.04)"/><path class="cls-3" d="M430.83,577.41c8.68,5.17,19.09,6.85,29.18,6.43,25.12-1,47.93-14.15,72-21.42,15.53-4.69,32.11-4.82,47.73-9.2C609,545,681,543,709,544c-6-11-64.24-8.59-70.95-8.5C588,536.17,537.62,543.32,492,564c-9.84,4.46-20.37,6.59-30.81,9.34s-22.17,2.74-31.38-2.9a3.72,3.72,0,0,0-1.06-.51c-1.66-.39-2.89,1.91-2.23,3.48s2.32,2.43,3.86,3.16" transform="translate(0.21 2.04)"/><path class="cls-4" d="M446.81,474.29c-7.1,12.93-14,26-20.36,39.29-2.05,4.26-4.13,8.6-4.85,13.31-1,6.52,1.33,12.31,2.89,18.52,2.44,9.69,1.44,21.46,10.19,28.21,8.41,6.5,19.67,5.12,29.12,2,13.38-4.36,26.35-10.13,39.56-15a377.66,377.66,0,0,1,40.54-12.62c27.52-6.7,55.79-9.77,84.05-10.9,13.71-.55,27.47-.8,41.19-.42,14,.38,28.22,1.76,41.27,7.07,11,4.48,21.24,12,27.5,22.17.93,1.51,3.88,5.83,3.67,7.54-.25,2.07-5.3,4.28-6.9,5.17a67.68,67.68,0,0,1-16.88,6.43c-22.86,5.62-46.83,2.87-69.87,7.46-27.1,5.4-49.4,22-74.94,31.6-30.52,11.53-61.35,22.3-92,33.42-13.77,5-28.87,9-41.47,16.64a56.48,56.48,0,0,0-22.92,27.4c-.72,1.79,2.18,2.57,2.89.8a53.23,53.23,0,0,1,23-26.49c10.74-6.09,23.07-9.59,34.63-13.78l73.1-26.51c11.44-4.15,23-8.09,34.2-12.82,10.87-4.58,21-10.56,31.46-15.9,21.57-11,44-13.64,67.84-14.87,21.26-1.1,43.49-2.71,60.8-16.49a1.46,1.46,0,0,0,.39-1.46c-7.88-23.07-31.09-35-53.88-38.57-13.95-2.17-28.16-2.05-42.23-1.91-15.19.15-30.38.74-45.52,2-29.09,2.47-57.87,7.64-85.63,16.82-14.33,4.74-28.37,10.28-42.44,15.71-12.26,4.73-32.52,13.71-42.14-.61-3.88-5.77-3.72-13.29-5-19.87-1.72-8.84-5.37-16.19-2.26-25.28,2.7-7.88,7.17-15.46,10.95-22.86q6.13-12,12.63-23.79c.93-1.69-1.66-3.21-2.59-1.51Z" transform="translate(0.21 2.04)"/><path class="cls-5" d="M683.2,590.87c-1.6-4.16-.09-9,2.8-12.42s7-5.55,11-7.33a92.51,92.51,0,0,1,38.08-7.65,10.94,10.94,0,0,1,9.39,4.91,13.2,13.2,0,0,1,2,10.13c-.48,1.87-4.47,5.05-6,6-1.73,1.07-3.74,1.35-5.7,1.86a153,153,0,0,1-50.65,4.36Z" transform="translate(0.21 2.04)"/><path d="M684.65,590.48c-4.15-13.93,16.41-20,26.23-22.56,9.29-2.43,32.68-8.44,34.25,6.4.68,6.45-5.34,9.27-10.74,10.6A166,166,0,0,1,716,588.46a152.21,152.21,0,0,1-18.66,1.26c-4.71,0-10-1.06-14.57-.29-1.9.32-1.09,3.21.8,2.89,3.69-.62,8.1.37,11.88.4q6.62,0,13.23-.48a160.39,160.39,0,0,0,24.65-4c5.24-1.26,10.23-2.75,13.51-7.42,3-4.22,1.1-10.88-2-14.53-4.1-4.81-10.16-4.54-16-4.23a94.32,94.32,0,0,0-23.09,4.16c-10.82,3.39-28.39,10.46-24.06,25C682.31,593.12,685.2,592.33,684.65,590.48Z" transform="translate(0.21 2.04)"/><path class="cls-6" d="M689.92,575a9.76,9.76,0,0,1,6.17,5.44,22.53,22.53,0,0,1,1.82,8.25,1.7,1.7,0,0,1-.39,1.5,1.67,1.67,0,0,1-.93.26,64.37,64.37,0,0,1-12.42-.3.87.87,0,0,1-.59-.23.86.86,0,0,1-.12-.62,20.35,20.35,0,0,1,3.42-10.09,8.8,8.8,0,0,1,3.86-3.47" transform="translate(0.21 2.04)"/><path d="M684.65,590.48c-4.15-13.93,16.41-20,26.23-22.56,9.29-2.43,32.68-8.44,34.25,6.4.68,6.45-5.34,9.27-10.74,10.6A166,166,0,0,1,716,588.46a152.21,152.21,0,0,1-18.66,1.26c-4.71,0-10-1.06-14.57-.29-1.9.32-1.09,3.21.8,2.89,3.69-.62,8.1.37,11.88.4q6.62,0,13.23-.48a160.39,160.39,0,0,0,24.65-4c5.24-1.26,10.23-2.75,13.51-7.42,3-4.22,1.1-10.88-2-14.53-4.1-4.81-10.16-4.54-16-4.23a94.32,94.32,0,0,0-23.09,4.16c-10.82,3.39-28.39,10.46-24.06,25C682.31,593.12,685.2,592.33,684.65,590.48Z" transform="translate(0.21 2.04)"/><path class="cls-4" d="M580.2,621c-19.12.52-15.64-27-17.52-39-.3-1.9-3.19-1.09-2.89.8,1.53,9.79-.32,20.48,4,29.69,3.08,6.54,8.87,11.75,16.4,11.55,1.93-.05,1.93-3.05,0-3Z" transform="translate(0.21 2.04)"/><path class="cls-4" d="M593.13,614.27l-9.28-19.22c-.84-1.74-3.43-.22-2.59,1.51l9.28,19.22c.84,1.74,3.43.22,2.59-1.51Z" transform="translate(0.21 2.04)"/><path class="cls-4" d="M607.06,610.12a48.35,48.35,0,0,1-2.55-17.26c.06-1.93-2.94-1.93-3,0a50.66,50.66,0,0,0,2.65,18.06c.61,1.82,3.51,1,2.89-.8Z" transform="translate(0.21 2.04)"/></g><g id="move"><path d="M364.15,451a163.63,163.63,0,0,0,21.31,8.44c1.84.58,2.63-2.31.8-2.89a158,158,0,0,1-20.6-8.13c-1.73-.83-3.26,1.76-1.51,2.59Z" transform="translate(0.21 2.04)"/><path d="M365.34,451.43l13-2.37a1.51,1.51,0,0,0,.9-2.2,47,47,0,0,0-8.07-9.66l-1.46,2.51,21.59,5.36c1.87.47,2.67-2.43.8-2.89l-21.59-5.36a1.51,1.51,0,0,0-1.46,2.51,44.21,44.21,0,0,1,7.6,9.05l.9-2.2-13,2.37c-1.9.35-1.09,3.24.8,2.89Z" transform="translate(0.21 2.04)"/><path d="M379.65,422.51a50.59,50.59,0,0,0,4.1,11.49,1.52,1.52,0,0,0,1.69.69l10.36-2.52c1.86-.45,4.57-.56,6.2-1.63,3.16-2.06-.37-5.53-1.78-7.43-1.94-2.64-4.35-8-8.1-8.2-1.57-.1-3.23.88-4.62,1.5l-8.74,3.89c-1.76.78-.24,3.37,1.51,2.59,2.91-1.3,5.82-2.62,8.74-3.89q2.06-2,3.75.11a5,5,0,0,1,2.51,2.32c1,1.19,1.9,2.58,2.83,3.83.39.53,2.12,2.37,2.08,2.75s-4.9,1.19-5.18,1.26l-10.36,2.52,1.69.69a47,47,0,0,1-3.79-10.78c-.42-1.88-3.32-1.09-2.89.8Z" transform="translate(0.21 2.04)"/><path d="M387.12,413a183.87,183.87,0,0,0,22.3-4.85,1.51,1.51,0,0,0,.9-2.2,42.28,42.28,0,0,0-15.73-13.18c-1.73-.84-3.25,1.75-1.51,2.59a39.26,39.26,0,0,1,14.66,12.1l.9-2.2a183.87,183.87,0,0,1-22.3,4.85c-1.9.29-1.09,3.18.8,2.89Z" transform="translate(0.21 2.04)"/><path d="M401.08,375.71a87.2,87.2,0,0,0,1.6,12c.37,1.77.59,4.6,2.41,5.51,2,1,5.77-.48,7.71-.93a140.52,140.52,0,0,0,13.58-3.94c1.82-.62,1-3.52-.8-2.89-4.74,1.62-10.27,3.92-15.31,4.33-3.54.29-4.43-1.27-5-4.52a82.13,82.13,0,0,1-1.16-9.58c-.13-1.92-3.13-1.93-3,0Z" transform="translate(0.21 2.04)"/><path d="M407.4,391.58l8.91-12.93c1.1-1.59-1.5-3.1-2.59-1.51l-8.91,12.93c-1.1,1.59,1.5,3.1,2.59,1.51Z" transform="translate(0.21 2.04)"/></g><g id="capture"><path d="M269.48,399.18c-6.72,6-8.6,19.62,2.67,21.94,9.22,1.9,21.79-6.18,18.59-16.48-.57-1.84-3.47-1.05-2.89.8,2.4,7.72-7.4,13.94-14.31,12.79-9.49-1.58-7.32-12.09-1.94-16.92,1.44-1.29-.69-3.41-2.12-2.12Z" transform="translate(0.21 2.04)"/><path d="M274.53,388.93a110.83,110.83,0,0,0,23.94,15.37c1.74.82,3.26-1.77,1.51-2.59a107.84,107.84,0,0,1-23.33-14.9c-1.47-1.23-3.6.88-2.12,2.12Z" transform="translate(0.21 2.04)"/><path d="M276,389.82h29.46a1.5,1.5,0,0,0,0-3H276a1.5,1.5,0,0,0,0,3Z" transform="translate(0.21 2.04)"/><path d="M284.27,395.86h21.15a1.5,1.5,0,0,0,0-3H284.27a1.5,1.5,0,0,0,0,3Z" transform="translate(0.21 2.04)"/><path d="M282.48,378.81a93.5,93.5,0,0,0,25.21,3.92c1.93,0,1.93-3,0-3a90.56,90.56,0,0,1-24.41-3.82c-1.85-.55-2.65,2.34-.8,2.89Z" transform="translate(0.21 2.04)"/><path d="M281.65,377.67l9.21-3.33,2.3-.83a2.49,2.49,0,0,1,1.62,2.6,30.8,30.8,0,0,1,.63,4.71c.25,1.89,3.26,1.91,3,0-.35-2.61.15-9.77-3.49-10.52-2-.4-4.25.94-6,1.57l-8.06,2.92c-1.8.65-1,3.55.8,2.89Z" transform="translate(0.21 2.04)"/><path d="M303.05,367.87l-6.66-11.68-.54,2.05a58.54,58.54,0,0,1,10.73-5.47c1.78-.69,1-3.59-.8-2.89a62.28,62.28,0,0,0-11.45,5.78,1.53,1.53,0,0,0-.54,2.05l6.66,11.68a1.5,1.5,0,0,0,2.59-1.51Z" transform="translate(0.21 2.04)"/><path d="M295.26,358.53l20.31,4.19c1.88.39,2.69-2.5.8-2.89l-20.31-4.19c-1.88-.39-2.69,2.5-.8,2.89Z" transform="translate(0.21 2.04)"/><path d="M302,345.25a22.7,22.7,0,0,0,13.76,2.85c2.77-.32,9.07-1.51,10.41-4.43,1.42-3.09-1.9-9.46-3.53-11.92a22.35,22.35,0,0,0-10.69-8.46c-1.8-.71-2.58,2.19-.8,2.89a18.89,18.89,0,0,1,8.9,7.08c1.39,2.08,4,6.59,3,9.07-.86,2.16-7.2,2.85-9.19,2.92a19.67,19.67,0,0,1-10.32-2.6c-1.69-.94-3.2,1.65-1.51,2.59Z" transform="translate(0.21 2.04)"/><path d="M315.71,320.66l17.93,5.23a1.5,1.5,0,0,0,.8-2.89l-17.93-5.23a1.5,1.5,0,0,0-.8,2.89Z" transform="translate(0.21 2.04)"/><path d="M314.14,319.55a58.79,58.79,0,0,0,12-6.13l-2.05-.54a19.13,19.13,0,0,1,2,9.7c-.09,1.93,2.91,1.93,3,0a22.21,22.21,0,0,0-2.43-11.21,1.51,1.51,0,0,0-2.05-.54,55.42,55.42,0,0,1-11.24,5.83c-1.79.68-1,3.58.8,2.89Z" transform="translate(0.21 2.04)"/><path d="M328.25,323.49a29.24,29.24,0,0,1,12.37-6c1.88-.42,1.09-3.32-.8-2.89a32.51,32.51,0,0,0-13.7,6.77c-1.49,1.23.64,3.34,2.12,2.12Z" transform="translate(0.21 2.04)"/><path d="M324.89,293.35c1.46,3.64,2.75,7.43,4.41,11,.73,1.58,1.36,2.88,3.12,3.54,2,.76,4.5-.24,6.43-.79,4.08-1.17,8.14-2.4,12.21-3.6,1.85-.54,1.06-3.44-.8-2.89-4.63,1.37-9.26,3-14,4.12-3.94.95-4.8-2.89-6-5.88l-2.52-6.28c-.71-1.77-3.61-1-2.89.8Z" transform="translate(0.21 2.04)"/><path d="M334,306.76l6.2-12c.89-1.71-1.7-3.23-2.59-1.51l-6.2,12c-.89,1.71,1.7,3.23,2.59,1.51Z" transform="translate(0.21 2.04)"/></g><g id="goal"><path d="M180.3,347.08q-7.43,1.91-14.72,4.25a1.51,1.51,0,0,0-.66,2.51l10.82,9.91c1.44,1.32,3.15,3.56,5.23,3.85,2.46.34,5.63-2.19,7.54-3.3a115,115,0,0,0,11.75-7.91c.8-.61,1.14-2.06,0-2.59A43.68,43.68,0,0,0,186.78,350a1.44,1.44,0,0,0-1.3.74L182.28,358c-.78,1.75,1.81,3.28,2.59,1.51,1.34-3,1.68-6.21,5.62-5.9,2.71.21,5.87,1.71,8.26,2.82v-2.59c-2.59,2-5.23,3.85-8,5.6-2.13,1.36-5.89,4.57-8.44,4.87s-5.39-3.47-7.19-5.12L167,351.71l-.66,2.51q7.3-2.34,14.72-4.25c1.87-.48,1.08-3.37-.8-2.89Z" transform="translate(0.21 2.04)"/><path d="M178.27,330.81c3,4.28,6.29,8.67,11.76,9.51,6,.93,13.16-1.34,18.77-3.3a1.52,1.52,0,0,0,.66-2.51q-4.59-4.79-9.17-9.59c-1.41-1.46-2.76-3.17-4.81-3.69-2.49-.63-5.92.61-8.28,1.21a84.89,84.89,0,0,0-11.55,3.88,1.52,1.52,0,0,0-.66,2.51l4.68,4.07c1.45,1.26,3.58-.85,2.12-2.12l-4.68-4.07-.66,2.51c4.87-2,11.3-5,16.65-5,3.3,0,5,2.73,7,4.88l7.21,7.53.66-2.51a52.37,52.37,0,0,1-14.32,3.28c-6.3.31-9.51-3.34-12.82-8.11-1.09-1.58-3.69-.08-2.59,1.51Z" transform="translate(0.21 2.04)"/><path d="M214.27,321.44c-6.52-7.06-14.66-12-22.9-16.76l-.76,2.8q17.47-.8,34.94-.37c1.93,0,1.93-3,0-3q-17.48-.43-34.94.37a1.51,1.51,0,0,0-.76,2.8c8,4.66,15.94,9.42,22.29,16.29,1.31,1.42,3.43-.7,2.12-2.12Z" transform="translate(0.21 2.04)"/><path d="M200.08,313.23l21.62-1c1.92-.09,1.93-3.09,0-3l-21.62,1c-1.92.09-1.93,3.09,0,3Z" transform="translate(0.21 2.04)"/><path d="M201.64,293a222.19,222.19,0,0,0,30,.81,1.52,1.52,0,0,0,1.3-2.26l-5.4-9.86c-.93-1.69-3.52-.18-2.59,1.51l5.4,9.86,1.3-2.26a222.19,222.19,0,0,1-30-.81c-1.92-.18-1.91,2.82,0,3Z" transform="translate(0.21 2.04)"/></g><g id="contour"><path d="M1.24,736.27c29.8,1.26,57,14.25,85.52,21.7,30.31,7.92,61.24,6.16,92.17,4.15,15.56-1,31.15-2,46.75-1.42,16.08.55,31.78,4,47.8,5,27.54,1.57,54.78-5.53,79.77-16.72a298.55,298.55,0,0,0,41.53-23c10.76-7.05,23-14.71,26.68-27.82a1.5,1.5,0,0,0-2.89-.8c-3.77,13.29-17.35,20.94-28.25,27.94a297.94,297.94,0,0,1-36.19,20c-25.69,11.84-53.93,19.31-82.39,17.29-14.77-1-29.27-4.15-44.1-4.77-15.61-.65-31.21.22-46.78,1.22-30.35,2-60.91,4.15-90.75-3.26S32.24,734.58,1.24,733.27c-1.93-.08-1.93,2.92,0,3Z" transform="translate(0.21 2.04)"/></g></svg>