<svg xmlns="http://www.w3.org/2000/svg" viewBox="0 0 562.23 366.23"><defs><style>.cls-1{fill:#fff;}.cls-2{fill:none;}.cls-3{fill:#f2c94c;}</style></defs><title>king-text</title><g id="king-page"><path class="cls-1" d="M958.5,202.5c1.2,36.74,1.6,73.5,1.86,110.26q.2,28.12.38,56.23c0,5.8,2.66,18.07-1.66,22.43-2.2,2.23-17.07,5.55-19.72,4.49,4.88,2,18,4.5,21,8.86,3.19,4.58,1,17.14,1.07,22.68s1.76,12.84.51,18.14c-.72,3.05-5.81,12.22-11.28,8.66,7.42,4.84,10.49,5.34,11.9,13.65.1.62.36,11.43.25,11.43-7.91.59-14.13,2.83-18.5-3.75s-5-19.93-7.16-27.6c-2.89,7.07-6.62,25.78-12.84,30.26-3.38,2.43-27.14,1.84-29.8-1.35l-7.85-9.4a30.56,30.56,0,0,1-23.49,7.43L803,477.16a838.56,838.56,0,0,1,1.57,84.79l-41.51.65-9.2-19.1a67.07,67.07,0,0,1-9,22.29c-7.28-4.16-15.31-17.81-15.31-17.81-7.11,13-11,13.17-25,13.65a253,253,0,0,0-7.24-84.9l-6.43,8.7L686,477.07l-3.94,8.32a36.21,36.21,0,0,1-6.21-9.18l-69.43,6.87c-9.6,1-19.32.23-28.79,1-11.38,1-22.5,4.44-34.06,5.1-18.49,1.05-37.12-.63-55.51,1.54s-37.26,8.88-48.9,23.29l-8.88-23.44a17.72,17.72,0,0,0-8.24,5.49l-3.56-6.87-5.23,4.29a9.08,9.08,0,0,1-.85-4.22l-4.63,6-1.24-5.64c-2.71-12.28-2.81-24.93-2.47-37.45.11-4-1.16-12.61,1.48-15.66s13.57-3.64,17.47-4c-2.92.31-15.56-8.09-17.12-10.87-2.73-4.89-.51-14.92-.44-20.25s-2.7-23.22.42-27.34,21.88-3.85,27.36-4.58c-6.84-8.39-22.87-16.62-26.86-26.07-4.45-10.53,0-31.28,0-42.74,0-32.72-.46-65.44-1.83-98.13" transform="translate(-402.35 -201.05)"/><path d="M957,202.5c1.28,39.65,1.66,79.32,1.92,119,.12,17.73-.75,35.8.74,53.46.48,5.68,2.11,14.28-4.41,16.74-4.11,1.55-11.11,4-15.49,2.78-1.89-.52-2.57,2.22-.8,2.89,5.27,2,10.91,3,16,5.39,6.69,3.17,5.81,9.84,5.42,16.3a136.51,136.51,0,0,0,.37,18.36c.24,3.37.38,6.81-1.08,9.94-1.37,2.92-4.42,7.61-8.25,5.62a1.5,1.5,0,0,0-1.51,2.59c5.34,3.43,10.38,5.77,11.18,12.76a46.39,46.39,0,0,1,.27,10.63l1.45-1.1c-3.45.3-7.11,1.16-10.58.81-5.34-.54-7.64-4.8-9.11-9.45-2.23-7-2.64-14.5-4.52-21.61a1.51,1.51,0,0,0-2.89,0c-2.21,5.65-3.57,11.6-5.59,17.32-1.85,5.24-3.81,12.07-10,12.94a69.2,69.2,0,0,1-16.92-.09c-2.12-.24-5.07-.38-7-1.5-3.25-1.91-6.07-6.93-8.49-9.83a1.53,1.53,0,0,0-2.12,0c-6.69,5.64-13.92,7.1-22.43,7-1.11,0-2.23.08-3.33.12l-20.35.76L803,475.66a1.52,1.52,0,0,0-1.5,1.5q2.88,42.33,1.57,84.79l1.5-1.5-30.64.48A51.57,51.57,0,0,1,767,561c-3.49-.43-3.64-1.24-5.17-4.4l-6.69-13.89a1.51,1.51,0,0,0-2.74.36A70.2,70.2,0,0,1,743.55,565l2.05-.54c-6.35-3.95-11-10.94-14.77-17.27a1.51,1.51,0,0,0-2.59,0c-2.35,4.23-5,9-9.58,11.06-4.29,1.93-9.49,1.68-14.09,1.84l1.5,1.5a259.15,259.15,0,0,0-7.3-85.3A1.52,1.52,0,0,0,696,476l-6.43,8.7h2.59l-4.88-8.35a1.51,1.51,0,0,0-2.59,0l-3.94,8.32,2.36-.3a40.08,40.08,0,0,1-6-8.88,1.46,1.46,0,0,0-1.3-.74l-52.57,5.2c-8.81.87-17.63,2-26.49,2.18-8,.17-16.06,0-24,1.09-8.26,1.13-16.36,3.18-24.64,4.14-8.47,1-17.11.81-25.62.77-15.47-.06-31.15-.29-46.32,3.2-14.54,3.35-28.39,10.08-38.08,21.69l2.51.66-8.88-23.44a1.52,1.52,0,0,0-1.85-1A21.4,21.4,0,0,0,421,495l2.36.3-3.56-6.87a1.52,1.52,0,0,0-2.36-.3l-5.23,4.29,2.51.66a8.16,8.16,0,0,1-.79-3.82c0-1.16-1.71-2.16-2.56-1.06l-4.63,6,2.51.66A145.25,145.25,0,0,1,405.66,471c-.35-6.76,0-13.49-.11-20.25-.09-4.72-1.81-12.3,3.46-14.59,4.24-1.85,9.46-1.74,14-2.18a1.5,1.5,0,0,0,0-3c-3.06-.06-6.85-3.08-9.28-4.71-3.25-2.18-6.69-4.21-7.46-8.29-.92-4.9.32-10.09.6-15a72.42,72.42,0,0,0-.45-9.82,112.63,112.63,0,0,1-.53-11.8c.11-4.08.33-6.84,4.55-8.12,7.31-2.22,15.27-1.42,22.78-2.31a1.52,1.52,0,0,0,1.06-2.56c-4.18-4.9-9.5-8.63-14.5-12.64-4.69-3.76-10.21-8-12.37-13.79-4.2-11.38-.41-25.53.26-37.25.94-16.3.06-32.9-.2-49.22q-.42-26.5-1.49-53c-.08-1.92-3.08-1.93-3,0q1.14,27.46,1.52,54.94c.25,16.94,1.32,34.27-.12,51.16-1,11.2-4.16,25.39.92,36,5.4,11.3,19,16.61,26.86,25.87l1.06-2.56c-8.27,1-18.3-.49-26,3.28-7,3.43-4.3,15.86-3.82,21.95a73.16,73.16,0,0,1,.18,12.92c-.47,4.94-1.79,11.73,1,16.28,1.77,2.89,5.35,5,8.1,6.82s6.69,4.73,10.31,4.8v-3c-5.16.5-11,.51-15.76,2.67-4.53,2-4.88,6.51-4.9,11-.08,17.3.24,34,4,51a1.51,1.51,0,0,0,2.51.66l4.63-6-2.56-1.06a13.81,13.81,0,0,0,.9,4.62,1.53,1.53,0,0,0,2.51.66l5.23-4.29-2.36-.3,3.56,6.87a1.51,1.51,0,0,0,2.36.3,18.22,18.22,0,0,1,7.58-5.1l-1.85-1,8.88,23.44c.36,1,1.72,1.61,2.51.66,21.49-25.77,57.68-23.92,88-24a167.25,167.25,0,0,0,23-1.18c8.54-1.21,16.92-3.36,25.51-4.22s17.24-.31,25.84-.83c8.9-.53,17.79-1.68,26.66-2.56L659,479.38l6.94-.69c2-.2,6-1.33,7.93-.79,2.76.77,5.07,6.23,7.14,8.55a1.51,1.51,0,0,0,2.36-.3l3.94-8.32h-2.59l4.88,8.35a1.52,1.52,0,0,0,2.59,0l6.43-8.7-2.74-.36a256.57,256.57,0,0,1,7.19,84.5,1.51,1.51,0,0,0,1.5,1.5c5.2-.18,11,0,15.81-2.34s7.87-7.44,10.45-12.06h-2.59c4,6.78,9.06,14.13,15.85,18.35a1.52,1.52,0,0,0,2.05-.54,72.53,72.53,0,0,0,9.19-22.65l-2.74.36,9.2,19.1a1.48,1.48,0,0,0,1.3.74l41.51-.65a1.53,1.53,0,0,0,1.5-1.5q1.31-42.41-1.57-84.79l-1.5,1.5,39.37-1.47c6.38-.24,12.77-.6,19.15-.71,10-.17,18.21-1.2,26.2-7.93h-2.12c2.66,3.18,5.32,7.88,8.79,10.15,1.93,1.27,4.68,1.52,6.89,1.83a68.25,68.25,0,0,0,19.84.19c5.56-.89,7.9-5.24,10-10.16,3.09-7.19,4.62-14.91,7.46-22.18h-2.89c2.29,8.67,2.17,18.49,6.48,26.53,4.5,8.41,12.55,6.63,20.63,5.93a1.53,1.53,0,0,0,1.45-1.1,44.86,44.86,0,0,0-.39-12.93c-1.26-7.4-6.61-10.11-12.45-13.85l-1.51,2.59c5.87,3.06,10.9-2.75,12.9-7.9,3-7.64-.2-16.83.32-24.84.39-6,2.3-15.67-2.83-20.3-5.38-4.85-14-5.57-20.56-8l-.8,2.89c3.15.87,7.15-.21,10.25-.89,3.32-.72,8.08-1.47,10.74-3.84,3-2.66,3.13-7.57,3.1-11.24-.05-5.76-.81-11.48-.85-17.25-.25-34.19-.36-68.39-.86-102.58Q960.91,232,960,202.5c-.06-1.93-3.06-1.93-3,0Z" transform="translate(-402.35 -201.05)"/></g><g id="king-area"><path class="cls-2" d="M803,477.16a838.56,838.56,0,0,1,1.57,84.79l-41.51.65-9.2-19.1a67.07,67.07,0,0,1-9,22.29c-7.28-4.16-15.31-17.81-15.31-17.81-7.11,13-11,13.17-25,13.65a253,253,0,0,0-7.24-84.9Z" transform="translate(-402.35 -201.05)"/></g><g id="king-text"><path d="M518,305.5v21a1.5,1.5,0,0,0,3,0v-21a1.5,1.5,0,0,0-3,0Z" transform="translate(-402.35 -201.05)"/><path d="M518.45,305.37l14.24,6.35c1.75.78,3.28-1.8,1.51-2.59L520,302.78c-1.75-.78-3.28,1.8-1.51,2.59Z" transform="translate(-402.35 -201.05)"/><path d="M520.92,315l7.82,3.79c1.73.84,3.25-1.74,1.51-2.59l-7.82-3.79c-1.73-.84-3.25,1.74-1.51,2.59Z" transform="translate(-402.35 -201.05)"/><path d="M542.84,304.05l-4.24,7.89c-.87,1.62-2.51,3.78-2.26,5.78.48,3.8,6.59,7,9.38,9a1.53,1.53,0,0,0,2.05-.54L554.62,316a1.52,1.52,0,0,0-.23-1.82l-9.28-10.42c-1.29-1.45-3.4.68-2.12,2.12l9.28,10.42-.23-1.82-6.86,10.11,2.05-.54c-1.87-1.3-4.33-2.63-5.74-4.41s-1.92-2.6-1-4.92c1.24-3.17,3.34-6.21,5-9.21.91-1.7-1.67-3.22-2.59-1.51Z" transform="translate(-402.35 -201.05)"/><path d="M555,305a47.78,47.78,0,0,0,4.77,15.19c1.44,2.79,3.44,6.81,7.21,6.35,3.35-.41,4.74-3.82,5.14-6.73.77-5.71.51-11.73.31-17.48-.07-1.93-3.07-1.93-3,0,.12,3.53.17,7.05.07,10.58-.06,2,.46,12.89-4.49,10-2.28-1.33-4.19-7.39-5-9.61a47.91,47.91,0,0,1-2.15-9.1c-.27-1.9-3.17-1.09-2.89.8Z" transform="translate(-402.35 -201.05)"/><path d="M574.38,305.72a120.18,120.18,0,0,1,4.44,19.89c.25,1.89,3.26,1.91,3,0a124.68,124.68,0,0,0-4.55-20.69c-.57-1.84-3.47-1.05-2.89.8Z" transform="translate(-402.35 -201.05)"/><path d="M576,305.42l12.67,8.47V311.3a36.68,36.68,0,0,1-8.46,4.56,1.52,1.52,0,0,0-.36,2.74,62.06,62.06,0,0,0,14,5.84,1.5,1.5,0,0,0,.8-2.89,58.83,58.83,0,0,1-13.3-5.54l-.36,2.74a39.82,39.82,0,0,0,9.18-4.87,1.52,1.52,0,0,0,0-2.59l-12.67-8.47c-1.61-1.08-3.11,1.52-1.51,2.59Z" transform="translate(-402.35 -201.05)"/><path d="M617.78,300.68c-2.28,3.19-4.59,6.36-6.83,9.58-1.19,1.71-2.21,2.82-1.42,4.86s3.45,3.47,5,4.67a68.9,68.9,0,0,0,9.42,6.06c1.7.92,3.22-1.67,1.51-2.59a70.4,70.4,0,0,1-6.18-3.71c-1.55-1.06-6-3.39-6.62-5.21s1.85-3.95,2.82-5.3l4.88-6.84c1.12-1.57-1.48-3.07-2.59-1.51Z" transform="translate(-402.35 -201.05)"/><path d="M611.2,314.39h10.51a1.5,1.5,0,0,0,0-3H611.2a1.5,1.5,0,0,0,0,3Z" transform="translate(-402.35 -201.05)"/><path d="M627.79,299.92c.84,8.18,1.12,16.42,2.21,24.58.25,1.89,3.26,1.91,3,0-1.09-8.16-1.37-16.4-2.21-24.58-.19-1.9-3.2-1.92-3,0Z" transform="translate(-402.35 -201.05)"/><path d="M628.52,301.86c2.46,1.87,13.61,8.52,12.35,11.44-.71,1.66-3.35,3.58-4.55,4.92-1.64,1.82-3.28,3.65-5,5.38a1.5,1.5,0,0,0,2.12,2.12c2.82-2.83,5.37-5.9,8.11-8.8,1.26-1.34,3.57-2.93,3.4-5.05-.15-1.78-2.06-2.83-3.3-3.78L630,299.27c-1.54-1.17-3,1.44-1.51,2.59Z" transform="translate(-402.35 -201.05)"/><path d="M661.42,308.23l-5.28-5.82a1.52,1.52,0,0,0-2.36.3c-1.88,2.62-7,7.14-5.93,10.63.51,1.65,2.55,3.37,3.6,4.7l5.87,7.41a1.51,1.51,0,0,0,2.51-.66A48.69,48.69,0,0,1,664,315a1.52,1.52,0,0,0-1.3-2.26,58.08,58.08,0,0,0-6.84-.15c-1.92.07-1.93,3.07,0,3a58.08,58.08,0,0,1,6.84.15l-1.3-2.26A52.39,52.39,0,0,0,656.94,324l2.51-.66c-2.44-3.07-5.06-6.07-7.34-9.26-1.64-2.29-1-2.48.54-4.65l3.72-5.19-2.36.3,5.28,5.82c1.3,1.43,3.42-.69,2.12-2.12Z" transform="translate(-402.35 -201.05)"/><path d="M674.63,304.62c-2.08,2.4-4.78,4.84-6.5,7.52-.66,1-.93,1.66-.41,2.8.82,1.8,3.39,3.65,4.85,5a75.1,75.1,0,0,0,6.17,4.9c1.57,1.13,3.07-1.47,1.51-2.59-3.26-2.35-8-5.5-10.1-9.06v1.51c1.35-2.82,4.56-5.56,6.61-7.92,1.26-1.45-.86-3.58-2.12-2.12Z" transform="translate(-402.35 -201.05)"/><path d="M670,315.82h6.61a1.5,1.5,0,0,0,0-3H670a1.5,1.5,0,0,0,0,3Z" transform="translate(-402.35 -201.05)"/><path d="M690.9,302.2c-2.57,2.61-7.11,5.53-7.59,9.36a1.51,1.51,0,0,0,1.5,1.5l13.93,0-1.3-2.26c-3.2,4.16-8.16,7.17-10.67,11.78-.92,1.7,1.67,3.21,2.59,1.51,1.35-2.49,3.59-4.09,5.6-6a50.46,50.46,0,0,0,5.07-5.77c.72-.94-.27-2.25-1.3-2.26l-13.93,0,1.5,1.5c.25-2.06,5.29-5.81,6.71-7.24s-.76-3.5-2.12-2.12Z" transform="translate(-402.35 -201.05)"/><path d="M580.22,357.69q1.42,9,2.25,18c.17,1.91,3.18,1.93,3,0q-.87-9.46-2.35-18.84c-.3-1.9-3.19-1.09-2.89.8Z" transform="translate(-402.35 -201.05)"/><path d="M581.89,357l7.93,6c1.54,1.16,3-1.44,1.51-2.59l-7.93-6c-1.54-1.16-3,1.44-1.51,2.59Z" transform="translate(-402.35 -201.05)"/><path d="M581.61,364.22l5,4.14c1.47,1.23,3.61-.89,2.12-2.12l-5-4.14c-1.47-1.23-3.61.89-2.12,2.12Z" transform="translate(-402.35 -201.05)"/><path d="M599.78,355a40,40,0,0,0-4.49,6.11c-.74,1.26-2.31,3.38-2,5s2.88,2.84,4,3.84c1.82,1.6,3.2,3.81,5.18,5.16a1.51,1.51,0,0,0,1.51,0c1-.53,1.36-1.56,1.92-2.54a17.34,17.34,0,0,1,4.78-5.68,1.53,1.53,0,0,0,.3-2.36,76.68,76.68,0,0,0-9.42-8.92c-1.49-1.19-3.63.92-2.12,2.12a76.68,76.68,0,0,1,9.42,8.92l.3-2.36a18.11,18.11,0,0,0-3.72,3.52c-.77,1-2,4.17-3,4.7H604c-1.36-.93-2.44-2.7-3.65-3.85-.86-.81-2.54-1.7-3.16-2.66-1.52-2.36,3.23-7.25,4.68-8.9,1.27-1.45-.85-3.58-2.12-2.12Z" transform="translate(-402.35 -201.05)"/><path d="M612,356.93c2.26,5.06,1.75,10.73,2.38,16.12.22,1.89,3.23,1.92,3,0-.7-6-.28-12-2.79-17.63-.79-1.76-3.37-.24-2.59,1.51Z" transform="translate(-402.35 -201.05)"/><path d="M612.14,356.64l4.47,2.26,1.68.85a.87.87,0,0,0,1.36-.09c.5.55-4.32,4.83-4.64,5.86a2.28,2.28,0,0,0,.71,2.55c1.75,1.92,4.5,3.42,6.57,5,1.54,1.17,3-1.44,1.51-2.59s-2.87-2-4.18-3.18-1.4-.74-.42-2.16,3.06-3,3.38-4.69a2.19,2.19,0,0,0-1.11-2.44c-2.25-1.65-5.33-2.69-7.82-4-1.72-.87-3.24,1.72-1.51,2.59Z" transform="translate(-402.35 -201.05)"/><path d="M644,355.56q0,10.22,0,20.44a1.5,1.5,0,0,0,3,0q0-10.22,0-20.44a1.5,1.5,0,0,0-3,0Z" transform="translate(-402.35 -201.05)"/><path d="M640.28,364.49c1.94-2.2,3.16-4.85,4.86-7.22q.67-.93,0,.06l.57.64a21.91,21.91,0,0,0,1.81,2.26c.94,1.21,1.9,2.39,3,3.5,1.33,1.4,3.45-.72,2.12-2.12-1.53-1.61-2.81-3.41-4.22-5.12-.89-1.08-2-2.81-3.57-2.58-1.44.2-2.28,1.85-3,3a43.38,43.38,0,0,1-3.64,5.52c-1.27,1.44.84,3.57,2.12,2.12Z" transform="translate(-402.35 -201.05)"/><path d="M658,355v21a1.5,1.5,0,0,0,3,0V355a1.5,1.5,0,0,0-3,0Z" transform="translate(-402.35 -201.05)"/><path d="M666,354a168.52,168.52,0,0,1,1,22,1.5,1.5,0,0,0,3,0,168.52,168.52,0,0,0-1-22c-.25-1.89-3.25-1.91-3,0Z" transform="translate(-402.35 -201.05)"/><path d="M655.59,363.81q7.64,3.21,15.13,6.74c1.74.82,3.26-1.77,1.51-2.59q-7.85-3.7-15.84-7c-1.78-.75-2.55,2.16-.8,2.89Z" transform="translate(-402.35 -201.05)"/><path d="M682.68,354.08c-2.08,2.9-4.19,5.78-6.24,8.69-.93,1.31-2.58,3-2.1,4.76.39,1.43,3.52,3.2,4.6,4a81.87,81.87,0,0,0,8.91,5.54c1.7.92,3.21-1.67,1.51-2.59-2-1.07-3.92-2.2-5.81-3.42-1-.62-6.37-3.77-6.36-4.62s3.06-3.82,3.63-4.61l4.46-6.21c1.13-1.57-1.47-3.07-2.59-1.51Z" transform="translate(-402.35 -201.05)"/><path d="M676.45,368a87,87,0,0,0,9.8-.21c1.91-.15,1.93-3.15,0-3a87,87,0,0,1-9.8.21c-1.93-.07-1.93,2.93,0,3Z" transform="translate(-402.35 -201.05)"/><path d="M704,355c-.31,7,0,14,0,21a1.5,1.5,0,0,0,3,0c0-7-.31-14,0-21,.08-1.93-2.92-1.93-3,0Z" transform="translate(-402.35 -201.05)"/><path d="M709.28,366.85c3.61-3.46,6.77-7.24,10.28-10.79a1.5,1.5,0,0,0-2.12-2.12c-3.51,3.55-6.67,7.33-10.28,10.79-1.4,1.34.73,3.46,2.12,2.12Z" transform="translate(-402.35 -201.05)"/><path d="M709.77,364.33c2.48,4.37,5.82,8.15,8.44,12.43,1,1.64,3.6.14,2.59-1.51-2.62-4.28-6-8.06-8.44-12.43a1.5,1.5,0,0,0-2.59,1.51Z" transform="translate(-402.35 -201.05)"/><path d="M706.35,367.11c2.15,3.49,4.4,6.87,6.86,10.15,1.14,1.53,3.75,0,2.59-1.51-2.46-3.28-4.71-6.66-6.86-10.15-1-1.64-3.61-.14-2.59,1.51Z" transform="translate(-402.35 -201.05)"/><path d="M731.75,376.45l.33-18.69c0-1.93-3-1.93-3,0l-.33,18.69c0,1.93,3,1.93,3,0Z" transform="translate(-402.35 -201.05)"/><path d="M726.67,355.61c.91-.95,1.9-1.78,2.87-2.66s1.44-1.73,2.27-2.45l-1.82.23c.84.36,1.56,1.78,2.18,2.47s1.5,1.58,2.26,2.35a1.5,1.5,0,0,0,2.12-2.12c-.85-.85-1.68-1.7-2.48-2.59s-1.48-2.23-2.57-2.7a1.59,1.59,0,0,0-1.82.23c-.84.73-1.44,1.7-2.27,2.45s-2,1.71-2.87,2.66c-1.34,1.39.78,3.52,2.12,2.12Z" transform="translate(-402.35 -201.05)"/><path d="M744,376c0-7-.09-14-.1-20.94l-2.56,1.06c4.6,5.93,7.46,13.78,10.82,20.46.87,1.73,3.46.21,2.59-1.51-3.51-7-6.48-14.87-11.28-21.06-.83-1.07-2.56-.13-2.56,1.06,0,7,.09,14,.1,20.94a1.5,1.5,0,0,0,3,0Z" transform="translate(-402.35 -201.05)"/><path d="M746.9,355.25c4.22,6.76,7.53,14,11.3,21a1.51,1.51,0,0,0,2.8-.76c.1-7.34.39-14.66,0-22-.1-1.92-3.1-1.93-3,0,.39,7.34.1,14.66,0,22l2.8-.76c-3.78-7-7.09-14.25-11.3-21-1-1.63-3.62-.13-2.59,1.51Z" transform="translate(-402.35 -201.05)"/><path d="M781.56,357.94c-2.35-2.35-4.74-4.65-7.19-6.9a1.53,1.53,0,0,0-2.36.3c-1.92,2.63-4,5.1-6,7.67-.9,1.16-2.57,2.65-2.37,4.28.24,1.91,3.2,4.3,4.29,5.6l7.2,8.61a1.51,1.51,0,0,0,2.36-.3c2.16-4.11,5.59-7.38,7.6-11.58a1.52,1.52,0,0,0-1.3-2.26,53,53,0,0,0-9.32.18c-1.9.2-1.92,3.2,0,3a53,53,0,0,1,9.32-.18l-1.3-2.26c-2,4.2-5.45,7.47-7.6,11.58l2.36-.3-4.8-5.74c-1.24-1.48-4.82-4.45-5.33-6.09-.33-1.07.36-1.57,1.37-2.86.79-1,1.6-2,2.4-3,1.29-1.59,2.55-3.2,3.76-4.86l-2.36.3c2.45,2.25,4.84,4.55,7.19,6.9a1.5,1.5,0,0,0,2.12-2.12Z" transform="translate(-402.35 -201.05)"/><path d="M731.44,299.44c-3.48,3.68-7.18,7.14-10.92,10.55a1.52,1.52,0,0,0,0,2.12c4.23,4.53,8.05,9.57,12.92,13.45,1.5,1.19,3.63-.92,2.12-2.12-4.87-3.88-8.69-8.92-12.92-13.45v2.12c3.74-3.41,7.44-6.87,10.92-10.55,1.33-1.4-.79-3.53-2.12-2.12Z" transform="translate(-402.35 -201.05)"/><path d="M743.32,325.27q3.12-11.54,5.12-23.31c.32-1.89-2.57-2.7-2.89-.8q-2,11.78-5.12,23.31a1.5,1.5,0,0,0,2.89.8Z" transform="translate(-402.35 -201.05)"/><path d="M745.6,302.25a226.19,226.19,0,0,1,11.07,22.51c.78,1.76,3.36.24,2.59-1.51a226.19,226.19,0,0,0-11.07-22.51,1.5,1.5,0,0,0-2.59,1.51Z" transform="translate(-402.35 -201.05)"/><path d="M744.34,311.74a136.51,136.51,0,0,1,7.33,13.59c.82,1.75,3.41.23,2.59-1.51a136.51,136.51,0,0,0-7.33-13.59c-1-1.64-3.61-.14-2.59,1.51Z" transform="translate(-402.35 -201.05)"/><path d="M765.71,325.12c.24-7.91-.6-15.7-1.39-23.56-.19-1.9-3.19-1.92-3,0,.8,7.85,1.63,15.65,1.39,23.56-.06,1.93,2.94,1.93,3,0Z" transform="translate(-402.35 -201.05)"/><path d="M761.92,302.19c1.38.5,2.46,1.92,3.47,2.91a35.3,35.3,0,0,1,3.67,3.63c.94,1.27-.06,1.75-1.1,2.76a41,41,0,0,1-3.32,2.87c-1.52,1.19.62,3.3,2.12,2.12,2-1.56,7.49-5.08,6-8.12-1-2-3.72-3.84-5.28-5.39s-2.78-3-4.79-3.69c-1.82-.66-2.6,2.24-.8,2.89Z" transform="translate(-402.35 -201.05)"/><path d="M781,301.5c0,8.07,0,16.13,0,24.2a1.5,1.5,0,0,0,3,0c0-8.07,0-16.13,0-24.2a1.5,1.5,0,0,0-3,0Z" transform="translate(-402.35 -201.05)"/><path d="M777.5,312.77l3.09-5.83,1.43-2.69.71-1.34q.84-1.4.33-.71h-1.51c1.43,1.08,2.64,4,3.58,5.54,1.19,2,2.31,4,3.4,6,.91,1.7,3.5.19,2.59-1.51-1.32-2.46-2.7-4.88-4.17-7.25-1.12-1.79-2.17-4.07-3.88-5.36a1.5,1.5,0,0,0-1.51,0c-1.46.72-2.12,3.14-2.83,4.47l-3.8,7.17c-.9,1.7,1.69,3.22,2.59,1.51Z" transform="translate(-402.35 -201.05)"/><path d="M792,300.31a34.92,34.92,0,0,0,3,14.69c1.5,3.3,3.89,8.62,8.1,8.84,11.1.58,9.93-17.67,9.35-24.19-.17-1.91-3.17-1.93-3,0a60.07,60.07,0,0,1,.36,10.4c-.25,2.91-2.59,13.81-8.07,10.15-2.42-1.61-4.16-6.46-5.05-9A32.42,32.42,0,0,1,795,300.31a1.5,1.5,0,0,0-3,0Z" transform="translate(-402.35 -201.05)"/><path d="M814.49,300.09l.34,23a1.5,1.5,0,0,0,3,0l-.34-23a1.5,1.5,0,0,0-3,0Z" transform="translate(-402.35 -201.05)"/><path d="M815.54,300.59c1.89,1.36,3.84,3.2,5.91,4.26l1.48,1.07q2.38-.52-.07,1c-1.93,2.32-5,3.6-6.7,6.16a1.51,1.51,0,0,0,0,1.51c1.91,3.63,6.43,6.74,9.58,9.24,1.5,1.19,3.63-.92,2.12-2.12s-3.2-2.59-4.71-4c-.55-.51-3.22-2.41-3.3-3.26-.27-2.87,5.62-4.64,6.78-7a2.15,2.15,0,0,0-.21-2.61c-.67-1.07-2.46-1.87-3.45-2.59L817,298c-1.57-1.13-3.07,1.47-1.51,2.59Z" transform="translate(-402.35 -201.05)"/><path d="M836.78,298.88a56.77,56.77,0,0,0-4.56,6.54c-1,1.74-3.16,4.75-3.12,6.88.07,4.68,7,8.31,9.43,11.55,1.15,1.52,3.75,0,2.59-1.51-2.22-2.94-6.83-5.23-8.2-8.64-1.56-3.87,3.79-9.91,6-12.7,1.18-1.5-.92-3.64-2.12-2.12Z" transform="translate(-402.35 -201.05)"/><path d="M831.65,313.31h7.5a1.5,1.5,0,0,0,0-3h-7.5a1.5,1.5,0,0,0,0,3Z" transform="translate(-402.35 -201.05)"/></g><g id="king-label"><path class="cls-3" d="M742.56,510.5a49.7,49.7,0,0,0-8.21-16l10,4.13a1,1,0,0,0,1.58-.7l4.67-12c2.2,3.52,3.65,8.51,5.85,12,.21.34.49.72.89.73s.54-.27.82-.42c3.55-1.84,6.72-3.1,9.44-5.52-3.68,7.36-5.89,11.78-6.63,17.67Z" transform="translate(-402.35 -201.05)"/><path d="M744,510.1a55.75,55.75,0,0,0-8.6-16.61L734,496c3.35,1.38,7.35,3.75,10.94,4.26a1.61,1.61,0,0,0,1.69-.69c2.68-3.53,3.84-9,5.46-13.17l-2.74.36c1.64,2.83,2.78,5.86,4.16,8.81.62,1.32,1.43,4,3.11,4.49,1.45.4,2.53-.52,3.83-1.18a43.75,43.75,0,0,0,8.25-5l-2.36-1.82c-2.91,5.82-5.82,11.53-6.78,18L761,509H742.56a1.5,1.5,0,0,0,0,3H761a1.51,1.51,0,0,0,1.45-1.1c.92-6.24,3.68-11.72,6.48-17.31a1.51,1.51,0,0,0-2.36-1.82,33.76,33.76,0,0,1-6.19,3.81q-1.48.72-3,1.47,1,.78-.36-1c-2.41-2.72-3.3-7.62-5.14-10.81a1.52,1.52,0,0,0-2.74.36c-1.48,3.79-2.69,9.19-5.15,12.45l1.69-.69c-3.59-.51-7.59-2.88-10.94-4.26-1.57-.65-2.24,1.5-1.46,2.51a51.41,51.41,0,0,1,7.82,15.29C741.73,512.72,744.63,511.94,744,510.1Z" transform="translate(-402.35 -201.05)"/><path class="cls-1" d="M749.72,520.59c2.32-3.29,3.8-7.1,6-10.48a30.25,30.25,0,0,1,22.53-13.56L775,509a10.28,10.28,0,0,1-1.38,3.5,9.59,9.59,0,0,1-2,1.93c-9.11,7-20,11.94-27.25,20.83-1.67-.82-2.51-2.33-1.6-3.56a24.38,24.38,0,0,1,2.92-3.24c2.06-2.06,2.79-5.16,4-8" transform="translate(-402.35 -201.05)"/><path d="M751,521.34c3.41-5.18,5.51-11,10.07-15.41a29.27,29.27,0,0,1,17.15-7.9l-1.45-1.9c-1.14,4.4-1.78,9.49-3.56,13.67-1.85,4.35-7.62,7.05-11.45,9.55-6.67,4.36-13.28,8.7-18.49,14.82l1.82-.23c-2.46-1.66,2-4.71,2.79-5.86,1.49-2.15,2.25-4.82,3.21-7.23.71-1.79-2.19-2.57-2.89-.8-1.13,2.83-2.07,5.47-4.08,7.8-.89,1-2.17,2-2.75,3.25-1.12,2.42.23,4.09,2.21,5.43a1.51,1.51,0,0,0,1.82-.23c6.44-7.56,15.07-12.26,23.13-17.84,2.58-1.78,5.68-3.57,7.07-6.49,2.15-4.51,2.82-10.21,4.06-15a1.51,1.51,0,0,0-1.45-1.9,32.65,32.65,0,0,0-17,6.8c-6.16,4.88-8.62,11.61-12.82,18-1.07,1.62,1.53,3.12,2.59,1.51Z" transform="translate(-402.35 -201.05)"/><path d="M743.16,520.72c2.51,2,4.81,4.09,7.14,6.24,1.94,1.8,4.45,2.86,6.3,4.74,1.35,1.38,3.47-.74,2.12-2.12-1.87-1.91-4.33-3-6.3-4.74-2.35-2.13-4.63-4.29-7.14-6.24-1.51-1.17-3.64.94-2.12,2.12Z" transform="translate(-402.35 -201.05)"/><path d="M751.93,525.55c5.21-4.54,9-10.33,13.79-15.25,3.42-3.52,7.14-6.73,10.68-10.13,1.4-1.34-.73-3.46-2.12-2.12-3.54,3.39-7.25,6.62-10.68,10.13-4.81,4.92-8.58,10.72-13.79,15.25-1.46,1.27.67,3.38,2.12,2.12Z" transform="translate(-402.35 -201.05)"/><path d="M746.7,525.66a7.88,7.88,0,0,0,1.34,4.26,1.54,1.54,0,0,0,2.05.54,1.51,1.51,0,0,0,.54-2.05,5,5,0,0,1-.93-2.74c-.05-1.93-3.05-1.93-3,0Z" transform="translate(-402.35 -201.05)"/><path d="M744,528.45a5.24,5.24,0,0,0,1.53,4.8c1.41,1.31,3.54-.8,2.12-2.12a2.19,2.19,0,0,1-.76-1.88,1.55,1.55,0,0,0-1-1.85,1.51,1.51,0,0,0-1.85,1Z" transform="translate(-402.35 -201.05)"/></g></svg>