<svg xmlns="http://www.w3.org/2000/svg" viewBox="0 0 561.34 383.91"><defs><style>.cls-1{fill:#fff;}</style></defs><title>move-text</title><g id="move-page"><path class="cls-1" d="M162.5,288.5c5.21,124.18-2.81,254,1.47,378.19l24.67-57.06a403.24,403.24,0,0,1,24,59.85,134.11,134.11,0,0,1,55-16c10-.68,23.15-2.68,24.63-12.61l9,9.14c7-6.24,19.31.71,27.16-4.47,3.72-2.45,5.38-7,6.64-11.27a165.44,165.44,0,0,0,6.44-55.87c-.17-3.1-.35-6.51,1.55-9,2.34-3,6.73-3.25,10.54-3.23l123.31.69c7.85,0,16.31-.1,22.63-4.76q60.81,1.84,121.63-1.21a30.56,30.56,0,0,0,23.49-7.43l7.85,9.4a310.84,310.84,0,0,0,68.31,2.44C717.5,473.5,719.5,380.5,716.5,288.5" transform="translate(-161 -287.05)"/><path d="M161,288.5c4.08,98.55.07,197.17.16,295.74,0,27.49.38,55,1.31,82.44,0,1.35,2.16,2.21,2.8.76l24.67-57.06h-2.59a412.47,412.47,0,0,1,23.82,59.49,1.52,1.52,0,0,0,2.2.9A136.73,136.73,0,0,1,267.6,655c9.63-.76,23.75-2.15,26.08-13.71l-2.51.66,9,9.14a1.55,1.55,0,0,0,2.12,0c8.13-6.32,20.17,1.89,28.33-5.36,3.43-3.05,4.89-7.68,6.12-11.94a162.54,162.54,0,0,0,4.61-21.15,169.69,169.69,0,0,0,1.78-19.15q.17-4.71.06-9.42c-.09-4.38-1.4-9.61,1.34-13.28,3.89-5.21,15-3,21-3l23.87.13c29.69.17,59.4.61,89.09.5,4.85,0,9.83-.14,14.52-1.5,2.89-.84,5.54-2.87,8.53-3.2,3.84-.43,8.11.22,12,.3q21.94.46,43.88.29,24.93-.2,49.85-1.22c13.81-.57,27.25,1,38.5-8.51h-2.12c2.24,2.68,4.43,5.43,6.73,8.06,1.77,2,2.89,1.9,5.66,2.27q10.38,1.4,20.84,2.11a317.64,317.64,0,0,0,44-.16,1.52,1.52,0,0,0,1.5-1.5c-2.58-71.84-2-143.73-3-215.6q-.43-30.62-1.37-61.24c-.06-1.93-3.06-1.93-3,0,2.32,71.87,1.64,143.79,2.79,215.68q.49,30.58,1.54,61.15l1.5-1.5a318.51,318.51,0,0,1-39.11.45q-9.28-.48-18.53-1.51c-3.86-.43-8.33-.23-11.29-3-2.26-2.08-4.2-5-6.17-7.39a1.53,1.53,0,0,0-2.12,0,29.64,29.64,0,0,1-19.26,7.18c-7.7,0-15.38.4-23.09.68q-21.93.81-43.87,1T513.52,561c-4-.08-8-.26-12-.3-2.6,0-3,.56-5.39,1.78-6.17,3.17-13.49,2.95-20.23,2.91q-44.25-.21-88.51-.5l-21.88-.12c-5.85,0-12.44-1-18.16.46a9.21,9.21,0,0,0-7.32,8c-1,6.46.34,13.64.11,20.18a163,163,0,0,1-2.61,23.92c-1.35,7.28-2.63,15.88-6.19,22.43-6.46,11.9-21.79,1.83-31.16,9.12h2.12l-9-9.14a1.51,1.51,0,0,0-2.51.66c-2.68,13.29-24.39,11.23-34.34,12.73a137.7,137.7,0,0,0-44.6,15l2.2.9a417.53,417.53,0,0,0-24.12-60.2,1.51,1.51,0,0,0-2.59,0l-24.67,57.06,2.8.76c-3.35-98.57.81-197.18.32-295.76-.14-27.48-.65-55-1.79-82.42-.08-1.92-3.08-1.93-3,0Z" transform="translate(-161 -287.05)"/></g><g id="move-area"><path class="cls-1" d="M164.56,563.94c-.14,34.14.28,59.51,1.44,93.06,8.13-18.81,13.87-35.19,22-54a480.57,480.57,0,0,1,26,65c16.71-9.12,34-15.72,53-17,9.9-.67,23.54-2.18,25-12,4,3,8.35,4.94,10,9,7-6.17,17.26.16,25-5a17.14,17.14,0,0,0,7-10,243.6,243.6,0,0,0,6-54c0-3.07-1.88-7.58,0-10Z" transform="translate(-161 -287.05)"/></g><g id="move-text"><path d="M285.94,424.55l11.27-30.89h-2.89q5.63,14.59,10.29,29.51c.57,1.84,3.47,1.05,2.89-.8q-4.66-14.93-10.29-29.51a1.52,1.52,0,0,0-2.89,0l-11.27,30.89c-.66,1.82,2.24,2.6,2.89.8Z" transform="translate(-161 -287.05)"/><path d="M290.86,403.86c2.7,6.9,5.37,13.81,7.8,20.81.63,1.81,3.53,1,2.89-.8-2.43-7-5.1-13.91-7.8-20.81-.7-1.78-3.6-1-2.89.8Z" transform="translate(-161 -287.05)"/><path d="M310.23,392.19q3.07,16.91,6,33.83a1.52,1.52,0,0,0,2.2.9,32.5,32.5,0,0,0,10-7.48c1.3-1.42-.82-3.55-2.12-2.12a30.33,30.33,0,0,1-9.42,7l2.2.9q-3-16.93-6-33.83c-.34-1.9-3.24-1.09-2.89.8Z" transform="translate(-161 -287.05)"/><path d="M317.28,420.94l9.77-6.74c1.58-1.09.08-3.69-1.51-2.59l-9.77,6.74c-1.58,1.09-.08,3.69,1.51,2.59Z" transform="translate(-161 -287.05)"/><path d="M328.23,392.19q3.07,16.91,6,33.83a1.52,1.52,0,0,0,2.2.9,32.5,32.5,0,0,0,10-7.48c1.3-1.42-.82-3.55-2.12-2.12a30.33,30.33,0,0,1-9.42,7l2.2.9q-3-16.93-6-33.83c-.34-1.9-3.24-1.09-2.89.8Z" transform="translate(-161 -287.05)"/><path d="M335.28,420.94l9.77-6.74c1.58-1.09.08-3.69-1.51-2.59l-9.77,6.74c-1.58,1.09-.08,3.69,1.51,2.59Z" transform="translate(-161 -287.05)"/><path d="M378.45,391c.6,11.18,1,22.36,1.55,33.54.1,1.92,3.1,1.93,3,0-.6-11.18-1-22.36-1.55-33.54-.1-1.92-3.1-1.93-3,0Z" transform="translate(-161 -287.05)"/><path d="M371.14,403.12l3.84-5.25c1.32-1.8,3.3-5.83,5.45-5.54,3.23.43,7.06,8.52,8.86,11.28,1.05,1.61,3.65.11,2.59-1.51-2.27-3.49-4.48-7.17-7.08-10.43-1.21-1.52-2.45-3.09-4.54-3.11-1.9,0-2.88,1.17-4,2.56-2.74,3.33-5.14,7-7.68,10.5-1.14,1.56,1.46,3.06,2.59,1.51Z" transform="translate(-161 -287.05)"/><path d="M430.65,392.44l-7.83,11.35c-1.18,1.72-3.52,4-3.19,6.34s3.45,4,5.16,5.28c3.31,2.47,6.64,4.91,9.95,7.39,1.55,1.16,3-1.44,1.51-2.59-2.55-1.91-13.48-7.91-13.09-11.66.19-1.77,3.44-5,4.48-6.48l5.59-8.1c1.1-1.59-1.5-3.09-2.59-1.51Z" transform="translate(-161 -287.05)"/><path d="M421.72,410.8c3.68.18,7.36.2,11,.25a1.5,1.5,0,0,0,0-3c-3.68-.05-7.36-.07-11-.25-1.93-.09-1.92,2.91,0,3Z" transform="translate(-161 -287.05)"/><path d="M456.1,393.81c.77,8.82.87,17.66,1.41,26.49.12,1.92,3.12,1.93,3,0-.54-8.83-.64-17.68-1.41-26.49-.17-1.91-3.17-1.93-3,0Z" transform="translate(-161 -287.05)"/><path d="M457,393.28l12.5,9-.3-2.36a65.27,65.27,0,0,1-10.43,8.24,1.5,1.5,0,0,0,1.51,2.59,69.11,69.11,0,0,0,11-8.71,1.52,1.52,0,0,0-.3-2.36l-12.5-9c-1.57-1.13-3.07,1.47-1.51,2.59Z" transform="translate(-161 -287.05)"/><path d="M478,397.5v23a1.5,1.5,0,0,0,3,0v-23a1.5,1.5,0,0,0-3,0Z" transform="translate(-161 -287.05)"/><path d="M475.56,393.56a37.49,37.49,0,0,0,4.53-5.63l-2.05.54,6.36,4.46c1.58,1.11,3.08-1.49,1.51-2.59l-6.36-4.46a1.53,1.53,0,0,0-2.05.54,32.93,32.93,0,0,1-4.06,5,1.5,1.5,0,0,0,2.12,2.12Z" transform="translate(-161 -287.05)"/><path d="M518.1,395.5l-7.89,12a1.52,1.52,0,0,0,.54,2.05,31.61,31.61,0,0,1,10.77,9.81c1.09,1.58,3.69.08,2.59-1.51A34.9,34.9,0,0,0,512.27,407l.54,2.05,7.89-12c1.06-1.62-1.53-3.12-2.59-1.51Z" transform="translate(-161 -287.05)"/><path d="M562.44,394.44c-4.82,3.91-9.38,8.07-14.64,11.39a1.51,1.51,0,0,0,.76,2.8l19.29.43-.76-2.8a81.22,81.22,0,0,0-16.5,12.09c-1.41,1.33.72,3.45,2.12,2.12a78.1,78.1,0,0,1,15.89-11.63,1.51,1.51,0,0,0-.76-2.8l-19.29-.43.76,2.8c5.48-3.46,10.23-7.79,15.25-11.86,1.5-1.22-.63-3.33-2.12-2.12Z" transform="translate(-161 -287.05)"/><path d="M289.69,455.61c.26,8.3-.2,16.6.31,24.89.12,1.92,3.12,1.93,3,0-.52-8.29,0-16.59-.31-24.89-.06-1.93-3.06-1.93-3,0Z" transform="translate(-161 -287.05)"/><path d="M291,457.22c2.26,2.88,7.52,12.86,12.11,12,2.06-.41,3.62-3.43,4.76-4.92a97.6,97.6,0,0,0,6-9,1.5,1.5,0,0,0-2.59-1.51c-1.39,2.3-2.79,4.6-4.34,6.8-.87,1.23-2.69,4.67-4.37,4.91-3,.43-7.6-8-9.41-10.35-1.19-1.52-3.3.62-2.12,2.12Z" transform="translate(-161 -287.05)"/><path d="M311,454.5c.06,8.68.94,17.32,1,26a1.5,1.5,0,0,0,3,0c-.06-8.68-.94-17.32-1-26a1.5,1.5,0,0,0-3,0Z" transform="translate(-161 -287.05)"/><path d="M325.45,453.45c-1.73,3.56-3.67,7.09-5.23,10.73-.69,1.61-1.5,3.28-1,5.09s2.38,3.26,3.76,4.52c2.86,2.61,5.74,5.19,8.61,7.78,1.43,1.29,3.56-.82,2.12-2.12-3.15-2.85-8.11-5.93-10.45-9.46-2.51-3.78,3-11.47,4.78-15,.84-1.73-1.74-3.25-2.59-1.51Z" transform="translate(-161 -287.05)"/><path d="M325.53,456l6.62,3.33,3.31,1.66q2.61.43,1.84,3.13c.38,4.77-3.25,10.24-5.14,14.62-.76,1.75,1.83,3.28,2.59,1.51l4.56-10.57c.9-2.08,2.89-5.18,2.13-7.59-.53-1.72-2.15-2.49-3.64-3.28-3.54-1.88-7.18-3.61-10.76-5.41-1.72-.86-3.24,1.72-1.51,2.59Z" transform="translate(-161 -287.05)"/><path d="M342.2,455.26c4,8.33,7.49,16.92,12,25,.94,1.69,3.53.17,2.59-1.51-4.51-8.08-8-16.67-12-25-.83-1.74-3.42-.22-2.59,1.51Z" transform="translate(-161 -287.05)"/><path d="M356.95,479.9c3.23-8.58,6.68-17.11,9-26a1.5,1.5,0,0,0-2.89-.8c-2.32,8.89-5.77,17.42-9,26-.68,1.81,2.22,2.59,2.89.8Z" transform="translate(-161 -287.05)"/><path d="M378.2,450.74c-2.19,3.54-4.64,6.89-6.94,10.36-1.24,1.88-3.23,4.15-3.22,6.51s1.95,3.71,3.69,5.18c3.39,2.85,6.87,5.59,10.3,8.38,1.49,1.21,3.62-.9,2.12-2.12-3.33-2.71-13.71-8.53-12.13-13.59.61-2,2.65-4.07,3.81-5.75,1.69-2.46,3.38-4.91,4.95-7.45,1-1.65-1.58-3.15-2.59-1.51Z" transform="translate(-161 -287.05)"/><path d="M370.74,468.46c3.74-.4,7.5,0,11.25,0a1.5,1.5,0,0,0,0-3c-3.75,0-7.51-.4-11.25,0-1.9.21-1.92,3.21,0,3Z" transform="translate(-161 -287.05)"/><path d="M411,464.2c13.52-.18,27-.21,40.53-1.08,1.92-.12,1.93-3.12,0-3-13.49.87-27,.9-40.53,1.08a1.5,1.5,0,0,0,0,3Z" transform="translate(-161 -287.05)"/><path d="M480.05,451.1c-2.92,8.7-6.08,17.31-9,26-.62,1.83,2.28,2.62,2.89.8,2.92-8.69,6.08-17.3,9-26,.62-1.83-2.28-2.62-2.89-.8Z" transform="translate(-161 -287.05)"/><path d="M480.2,452.26c4.44,8.27,8.39,16.81,13,25a1.5,1.5,0,0,0,2.59-1.51c-4.61-8.19-8.56-16.73-13-25-.91-1.7-3.5-.19-2.59,1.51Z" transform="translate(-161 -287.05)"/><path d="M477.5,461.28c3.42,5.54,6.76,11.16,9.7,17,.87,1.72,3.46.21,2.59-1.51-2.94-5.81-6.28-11.43-9.7-17-1-1.64-3.61-.14-2.59,1.51Z" transform="translate(-161 -287.05)"/><path d="M497,449.5c0,9.33-.07,18.72,1,28,.22,1.9,3.22,1.92,3,0-1.07-9.28-1-18.67-1-28a1.5,1.5,0,0,0-3,0Z" transform="translate(-161 -287.05)"/><path d="M497.63,451c6.28,8.8,11.62,18.22,17.58,27.24,1.06,1.6,3.66.1,2.59-1.51-6-9-11.29-18.44-17.58-27.24-1.11-1.56-3.72-.06-2.59,1.51Z" transform="translate(-161 -287.05)"/><path d="M503.2,450.26c5.34,9.53,11.21,18.74,17,28,1,1.63,3.62.13,2.59-1.51-5.79-9.26-11.66-18.47-17-28-.94-1.68-3.54-.17-2.59,1.51Z" transform="translate(-161 -287.05)"/><path d="M519,447.5c.05,10,.94,20,1,30a1.5,1.5,0,0,0,3,0c-.06-10-.95-20-1-30a1.5,1.5,0,0,0-3,0Z" transform="translate(-161 -287.05)"/><path d="M525.32,448.82c.75,9.55,1.62,19.1,1.68,28.68a1.5,1.5,0,0,0,3,0c-.06-9.58-.92-19.13-1.68-28.68-.15-1.91-3.15-1.93-3,0Z" transform="translate(-161 -287.05)"/><path d="M526.26,451c5.3,3.78,9.55,8.95,15.48,11.82,1.73.84,3.25-1.75,1.51-2.59-5.91-2.87-10.19-8-15.48-11.82-1.57-1.12-3.07,1.48-1.51,2.59Z" transform="translate(-161 -287.05)"/><path d="M529.56,478.56c4.52-5.65,10.11-10.32,14.23-16.3,1.1-1.59-1.5-3.1-2.59-1.51-4,5.77-9.41,10.25-13.77,15.7-1.2,1.49.91,3.63,2.12,2.12Z" transform="translate(-161 -287.05)"/><path d="M563.59,440.81c-.54,14.24-.56,28.47.23,42.7.11,1.92,3.11,1.93,3,0-.79-14.23-.77-28.46-.23-42.7.07-1.93-2.93-1.93-3,0Z" transform="translate(-161 -287.05)"/><path d="M408.37,464.28l7.87-5.2c1.6-1.06.1-3.66-1.51-2.59l-7.87,5.2c-1.6,1.06-.1,3.66,1.51,2.59Z" transform="translate(-161 -287.05)"/><path d="M405.81,464.57l9.78,4.6c1.74.82,3.26-1.77,1.51-2.59l-9.78-4.6c-1.74-.82-3.26,1.77-1.51,2.59Z" transform="translate(-161 -287.05)"/><path d="M444.26,457.59l8.55,5.83c1.6,1.09,3.1-1.51,1.51-2.59L445.78,455c-1.6-1.09-3.1,1.51-1.51,2.59Z" transform="translate(-161 -287.05)"/><path d="M447.26,468.8c2.57-1.69,5.09-3.05,7.3-5.23,1.38-1.36-.74-3.48-2.12-2.12-2,2-4.34,3.22-6.7,4.77-1.61,1.06-.11,3.65,1.51,2.59Z" transform="translate(-161 -287.05)"/><path d="M562.79,438.28a63.09,63.09,0,0,0-5.58,9.46c-.86,1.72,1.73,3.24,2.59,1.51a63.09,63.09,0,0,1,5.58-9.46c1.15-1.55-1.45-3.05-2.59-1.51Z" transform="translate(-161 -287.05)"/><path d="M563.57,440c2.82,3.32,5.79,6.51,8.87,9.59a1.5,1.5,0,0,0,2.12-2.12c-3.08-3.08-6.05-6.27-8.87-9.59-1.25-1.47-3.37.66-2.12,2.12Z" transform="translate(-161 -287.05)"/><path d="M566.56,482.44c-3.07-3.71-6.4-7.24-9.12-11.21-1.08-1.58-3.68-.08-2.59,1.51,2.87,4.19,6.36,7.92,9.59,11.82,1.23,1.49,3.34-.64,2.12-2.12Z" transform="translate(-161 -287.05)"/><path d="M567.15,484.83c2.42-4.27,5.39-8.21,7.64-12.57.88-1.71-1.7-3.23-2.59-1.51-2.25,4.37-5.22,8.31-7.64,12.57a1.5,1.5,0,0,0,2.59,1.51Z" transform="translate(-161 -287.05)"/><path d="M396.37,390.41A323.63,323.63,0,0,1,399,424.5c.07,1.93,3.07,1.93,3,0a331.08,331.08,0,0,0-2.74-34.89c-.27-1.9-3.16-1.09-2.89.8Z" transform="translate(-161 -287.05)"/><path d="M408.77,391c.31,11.19,1.19,22.35,1.23,33.54a1.5,1.5,0,0,0,3,0c0-11.19-.92-22.36-1.23-33.54-.05-1.93-3.05-1.93-3,0Z" transform="translate(-161 -287.05)"/><path d="M393.9,405.81c7.53,3.75,15.6,5.74,23.77,7.59,1.88.42,2.68-2.47.8-2.89-7.91-1.79-15.76-3.65-23.06-7.29-1.72-.86-3.24,1.73-1.51,2.59Z" transform="translate(-161 -287.05)"/><path d="M499.78,394.88a56.77,56.77,0,0,0-4.56,6.54c-1,1.74-3.16,4.75-3.12,6.88.07,4.68,7,8.31,9.43,11.55,1.15,1.52,3.75,0,2.59-1.51-2.22-2.94-6.83-5.23-8.2-8.64-1.56-3.87,3.79-9.91,6-12.7,1.18-1.5-.92-3.64-2.12-2.12Z" transform="translate(-161 -287.05)"/><path d="M494.65,409.31h7.5a1.5,1.5,0,0,0,0-3h-7.5a1.5,1.5,0,0,0,0,3Z" transform="translate(-161 -287.05)"/><path d="M535.78,394.88a56.77,56.77,0,0,0-4.56,6.54c-1,1.74-3.16,4.75-3.12,6.88.07,4.68,7,8.31,9.43,11.55,1.15,1.52,3.75,0,2.59-1.51-2.22-2.94-6.83-5.23-8.2-8.64-1.56-3.87,3.79-9.91,6-12.7,1.18-1.5-.92-3.64-2.12-2.12Z" transform="translate(-161 -287.05)"/><path d="M530.65,409.31h7.5a1.5,1.5,0,0,0,0-3h-7.5a1.5,1.5,0,0,0,0,3Z" transform="translate(-161 -287.05)"/></g><g id="move-label"><path d="M227.48,583l0,45.44L230,627.4a40.74,40.74,0,0,1-5.93-8.83l-2.59,1.51,6.22,9.66a1.52,1.52,0,0,0,2.36.3,43.44,43.44,0,0,0,7.73-11.17c.83-1.73-1.75-3.25-2.59-1.51a40.74,40.74,0,0,1-7.26,10.56l2.36.3-6.22-9.66a1.5,1.5,0,0,0-2.59,1.51,43.75,43.75,0,0,0,6.39,9.43,1.51,1.51,0,0,0,2.56-1.06l0-45.44a1.5,1.5,0,0,0-3,0Z" transform="translate(-161 -287.05)"/><path d="M222.92,593.75c3.31-3.3,3.16-8.64,6.62-11.71l-2.51-.66a81.64,81.64,0,0,0,6.84,13.29c1,1.62,3.63.12,2.59-1.51a77.49,77.49,0,0,1-6.54-12.57,1.52,1.52,0,0,0-2.51-.66c-3.57,3.16-3.34,8.44-6.62,11.71a1.5,1.5,0,0,0,2.12,2.12Z" transform="translate(-161 -287.05)"/><path d="M265.66,606.29c14-2,28.81-.64,42.89-.64a1.51,1.51,0,0,0,.76-2.8l-9.63-6.9c-1.57-1.13-3.07,1.47-1.51,2.59l9.63,6.9.76-2.8c-14.38,0-29.42-1.26-43.68.75-1.9.27-1.09,3.16.8,2.89Z" transform="translate(-161 -287.05)"/><path d="M300.81,612.93a53.24,53.24,0,0,1,8.28-7.56c1.54-1.13,0-3.73-1.51-2.59a56.79,56.79,0,0,0-8.88,8c-1.28,1.44.83,3.57,2.12,2.12Z" transform="translate(-161 -287.05)"/><path d="M264.45,605.87l8.84-6.71c1.52-1.15,0-3.76-1.51-2.59l-8.84,6.71c-1.52,1.15,0,3.76,1.51,2.59Z" transform="translate(-161 -287.05)"/><path d="M262.75,606.29a46.06,46.06,0,0,0,10.19,6.31c1.75.78,3.27-1.8,1.51-2.59a43.25,43.25,0,0,1-9.58-5.84c-1.49-1.21-3.62.9-2.12,2.12Z" transform="translate(-161 -287.05)"/></g></svg>