<svg width="160" height="160" viewBox="0 0 160 160" version="1.1" xmlns="http://www.w3.org/2000/svg" xmlns:xlink="http://www.w3.org/1999/xlink">
<title>tafl-crown</title>
<desc>Created using Figma</desc>
<g id="Canvas" transform="translate(-3640 -1119)">
<g id="tafl-crown">
<g id="Ellipse 9">
<use xlink:href="#path0_fill" transform="translate(3640 1119)" fill="#FFFFFF"/>
<mask id="mask0_outline_ins">
<use xlink:href="#path0_fill" fill="white" transform="translate(3640 1119)"/>
</mask>
<g mask="url(#mask0_outline_ins)">
<use xlink:href="#path1_stroke_2x" transform="translate(3640 1119)"/>
</g>
</g>
<g id="Ellipse 10">
<use xlink:href="#path0_fill" transform="translate(3640 1119)" fill="#FFFFFF"/>
<mask id="mask1_outline_ins">
<use xlink:href="#path0_fill" fill="white" transform="translate(3640 1119)"/>
</mask>
<g mask="url(#mask1_outline_ins)">
<use xlink:href="#path2_stroke_2x" transform="translate(3640 1119)" fill="#333333"/>
</g>
</g>
<g id="dots">
<g id="Ellipse 11">
<use xlink:href="#path3_fill" transform="matrix(-1 1.16744e-16 1.16743e-16 1 3724 1124)" fill="#FFFFFF"/>
</g>
<g id="Ellipse 11">
<use xlink:href="#path3_fill" transform="matrix(-1 1.16744e-16 1.16743e-16 1 3764 1134)" fill="#FFFFFF"/>
</g>
<g id="Ellipse 11">
<use xlink:href="#path3_fill" transform="matrix(-1 1.16744e-16 1.16743e-16 1 3687 1134)" fill="#FFFFFF"/>
</g>
<g id="Ellipse 11">
<use xlink:href="#path3_fill" transform="matrix(-1 1.16744e-16 1.16743e-16 1 3687 1256)" fill="#FFFFFF"/>
</g>
<g id="Ellipse 11">
<use xlink:href="#path3_fill" transform="matrix(-1 1.16744e-16 1.16743e-16 1 3763.77 1256)" fill="#FFFFFF"/>
</g>
<g id="Ellipse 11">
<use xlink:href="#path3_fill" transform="matrix(-1 1.16744e-16 1.16743e-16 1 3786 1230)" fill="#FFFFFF"/>
</g>
<g id="Ellipse 11">
<use xlink:href="#path3_fill" transform="matrix(-1 1.16744e-16 1.16743e-16 1 3795 1194)" fill="#FFFFFF"/>
</g>
<g id="Ellipse 11">
<use xlink:href="#path3_fill" transform="matrix(-1 1.16744e-16 1.16743e-16 1 3786 1161)" fill="#FFFFFF"/>
</g>
<g id="Ellipse 11">
<use xlink:href="#path3_fill" transform="matrix(-1 1.16744e-16 1.16743e-16 1 3724 1266)" fill="#FFFFFF"/>
</g>
<g id="Ellipse 11">
<use xlink:href="#path4_fill" transform="matrix(-1 1.16744e-16 1.16743e-16 1 3663 1159)" fill="#FFFFFF"/>
</g>
<g id="Ellipse 11">
<use xlink:href="#path5_fill" transform="matrix(-1 1.16744e-16 1.16743e-16 1 3663 1232)" fill="#FFFFFF"/>
</g>
<g id="Ellipse 11">
<use xlink:href="#path3_fill" transform="matrix(-1 1.16744e-16 1.16743e-16 1 3653 1194)" fill="#FFFFFF"/>
</g>
</g>
<g id="Vector 14">
<use xlink:href="#path6_fill" transform="translate(3681 1167.5)" fill="#F2C94C"/>
<use xlink:href="#path7_stroke" transform="translate(3681 1167.5)" fill="#333333"/>
</g>
</g>
</g>
<defs>
<path id="path0_fill" d="M 160 80C 160 124.183 124.183 160 80 160C 35.8172 160 0 124.183 0 80C 0 35.8172 35.8172 0 80 0C 124.183 0 160 35.8172 160 80Z"/>
<path id="path1_stroke_2x" d="M 156 80C 156 121.974 121.974 156 80 156L 80 164C 126.392 164 164 126.392 164 80L 156 80ZM 80 156C 38.0264 156 4 121.974 4 80L -4 80C -4 126.392 33.6081 164 80 164L 80 156ZM 4 80C 4 38.0264 38.0264 4 80 4L 80 -4C 33.6081 -4 -4 33.6081 -4 80L 4 80ZM 80 4C 121.974 4 156 38.0264 156 80L 164 80C 164 33.6081 126.392 -4 80 -4L 80 4Z"/>
<path id="path2_stroke_2x" d="M 142 80C 142 114.242 114.242 142 80 142L 80 178C 134.124 178 178 134.124 178 80L 142 80ZM 80 142C 45.7583 142 18 114.242 18 80L -18 80C -18 134.124 25.8761 178 80 178L 80 142ZM 18 80C 18 45.7583 45.7583 18 80 18L 80 -18C 25.8761 -18 -18 25.8761 -18 80L 18 80ZM 80 18C 114.242 18 142 45.7583 142 80L 178 80C 178 25.8761 134.124 -18 80 -18L 80 18Z"/>
<path id="path3_fill" d="M 8 4C 8 6.20914 6.20914 8 4 8C 1.79086 8 0 6.20914 0 4C 0 1.79086 1.79086 0 4 0C 6.20914 0 8 1.79086 8 4Z"/>
<path id="path4_fill" d="M 8 4C 8 6.20914 6.20914 8 4 8C 1.79086 8 0 6.20914 0 4C 0 1.79086 1.79086 0 4 0C 6.20914 0 8 1.79086 8 4Z"/>
<path id="path5_fill" d="M 7.99999 4C 7.99999 6.20914 6.20913 8 3.99999 8C 1.79085 8 -1.29936e-05 6.20914 -1.29936e-05 4C -1.29936e-05 1.79086 1.79085 0 3.99999 0C 6.20913 0 7.99999 1.79086 7.99999 4Z"/>
<path id="path6_fill" d="M 62.5 61.5L 39 61.5L 15.5 61.5L 0 8L 25 26L 39 0L 53 26L 78 8L 62.5 61.5Z"/>
<path id="path7_stroke" d="M 62.5 61.5L 62.5 63.5L 64.0028 63.5L 64.421 62.0566L 62.5 61.5ZM 78 8L 79.921 8.55655L 81.5333 2.99156L 76.8314 6.37693L 78 8ZM 53 26L 51.2391 26.9482L 52.3194 28.9545L 54.1686 27.6231L 53 26ZM 39 0L 40.7609 -0.9482L 39 -4.21852L 37.2391 -0.9482L 39 0ZM 15.5 61.5L 13.579 62.0566L 13.9972 63.5L 15.5 63.5L 15.5 61.5ZM 0 8L 1.16861 6.37693L -3.53329 2.99156L -1.921 8.55655L 0 8ZM 25 26L 23.8314 27.6231L 25.6806 28.9545L 26.7609 26.9482L 25 26ZM 39 63.5L 62.5 63.5L 62.5 59.5L 39 59.5L 39 63.5ZM 64.421 62.0566L 79.921 8.55655L 76.079 7.44345L 60.579 60.9434L 64.421 62.0566ZM 76.8314 6.37693L 51.8314 24.3769L 54.1686 27.6231L 79.1686 9.62307L 76.8314 6.37693ZM 54.7609 25.0518L 40.7609 -0.9482L 37.2391 0.9482L 51.2391 26.9482L 54.7609 25.0518ZM 39 59.5L 15.5 59.5L 15.5 63.5L 39 63.5L 39 59.5ZM 17.421 60.9434L 1.921 7.44345L -1.921 8.55655L 13.579 62.0566L 17.421 60.9434ZM -1.16861 9.62307L 23.8314 27.6231L 26.1686 24.3769L 1.16861 6.37693L -1.16861 9.62307ZM 26.7609 26.9482L 40.7609 0.9482L 37.2391 -0.9482L 23.2391 25.0518L 26.7609 26.9482Z"/>
</defs>
</svg>
