<svg width="160" height="160" viewBox="0 0 160 160" version="1.1" xmlns="http://www.w3.org/2000/svg" xmlns:xlink="http://www.w3.org/1999/xlink">
<title>tafl-helm</title>
<desc>Created using Figma</desc>
<g id="Canvas" transform="translate(-4027 -913)">
<g id="tafl-helm">
<g id="Vector">
<use xlink:href="#path0_fill" transform="translate(4050.34 957.667)" fill="#333333"/>
<use xlink:href="#path1_stroke" transform="translate(4050.34 957.667)" fill="#FFFFFF"/>
</g>
<g id="Vector 29">
<use xlink:href="#path2_fill" transform="translate(4149.37 929)" fill="#333333"/>
<use xlink:href="#path3_stroke" transform="translate(4149.37 929)" fill="#FFFFFF"/>
</g>
<g id="Vector 29">
<use xlink:href="#path2_fill" transform="matrix(-1 0 0 1 4064.63 929)" fill="#333333"/>
<use xlink:href="#path3_stroke" transform="matrix(-1 0 0 1 4064.63 929)" fill="#FFFFFF"/>
</g>
<g id="Vector">
<use xlink:href="#path4_fill" transform="translate(4049.79 1020.5)" fill="#333333"/>
<use xlink:href="#path5_stroke" transform="translate(4049.79 1020.5)" fill="#FFFFFF"/>
</g>
<g id="Vector">
<use xlink:href="#path6_fill" transform="translate(4099.34 955.619)" fill="#333333"/>
<use xlink:href="#path7_stroke" transform="translate(4099.34 955.619)" fill="#FFFFFF"/>
</g>
<g id="dots">
<g id="Ellipse 13">
<use xlink:href="#path8_fill" transform="translate(4061 1026)" fill="#FFFFFF"/>
</g>
<g id="Ellipse 13">
<use xlink:href="#path8_fill" transform="translate(4078 1028)" fill="#FFFFFF"/>
</g>
<g id="Ellipse 13">
<use xlink:href="#path8_fill" transform="translate(4105.5 1029)" fill="#FFFFFF"/>
</g>
<g id="Ellipse 13">
<use xlink:href="#path8_fill" transform="translate(4105.5 1003)" fill="#FFFFFF"/>
</g>
<g id="Ellipse 13">
<use xlink:href="#path8_fill" transform="translate(4105.5 975)" fill="#FFFFFF"/>
</g>
<g id="Ellipse 13">
<use xlink:href="#path8_fill" transform="matrix(-1 0 0 1 4154 1026)" fill="#FFFFFF"/>
</g>
<g id="Ellipse 13">
<use xlink:href="#path8_fill" transform="matrix(-1 0 0 1 4135 1028)" fill="#FFFFFF"/>
</g>
</g>
</g>
</g>
<defs>
<path id="path0_fill" d="M 57.1748 0C 5.33347 3.23131 -2.22672 50.4892 0.473346 73.7143C 19.0583 77.8095 67.7578 83.5428 113.876 73.7143C 116.576 50.4892 109.016 3.23131 57.1748 0Z"/>
<path id="path1_stroke" d="M 0.473346 73.7143L -2.50658 74.0607L -2.25974 76.184L -0.172225 76.644L 0.473346 73.7143ZM 57.1748 0L 57.3614 -2.99419L 57.1748 -3.00582L 56.9882 -2.99419L 57.1748 0ZM 113.876 73.7143L 114.502 76.6484L 116.608 76.1996L 116.856 74.0607L 113.876 73.7143ZM 3.45328 73.3678C 2.12249 62.0314 3.22269 45.306 11.0204 30.7669C 18.587 16.5228 32.5301 4.54195 57.3614 2.99419L 56.9882 -2.99419C 29.9782 -1.31064 14.2205 11.9531 5.72166 27.9521C -2.546 43.656 -3.87586 62.1721 -2.50658 74.0607L 3.45328 73.3678ZM 116.856 74.0607C 118.225 62.1721 116.896 43.656 108.628 27.9521C 100.129 11.9531 84.3714 -1.31064 57.3614 -2.99419L 56.9882 2.99419C 81.8196 4.54195 95.7626 16.5228 103.329 30.7669C 111.127 45.306 112.227 62.0314 110.896 73.3678L 116.856 74.0607ZM -0.172225 76.644C 18.6943 80.8013 67.8457 86.5914 114.502 76.6484L 113.251 70.7801C 67.6698 80.4942 19.4222 74.8177 1.11892 70.7845L -0.172225 76.644Z"/>
<path id="path2_fill" d="M 19.9901 0C 25.882 22.4653 9.11831 41.2557 0 47.8428C 2.45493 50.9629 7.99606 58.8674 10.5211 65.5238C 41.6637 41.3944 29.8099 11.7873 19.9901 0Z"/>
<path id="path3_stroke" d="M 0 47.8428L -1.75675 45.4109L -4.29048 47.2413L -2.35772 49.6978L 0 47.8428ZM 19.9901 0L 22.2951 -1.9202L 17.0883 0.761053L 19.9901 0ZM 10.5211 65.5238L 7.71617 66.5878L 9.15401 70.3782L 12.3586 67.8953L 10.5211 65.5238ZM 1.75675 50.2746C 6.49314 46.8427 13.4185 40.0196 18.2508 31.3247C 23.1047 22.5247 26.0851 11.414 22.892 -0.761053L 17.0883 0.761053C 19.787 11.0513 17.3315 20.5685 12.997 28.4268C 8.64076 36.3902 2.62518 42.2558 -1.75675 45.4109L 1.75675 50.2746ZM 17.6852 1.9202C 22.2627 7.41491 27.3398 17.1345 27.6174 28.2088C 27.8902 39.0907 23.5458 51.6371 8.6837 63.1523L 12.3586 67.8953C 28.639 55.2811 33.9389 40.9593 33.6155 28.0584C 33.297 15.35 27.5373 4.37244 22.2951 -1.9202L 17.6852 1.9202ZM -2.35772 49.6978C 0.0468879 52.7522 5.34482 60.2713 7.71617 66.5878L 13.3261 64.4597C 10.6473 57.4635 4.86297 49.1737 2.35772 45.9877L -2.35772 49.6978Z"/>
<path id="path4_fill" d="M 114.418 10.8809C 68.2998 20.7094 19.6003 14.9761 1.01538 10.8809C 0.206299 9.5 -0.79375 5 1.01538 0C 22.2204 4.5 74.5879 10.8 114.418 0C 115.156 1.58724 116.188 5.98555 114.418 10.8809Z"/>
<path id="path5_stroke" d="M 1.01538 10.8809L -1.57303 12.3975L -0.910334 13.5285L 0.369813 13.8106L 1.01538 10.8809ZM 114.418 10.8809L 115.044 13.815L 116.673 13.4677L 117.24 11.9007L 114.418 10.8809ZM 1.01538 0L 1.63816 -2.93465L -0.916932 -3.47687L -1.80563 -1.02072L 1.01538 0ZM 114.418 0L 117.139 -1.26391L 116.074 -3.5572L 113.633 -2.89545L 114.418 0ZM 0.369813 13.8106C 19.2363 17.9679 68.3878 23.7581 115.044 13.815L 113.793 7.94675C 68.2118 17.6608 19.9643 11.9843 1.66095 7.95114L 0.369813 13.8106ZM 3.60379 9.36424C 3.69807 9.50791 3.45118 9.06567 3.32435 8.55119C 3.17408 7.9799 3.07564 7.40951 3.02723 6.60296C 2.9084 4.90505 3.04106 3.14317 3.8364 1.02072L -1.80563 -1.02072C -2.81943 1.85683 -3.0913 4.84495 -2.96013 6.99225C -2.81787 9.18022 -2.29793 11.1603 -1.57303 12.3975L 3.60379 9.36424ZM 0.392609 2.93465C 21.7625 7.46964 74.6879 13.8812 115.203 2.89545L 113.633 -2.89545C 74.488 7.71878 22.6782 1.53036 1.63816 -2.93465L 0.392609 2.93465ZM 111.698 1.26391C 112.145 2.22763 113.064 5.80307 111.597 9.86098L 117.24 11.9007C 119.312 6.16802 118.166 0.946849 117.139 -1.26391L 111.698 1.26391Z"/>
<path id="path6_fill" d="M 0 94.82L 0 1.9292C 2.72261 0.473381 9.8014 -1.56477 16.3357 1.9292L 16.3357 94.82L 8.16783 102.381L 0 94.82Z"/>
<path id="path7_stroke" d="M 0 1.9292L -1.41461 -0.716336L -3 0.131396L -3 1.9292L 0 1.9292ZM 0 94.82L -3 94.82L -3 96.131L -2.03794 97.0216L 0 94.82ZM 8.16783 102.381L 6.12989 104.582L 8.16783 106.469L 10.2058 104.582L 8.16783 102.381ZM 16.3357 1.9292L 19.3357 1.9292L 19.3357 0.131396L 17.7503 -0.716336L 16.3357 1.9292ZM 16.3357 94.82L 18.3736 97.0216L 19.3357 96.131L 19.3357 94.82L 16.3357 94.82ZM -3 1.9292L -3 94.82L 3 94.82L 3 1.9292L -3 1.9292ZM -2.03794 97.0216L 6.12989 104.582L 10.2058 100.179L 2.03794 92.6185L -2.03794 97.0216ZM 13.3357 1.9292L 13.3357 94.82L 19.3357 94.82L 19.3357 1.9292L 13.3357 1.9292ZM 14.2977 92.6185L 6.12989 100.179L 10.2058 104.582L 18.3736 97.0216L 14.2977 92.6185ZM 1.41461 4.57474C 3.62841 3.39099 9.58934 1.72379 14.9211 4.57474L 17.7503 -0.716336C 10.0135 -4.85333 1.81681 -2.44422 -1.41461 -0.716336L 1.41461 4.57474Z"/>
<path id="path8_fill" d="M 4 2C 4 3.10457 3.10457 4 2 4C 0.895431 4 0 3.10457 0 2C 0 0.895431 0.895431 0 2 0C 3.10457 0 4 0.895431 4 2Z"/>
</defs>
</svg>
