<svg width="160" height="160" viewBox="0 0 160 160" version="1.1" xmlns="http://www.w3.org/2000/svg" xmlns:xlink="http://www.w3.org/1999/xlink">
<title>tafl-axe</title>
<desc>Created using Figma</desc>
<g id="Canvas" transform="translate(-3443 -707)">
<g id="tafl-axe">
<g id="Ellipse 9">
<use xlink:href="#path0_fill" transform="translate(3443 707)" fill="#333333"/>
<mask id="mask0_outline_ins">
<use xlink:href="#path0_fill" fill="white" transform="translate(3443 707)"/>
</mask>
<g mask="url(#mask0_outline_ins)">
<use xlink:href="#path1_stroke_2x" transform="translate(3443 707)"/>
</g>
</g>
<g id="Vector 13">
<use xlink:href="#path2_fill" transform="translate(3503 757)" fill="#BDBDBD"/>
<use xlink:href="#path3_stroke" transform="translate(3503 757)"/>
</g>
<g id="Vector 13">
<use xlink:href="#path4_fill" transform="translate(3501 740)" fill="#F2F2F2"/>
<use xlink:href="#path5_stroke" transform="translate(3501 740)"/>
</g>
</g>
</g>
<defs>
<path id="path0_fill" d="M 160 80C 160 124.183 124.183 160 80 160C 35.8172 160 0 124.183 0 80C 0 35.8172 35.8172 0 80 0C 124.183 0 160 35.8172 160 80Z"/>
<path id="path1_stroke_2x" d="M 152 80C 152 119.765 119.765 152 80 152L 80 168C 128.601 168 168 128.601 168 80L 152 80ZM 80 152C 40.2355 152 8 119.765 8 80L -8 80C -8 128.601 31.3989 168 80 168L 80 152ZM 8 80C 8 40.2355 40.2355 8 80 8L 80 -8C 31.3989 -8 -8 31.3989 -8 80L 8 80ZM 80 8C 119.765 8 152 40.2355 152 80L 168 80C 168 31.3989 128.601 -8 80 -8L 80 8Z"/>
<path id="path2_fill" d="M 13 1.66791C 7.32727 -1.35284 1.9697 0.409267 0 1.66791L 0 99.8423C 2.56061 100.562 8.39091 102 11.2273 102L 13 1.66791Z"/>
<path id="path3_stroke" d="M 0 1.66791L -0.269229 1.24659L -0.5 1.39405L -0.5 1.66791L 0 1.66791ZM 13 1.66791L 13.4999 1.67675L 13.5053 1.37053L 13.235 1.22658L 13 1.66791ZM 0 99.8423L -0.5 99.8423L -0.5 100.221L -0.135208 100.324L 0 99.8423ZM 11.2273 102L 11.2273 102.5L 11.7185 102.5L 11.7272 102.009L 11.2273 102ZM 0.269229 2.08924C 2.12498 0.903402 7.28798 -0.807292 12.765 2.10924L 13.235 1.22658C 7.36657 -1.89838 1.81441 -0.0848687 -0.269229 1.24659L 0.269229 2.08924ZM -0.135208 100.324C 1.15043 100.685 3.26417 101.228 5.40708 101.68C 7.5499 102.132 9.76802 102.498 11.2273 102.5L 11.2273 101.5C 9.85016 101.502 7.73495 101.149 5.61337 100.702C 3.49189 100.254 1.41018 99.7191 0.135208 99.361L -0.135208 100.324ZM -0.5 1.66791L -0.5 99.8423L 0.5 99.8423L 0.5 1.66791L -0.5 1.66791ZM 12.5001 1.65908L 10.7274 101.991L 11.7272 102.009L 13.4999 1.67675L 12.5001 1.65908Z"/>
<path id="path4_fill" d="M 0 38.8274L 0 23.4818C 0 23.4818 1.42925 23.615 2.23528 23.6527C 5.56728 23.8084 9.88282 23.6253 14.4652 22.9878C 27.8828 21.121 41.3527 15.3581 41.3527 2.79545L 40.2351 1.67727L 41.9115 0C 63.1467 17.8909 51.9703 65.9727 41.9115 73.2409L 40.7939 72.1227L 41.9115 70.4455C 42.9864 58.5182 40.2351 38.8274 14.4652 38.5773L 2.23528 38.5773C 1.41353 38.5875 0 38.8274 0 38.8274Z"/>
<path id="path5_stroke" d="M 0 23.4818L 0.0463862 22.984L -0.5 22.9331L -0.5 23.4818L 0 23.4818ZM 0 38.8274L -0.5 38.8274L -0.5 39.4194L 0.0836655 39.3203L 0 38.8274ZM 40.2351 1.67727L 39.8814 1.32381L 39.5281 1.67727L 39.8814 2.03074L 40.2351 1.67727ZM 41.9115 0L 42.2337 -0.382379L 41.8825 -0.678248L 41.5579 -0.353468L 41.9115 0ZM 40.7939 72.1227L 40.3778 71.8455L 40.1506 72.1864L 40.4403 72.4762L 40.7939 72.1227ZM 41.9115 73.2409L 41.5579 73.5944L 41.8591 73.8957L 42.2044 73.6462L 41.9115 73.2409ZM 2.23528 38.5773L 2.23528 38.0772L 2.22909 38.0773L 2.23528 38.5773ZM 2.23528 23.6527L 2.25862 23.1532L 2.25862 23.1532L 2.23528 23.6527ZM 14.4652 22.9878L 14.5341 23.483L 14.5341 23.483L 14.4652 22.9878ZM 14.4652 38.5773L 14.47 38.0773L 14.4652 38.0773L 14.4652 38.5773ZM -0.5 23.4818L -0.5 38.8274L 0.5 38.8274L 0.5 23.4818L -0.5 23.4818ZM 42.2936 70.768C 44.1351 68.5862 46.0699 64.2008 47.6794 58.6785C 49.292 53.1439 50.603 46.367 51.1555 39.3854C 52.2559 25.461 50.3706 10.4255 41.6915 2.42776L 41.0139 3.16315C 49.323 10.82 51.2563 25.4163 50.1586 39.3066C 49.6121 46.2324 48.32 52.9087 46.7193 58.3987C 45.1157 63.9009 43.2271 68.1116 41.5294 70.123L 42.2936 70.768ZM 41.7064 2.44199L 40.5887 1.32381L 39.8814 2.03074L 40.9991 3.14892L 41.7064 2.44199ZM 40.5887 2.03074L 42.2652 0.353468L 41.5579 -0.353468L 39.8814 1.32381L 40.5887 2.03074ZM 41.4955 70.1682L 40.3778 71.8455L 41.21 72.4L 42.3276 70.7227L 41.4955 70.1682ZM 40.4403 72.4762L 41.5579 73.5944L 42.2652 72.8874L 41.1475 71.7693L 40.4403 72.4762ZM 42.2044 73.6462C 44.85 71.7345 47.4763 67.2387 49.6107 61.4188C 51.751 55.58 53.4419 48.2661 54.1447 40.6498C 55.5454 25.4447 53.0479 8.7287 42.2337 -0.382379L 41.5894 0.382379C 52.0104 9.16221 54.5423 25.4326 53.1489 40.5581C 52.4546 48.1072 50.7926 55.2947 48.6719 61.0745C 46.5452 66.8733 44.0025 71.1132 41.6187 72.8356L 42.2044 73.6462ZM 0 38.8274C 0.0836655 39.3203 0.0836494 39.3203 0.0836388 39.3203C 0.0836424 39.3203 0.083637 39.3203 0.0836442 39.3203C 0.0836729 39.3203 0.0836942 39.3203 0.0837512 39.3203C 0.0838939 39.3203 0.0840637 39.3202 0.0843468 39.3202C 0.0849708 39.3201 0.0858137 39.3199 0.0870449 39.3197C 0.0896241 39.3193 0.0932762 39.3187 0.0983065 39.3179C 0.108606 39.3161 0.123404 39.3137 0.142998 39.3105C 0.182684 39.304 0.239275 39.2949 0.310688 39.2838C 0.454582 39.2613 0.651736 39.2318 0.876032 39.2017C 1.32666 39.1411 1.85534 39.0814 2.24147 39.0772L 2.22909 38.0773C 1.79348 38.0833 1.20451 38.1486 0.742937 38.2106C 0.511131 38.2417 0.303544 38.2728 0.15672 38.2957C 0.0827753 38.3072 0.0225138 38.3169 -0.0183125 38.3236C -0.0389744 38.327 -0.0553481 38.3297 -0.0661561 38.3315C -0.0716793 38.3324 -0.0760649 38.3331 -0.0788849 38.3336C -0.0803532 38.3339 -0.0815504 38.3341 -0.0822915 38.3342C -0.082691 38.3342 -0.0830349 38.3343 -0.0832354 38.3343C -0.08335 38.3344 -0.0834577 38.3344 -0.083515 38.3344C -0.0835509 38.3344 -0.0835885 38.3344 -0.0836065 38.3344C -0.0836387 38.3344 -0.0836655 38.3344 0 38.8274ZM 0 23.4818C -0.0463862 23.9797 -0.0463744 23.9797 -0.0463572 23.9797C -0.0463442 23.9797 -0.0463215 23.9797 -0.0462955 23.9797C -0.0462478 23.9797 -0.0461699 23.9797 -0.0460746 23.9797C -0.0458926 23.9797 -0.0456072 23.9797 -0.045245 23.9798C -0.0445377 23.9798 -0.0434543 23.9799 -0.0420549 23.9801C -0.0392905 23.9803 -0.0351203 23.9807 -0.0297152 23.9812C -0.0189753 23.9822 -0.00299599 23.9837 0.0174891 23.9855C 0.0583126 23.9893 0.117833 23.9947 0.191499 24.0012C 0.338518 24.0144 0.543902 24.0323 0.774042 24.0514C 1.23373 24.0895 1.80154 24.1329 2.21194 24.1521L 2.25862 23.1532C 1.86299 23.1348 1.31317 23.0927 0.856716 23.0548C 0.62879 23.0359 0.426485 23.0182 0.28033 23.0052C 0.20741 22.9987 0.148973 22.9934 0.108486 22.9897C 0.0883154 22.9878 0.072801 22.9864 0.0622111 22.9854C 0.0569513 22.985 0.0529975 22.9846 0.0503041 22.9843C 0.0489747 22.9842 0.0479958 22.9841 0.047323 22.9841C 0.0469951 22.984 0.0467611 22.984 0.0465961 22.984C 0.0465178 22.984 0.0464654 22.984 0.0464261 22.984C 0.0464086 22.984 0.0463986 22.984 0.0463899 22.984C 0.0463853 22.984 0.0463862 22.984 0 23.4818ZM 2.21194 24.1521C 5.56621 24.3084 9.92792 24.1232 14.5341 23.483L 14.3963 22.4925C 9.83773 23.1273 5.56836 23.3084 2.25862 23.1532L 2.21194 24.1521ZM 14.5341 23.483C 21.2769 22.5437 28.1016 20.6027 33.211 17.3231C 38.3564 14.014 41.8527 9.29178 41.8527 2.79545L 40.8527 2.79545C 40.8527 8.86177 37.6141 13.3024 32.6701 16.482C 27.6901 19.6913 21.071 21.5651 14.3963 22.4925L 14.5341 23.483ZM 42.4095 70.4903C 42.9509 64.4827 42.5377 56.4551 38.6866 49.8797C 34.8102 43.2613 27.5038 38.2038 14.47 38.0773L 14.4603 39.0773C 27.1964 39.2009 34.1507 44.1138 37.8237 50.3851C 41.522 56.6995 41.947 64.481 41.4136 70.4006L 42.4095 70.4903ZM 14.4652 38.0773L 2.23528 38.0773L 2.23528 39.0773L 14.4652 39.0773L 14.4652 38.0773Z"/>
</defs>
</svg>
