<svg width="300" height="430" viewBox="0 0 300 430" version="1.1" xmlns="http://www.w3.org/2000/svg" xmlns:xlink="http://www.w3.org/1999/xlink">
<title>viking-1</title>
<desc>Created using Figma</desc>
<g id="Canvas" transform="translate(-4435 -844)">
<g id="viking-1">
<g id="Vector 40">
<use xlink:href="#path0_fill" transform="translate(4488.82 925)" fill="#C4C4C4"/>
<use xlink:href="#path1_stroke" transform="translate(4488.82 925)"/>
</g>
<g id="beard">
<g id="beard-bg">
<use xlink:href="#path2_fill" transform="translate(4436 1047.5)" fill="#D08600"/>
</g>
<g id="Vector 44">
<use xlink:href="#path3_fill" transform="translate(4539 1179)" fill="#F6B745"/>
</g>
<g id="dark.R">
<use xlink:href="#path4_fill" transform="translate(4567.06 1048)" fill="#906008"/>
</g>
<g id="Vector 42">
<use xlink:href="#path5_fill" transform="translate(4669.01 1212)" fill="#D08600"/>
</g>
<g id="Vector 42">
<use xlink:href="#path6_fill" transform="translate(4614.15 1225)" fill="#D08600"/>
</g>
<g id="light.R">
<use xlink:href="#path7_fill" transform="matrix(1 -2.67189e-24 -2.67189e-24 -1 4613 1227)" fill="#D08600"/>
</g>
<g id="dark3.L">
<use xlink:href="#path8_fill" transform="translate(4488.5 1226)" fill="#906008"/>
</g>
<g id="light3.L">
<use xlink:href="#path9_fill" transform="translate(4476.5 1206.5)" fill="#F6B745"/>
</g>
<g id="light2.L">
<use xlink:href="#path10_fill" transform="translate(4455 1194)" fill="#F6B745"/>
</g>
<g id="dark2.L">
<use xlink:href="#path11_fill" transform="translate(4443.18 1226.5)" fill="#906008"/>
</g>
<g id="light.L">
<use xlink:href="#path12_fill" transform="translate(4439 1137.5)" fill="#F6B745"/>
</g>
<g id="dark.L">
<use xlink:href="#path13_fill" transform="translate(4438.5 1178)" fill="#906008"/>
</g>
<g id="Vector 41">
<use xlink:href="#path14_fill" transform="translate(4511 1127)" fill="#F6B745"/>
</g>
<g id="Vector 49">
<use xlink:href="#path15_fill" transform="translate(4461 1086.5)" fill="#F6B745"/>
</g>
<g id="Vector 43">
<use xlink:href="#path16_fill" transform="translate(4546 1123)" fill="#F6B745"/>
</g>
<g id="beard-contour">
<use xlink:href="#path17_stroke" transform="translate(4436 1047.5)"/>
</g>
<g id="Vector 51">
<use xlink:href="#path18_fill" transform="translate(4657 1136)" fill="#D08600"/>
</g>
<g id="Vector 50">
<use xlink:href="#path19_stroke" transform="translate(4656 1117)"/>
</g>
<g id="Vector 63">
<use xlink:href="#path20_fill" transform="translate(4503 1086)" fill="#F6B745"/>
</g>
<g id="Vector 64">
<use xlink:href="#path21_stroke" transform="translate(4648.5 1175)"/>
</g>
<g id="Vector 65">
<use xlink:href="#path22_fill" transform="translate(4647.5 1178)" fill="#D08600"/>
</g>
</g>
<g id="mouth">
<g id="lipsBg">
<use xlink:href="#path23_fill" transform="translate(4531.65 1050.4)" fill="#F3BD78"/>
<use xlink:href="#path24_stroke" transform="translate(4531.65 1050.4)"/>
</g>
<g id="lowerLipShadow">
<use xlink:href="#path25_fill" transform="translate(4538.19 1071.5)" fill="#CB934B"/>
</g>
<g id="Vector 39">
<use xlink:href="#path26_fill" transform="translate(4544.44 1060.47)" fill="#6F3A3A"/>
<use xlink:href="#path27_stroke" transform="translate(4544.44 1060.47)"/>
</g>
<g id="Vector 48">
<use xlink:href="#path28_fill" transform="translate(4558.34 1076.12)" fill="#AE5A5A"/>
<use xlink:href="#path29_stroke" transform="translate(4558.34 1076.12)"/>
</g>
<g id="Vector 38">
<use xlink:href="#path30_fill" transform="translate(4532 1049)" fill="#CB934B"/>
</g>
<g id="lipsStroke">
<use xlink:href="#path31_stroke" transform="translate(4531.65 1050.4)"/>
</g>
<g id="teeth.bot">
<use xlink:href="#path32_fill" transform="translate(4541.09 1091.5)" fill="#FFFFFF"/>
<use xlink:href="#path33_stroke" transform="translate(4541.09 1091.5)"/>
</g>
<g id="teeth.top">
<use xlink:href="#path34_fill" transform="translate(4539 1061)" fill="#FFFFFF"/>
<use xlink:href="#path35_stroke" transform="translate(4539 1061)"/>
</g>
</g>
<g id="moustaches">
<g id="Vector 32">
<use xlink:href="#path36_fill" transform="translate(4479.85 1031.68)" fill="#D08600"/>
<use xlink:href="#path37_stroke" transform="translate(4479.85 1031.68)"/>
</g>
<g id="Vector 33">
<use xlink:href="#path38_fill" transform="translate(4480.69 1033.95)" fill="#F6B745"/>
</g>
<g id="Vector 34">
<use xlink:href="#path39_fill" transform="translate(4479.85 1050.66)" fill="#906008"/>
</g>
<g id="Vector 35">
<use xlink:href="#path40_fill" transform="translate(4565.11 1045.66)" fill="#906008"/>
</g>
<g id="Vector 37">
<use xlink:href="#path41_fill" transform="translate(4507.71 1057.37)" fill="#906008"/>
</g>
<g id="Vector 36">
<use xlink:href="#path42_fill" transform="translate(4499.27 1046.93)" fill="#F6B745"/>
</g>
<g id="Vector">
<use xlink:href="#path43_stroke" transform="translate(4479.85 1032.02)"/>
</g>
</g>
<g id="faceUpper">
<g id="faceUpperBg">
<use xlink:href="#path44_fill" transform="translate(4516.9 937.615)" fill="#F3BD78"/>
</g>
<g id="leftEyeShadow">
<use xlink:href="#path45_fill" transform="translate(4524 1006.5)" fill="#CB934B"/>
<use xlink:href="#path46_stroke" transform="translate(4524 1006.5)"/>
</g>
<g id="noseShadow">
<use xlink:href="#path47_fill" transform="translate(4549.5 1018.59)" fill="#CB934B"/>
</g>
<g id="noseGlare">
<use xlink:href="#path48_fill" transform="translate(4530.14 1011.5)" fill="#FFD49D"/>
</g>
<g id="Nose">
<use xlink:href="#path49_stroke" transform="translate(4529.5 1010.79)"/>
</g>
<g id="Vector 55">
<use xlink:href="#path50_fill" transform="translate(4639.5 964.639)" fill="#CB934B"/>
</g>
<g id="Vector 54">
<use xlink:href="#path51_fill" transform="translate(4517.47 962.5)" fill="#FFD49D"/>
</g>
<g id="foreheadShadow">
<use xlink:href="#path52_fill" transform="translate(4521.5 941.602)" fill="#CB934B"/>
</g>
<g id="faceUpperStroke">
<use xlink:href="#path53_stroke" transform="translate(4516.9 937.615)"/>
</g>
<g id="eyes">
<g id="Vector">
<use xlink:href="#path54_fill" transform="translate(4523.7 969)" fill="#FFEFDA"/>
<use xlink:href="#path55_fill" transform="translate(4523.7 969)" fill="#FFEFDA"/>
<use xlink:href="#path56_stroke" transform="translate(4523.7 969)"/>
</g>
<g id="Vector 60">
<use xlink:href="#path57_fill" transform="translate(4601.5 976)" fill="#E8CEAC"/>
</g>
<g id="Vector 59">
<use xlink:href="#path58_fill" transform="translate(4587 975.5)" fill="#FFFFFF"/>
</g>
<g id="Vector 59">
<use xlink:href="#path59_fill" transform="translate(4530 981)" fill="#FFFFFF"/>
</g>
<g id="Vector 61">
<use xlink:href="#path60_fill" transform="translate(4538 992)" fill="#E8CEAC"/>
</g>
<g id="Vector 62">
<use xlink:href="#path61_fill" transform="translate(4524 996.5)" fill="#E8CEAC"/>
</g>
<g id="Vector">
<use xlink:href="#path62_stroke" transform="translate(4523.7 969)"/>
</g>
<g id="rightEyeShadow">
<use xlink:href="#path63_fill" transform="translate(4583 1009)" fill="#CB934B"/>
<use xlink:href="#path64_stroke" transform="translate(4583 1009)"/>
</g>
<g id="Ellipse 14">
<use xlink:href="#path65_fill" transform="translate(4596 992)" fill="#333333"/>
</g>
<g id="Ellipse 14">
<use xlink:href="#path66_fill" transform="translate(4535 992)" fill="#333333"/>
</g>
</g>
</g>
<g id="helmet">
<g id="Bg">
<use xlink:href="#path67_fill" transform="translate(4517.78 890.955)" fill="#C4C4C4"/>
<use xlink:href="#path68_stroke" transform="translate(4517.78 890.955)"/>
</g>
<g id="Vector 45">
<use xlink:href="#path69_fill" transform="translate(4517.78 939.238)" fill="#4F4F4F"/>
<use xlink:href="#path70_stroke" transform="translate(4517.78 939.238)"/>
</g>
<g id="Shadow">
<use xlink:href="#path71_fill" transform="translate(4612.5 891.5)" fill="#9A9A9A"/>
</g>
<g id="toppyLeftShadow">
<use xlink:href="#path72_fill" transform="translate(4585 891.251)" fill="#9A9A9A"/>
</g>
<g id="Stroke">
<use xlink:href="#path73_stroke" transform="translate(4517.78 890.955)"/>
</g>
<g id="foreheadBg">
<use xlink:href="#path74_fill" transform="translate(4517.78 919.833)" fill="#C4C4C4"/>
<use xlink:href="#path75_stroke" transform="translate(4517.78 919.833)"/>
</g>
<g id="foreheadGlare">
<use xlink:href="#path76_fill" transform="translate(4518.5 920.323)" fill="#ECECEC"/>
</g>
<g id="foreheadStroke">
<use xlink:href="#path77_stroke" transform="translate(4517.78 919.833)"/>
</g>
<g id="toppyBg">
<use xlink:href="#path78_fill" transform="translate(4570 889.208)" fill="#C4C4C4"/>
</g>
<g id="toppyGlare">
<use xlink:href="#path79_fill" transform="translate(4570 889.094)" fill="#ECECEC"/>
</g>
<g id="toppyStroke">
<use xlink:href="#path80_stroke" transform="translate(4570 889.208)"/>
</g>
<g id="horn.R">
<g id="Vector 46">
<use xlink:href="#path81_fill" transform="translate(4659.28 845.5)" fill="#FFFFFF"/>
<use xlink:href="#path82_stroke" transform="translate(4659.28 845.5)"/>
</g>
<g id="Vector 56">
<use xlink:href="#path83_fill" transform="translate(4669 858.5)" fill="#F2F2F2"/>
</g>
<g id="Vector 47">
<use xlink:href="#path84_fill" transform="translate(4655.6 924)" fill="#C4C4C4"/>
<use xlink:href="#path85_stroke" transform="translate(4655.6 924)"/>
</g>
<g id="Vector 53">
<use xlink:href="#path86_fill" transform="translate(4656.5 937)" fill="#9A9A9A"/>
</g>
<g id="Vector 46">
<use xlink:href="#path82_stroke" transform="translate(4659.28 845.5)"/>
</g>
<g id="Vector 68">
<use xlink:href="#path87_stroke" transform="translate(4692 928)"/>
</g>
<g id="Vector 66">
<use xlink:href="#path88_stroke" transform="translate(4673 939)"/>
</g>
<g id="Vector 67">
<use xlink:href="#path89_stroke" transform="translate(4685.5 932.5)"/>
</g>
</g>
<g id="horn.L">
<g id="Vector 57">
<use xlink:href="#path90_fill" transform="translate(4506 859)" fill="#FFFFFF"/>
</g>
<g id="Vector 58">
<use xlink:href="#path91_fill" transform="translate(4511.57 874.5)" fill="#ECECEC"/>
</g>
<g id="Vector 57">
<use xlink:href="#path92_stroke" transform="translate(4506 859)"/>
</g>
</g>
</g>
</g>
</g>
<defs>
<path id="path0_fill" d="M 22.2278 222.197C 41.1646 213.197 53.9562 198.53 52.1289 194.697C 87.2127 207.897 131.863 194.864 149.802 186.697C 154.985 169.897 151.962 144.364 149.802 133.697C 118.307 120.897 65.9154 126.364 43.6562 130.697C 18.1413 99.8971 29.0383 44.1188 37.6762 20.0797C 84.3615 -16.9819 144.508 5.48148 169.736 22.197C 184.686 34.6972 185.351 97.5304 179.703 141.197C 170.733 160.197 185.683 203.397 179.703 222.197C 192.461 236.197 173.225 251.697 169.736 256.197C 144.487 274.864 94.9851 303.497 37.1778 280.697C -18.9788 258.548 -0.203246 239.797 20.4074 223.617C 20.9244 223.14 21.5308 222.666 22.2278 222.197Z"/>
<path id="path1_stroke" d="M 52.1289 194.697L 52.305 194.229L 51.1437 193.792L 51.6776 194.912L 52.1289 194.697ZM 22.2278 222.197L 22.0131 221.746L 21.9795 221.762L 21.9485 221.782L 22.2278 222.197ZM 65.5832 243.697L 65.643 243.201L 65.6324 243.199L 65.6217 243.199L 65.5832 243.697ZM 179.703 141.197L 180.155 141.411L 180.189 141.339L 180.199 141.261L 179.703 141.197ZM 169.736 22.197L 170.057 21.8135L 170.036 21.7956L 170.012 21.7802L 169.736 22.197ZM 37.1778 280.697L 37.3613 280.232L 37.3613 280.232L 37.1778 280.697ZM 169.736 256.197L 170.033 256.599L 170.089 256.558L 170.131 256.504L 169.736 256.197ZM 37.6762 20.0797L 37.3653 19.6881L 37.2538 19.7766L 37.2056 19.9106L 37.6762 20.0797ZM 43.6562 130.697L 43.2712 131.016L 43.4605 131.245L 43.7518 131.188L 43.6562 130.697ZM 149.802 133.697L 150.292 133.598L 150.239 133.335L 149.991 133.234L 149.802 133.697ZM 149.802 186.697L 150.01 187.152L 150.214 187.059L 150.28 186.845L 149.802 186.697ZM 51.6776 194.912C 51.8319 195.236 51.8609 195.745 51.6627 196.48C 51.4634 197.226 51.0678 198.084 50.4625 199.087C 49.2438 201.112 47.2633 203.538 44.6135 206.154C 39.3024 211.401 31.4382 217.269 22.0131 221.746L 22.4424 222.649C 31.9543 218.125 39.9542 212.16 45.3163 206.865C 48.0031 204.211 50.0614 201.688 51.319 199.604C 51.9518 198.552 52.4038 197.566 52.6282 196.74C 52.8538 195.904 52.8828 195.117 52.5803 194.482L 51.6776 194.912ZM 21.9485 221.782C 21.237 222.262 20.6007 222.759 20.0683 223.25L 20.7464 223.985C 21.2481 223.521 21.8245 223.071 22.507 222.612L 21.9485 221.782ZM 20.0683 223.25C 18.9185 224.31 18.1568 225.419 17.8217 226.567C 17.5019 227.694 17.6101 228.908 18.1153 230.011C 19.1445 232.222 21.7651 234.275 25.6937 236.108C 33.5852 239.792 47.1629 242.777 65.5447 244.196L 65.6217 243.199C 47.2785 241.783 33.844 238.809 26.1166 235.202C 22.2358 233.391 19.8953 231.465 19.0219 229.589C 18.5758 228.648 18.4972 227.791 18.7816 226.847C 19.0507 225.925 19.6841 224.965 20.7464 223.985L 20.0683 223.25ZM 65.5233 244.194C 82.8351 246.28 109.937 245.604 133.432 242.054C 145.183 240.278 156.075 237.774 164.389 234.54C 168.553 232.919 172.112 231.093 174.799 229.09C 177.496 227.077 179.389 224.835 180.18 222.349L 179.227 222.046C 178.523 224.259 176.807 226.344 174.201 228.289C 171.583 230.244 168.143 232.006 164.026 233.608C 155.781 236.818 144.996 239.296 133.283 241.065C 109.85 244.607 82.8826 245.281 65.643 243.201L 65.5233 244.194ZM 180.18 222.349C 181.704 217.556 181.885 211.253 181.464 204.251C 181.042 197.243 180.012 189.472 179.078 181.712C 178.144 173.953 177.306 166.212 177.26 159.222C 177.213 152.229 177.961 146.058 180.155 141.411L 179.251 140.984C 176.96 145.836 176.213 152.19 176.26 159.229C 176.307 166.269 177.151 174.066 178.085 181.832C 179.02 189.597 180.046 197.339 180.465 204.312C 180.885 211.292 180.692 217.438 179.227 222.046L 180.18 222.349ZM 180.199 141.261C 183.025 119.408 184.273 92.7358 182.943 69.9804C 182.277 58.5992 180.963 48.1625 178.88 39.8027C 176.8 31.4587 173.926 25.0481 170.057 21.8135L 169.416 22.5806C 173.022 25.596 175.837 31.7272 177.91 40.0446C 179.98 48.3462 181.282 58.6909 181.945 70.0388C 183.273 92.7417 182.029 119.32 179.207 141.133L 180.199 141.261ZM 21.9212 221.802C 21.3137 222.274 20.7052 222.748 20.0986 223.224L 20.7161 224.011C 21.3212 223.536 21.9276 223.063 22.5343 222.592L 21.9212 221.802ZM 20.0986 223.224C 14.9401 227.273 9.86615 231.511 6.05717 235.92C 2.24592 240.334 -0.365138 244.996 -0.494939 249.905C -0.625397 254.839 1.75166 259.897 7.63738 265.085C 13.5152 270.266 22.9327 275.616 36.9944 281.162L 37.3613 280.232C 23.3447 274.704 14.0503 269.404 8.29863 264.334C 2.5548 259.272 0.384535 254.477 0.504711 249.932C 0.625544 245.362 3.06307 240.918 6.81407 236.574C 10.5673 232.224 15.5693 228.051 20.7161 224.011L 20.0986 223.224ZM 36.9944 281.162C 95.0554 304.062 144.752 275.289 170.033 256.599L 169.439 255.795C 144.221 274.438 94.9148 302.932 37.3613 280.232L 36.9944 281.162ZM 170.131 256.504C 170.981 255.405 172.824 253.607 174.929 251.291C 177.031 248.979 179.395 246.142 181.242 243.014C 183.087 239.884 184.445 236.372 184.518 232.792C 184.585 229.165 183.343 225.449 180.073 221.86L 179.333 222.534C 182.442 225.945 183.58 229.417 183.519 232.774C 183.464 236.179 182.187 239.448 180.381 242.506C 178.578 245.565 176.277 248.322 174.189 250.619C 172.105 252.912 170.235 254.739 169.341 255.891L 170.131 256.504ZM 170.012 21.7802C 157.365 13.4023 135.916 3.56382 111.816 0.475965C 87.6943 -2.60889 60.8401 1.05236 37.3653 19.6881L 37.987 20.4713C 61.1975 2.04538 87.7592 -1.59245 111.689 1.46789C 135.641 4.52523 156.879 14.2762 169.46 22.6139L 170.012 21.7802ZM 37.2056 19.9106C 32.8785 31.9551 27.978 51.9864 27.3591 72.8383C 26.743 93.6866 30.3998 115.479 43.2712 131.016L 44.0413 130.378C 31.3977 115.116 27.7455 93.6185 28.3587 72.8679C 28.969 52.1208 33.836 32.2434 38.1467 20.2487L 37.2056 19.9106ZM 43.7518 131.188C 54.8661 129.024 73.4851 126.579 93.2736 126.272C 113.071 125.964 133.961 127.799 149.614 134.16L 149.991 133.234C 134.149 126.796 113.096 124.964 93.2581 125.272C 73.4121 125.582 54.7054 128.037 43.5607 130.206L 43.7518 131.188ZM 149.312 133.796C 151.469 144.451 154.468 169.878 149.325 186.55L 150.28 186.845C 155.502 169.917 152.454 144.277 150.292 133.598L 149.312 133.796ZM 149.595 186.242C 140.649 190.316 125.068 195.594 107.322 198.215C 89.5682 200.84 69.7608 200.805 52.305 194.229L 51.9529 195.165C 69.5808 201.789 89.6404 201.837 107.468 199.204C 125.302 196.566 141.017 191.245 150.01 187.152L 149.595 186.242Z"/>
<path id="path2_fill" d="M 75.7475 1.50007C 75.6906 1.521 75.6338 1.54276 75.5772 1.56532C 80.4452 2.53938 222.718 13.8936 233.223 0C 248.812 0.328139 257.032 30.8053 263.095 60.763C 266.27 76.4532 268.854 92.0009 271.595 103C 279.568 135 233.223 167.5 278.571 207.5C 225.249 197.5 240 170.7 225.249 171.5C 212.292 177.5 202.824 201 227.741 211C 222.468 228.383 187.275 215.896 177.379 190.572C 180.884 210.111 142.009 211.329 128.073 225C 137.066 203.612 138.453 192.484 132.466 182.987C 139.974 206.206 21.1768 233.773 42.8571 218.5C 66.2791 202 72.9833 161.683 65.2824 178.5C 56.8106 197 -7.97342 186 9.46844 180C 30.598 178.4 56.4784 160.128 58.3056 147.442C 48.28 146.417 29.6119 160.5 0 160.5C 33.887 143.833 51.7276 114.8 53.3223 92C 53.7715 85.5772 54.5608 76.0278 55.7972 65.5C 49.9798 73.1 31.0326 71.3334 22.4252 69.5001C 44.7508 64.7001 57.523 43.5 60.8746 33.5C 64.3183 17.4543 69.0868 4.15175 75.5772 1.56532C 75.3647 1.52281 75.414 1.50007 75.7475 1.50007Z"/>
<path id="path3_fill" d="M 2.33882 24C -4.46118 12.8 5.17216 3.33333 10.8388 0C 8.06825 2.66667 3.88946 10.4 9.33887 20C 14.2144 28.589 10.0488 35.4169 6.53629 38.5502C 6.20642 39.0838 5.76898 39.3827 5.33887 39.5C 5.71841 39.2367 6.12283 38.9191 6.53629 38.5502C 7.61244 36.8097 7.54349 32.5724 2.33882 24Z"/>
<path id="path4_fill" d="M 12.4585 157C 38.7708 141.8 23.4219 101.833 12.4585 86.5C 16.7922 86.5 21.4286 93.9999 22.9236 95.9999C 22.9236 92.4999 22.4252 90.3999 20.4319 83.9999C 45.3783 81.0545 78.8284 75.0996 81.2292 67.9999C 82.4252 59.9999 86.2126 28.9999 66.2791 12.4999C 80.2326 9.99993 99.6678 -4.08007e-14 105.648 0C 119.864 3.41701 125.387 26.3658 132.452 61.8849C 135.332 71.0882 145.669 82.6032 165.449 72.5C 161.99 82.4152 148.732 92.3305 138.554 92.4978C 139.491 97.0406 140.478 101.711 141.528 106.5C 142.724 123.7 127.575 149.5 126.578 167C 126.977 185.4 139.369 200.333 145.515 205.5C 125.183 203.5 113.621 193.833 109.136 188.5C 101.163 170.5 96.5116 169 95.1827 170.5C 68.4718 190.1 85.0498 205.667 96.6777 211C 84.6793 229.984 54.305 206.948 46.7114 189.936C 49.187 205.396 15.509 213.837 0 220C 26.711 200.4 19.4352 169.833 12.4585 157Z"/>
<path id="path5_fill" d="M 0.992185 0C -3.00782 18 6.15897 21.3333 9.4923 26.5C 13.4923 33.7 34.8255 40.5 38.4923 40.5C 24.0923 36.1 1.99225 13.8333 0.992185 0Z"/>
<path id="path6_fill" d="M 0.853937 0C -3.14606 18 8.02069 24.3333 11.354 29.5C 15.354 36.7 33.6873 41 37.354 41C 22.954 36.6 1.854 13.8333 0.853937 0Z"/>
<path id="path7_fill" d="M 7 40C 2.56128 21.9556 13.3279 2.14815 23.5 0C 14.7151 2.48616 10 22 14.5 37C 19 52 12 71.7205 0 75C 7.8602 72.8519 11.4387 58.0444 7 40Z"/>
<path id="path8_fill" d="M 10.5 31.5C 9.77664 30.9739 3.33333 39.5 0 43C 23.8333 38.8333 73.2 26.3 80 9.5C 82.3059 5.9 78.2941 1.66667 76 0C 85.5 14.5 16 35.5 10.5 31.5Z"/>
<path id="path9_fill" d="M 27 16C 30.4389 11.0873 28.7612 1.54077 25.6663 0.0706539C 25.611 0.0463295 25.5555 0.0227757 25.5 0C 25.5559 0.0209531 25.6113 0.0445282 25.6663 0.0706539C 32.0933 2.89433 37.4701 16.1025 34 28C 30.5 40 27.5 52 13.5 62.5C 9 63.3333 0 64.5 0 62.5C 17 46.5 27 32.5 27 16Z"/>
<path id="path10_fill" d="M 44.5 9C 44.1 17.8 23.3333 30 13 35C 10.6667 35.1667 4 35.3 0 32.5C 24.4 26.5 38.5 9 41 0C 42.5 4.5 39.1667 12.5 33 18C 38.2 17.6 42.8333 11.8333 44.5 9Z"/>
<path id="path11_fill" d="M 58.3161 0C 50.7161 6.8 23.4827 3.66667 11.3161 0C 0.116079 2 -0.683921 2.83333 0.316079 3C 3.81592 9.5 45.3158 13 52.8159 6.5C 56.4159 5.3 58.4827 1.83333 58.3161 0Z"/>
<path id="path12_fill" d="M 0 70C 32.5 46.5 44.5 37 50.5 0C 58.3722 8.36421 53.8501 31.6403 50.6545 33.9064C 53.2345 32.3647 59.2395 28.1042 66 19.5C 53.5 44.5 47 54 22 67C 16.1667 68.5 3.6 71.2 0 70Z"/>
<path id="path13_fill" d="M 56.5 17.5001C 59.7001 13.5 62.5 8.5 66.5 0C 48 16 21.6724 16.7326 13 21C 7.5 23.7064 5.5 27.6004 0 29.5C 17 31.5 54.5 13.5 56.5 17.5001Z"/>
<path id="path14_fill" d="M 24 0C 23.5405 0.289328 23.0132 0.644698 22.4378 1.06451C 18.2024 4.39473 12.2295 12.5686 13.5 26C 14.9378 41.2 5.93244 49.8333 0 51C 6.8 48.2 11 34 9.5 26C 8.60212 13.4296 17.3786 4.75586 22.4378 1.06451C 22.9955 0.626012 23.5231 0.27149 24 0Z"/>
<path id="path15_fill" d="M 36.5 1.5C 37.95 16 23 29 10.5 32L 0 30.5C 21.6 21.7 31.3333 6.5 33.5 0C 35.5 1.6 32.6667 8.33333 31 11.5C 35.8 7.5 36.6667 3.16667 36.5 1.5Z"/>
<path id="path16_fill" d="M 4.49126 15C -4.30874 7.4 1.82459 1.83333 5.99126 0C 9.49124 1.33333 18.0912 3.8 24.4912 3C 20.4912 6 22.1313 8.24294 25.9912 11C 29.4912 13.5 27.9912 18.5 23.4912 23.5C 24.9912 21.3333 26.6912 16.9 21.4912 16.5C 16.2912 16.1 13.8245 9.33333 15.4912 6C 11.8912 8 12.8245 12 13.9912 13.5C 15.4912 19 13.9912 25.0294 6.99121 27.5C 9.82456 26.5 13.2913 22.6 4.49126 15Z"/>
<path id="path17_stroke" d="M 73.2558 8.5L 73.543 9.45787L 73.9974 9.32162L 74.1793 8.88353L 73.2558 8.5ZM 53.3223 92L 52.3247 91.9302L 53.3223 92ZM 0 160.5L -0.441339 159.603L 0 161.5L 0 160.5ZM 9.46844 180L 9.39293 179.003L 9.26473 179.013L 9.14315 179.054L 9.46844 180ZM 65.7807 179L 66.748 179.254L 65.7807 179ZM 128.073 177.5L 128.674 176.701L 127.354 178.195L 128.073 177.5ZM 128.073 225L 127.151 224.612L 128.773 225.714L 128.073 225ZM 175.914 186L 176.826 185.591L 174.944 186.244L 175.914 186ZM 233.223 0L 233.244 -0.999779L 232.223 -1.02127L 232.223 0L 233.223 0ZM 271.595 103L 270.624 103.242L 271.595 103ZM 278.571 207.5L 278.387 208.483L 281.956 209.152L 279.233 206.75L 278.571 207.5ZM 225.249 171.5L 225.195 170.501L 225.003 170.512L 224.829 170.593L 225.249 171.5ZM 227.741 211L 228.698 211.29L 228.964 210.413L 228.113 210.072L 227.741 211ZM 58.3056 147.442L 59.2954 147.585L 59.444 146.554L 58.4074 146.448L 58.3056 147.442ZM 60.387 33.5L 61.3351 33.8178L 61.3514 33.7693L 61.3626 33.7193L 60.387 33.5ZM 22.4252 69.5L 22.2151 68.5223L 22.2169 70.4781L 22.4252 69.5ZM 55.519 65.5L 56.5137 65.6033L 56.8797 62.0771L 54.725 64.8922L 55.519 65.5ZM 262.838 59.5L 263.827 59.3492L 263.823 59.3244L 263.818 59.2998L 262.838 59.5ZM 296.512 73L 297.456 73.3294L 298.277 70.9754L 296.057 72.1094L 296.512 73ZM 269.357 93L 269.357 92L 268.13 92L 268.377 93.2017L 269.357 93ZM 52.3247 91.9302C 50.7589 114.318 33.1812 143.066 -0.441339 159.603L 0.441339 161.397C 34.5929 144.601 52.6963 115.282 54.3198 92.0698L 52.3247 91.9302ZM 9.14315 179.054C 8.00578 179.446 7.10093 179.898 6.49835 180.447C 5.86161 181.027 5.47856 181.811 5.70708 182.706C 5.90554 183.484 6.51503 184.097 7.17557 184.574C 7.8372 185.049 8.76899 185.536 9.82838 185.972C 14.036 187.699 21.2678 189.18 29.1275 189.871C 36.9945 190.562 45.6607 190.463 52.6336 188.994C 56.1347 188.252 59.329 187.122 61.7518 185.588C 64.2227 184.015 66.0439 181.938 66.748 179.254L 64.8134 178.746C 64.2717 180.812 62.8537 182.516 60.678 183.9C 58.4542 185.323 55.5945 186.326 52.22 187.037C 45.4419 188.475 37.0712 188.563 29.3027 187.879C 21.527 187.195 14.525 185.738 10.5879 184.122C 9.61115 183.722 8.88732 183.347 8.34715 182.953C 7.80588 182.562 7.66739 182.3 7.6449 182.212C 7.61573 182.143 7.61004 182.233 7.64676 182.172C 7.67364 182.078 7.69132 182.058 7.8452 181.926C 8.14901 181.649 8.75086 181.304 9.79373 180.946L 9.14315 179.054ZM 66.748 179.254C 67.3375 177.006 67.7619 175.79 67.9937 175.339C 68.0586 175.212 68.0561 175.253 67.9734 175.33C 67.9375 175.364 67.7647 175.522 67.4684 175.554C 67.0832 175.596 66.7901 175.401 66.6397 175.216C 66.5223 175.072 66.49 174.94 66.4856 174.923C 66.4868 174.932 66.4787 174.879 66.4801 174.905C 66.4873 174.981 66.486 175.069 66.475 175.238C 66.384 176.682 65.6006 180.534 63.9149 185.531C 60.5472 195.515 53.7299 209.617 42.2812 217.682L 43.4331 219.318C 55.4063 210.883 62.3979 196.286 65.81 186.171C 67.5143 181.118 68.3636 177.07 68.471 175.364C 68.4848 175.139 68.4859 174.908 68.4737 174.744C 68.4654 174.649 68.4444 174.515 68.4228 174.425C 68.3979 174.328 68.3398 174.137 68.1913 173.954C 68.0097 173.731 67.6801 173.519 67.2532 173.566C 66.9153 173.602 66.6957 173.787 66.6077 173.869C 66.4211 174.043 66.2941 174.27 66.2146 174.425C 65.8688 175.098 65.3975 176.519 64.8134 178.746L 66.748 179.254ZM 42.2812 217.682C 40.8196 218.712 39.7638 219.693 39.3778 220.647C 39.1603 221.185 39.1233 221.799 39.4469 222.367C 39.7427 222.885 40.2467 223.195 40.7305 223.388C 41.6918 223.773 43.1045 223.91 44.763 223.9C 46.4393 223.889 48.5332 223.723 50.9024 223.422C 60.3371 222.218 74.8046 218.806 88.9554 214.137C 103.085 209.474 117.06 203.512 125.52 197.151C 129.726 193.989 132.753 190.595 133.581 187.057C 134.446 183.362 132.857 179.848 128.674 176.701L 127.472 178.299C 131.263 181.152 132.258 183.935 131.634 186.601C 130.973 189.425 128.437 192.456 124.319 195.552C 116.132 201.707 102.418 207.588 88.3286 212.238C 74.2611 216.881 59.9806 220.25 50.6497 221.438C 48.3275 221.734 46.354 221.891 44.7509 221.9C 43.13 221.91 42.0515 221.763 41.474 221.532C 41.2038 221.432 41.1694 221.306 41.1842 221.376C 41.2258 221.388 41.1561 221.529 41.2317 221.397C 41.3759 221.041 41.9669 220.35 43.4331 219.318L 42.2812 217.682ZM 127.354 178.195C 132.53 183.551 135.08 188.788 135.096 195.777C 135.112 202.861 132.527 211.827 127.151 224.612L 128.995 225.388C 134.383 212.573 137.113 203.289 137.096 195.773C 137.079 188.162 134.247 182.449 128.792 176.805L 127.354 178.195ZM 128.773 225.714C 132.362 222.193 137.735 219.482 143.748 217.019C 149.743 214.563 156.273 212.393 162.031 209.919C 167.762 207.455 172.891 204.623 175.873 200.768C 178.945 196.798 179.644 191.875 176.826 185.591L 175.001 186.409C 177.565 192.125 176.845 196.244 174.291 199.544C 171.648 202.961 166.948 205.628 161.241 208.081C 155.562 210.524 149.048 212.687 142.99 215.168C 136.949 217.643 131.259 220.473 127.373 224.286L 128.773 225.714ZM 270.624 103.242C 272.589 111.036 271.214 118.798 268.716 126.909C 266.219 135.027 262.587 143.349 260.106 151.974C 257.629 160.601 256.315 169.668 258.498 179.026C 260.712 188.444 266.455 198.146 277.91 208.25L 279.233 206.75C 268.013 196.854 262.544 187.494 260.444 178.568C 258.313 169.582 259.584 161.024 262.028 152.526C 264.469 144.026 268.094 135.723 270.627 127.497C 273.159 119.265 274.587 110.964 272.565 102.758L 270.624 103.242ZM 278.756 206.517C 252.295 201.555 242.935 192.476 238.298 184.927C 235.941 181.101 234.739 177.52 233.164 174.869C 232.36 173.527 231.355 172.327 230.108 171.552C 228.786 170.749 227.192 170.393 225.195 170.501L 225.303 172.499C 226.994 172.407 228.166 172.713 229.069 173.262C 230.047 173.839 230.726 174.679 231.446 175.893C 232.921 178.355 234.129 181.949 236.594 185.973C 241.6 194.124 251.526 203.445 278.387 208.483L 278.756 206.517ZM 224.829 170.593C 218.037 173.738 212.21 181.412 211.298 189.64C 210.857 193.723 211.675 198.121 214.18 201.999C 216.73 205.911 220.994 209.37 227.368 211.928L 228.113 210.072C 222.03 207.63 218.133 204.401 215.855 200.907C 213.533 197.379 212.856 193.652 213.286 189.86C 214.119 182.338 219.504 175.262 225.669 172.407L 224.829 170.593ZM 174.944 186.244C 178.607 200.776 190.43 211.838 202.01 216.94C 207.801 219.492 213.636 220.601 218.451 219.828C 223.322 219.046 227.172 216.319 228.698 211.29L 226.784 210.71C 225.519 214.881 222.388 217.17 218.134 217.853C 213.824 218.545 208.391 217.566 202.816 215.11C 191.663 210.195 180.363 199.557 176.883 185.756L 174.944 186.244ZM 0 161.5C 14.9474 161.49 27.1824 157.931 36.8302 154.53C 41.6591 152.827 45.8461 151.167 49.4388 150.001C 53.0518 148.828 55.9234 148.204 58.2039 148.437L 58.4074 146.448C 55.6751 146.168 52.4536 146.919 48.8212 148.099C 45.1685 149.285 40.958 150.954 36.1652 152.643C 26.5696 156.027 14.6645 159.51 0 159.5L 0 161.5ZM 57.3159 147.3C 56.898 150.201 55.0745 153.548 52.1155 157.006C 49.1526 160.473 45.1856 163.909 40.5629 167.052C 31.3207 173.339 19.7341 178.22 9.39293 179.003L 9.54395 180.997C 20.3324 180.18 32.2507 175.125 41.6879 168.705C 46.4049 165.494 50.5712 161.883 53.6351 158.306C 56.7029 154.721 58.7997 151.027 59.2954 147.585L 57.3159 147.3ZM 74.1793 8.88353C 74.1241 9.01662 74.0488 9.09869 74.0076 9.13736C 74.0187 9.1278 73.9528 9.18275 73.9574 9.17886C 73.9591 9.1781 73.946 9.18716 73.9409 9.1897C 73.9007 9.21528 74.0167 9.15159 74.1504 9.11207C 74.45 9.02012 74.8658 8.9399 75.4645 8.85658C 76.6853 8.6855 78.427 8.5487 80.6567 8.43623C 85.1284 8.21034 91.4275 8.09366 98.9597 8.03122C 114.028 7.90625 133.971 8 153.868 7.87498C 173.766 7.74993 193.637 7.40536 208.528 6.404C 215.982 5.90247 222.239 5.23036 226.617 4.33923C 228.823 3.88874 230.642 3.35567 231.878 2.76551C 232.518 2.45507 233.108 2.06003 233.488 1.67526C 233.912 1.2356 234.223 0.672664 234.223 0L 232.223 0C 232.223 0.0148358 232.224 0.105222 232.049 0.28641C 231.829 0.522491 231.531 0.715829 231.011 0.963001C 229.927 1.48808 228.343 1.9472 226.217 2.37952C 221.932 3.25401 215.808 3.91003 208.394 4.4085C 193.552 5.40714 173.742 5.75007 153.856 5.87502C 133.969 6 114.024 5.90625 98.9431 6.03128C 91.4006 6.09384 85.0595 6.21153 80.5559 6.43877C 78.298 6.55286 76.4683 6.69731 75.1876 6.87584C 74.5357 6.96733 73.9682 7.079 73.5713 7.19774C 73.3568 7.26357 73.1157 7.36109 72.9535 7.45047C 72.7884 7.54418 72.4869 7.74406 72.3323 8.11647L 74.1793 8.88353ZM 72.9686 7.54213C 69.6253 8.54461 66.9801 11.8816 64.8363 16.3267C 62.6831 20.7982 60.887 26.7199 59.4113 33.2807L 61.3626 33.7193C 62.821 27.2295 64.5465 21.5246 66.6377 17.1955C 68.7384 12.8399 71.0605 10.2022 73.543 9.45787L 72.9686 7.54213ZM 59.4388 33.1822C 57.7878 38.1161 53.9727 45.7414 47.7701 52.79C 41.561 59.8664 33.173 66.1902 22.2151 68.5223L 22.6354 70.4777C 34.0031 68.0098 42.9201 61.3336 49.2727 54.11C 55.6316 46.8586 59.6346 38.8839 61.3351 33.8178L 59.4388 33.1822ZM 54.5244 65.3967C 53.4559 75.6917 52.7914 85.2572 52.3247 91.9302L 54.3198 92.0698C 54.7866 85.3963 55.4484 75.8643 56.5137 65.6033L 54.5244 65.3967ZM 22.2169 70.4781C 26.5592 71.4022 33.504 72.3157 40.0615 72.0366C 43.3436 71.8939 46.6247 71.4383 49.4122 70.5405C 52.224 69.6307 54.6907 68.2274 56.3131 66.1078L 54.725 64.8922C 53.4387 66.5726 51.3902 67.7984 48.7965 68.6376C 46.1784 69.4888 43.1636 69.902 39.9753 70.0384C 33.5921 70.3176 26.8987 69.4312 22.6336 68.5219L 22.2169 70.4781ZM 233.202 0.999779C 236.69 1.07321 239.845 2.80167 242.75 5.95598C 245.703 9.15377 248.27 13.6649 250.609 19.1825C 255.308 30.2467 258.843 44.9446 261.858 59.7002L 263.818 59.2998C 260.795 44.5102 257.207 29.6199 252.45 18.4012C 250.062 12.7774 247.318 7.97352 244.221 4.60116C 241.075 1.18533 237.44 -0.911446 233.244 -0.999779L 233.202 0.999779ZM 261.85 59.6508C 262.595 64.5365 265.653 70.991 271.438 74.7861C 277.301 78.6331 285.757 79.6164 296.967 73.8906L 296.057 72.1094C 285.34 77.5836 277.671 76.4836 272.535 73.1139C 267.32 69.6924 264.505 63.7968 263.827 59.3492L 261.85 59.6508ZM 268.377 93.2017C 269.123 96.8239 269.868 100.208 270.624 103.242L 272.565 102.758C 271.816 99.7509 271.079 96.4072 270.336 92.7983L 268.377 93.2017ZM 295.567 72.6706C 293.91 77.4212 289.835 82.2713 284.861 85.9457C 279.883 89.6233 274.172 92 269.357 92L 269.357 94C 274.753 94 280.875 91.3767 286.049 87.5543C 291.228 83.7287 295.625 78.5788 297.456 73.3294L 295.567 72.6706Z"/>
<path id="path18_fill" d="M 4.5 0C 11.2487 8.69829 29.6568 23.3612 53.3857 19.5089C 56.4927 18.9392 59.2479 18.2319 61.5 17.5C 58.7351 18.4216 56.0274 19.08 53.3857 19.5089C 38.0983 22.3121 14.2948 21.7867 0 4.5C 2.33333 5.5 6.5 6 4.5 0Z"/>
<path id="path19_stroke" d="M 65.5 35.5L 66.0675 36.3234L 65.251 34.5315L 65.5 35.5ZM 15.5118 0.152941C 16.5884 7.10947 18.3596 18.9568 25.2793 27.6718C 28.7295 32.004 33.5978 35.6486 40.1687 37.4435C 46.7732 39.2287 55.1326 39.1984 65.749 36.4685L 65.251 34.5315C 54.8674 37.2016 46.8726 37.1838 40.6906 35.5128C 34.4751 33.8514 30.1246 30.571 26.8457 26.4282C 20.3071 18.1932 18.5783 6.89053 17.4882 -0.152941L 15.5118 0.152941ZM 64.9325 34.6766C 59.0628 38.722 46.7849 40.7204 33.9506 39.0954C 21.1519 37.475 8.17297 32.2953 0.801883 22.4025L -0.801883 23.5975C 7.02702 34.1047 20.6314 39.425 33.6994 41.0796C 46.7317 42.7296 59.6039 40.778 66.0675 36.3234L 64.9325 34.6766Z"/>
<path id="path20_fill" d="M 0 31C 9.2 26.6 11.5 8.5 11.5 0C 12.8333 3.16667 15.1 10.5 13.5 14.5C 15.8333 14.1667 20.7 11.8 21.5 5C 22.5 21 10 28.1667 0 31Z"/>
<path id="path21_stroke" d="M 28 20L 28.0408 20.9992L 28.0587 19.0017L 28 20ZM 10.5003 -0.0263067C 10.4186 3.22843 11.2 8.3034 13.7282 12.5865C 16.3226 16.9443 20.771 20.5765 27.9413 20.9983L 28.0587 19.0017C 21.6289 18.6235 17.7441 15.4223 15.4467 11.5635C 13.0832 7.62993 12.4147 3.10491 12.4996 0.0263067L 10.5003 -0.0263067ZM 27.9592 19.0008C 23.9319 19.1668 17.8131 18.7362 12.306 16.8771C 6.79294 15.0244 2.24561 11.8593 0.970142 6.75746L -0.970142 7.24254C 0.554395 13.3407 5.92372 16.8422 11.6689 18.7729C 17.4202 20.6972 23.9014 21.1665 28.0408 20.9992L 27.9592 19.0008Z"/>
<path id="path22_fill" d="M 28 17C 7.6 17.8 0.833333 6 0 0C 1.66667 3.16667 4.5 8 6.5 7.5C 5.66667 6.16667 4.1 2.3 4.5 1.5C 7 6.5 15.2 15.8 28 17Z"/>
<path id="path23_fill" d="M 95.5068 55.7982C 97.8988 46.1982 96.5034 26.4649 95.5068 17.7982C 69.7304 9.17741 38.4083 14.4266 16.7692 17.0354C 15.4403 19.9564 14.0782 23.4983 1.32071 20.2982C 0.324032 18.4649 -1.07124 12.1982 1.32079 5.79823C 23.4138 0.298232 77.0683 -4.90176 106.969 8.29824C 108.962 16.2982 111.753 38.1982 106.969 61.7982C 57.6331 80.7982 16.6032 77.2982 4.80914 65.7982C 0.822484 61.3982 3.14804 53.1316 4.80914 47.7982C 11.5866 44.9982 13.447 48.4649 13.2808 50.7982C 4.51008 64.3982 63.2809 61.4648 95.5068 55.7982Z"/>
<path id="path24_stroke" d="M 95.5068 17.7982L 96.0035 17.7411L 95.9671 17.4249L 95.6654 17.324L 95.5068 17.7982ZM 95.5068 55.7982L 95.5934 56.2906L 95.9134 56.2344L 95.9919 55.9191L 95.5068 55.7982ZM 13.2808 50.7982L 13.701 51.0692L 13.7705 50.9615L 13.7796 50.8337L 13.2808 50.7982ZM 16.7692 17.0354L 16.7094 16.539L 16.7094 16.539L 16.7692 17.0354ZM 1.32071 20.2982L 0.881428 20.537L 0.98623 20.7298L 1.19906 20.7832L 1.32071 20.2982ZM 1.32079 5.79823L 1.2 5.31304L 0.944586 5.37663L 0.852435 5.62318L 1.32079 5.79823ZM 4.80914 47.7982L 4.61823 47.3361L 4.4015 47.4257L 4.33176 47.6495L 4.80914 47.7982ZM 4.80914 65.7982L 4.43862 66.134L 4.449 66.1454L 4.46008 66.1562L 4.80914 65.7982ZM 106.969 61.7982L 107.148 62.2648L 107.404 62.1663L 107.459 61.8976L 106.969 61.7982ZM 106.969 8.29824L 107.454 8.17735L 107.395 7.93973L 107.171 7.84083L 106.969 8.29824ZM 95.01 17.8553C 95.5076 22.1811 96.1038 29.2586 96.2777 36.4603C 96.452 43.6749 96.1998 50.9486 95.0216 55.6773L 95.9919 55.9191C 97.2057 51.0478 97.4518 43.6548 97.2774 36.4361C 97.1024 29.2045 96.5026 22.082 96.0035 17.7411L 95.01 17.8553ZM 95.4202 55.3057C 79.3269 58.136 56.6248 60.2819 39.0274 60.0232C 30.2213 59.8942 22.7545 59.1624 18.0508 57.6382C 15.6852 56.8716 14.1193 55.9353 13.3863 54.8673C 13.01 54.3296 12.8581 53.8248 12.904 53.1878C 12.9409 52.5731 13.1846 51.87 13.701 51.0692L 12.8606 50.5272C 12.2807 51.4265 11.9558 52.2942 11.9058 53.1279C 11.8647 53.9393 12.1076 54.7604 12.5618 55.4331C 13.49 56.7856 15.3283 57.8071 17.7426 58.5895C 22.5987 60.1631 30.1942 60.8939 39.0127 61.0231C 56.6645 61.2811 79.4607 59.127 95.5934 56.2906L 95.4202 55.3057ZM 9.83894 18.2959C 12.0294 18.0914 14.3691 17.8284 16.8291 17.5318L 16.7094 16.539C 14.2534 16.8351 11.9271 17.0966 9.74601 17.3002L 9.83894 18.2959ZM 16.8291 17.5318C 38.5211 14.9166 69.7048 9.69609 95.3482 18.2724L 95.6654 17.324C 69.7559 8.65874 38.2955 13.9366 16.7094 16.539L 16.8291 17.5318ZM 16.3141 16.8284C 15.6424 18.3049 15.0378 19.7318 13.1431 20.4987C 11.1978 21.2861 7.80258 21.4086 1.44236 19.8133L 1.19906 20.7832C 7.59632 22.3879 11.2609 22.3394 13.5183 21.4257C 15.8262 20.4914 16.5672 18.6869 17.2243 17.2425L 16.3141 16.8284ZM 1.75999 20.0594C 1.308 19.228 0.720439 17.2811 0.548862 14.7272C 0.37558 12.1678 0.612933 9.10642 1.78915 5.97328L 0.852435 5.62318C -0.363377 8.89004 -0.624404 12.162 -0.448889 14.7943C -0.271669 17.4321 0.336743 19.5351 0.881428 20.537L 1.75999 20.0594ZM 13.7796 50.8337C 13.8716 49.541 13.4065 47.8835 11.9141 46.9494C 10.4221 46.0156 8.07 45.9101 4.61823 47.3361L 5.00006 48.2603C 8.3257 46.8864 10.2925 47.1142 11.3836 47.7971C 12.4741 48.4796 12.8562 49.7221 12.7821 50.7627L 13.7796 50.8337ZM 4.33176 47.6495C 3.49998 50.3202 2.49062 53.7721 2.19318 57.1041C 1.89834 60.4343 2.30382 63.7778 4.43862 66.134L 5.17967 65.4625C 3.32781 63.4187 2.90273 60.4289 3.18928 57.1923C 3.47323 53.9577 4.4572 50.6096 5.28653 47.9469L 4.33176 47.6495ZM 4.46008 66.1562C 10.5063 72.0518 23.889 75.7983 41.8126 75.7357C 59.7528 75.6714 82.4336 71.7803 107.148 62.2648L 106.789 61.3316C 82.1681 70.8162 59.6662 74.6751 41.8091 74.7357C 23.9353 74.7982 10.906 71.0447 5.15821 65.4403L 4.46008 66.1562ZM 1.44158 6.28342C 12.4628 3.53903 31.3435 0.87169 51.2254 0.535666C 71.1179 0.198513 91.9179 2.20039 106.767 8.75565L 107.171 7.84083C 92.1191 1.19609 71.1417 -0.802033 51.2085 -0.464191C 31.2649 -0.12522 12.2718 2.55744 1.2 5.31304L 1.44158 6.28342ZM 106.483 8.41913C 108.461 16.3572 111.246 38.1814 106.479 61.6989L 107.459 61.8976C 112.259 38.2151 109.463 16.2393 107.454 8.17735L 106.483 8.41913Z"/>
<path id="path25_fill" d="M 0.810699 35C -1.1893 41.4 0.977366 45.6667 2.3107 47C 27.9108 63.8 78.644 49.6667 100.811 40.5C 103.611 33.7 103.644 11.3333 103.311 1L 94.3105 0C 100.311 7.2 98.1439 26.3333 96.3105 35C 83.1105 47.4 7.81055 54.5 0.810699 35Z"/>
<path id="path26_fill" d="M 0 7.73013L 0 38.2301C -0.000138091 54.033 52.8239 50.6997 83.2226 43.533L 83.2226 7.73013C 66.4784 -6.26988 20.7641 1.89679 0 7.73013Z"/>
<path id="path27_stroke" d="M 0 38.2301L 0.5 38.2301L 0.5 38.2301L 0 38.2301ZM 0 7.73013L -0.135232 7.24876L -0.5 7.35124L -0.5 7.73013L 0 7.73013ZM 83.2226 7.73013L 83.7226 7.73013L 83.7226 7.49644L 83.5433 7.34654L 83.2226 7.73013ZM 83.2226 43.533L 83.3373 44.0196L 83.7226 43.9288L 83.7226 43.533L 83.2226 43.533ZM 0.5 38.2301L 0.5 7.73013L -0.5 7.73013L -0.5 38.2301L 0.5 38.2301ZM 0.135232 8.21149C 10.5013 5.29904 27.0692 1.80888 43.1504 0.791624C 51.1897 0.282054 59.0673 0.389732 65.9962 1.49731C 72.9194 2.60264 78.8144 4.69613 82.9019 8.11371L 83.5433 7.34654C 79.2587 3.76412 73.1603 1.62844 66.1539 0.509815C 59.1532 -0.606568 51.165 -0.71764 43.0872 -0.206376C 26.9342 0.818035 10.2629 4.32788 -0.135232 7.24876L 0.135232 8.21149ZM 82.7226 7.73013L 82.7226 43.533L 83.7226 43.533L 83.7226 7.73013L 82.7226 7.73013ZM 83.1079 43.0463C 67.9345 46.6243 47.1898 49.2421 30.219 48.9952C 21.7401 48.873 14.2627 48.0427 8.88588 46.2587C 3.49341 44.4724 0.499969 41.8287 0.5 38.2301L -0.5 38.2301C -0.500038 42.533 3.10948 45.3987 8.57143 47.208C 14.049 49.0196 21.6775 49.8711 30.2045 49.9951C 47.2453 50.2405 68.112 47.6084 83.3373 44.0196L 83.1079 43.0463Z"/>
<path id="path28_fill" d="M 0.657202 15.8752C 3.97005 9.58079 13.0447 -2.1791 22.9729 0.817852C 23.0343 0.836393 23.0957 0.8555 23.1572 0.875176C 28.8239 -0.291468 40.1572 -0.424762 40.1572 8.37521C 33.3572 13.1752 27.3239 17.2085 25.6572 19.3752C 15.874 22.7915 9.5925 23.7562 5.69502 23.3751C -0.446843 22.7746 -0.66832 18.8321 0.657202 15.8752Z"/>
<path id="path29_stroke" d="M 0.657202 15.8752L 0.214743 15.6423L 0.207399 15.6563L 0.200948 15.6706L 0.657202 15.8752ZM 23.1572 0.875176L 23.0048 1.35139L 23.1297 1.39133L 23.2581 1.3649L 23.1572 0.875176ZM 25.6572 19.3752L 25.822 19.8472L 25.9627 19.7981L 26.0535 19.68L 25.6572 19.3752ZM 40.1572 8.37521L 40.4456 8.78369L 40.6572 8.63429L 40.6572 8.37521L 40.1572 8.37521ZM 5.69502 23.3751L 5.64636 23.8728L 5.69502 23.3751ZM 1.09966 16.108C 2.74173 12.9863 5.78223 8.54881 9.65907 5.24242C 13.5302 1.9353 18.1048 -0.129367 22.8284 1.29652L 23.1174 0.339185C 17.9128 -1.23188 12.986 1.08492 9.00952 4.4821C 5.03878 7.88002 1.88552 12.4697 0.214743 15.6423L 1.09966 16.108ZM 22.8284 1.29652C 22.8878 1.31446 22.9453 1.33234 23.0048 1.35139L 23.3096 0.398964C 23.2462 0.378661 23.1807 0.358327 23.1174 0.339186L 22.8284 1.29652ZM 26.0535 19.68C 26.835 18.6642 28.6959 17.1563 31.2776 15.2661C 33.8383 13.3912 37.0431 11.1854 40.4456 8.78369L 39.8689 7.96673C 36.4713 10.365 33.2594 12.5759 30.6868 14.4593C 28.1352 16.3274 26.1461 17.9195 25.2609 19.0703L 26.0535 19.68ZM 23.2581 1.3649C 26.0602 0.786984 30.1961 0.464889 33.6564 1.37162C 35.3803 1.81736 36.8522 2.52402 37.936 3.67188C 38.9914 4.7783 39.6572 6.2932 39.6572 8.37521L 40.6572 8.37521C 40.6572 6.05724 39.9064 4.28881 38.6597 2.98168C 37.4414 1.71601 35.7258 0.878911 33.908 0.403801C 30.285 -0.53115 25.9209 -0.203276 23.0564 0.385447L 23.2581 1.3649ZM 0.200948 15.6706C -0.490457 17.213 -0.82139 19.1013 -0.0784678 20.7176C 0.680795 22.3695 2.47596 23.5628 5.64636 23.8728L 5.74367 22.8775C 2.77222 22.587 1.38571 21.5087 0.830151 20.3C 0.25825 19.0557 0.47934 17.4943 1.11346 16.0797L 0.200948 15.6706ZM 5.64636 23.8728C 9.65492 24.2647 16.0207 23.2699 25.822 19.8472L 25.4924 18.9031C 15.7274 22.3131 9.53008 23.2477 5.74367 22.8775L 5.64636 23.8728ZM 6.14868 23.5854C 7.46964 20.7334 10.1933 15.9939 13.3802 11.5225C 16.5815 7.02996 20.1784 2.91547 23.2127 1.25657L 22.733 0.379137C 19.4769 2.1593 15.7656 6.45178 12.5658 10.9422C 9.35164 15.4539 6.58162 20.2736 5.24135 23.1649L 6.14868 23.5854ZM 23.2127 1.25657C 24.7113 0.437249 25.9496 0.28163 26.9219 0.800227L 27.3925 -0.0821261C 25.9816 -0.834591 24.3522 -0.506092 22.733 0.379137L 23.2127 1.25657Z"/>
<path id="path30_fill" d="M 48.9999 13C 10.5999 15.4 6.66659 20.3333 9.49992 22.5L 1.5 21.5L 0 13L 35 0L 48.9999 13Z"/>
<path id="path31_stroke" d="M 95.5068 17.7982L 96.5002 17.6839L 96.4275 17.0517L 95.8239 16.8498L 95.5068 17.7982ZM 95.5068 55.7982L 95.6799 56.7831L 96.32 56.6705L 96.4771 56.04L 95.5068 55.7982ZM 13.2808 50.7982L 14.1212 51.3402L 14.2601 51.1249L 14.2783 50.8693L 13.2808 50.7982ZM 16.7692 17.0354L 16.6495 16.0426L 16.7692 17.0354ZM 1.32071 20.2982L 0.442146 20.7759L 0.65175 21.1614L 1.07741 21.2682L 1.32071 20.2982ZM 1.32079 5.79823L 1.07922 4.82785L 0.568381 4.95502L 0.384079 5.44813L 1.32079 5.79823ZM 4.80914 47.7982L 4.42731 46.874L 3.99385 47.0531L 3.85438 47.5009L 4.80914 47.7982ZM 4.80914 65.7982L 4.06809 66.4697L 4.08886 66.4926L 4.11102 66.5142L 4.80914 65.7982ZM 106.969 61.7982L 107.328 62.7314L 107.84 62.5343L 107.949 61.9969L 106.969 61.7982ZM 106.969 8.29824L 107.939 8.05647L 107.821 7.58122L 107.372 7.38342L 106.969 8.29824ZM 94.5133 17.9124C 95.01 22.2306 95.6046 29.2856 95.7778 36.4724C 95.9521 43.6849 95.6969 50.899 94.5364 55.5564L 96.4771 56.04C 97.7086 51.0974 97.9518 43.6448 97.7772 36.424C 97.6016 29.1775 97.0002 22.0324 96.5002 17.6839L 94.5133 17.9124ZM 95.3336 54.8133C 79.2601 57.6405 56.6049 59.7823 39.0347 59.5233C 30.2348 59.3943 22.8325 58.6621 18.205 57.1625C 15.8636 56.4038 14.4339 55.5102 13.7986 54.5843C 13.4612 54.1142 13.3548 53.7676 13.4031 53.2178C 13.4334 52.7125 13.6366 52.0917 14.1212 51.3402L 12.4405 50.2563C 11.8288 51.2047 11.4633 52.1548 11.4067 53.0979C 11.368 53.9965 11.6563 54.9759 12.1495 55.716C 13.1753 57.2108 15.1499 58.2749 17.5884 59.0651C 22.5207 60.6635 30.1807 61.3937 39.0054 61.5231C 56.6844 61.7807 79.5276 59.6225 95.6799 56.7831L 95.3336 54.8133ZM 9.8854 18.7937C 12.0806 18.5888 14.427 18.325 16.8889 18.0282L 16.6495 16.0426C 14.1956 16.3385 11.8759 16.5993 9.69954 16.8024L 9.8854 18.7937ZM 16.8889 18.0282C 38.6338 15.4066 69.6792 10.2148 95.1896 18.7466L 95.8239 16.8498C 69.7815 8.14007 38.1827 13.4465 16.6495 16.0426L 16.8889 18.0282ZM 15.859 16.6213C 15.1799 18.1139 14.6436 19.3519 12.9555 20.0353C 11.1663 20.7595 7.90571 20.919 1.56401 19.3283L 1.07741 21.2682C 7.49319 22.8775 11.2924 22.8661 13.7059 21.8891C 16.2205 20.8713 17.0296 18.8779 17.6794 17.4495L 15.859 16.6213ZM 2.19927 19.8206C 1.79363 19.0744 1.21649 17.2055 1.04774 14.6937C 0.875572 12.1706 1.10109 9.21461 2.2575 6.14833L 0.384079 5.44813C -0.851532 8.78185 -1.1244 12.1592 -0.947764 14.8278C -0.767723 17.5076 -0.148885 19.6887 0.442146 20.7759L 2.19927 19.8206ZM 14.2783 50.8693C 14.3793 49.4505 13.8727 47.5854 12.1794 46.5256C 10.4869 45.4663 7.94215 45.4219 4.42731 46.874L 5.19098 48.7225C 8.45355 47.3746 10.2277 47.6635 11.1183 48.2209C 12.0079 48.7777 12.3485 49.8126 12.2834 50.7272L 14.2783 50.8693ZM 3.85438 47.5009C 3.02137 50.1756 1.99931 53.6793 1.69513 57.06C 1.39615 60.4369 1.79183 63.9574 4.06809 66.4697L 5.5502 65.1268C 3.8398 63.2391 3.40492 60.4262 3.68733 57.2364C 3.96454 54.0505 4.93582 50.7542 5.76391 48.0956L 3.85438 47.5009ZM 4.11102 66.5142C 10.3065 72.5553 23.8659 76.2984 41.8143 76.2357C 59.7961 76.1695 82.5664 72.2623 107.328 62.7314L 106.609 60.865C 82.0353 70.3341 59.6229 74.177 41.8073 74.2357C 23.9584 74.2981 11.1058 70.5412 5.50727 65.0823L 4.11102 66.5142ZM 1.56237 6.76862C 12.5583 4.02983 31.3827 1.37014 51.2339 1.03559C 71.106 0.698787 91.8173 2.70255 106.565 9.21306L 107.372 7.38342C 92.2196 0.693939 71.1535 -1.30231 51.2 -0.964119C 31.2256 -0.623675 12.1763 2.06664 1.07922 4.82785L 1.56237 6.76862ZM 105.998 8.54002C 107.961 16.4162 110.739 38.1646 105.989 61.5996L 107.949 61.9969C 112.766 38.2319 109.963 16.1803 107.939 8.05647L 105.998 8.54002Z"/>
<path id="path32_fill" d="M 0.412734 11.5C -0.787266 10.7 0.912734 3.5 1.91273 0C 7.24602 6.16667 42.6126 9.2 87.4126 0C 88.0793 3.33333 89.7126 14.3 88.9126 15.5C 54.9126 22 2.41284 24.7 0.412734 11.5Z"/>
<path id="path33_stroke" d="M 1.91273 0L 2.6691 -0.654149L 1.45929 -2.053L 0.95121 -0.274721L 1.91273 0ZM 0.412734 11.5L 1.40145 11.3502L 1.33523 10.9131L 0.967434 10.6679L 0.412734 11.5ZM 87.4126 0L 88.3932 -0.196115L 88.1961 -1.18176L 87.2114 -0.979559L 87.4126 0ZM 88.9126 15.5L 89.1004 16.4822L 89.5121 16.4035L 89.7446 16.0547L 88.9126 15.5ZM 0.95121 -0.274721C 0.447051 1.49027 -0.240644 4.21817 -0.647939 6.59383C -0.851777 7.78679 -0.991473 8.95173 -0.999739 9.85039C -1.00227 10.3141 -0.96274 10.7941 -0.88142 11.1503C -0.797261 11.5055 -0.613537 12.0177 -0.141967 12.3321L 0.967434 10.6679C 1.139 10.7823 1.11335 10.8945 1.0647 10.6892C 1.01321 10.4848 0.996489 10.2437 1.00021 9.86523C 1.00444 9.07952 1.12724 8.07571 1.32341 6.93117C 1.71611 4.63183 2.37842 2.00973 2.87426 0.274721L 0.95121 -0.274721ZM 1.15637 0.654149C 1.97076 1.59579 3.27176 2.39111 4.89413 3.07028C 6.51017 3.74518 8.59411 4.36089 11.0152 4.87367C 15.8313 5.89083 22.2432 6.57078 29.8376 6.76219C 44.9968 7.14133 65.1518 5.59026 87.6138 0.979559L 87.2114 -0.979559C 64.8734 3.60974 44.9451 5.142 29.8877 4.76281C 22.3738 4.57505 16.144 3.91542 11.429 2.91695C 9.08441 2.42192 7.18035 1.86081 5.66645 1.22542C 4.15889 0.594307 3.18803 -0.054127 2.6691 -0.654149L 1.15637 0.654149ZM 86.432 0.196115C 86.7618 1.84416 87.3305 5.37988 87.7195 8.66757C 87.914 10.31 88.0607 11.8591 88.1103 13.0815C 88.1352 13.6862 88.1364 14.1694 88.1078 14.5537C 88.0949 14.7371 88.0812 14.8484 88.0575 14.9533C 88.0352 15.0566 88.0271 15.0254 88.0806 14.9453L 89.7446 16.0547C 89.8981 15.8246 89.971 15.5671 90.0123 15.3763C 90.0523 15.1871 90.0849 14.9365 90.1025 14.6986C 90.1351 14.2405 90.1348 13.644 90.1086 12.9998C 90.0562 11.7242 89.9028 10.0983 89.7057 8.43243C 89.3113 5.10345 88.73 1.48918 88.3932 -0.196115L 86.432 0.196115ZM 88.7248 14.5178C 71.7657 17.7608 50.2393 20.0512 32.6719 19.8875C 23.8993 19.8075 16.2094 19.1242 10.5567 17.6404C 7.7514 16.908 5.56469 16.0257 3.96584 14.9071C 2.41716 13.8309 1.59754 12.6443 1.40145 11.3502L -0.575981 11.6498C -0.272041 13.6557 0.986474 15.2722 2.82452 16.5495C 4.61239 17.7844 7.121 18.8061 10.0501 19.5752C 15.8661 21.0945 23.8012 21.805 32.6535 21.8875C 50.336 22.0488 72.0595 19.7392 89.1004 16.4822L 88.7248 14.5178Z"/>
<path id="path34_fill" d="M 0 18C 0 18 4.49995 9.00004 1.99995 7.50005C 5.99997 5.50005 44.5 0 85.5 0C 89.5 5 91.1667 14.6667 91 20C 61.5 9.50006 12.6667 14.1667 0 18Z"/>
<path id="path35_stroke" d="M 1.99995 7.50005L 1.55274 6.60562L -0.0766234 7.4203L 1.48546 8.35754L 1.99995 7.50005ZM 0 18L -0.894428 17.5528L -1.9329 19.6297L 0.289658 18.9571L 0 18ZM 91 20L 90.6647 20.9421L 91.9567 21.402L 91.9995 20.0312L 91 20ZM 85.5 0L 86.2809 -0.624695L 85.9806 -1L 85.5 -1L 85.5 0ZM 1.48546 8.35754C 1.57338 8.4103 1.81268 8.68204 1.74436 9.70696C 1.68463 10.6687 1.38482 11.81 0.988791 12.9963C 0.594228 14.1819 0.127299 15.3102 -0.250775 16.1665C -0.438277 16.5913 -0.598567 16.9363 -0.714976 17.1817C -0.772447 17.3028 -0.817181 17.3953 -0.848764 17.46C -0.864203 17.4916 -0.875589 17.5147 -0.883669 17.5311C -0.887537 17.5389 -0.890219 17.5443 -0.892199 17.5483C -0.893104 17.5501 -0.893659 17.5512 -0.894118 17.5522C -0.894305 17.5525 -0.894382 17.5527 -0.894476 17.5529C -0.894502 17.5529 -0.89449 17.5529 -0.894503 17.5529C -0.894474 17.5529 -0.894428 17.5528 0 18C 0.894428 18.4472 0.894509 18.447 0.894606 18.4468C 0.894661 18.4467 0.894776 18.4465 0.894887 18.4463C 0.895066 18.4459 0.895398 18.4453 0.895755 18.4445C 0.896384 18.4433 0.897454 18.4411 0.898703 18.4386C 0.90103 18.4339 0.904764 18.4264 0.909334 18.4172C 0.91813 18.3994 0.931707 18.3718 0.948616 18.3371C 0.981729 18.2693 1.03123 18.1669 1.09192 18.039C 1.21184 17.7863 1.38358 17.4165 1.57888 16.9742C 1.96643 16.0961 2.46823 14.8806 2.88616 13.6287C 3.30262 12.3775 3.65905 10.9876 3.73993 9.83999C 3.81222 8.75554 3.67652 7.33979 2.51444 6.64255L 1.48546 8.35754ZM 0.289658 18.9571C 6.49306 17.0798 21.7612 14.9575 39.2066 14.6248C 56.6458 14.2923 76.0854 15.7529 90.6647 20.9421L 91.3353 19.0579C 76.4146 13.7472 56.6875 12.2911 39.1684 12.6252C 21.6555 12.9592 6.17361 15.0869 -0.289658 17.0429L 0.289658 18.9571ZM 91.9995 20.0312C 92.0827 17.2991 91.6942 13.4158 90.7845 9.64018C 89.8744 5.87254 88.4139 2.04159 86.2809 -0.624695L 84.7191 0.624695C 86.5861 2.95841 87.959 6.46079 88.8405 10.1098C 89.7225 13.7509 90.0839 17.3675 90.0005 19.9688L 91.9995 20.0312ZM 85.5 -1C 64.9655 -0.999404 45.0375 0.378847 29.769 2.00565C 22.13 2.81976 15.6325 3.69866 10.8054 4.49785C 8.38735 4.89831 6.36682 5.28268 4.83465 5.62806C 3.33306 5.96669 2.17752 6.29323 1.55274 6.60562L 2.44716 8.39447C 2.82239 8.20686 3.74497 7.92403 5.27464 7.57906C 6.77372 7.24085 8.73758 6.8674 11.1321 6.47098C 15.9299 5.67641 22.37 4.8053 29.9809 3.99439C 45.2125 2.37118 65.0345 0.999404 85.5 1L 85.5 -1Z"/>
<path id="path36_fill" d="M 0 24.0207C 20.259 -3.57699 67.53 -1.06822 85.2566 8.96763C 100.451 0.325783 157.973 -12.1755 186.389 27.0878C 181.897 30.9814 164.567 30.5827 154.983 28.9102C 159.468 30.9102 166.915 39.3235 163.953 39.9102C 147.071 43.2554 138.274 31.2692 134.053 30.433C 161.909 61.3758 97.9185 34.0561 85.2566 19.0029C 69.2182 29.8747 31.2326 41.5829 19.4149 39.9103C 19.4149 37.9391 24.0069 30.8377 28.7002 24.7663C 24.6484 26.7735 3.93925 24.857 0 24.0207Z"/>
<path id="path37_stroke" d="M 85.2566 8.96763L 85.0103 9.40274L 85.2572 9.54252L 85.5038 9.40225L 85.2566 8.96763ZM 0 24.0207L -0.403058 23.7248L -0.86125 24.349L -0.103842 24.5098L 0 24.0207ZM 19.4149 39.9103L 18.9149 39.9103L 18.9149 40.3445L 19.3448 40.4054L 19.4149 39.9103ZM 85.2566 19.0029L 85.6393 18.6811L 85.3491 18.3362L 84.9761 18.5891L 85.2566 19.0029ZM 186.389 27.0878L 186.716 27.4656L 187.062 27.1656L 186.794 26.7946L 186.389 27.0878ZM 154.983 28.9102L 155.069 28.4177L 154.78 29.3669L 154.983 28.9102ZM 163.953 39.9102L 164.051 40.4007L 164.051 40.4007L 163.953 39.9102ZM 134.053 30.433L 134.15 29.9426L 132.676 29.6505L 133.682 30.7676L 134.053 30.433ZM 85.5029 8.53252C 76.5256 3.45004 60.1659 0.309236 43.5308 1.88381C 26.8892 3.45901 9.84355 9.76644 -0.403058 23.7248L 0.403058 24.3166C 10.4155 10.6773 27.1348 4.44023 43.6251 2.87936C 60.1219 1.31787 76.261 4.44937 85.0103 9.40274L 85.5029 8.53252ZM -0.103842 24.5098C 1.90613 24.9365 8.10099 25.6261 14.281 25.9591C 17.3763 26.1258 20.49 26.2037 23.0778 26.1139C 24.3742 26.0687 25.5578 25.9799 26.5363 25.8397C 27.5113 25.6998 28.3424 25.5015 28.9222 25.2143L 28.4783 24.3182C 28.0451 24.5328 27.3428 24.7137 26.3942 24.8499C 25.4494 24.9858 24.3195 25.0702 23.043 25.1145C 20.4852 25.2037 17.4157 25.1266 14.3348 24.9605C 8.16249 24.628 2.03312 23.9412 0.103842 23.5316L -0.103842 24.5098ZM 36.8783 15.2326C 35.8893 15.8449 34.5564 17.1109 33.0855 18.7166C 31.6069 20.331 29.9455 22.3379 28.3047 24.4605L 29.0958 25.072C 30.7264 22.9626 32.361 20.9877 33.8229 19.3921C 35.2926 17.7877 36.5446 16.6154 37.4047 16.0828L 36.8783 15.2326ZM 28.3047 24.4605C 25.9513 27.505 23.6156 30.8187 21.8733 33.6112C 21.0009 35.0099 20.2673 36.2951 19.7559 37.3479C 19.2566 38.3763 18.9149 39.2873 18.9149 39.9103L 19.9149 39.9103C 19.9149 39.5477 20.1471 38.8318 20.6555 37.7846C 21.1518 36.7617 21.8595 35.5225 22.7218 34.1405C 24.4488 31.3717 26.7558 28.099 29.0958 25.072L 28.3047 24.4605ZM 19.3448 40.4054C 22.3858 40.8358 27.0446 40.403 32.5255 39.3693C 38.0156 38.3336 44.4014 36.6799 50.9029 34.6378C 63.8975 30.5557 77.458 24.8934 85.5372 19.4168L 84.9761 18.5891C 77.0169 23.9843 63.5653 29.6119 50.6032 33.6837C 44.1262 35.7185 37.7974 37.3577 32.3402 38.3866C 26.8738 39.4176 22.3528 39.8211 19.4849 39.4152L 19.3448 40.4054ZM 85.5038 9.40225C 93.0077 5.13438 111.092 -0.136679 130.847 0.562954C 150.587 1.26204 171.897 7.91683 185.984 27.3809L 186.794 26.7946C 172.465 6.99541 150.807 0.269204 130.882 -0.43642C 110.974 -1.14149 92.6998 4.15903 85.0094 8.53301L 85.5038 9.40225ZM 186.061 26.71C 185.041 27.5944 183.225 28.2796 180.836 28.7602C 178.456 29.2396 175.612 29.4982 172.581 29.5865C 166.515 29.7644 159.837 29.2504 155.069 28.4177L 154.897 29.4028C 159.713 30.2426 166.492 30.7641 172.61 30.5861C 175.672 30.4964 178.601 30.2291 181.033 29.7405C 183.457 29.253 185.491 28.528 186.716 27.4656L 186.061 26.71ZM 154.78 29.3669C 156.923 30.3227 159.848 32.8615 161.879 35.2631C 162.895 36.4642 163.645 37.5826 163.966 38.4068C 164.13 38.8284 164.15 39.0938 164.117 39.2322C 164.099 39.3032 164.068 39.3778 163.856 39.4198L 164.051 40.4007C 164.579 40.296 164.963 39.9793 165.088 39.4701C 165.196 39.0283 165.085 38.5245 164.898 38.0436C 164.516 37.0628 163.679 35.8428 162.643 34.6173C 160.569 32.1656 157.529 29.4978 155.187 28.4536L 154.78 29.3669ZM 163.856 39.4198C 155.561 41.0635 149.262 38.9448 144.498 36.3024C 142.105 34.9766 140.105 33.5198 138.42 32.3287C 137.577 31.7329 136.805 31.1979 136.112 30.7873C 135.413 30.374 134.736 30.0623 134.15 29.9426L 133.956 30.9235C 134.426 31.0129 134.947 31.2586 135.602 31.6478C 136.265 32.0396 137.004 32.5522 137.843 33.1453C 139.522 34.3324 141.568 35.8197 144.013 37.1769C 148.923 39.9004 155.463 42.1022 164.051 40.4007L 163.856 39.4198ZM 84.874 19.3248C 88.1001 23.1602 94.5404 27.7263 101.892 31.925C 109.255 36.1296 117.613 40.0084 124.687 42.4394C 128.228 43.6558 131.484 44.5193 134.126 44.879C 136.743 45.2341 138.933 45.1243 140.243 44.231C 140.929 43.7633 141.358 43.0906 141.475 42.2249C 141.588 41.3817 141.4 40.3895 140.936 39.2544C 140.011 36.9868 137.916 33.9769 134.425 30.0985L 133.682 30.7676C 137.154 34.6249 139.153 37.53 140.011 39.6322C 140.439 40.682 140.564 41.4884 140.483 42.0919C 140.406 42.6729 140.134 43.0951 139.679 43.4049C 138.709 44.0665 136.868 44.2419 134.261 43.888C 131.68 43.5387 128.519 42.699 125.012 41.4936C 117.987 39.0808 109.714 35.2411 102.388 31.0566C 95.0508 26.8661 88.7441 22.3723 85.6393 18.6811L 84.874 19.3248Z"/>
<path id="path38_fill" d="M 10.9736 18.3985C 16.0384 10.8718 31.2326 4.18148 43.0504 0C 21.9472 0.836295 -5.96594e-05 17.5622 0 21.7437C 1.34995e-05 22.6898 15.1942 23.4163 17.7266 23.4163C 17.7266 20.0711 21.9472 11.6935 30.3885 10.0355C 22.7914 10.0355 14.6315 15.6108 10.9736 18.3985Z"/>
<path id="path39_fill" d="M 33.765 0.0204309C 30.3885 2.02754 6.753 2.5293 4.22063 0.0204174L 0 5.03822C 8.72263 6.15328 26.8432 7.71436 29.5444 5.03822C 32.2456 2.36207 34.6091 -0.258334 33.765 0.0204309Z"/>
<path id="path40_fill" d="M 3.3765 7.52666C 2.0259 6.85762 0.281375 2.23012 0 0C 7.93254 2.83911 39.3584 26.3391 47.7996 26.3391C 44.8096 24.8391 38.6851 22.565 37.3345 15.8747C 40.1483 18.3835 45.5724 22.5028 49.793 23.3391C 47.8234 18.8789 43.2027 15.875 39.8262 13.3661C 44.0469 14.2027 44.0753 11.3587 42.7247 10.0206C 48.6336 11.6932 51.3961 11.6935 57.919 15.8747C 61.5256 19.2198 69.7367 20.8924 73.1132 20.8924C 63.8279 19.2198 65.5161 14.2024 58.7631 10.0206C 60.4514 10.0206 63.7058 10.0206 66.2382 11.6935C 65.9568 10.0209 65.5161 7.5117 63.8279 5.83911C 70.5809 9.74185 79.6974 15.3732 85.7751 13.3661C 84.6496 12.2511 82.3986 9.51929 82.3986 7.51204C 84.4881 8.28834 87.7899 11.2265 88.2529 10.9751C 88.2501 10.9361 88.2677 10.8966 88.3075 10.8572C 88.3075 10.9172 88.2887 10.9557 88.2529 10.9751C 88.3095 11.7649 96.7155 12.4112 99.1285 10.0206L 100.125 12.5296C 95.7791 14.1503 86.3811 19.4937 69.8399 13.9333C 73.501 15.4131 76.236 18.0384 79.195 25.0739C 76.205 25.0739 69.4092 30.0581 47.7996 15.3391C 67.7332 32.8391 51.166 40.8391 3.3765 7.52666Z"/>
<path id="path41_fill" d="M 8.44125 5.01777C 12.6619 8.36294 21.9472 5.01777 44.7386 0C 31.5829 6.51686 6.14644 12.7692 0.415234 13.3468C 0.224135 13.4452 0.0823554 13.4623 0 13.3807C 0.124043 13.3735 0.262656 13.3621 0.415234 13.3468C 1.79111 12.6378 5.72359 7.71022 8.44125 5.01777Z"/>
<path id="path42_fill" d="M 17.7266 1.23889C 19.1335 0.123825 20.259 -0.43363 21.9473 0.402715C 21.1031 2.07526 21.4408 1.74068 19.4149 3.74779C 20.9459 3.49498 25.3928 2.60028 26.7113 0.938827C 26.8174 0.751465 26.9177 0.572544 27.012 0.40268C 26.9491 0.589569 26.8467 0.76824 26.7113 0.938827C 23.3365 6.90111 14.1444 21.4119 7.59713 24.6552C 4.78338 25.2127 0 25.157 0 23.8189C 2.53238 18.8012 10.2983 7.26023 17.7266 1.23889Z"/>
<path id="path43_stroke" d="M 85.2566 8.61936L 84.764 9.48958L 85.2578 9.76914L 85.751 9.4886L 85.2566 8.61936ZM 0 23.6724L -0.806117 23.0806L -1.7225 24.329L -0.207684 24.6506L 0 23.6724ZM 19.4149 39.562L 18.4149 39.562L 18.4149 40.4305L 19.2747 40.5522L 19.4149 39.562ZM 85.2566 18.6546L 86.0219 18.0109L 85.4417 17.3211L 84.6955 17.8269L 85.2566 18.6546ZM 187.084 26.7396L 187.466 27.6637L 188.635 27.1804L 187.894 26.1543L 187.084 26.7396ZM 157.475 29.062L 157.621 28.0727L 153.874 27.5203L 156.86 29.8504L 157.475 29.062ZM 165.947 39.562L 166.141 40.543L 167.321 40.3092L 166.876 39.1917L 165.947 39.562ZM 134.748 30.0848L 134.942 29.1039L 131.993 28.5197L 134.005 30.7539L 134.748 30.0848ZM 85.7493 7.74914C 76.6579 2.60211 60.1879 -0.543353 43.4837 1.03776C 26.7663 2.62012 9.55759 8.96275 -0.806117 23.0806L 0.806117 24.2642C 10.7014 10.7844 27.2577 4.58255 43.6722 3.02886C 60.0999 1.47391 76.1287 4.60077 84.764 9.48958L 85.7493 7.74914ZM -0.207684 24.6506C 1.84264 25.0859 8.07024 25.7769 14.2541 26.1101C 17.3566 26.2771 20.4925 26.3554 23.0952 26.2653C 24.4016 26.2196 25.612 26.1287 26.6074 25.9864C 27.5955 25.8445 28.4911 25.6376 29.1442 25.314L 28.2563 23.5219C 27.8965 23.7002 27.2585 23.8724 26.3232 24.0067C 25.3952 24.1405 24.2922 24.2226 23.0257 24.2665C 20.4828 24.3554 17.4354 24.2787 14.3617 24.113C 8.19324 23.7806 2.09661 23.0952 0.207684 22.6942L -0.207684 24.6506ZM 36.615 14.4592C 35.3454 15.2453 33.5856 17.0112 31.7195 19.1464C 29.8302 21.3086 27.7279 23.9737 25.7824 26.6368C 23.8367 29.3007 22.0163 32.0065 20.6911 34.2438C 20.0257 35.368 19.4657 36.41 19.0804 37.2626C 18.7108 38.0819 18.4149 38.907 18.4149 39.562L 20.4149 39.562C 20.4149 39.3808 20.5322 38.9079 20.9034 38.0851C 21.259 37.2955 21.7673 36.3514 22.412 35.2628C 23.7071 33.0747 25.4742 30.4491 27.3974 27.8165C 29.3209 25.183 31.3688 22.5864 33.2254 20.4625C 35.1051 18.3117 36.6866 16.7673 37.6679 16.1596L 36.615 14.4592ZM 19.2747 40.5522C 22.4024 40.9948 27.13 40.5474 32.6182 39.5124C 38.1246 38.4733 44.5391 36.8123 51.0527 34.7665C 64.0636 30.6793 77.6785 24.9996 85.8177 19.4824L 84.6955 17.8269C 76.7963 23.1814 63.3992 28.7917 50.4533 32.8584C 43.9885 34.8896 37.6883 36.5215 32.2475 37.547C 26.7884 38.5766 22.3363 38.9655 19.555 38.5719L 19.2747 40.5522ZM 85.751 9.4886C 93.1493 5.28079 111.506 0.267596 131.471 1.08916C 151.408 1.9096 172.712 8.53579 186.273 27.3248L 187.894 26.1543C 173.84 6.67996 151.827 -0.074864 131.553 -0.909149C 111.307 -1.7423 92.5582 3.31608 84.7622 7.75012L 85.751 9.4886ZM 186.702 25.8154C 175.285 30.5706 166.583 29.3941 157.621 28.0727L 157.329 30.0513C 166.307 31.375 175.546 32.5535 187.466 27.6637L 186.702 25.8154ZM 156.86 29.8504C 161.297 33.3106 163.118 35.1114 165.018 39.9324L 166.876 39.1917C 164.789 34.0127 162.623 31.8134 158.09 28.2737L 156.86 29.8504ZM 165.752 38.5811C 157.563 40.2363 151.145 38.1512 146.06 35.5041C 143.529 34.1903 141.387 32.7457 139.579 31.5539C 138.675 30.9575 137.838 30.4151 137.098 29.9979C 136.346 29.5755 135.58 29.2368 134.942 29.1039L 134.553 31.0658C 134.971 31.1419 135.444 31.3607 136.117 31.7408C 136.803 32.1261 137.58 32.6311 138.479 33.2237C 140.278 34.41 142.507 35.9097 145.138 37.2787C 150.377 39.9975 157.448 42.233 166.141 40.543L 165.752 38.5811ZM 84.4913 19.2984C 87.7797 23.2078 94.3327 27.8104 101.756 32.0127C 109.203 36.2274 117.691 40.1254 124.875 42.5652C 128.477 43.7869 131.823 44.6619 134.536 45.0264C 137.2 45.3825 139.593 45.3024 141.1 44.3031C 141.914 43.7635 142.444 42.9719 142.598 41.9609C 142.746 40.9943 142.538 39.905 142.067 38.7242C 141.127 36.3695 138.992 33.3047 135.491 29.4158L 134.005 30.7539C 137.468 34.6006 139.405 37.4508 140.21 39.4659C 140.611 40.4701 140.694 41.1793 140.621 41.6595C 140.555 42.0952 140.353 42.3985 139.995 42.6363C 139.157 43.192 137.442 43.3971 134.801 43.0441C 132.209 42.6996 129.052 41.8714 125.518 40.6713C 118.43 38.2673 110.114 34.4468 102.741 30.2723C 95.3454 26.0854 89.0645 21.6281 86.0219 18.0109L 84.4913 19.2984Z"/>
<path id="path44_fill" d="M 14.0991 96.3852C 13.0991 95.7852 9.93265 95.7185 4.59932 96.3852C -4.60068 73.9852 2.09932 34.3851 6.59932 17.3851C 58.5993 -27.6149 147.599 24.3851 156.099 64.3852C 156.499 65.1852 154.933 95.0518 154.099 109.885C 148.499 114.685 144.766 113.552 143.599 112.385C 111.599 83.9851 66.9327 93.5517 48.5993 101.885C 20.0991 110.385 15.0991 96.9852 14.0991 96.3852Z"/>
<path id="path45_fill" d="M 0 1C 0 7 11 14.5 22.5 0C 11 5.21981 2.83333 3.33333 0 1Z"/>
<path id="path46_stroke" d="M 0 1L 0.635707 0.22807L -1 -1.11898L -1 1L 0 1ZM 22.5 0L 23.2835 0.621395L 22.0867 -0.910589L 22.5 0ZM -1 1C -1 4.56687 2.18156 8.28336 6.74702 9.16919C 11.4209 10.0761 17.3888 8.05387 23.2835 0.621395L 21.7165 -0.621395C 16.1112 6.44613 10.8291 7.92393 7.12798 7.20581C 3.31844 6.46664 1 3.43313 1 1L -1 1ZM -0.635707 1.77193C 2.60611 4.44166 11.2243 6.21619 22.9133 0.910589L 22.0867 -0.910589C 10.7757 4.22342 3.06055 2.225 0.635707 0.22807L -0.635707 1.77193Z"/>
<path id="path47_fill" d="M 0 22.4079C 12.8 14.8079 8.33333 4.57455 4 1.40788C 7 -1.09212 17 -1.0921 22 8.40787C 27.9645 19.7403 10.6667 21.9079 0 22.4079Z"/>
<path id="path48_fill" d="M 6.35538 27.5C 3.35538 22 0.655377 8.8 13.8554 0C 5.35542 1.83333 -8.04451 9.9 6.35538 27.5Z"/>
<path id="path49_stroke" d="M 8.64204e-11 15.207L 1 15.207L 8.64204e-11 15.207ZM 33.1061 3.91157C 27.6053 -0.279537 19.1761 -1.98192 12.0995 -0.439011C 8.57497 0.337175 5.22854 2.00798 2.8668 4.5417C 0.456079 7.15292 -1.00001 10.6971 -1 15.207L 1 15.207C 0.999988 11.1583 2.29389 8.11065 4.3363 5.89837C 6.4277 3.6086 9.23754 2.22424 12.5255 1.51508C 19.074 0.0873121 26.8949 1.69356 31.894 5.50244L 33.1061 3.91157ZM -1 15.207C -0.999984 20.8025 0.731962 24.9431 3.59143 27.8532C 6.43247 30.7445 10.2937 32.3272 14.3994 33.0061C 22.5742 34.3579 32.0559 32.184 37.4961 29.0753L 36.5039 27.3388C 31.4441 30.2301 22.4258 32.3062 14.7257 31.0329C 10.8939 30.3993 7.47384 28.9508 5.018 26.4515C 2.58059 23.9709 1.00002 20.3615 1 15.207L -1 15.207Z"/>
<path id="path50_fill" d="M 32 81.3608C 30.4 84.5608 25.3333 86.0275 23 86.3608C 14.2 78.7608 4 73.8608 0 72.3608C 6.8 30.3608 4.5 7.19417 2.5 0.86083C 6.9 -5.13917 25.3333 21.6942 34 35.8608L 32 81.3608Z"/>
<path id="path51_fill" d="M 9.02869 0C -0.571314 28 3.36202 58.3333 6.52869 70L 3.52865 71C -0.871351 63.4 -1.47152 22.5 3.52865 2.5L 9.02869 0Z"/>
<path id="path52_fill" d="M 138 43.3983C 103.5 12.4012 31.5 7.39825 0 23.8983C 0 19.4983 1.66667 15.7316 2.5 14.3983C 40.1 -16.4017 121.5 6.39825 138 43.3983Z"/>
<path id="path53_stroke" d="M 4.59932 96.3852L 3.6743 96.7651L 3.96475 97.4723L 4.72335 97.3775L 4.59932 96.3852ZM 48.5993 101.885L 48.8851 102.843L 48.9508 102.824L 49.0131 102.795L 48.5993 101.885ZM 143.599 112.385L 144.306 111.678L 144.285 111.657L 144.263 111.637L 143.599 112.385ZM 154.099 109.885L 154.75 110.644L 155.074 110.367L 155.098 109.941L 154.099 109.885ZM 156.099 64.3852L 155.121 64.593L 155.148 64.718L 155.205 64.8324L 156.099 64.3852ZM 6.59932 17.3851L 5.94494 16.6289L 5.71158 16.8309L 5.63261 17.1292L 6.59932 17.3851ZM 4.72335 97.3775C 7.36325 97.0471 9.42354 96.9013 10.969 96.9102C 11.73 96.9137 12.3126 96.9521 12.7907 97.0266C 13.2668 97.1 13.5004 97.1922 13.5846 97.2427L 14.6136 95.5277C 14.1978 95.2782 13.6607 95.1371 13.0951 95.05C 12.5316 94.9641 11.8018 94.915 10.9795 94.9102C 9.35834 94.9024 7.16873 95.0566 4.47529 95.3929L 4.72335 97.3775ZM 13.5846 97.2427C 13.457 97.1661 13.427 97.0936 13.5434 97.246C 13.629 97.3577 13.7373 97.5135 13.8833 97.7199C 14.1739 98.1307 14.5933 98.7109 15.1506 99.3507C 16.2441 100.601 18.0095 102.196 20.605 103.45C 25.8405 105.955 34.4898 107.137 48.8851 102.843L 48.3135 100.927C 34.2087 105.133 26.1078 103.866 21.4683 101.646C 19.1263 100.537 17.6729 99.2011 16.657 98.0352C 16.1596 97.4673 15.8017 96.9686 15.5161 96.5649C 15.374 96.3641 15.2445 96.1788 15.1331 96.0324C 15.0525 95.9268 14.8662 95.6792 14.6136 95.5277L 13.5846 97.2427ZM 49.0131 102.795C 58.1105 98.6572 73.6507 94.2343 90.9676 94.36C 108.309 94.4691 127.135 99.0705 142.936 113.133L 144.263 111.637C 128.064 97.2996 108.556 92.4844 90.981 92.3601C 73.3813 92.2525 57.4215 96.7796 48.1855 100.975L 49.0131 102.795ZM 142.892 113.092C 144.588 114.788 148.951 115.615 154.75 110.644L 153.449 109.126C 148.047 113.755 144.944 112.316 144.306 111.678L 142.892 113.092ZM 155.098 109.941C 155.514 102.523 156.115 91.344 156.561 81.9199C 156.784 77.2074 156.968 72.9284 157.072 69.779C 157.124 68.2027 157.156 66.8993 157.162 65.9682C 157.165 65.4993 157.162 65.1076 157.151 64.8264C 157.145 64.6805 157.136 64.5383 157.125 64.4359C 157.12 64.3863 157.1 64.15 156.994 63.9379L 155.205 64.8324C 155.124 64.6703 155.125 64.5408 155.137 64.652C 155.144 64.7105 155.148 64.7832 155.153 64.9036C 155.163 65.1551 155.165 65.5015 155.162 65.9548C 155.156 66.8681 155.125 68.1452 155.073 69.7132C 154.97 72.8523 154.786 77.1171 154.563 81.8254C 154.117 91.2431 153.517 102.414 153.101 109.829L 155.098 109.941ZM 157.077 64.1773C 154.894 53.9003 147.581 42.9801 137.154 33.1119C 126.734 23.2564 113.035 14.3134 98.0452 8.08652C 68.0519 -4.36353 32.3474 -6.21933 5.94494 16.6289L 7.2537 18.1413C 32.8512 -4.01044 67.6467 -2.36625 97.2784 9.93371C 112.101 16.0819 125.495 24.8264 135.779 34.5645C 146.055 44.2901 153.055 54.87 155.121 64.593L 157.077 64.1773ZM 5.63261 17.1292C 3.37499 25.66 0.558323 39.9013 -0.5355 54.787C -1.62565 69.6481 -1.01735 85.342 3.6743 96.7651L 5.52434 96.0053C 1.01599 85.0284 0.374286 69.7223 1.45914 54.9333C 2.54032 40.169 5.32365 26.1102 7.56603 17.641L 5.63261 17.1292Z"/>
<path id="path54_fill" d="M 74.2521 1.3074e-11C 54.7825 -2.08359e-05 55.3153 24.8333 57.807 39.5C 66.1791 47.9 84.8834 43 93.1891 39.5C 94.8502 27.8333 93.1889 2.02656e-05 74.2521 1.3074e-11Z"/>
<path id="path55_fill" d="M 12.5166 6.00487C 22.53 5.63353 23.488 26.5831 22.7154 37.1043C 13.0729 44.1598 3.55411 40.0441 0 37.1043C 0 26.8926 2.50333 6.37621 12.5166 6.00487Z"/>
<path id="path56_stroke" d="M 57.807 39.5L 57.314 39.5837L 57.3406 39.7404L 57.4528 39.853L 57.807 39.5ZM 74.2521 1.3074e-11L 74.2521 -0.5L 74.2521 1.3074e-11ZM 93.1891 39.5L 93.3833 39.9608L 93.6442 39.8508L 93.6841 39.5705L 93.1891 39.5ZM 22.7154 37.1043L 23.0106 37.5079L 23.1971 37.3714L 23.2141 37.141L 22.7154 37.1043ZM 12.5166 6.00487L 12.4981 5.50522L 12.5166 6.00487ZM 0 37.1043L -0.5 37.1043L -0.5 37.3397L -0.318682 37.4896L 0 37.1043ZM 58.2999 39.4163C 57.0579 32.1055 56.3151 22.3116 58.2794 14.37C 59.2604 10.4038 60.9071 6.93901 63.4657 4.46909C 66.0127 2.0103 69.5015 0.499995 74.2521 0.5L 74.2521 -0.5C 69.268 -0.500005 65.5222 1.09385 62.7711 3.74964C 60.0316 6.3943 58.3167 10.0545 57.3087 14.1299C 55.2948 22.2718 56.0643 32.2279 57.314 39.5837L 58.2999 39.4163ZM 74.2521 0.5C 78.8485 0.500005 82.3773 2.18318 85.0801 4.88488C 87.821 7.61571 89.6933 11.3527 90.9667 15.5213C 93.5251 23.8656 93.5209 33.6313 92.6941 39.4295L 93.6841 39.5705C 94.5184 33.702 94.5141 23.7177 91.9229 15.2287C 90.6215 10.9807 88.6317 7.03014 85.7871 4.17764C 82.9043 1.296 79.1241 -0.499995 74.2521 -0.5L 74.2521 0.5ZM 92.9949 39.0392C 88.8647 40.7803 82.1864 42.8596 75.4779 43.4645C 68.7533 44.0738 62.1829 43.1822 58.1611 39.147L 57.4528 39.853C 61.8032 44.2179 68.771 45.0762 75.5681 44.4605C 82.3811 43.8404 89.2078 41.7197 93.3833 39.9608L 92.9949 39.0392ZM 23.2141 37.141C 23.6014 31.8606 23.5524 23.9219 22.1496 17.3651C 21.4463 14.0839 20.3936 11.0941 18.8498 8.93697C 17.2941 6.76316 15.212 5.40457 12.4981 5.50522L 12.5352 6.50453C 14.828 6.4195 16.6206 7.54036 18.0366 9.51895C 19.4646 11.5142 20.4806 14.3498 21.1719 17.5747C 22.5583 24.0302 22.602 31.8269 22.2167 37.0677L 23.2141 37.141ZM 12.4981 5.50522C 9.80187 5.6052 7.64273 7.06718 5.94027 9.2799C 4.26246 11.467 2.9714 14.4698 2.02324 17.7247C 0.134111 24.2258 -0.499587 31.9781 -0.5 37.1043L 0.5 37.1043C 0.499587 32.0188 1.11755 24.407 2.98342 18.0042C 3.91276 14.8072 5.12503 11.973 6.73283 9.88969C 8.31599 7.83203 10.2248 6.59021 12.5352 6.50453L 12.4981 5.50522ZM -0.318682 37.4896C 3.34459 40.5197 13.1214 44.7438 23.0106 37.5079L 22.4201 36.7008C 13.0245 43.5757 3.76363 39.5685 0.318682 36.7191L -0.318682 37.4896Z"/>
<path id="path57_fill" d="M 1.81504 36.1871C 13.479 33.1118 12.224 11.1201 10 0C 16.4 6.8 16.6667 24.5 16 32.5C 15.2878 33.5683 7.12587 35.2442 1.81504 36.1871C 1.24171 36.3383 0.637172 36.4438 0 36.5C 0.548798 36.4085 1.16026 36.3034 1.81504 36.1871Z"/>
<path id="path58_fill" d="M 7 0C 2.5 0 0 8.33333 0 12.5C 0.166667 13 1.5 14 2.5 12.5C 3 9 2.5 5 8 2C 9 1 8.5 0 7 0Z"/>
<path id="path59_fill" d="M 4.10786 0C 1.46709 0 0 5.01546 0 7.52319C 0.0978061 7.82412 0.880255 8.42597 1.46709 7.52319C 1.76051 5.4167 1.46709 3.00928 4.69469 1.20371C 5.28153 0.601855 4.98811 0 4.10786 0Z"/>
<path id="path60_fill" d="M 8 0C 8.157 1.33452 8.6098 4.00753 8 6.96365L 8 14C 6.16667 16 4.8 18.9 0 16.5C 5.28992 13.9608 7.31513 10.2837 8 6.96365L 8 0Z"/>
<path id="path61_fill" d="M 12 13C 4.4 13.4 1.33341 4.5 1.50007 0L 0 10.5C 2.5 11.6667 8.4 13.8 12 13Z"/>
<path id="path62_stroke" d="M 57.807 39.5L 56.8211 39.6675L 56.8743 39.9808L 57.0987 40.2059L 57.807 39.5ZM 74.2521 1.3074e-11L 74.2521 -1L 74.2521 1.3074e-11ZM 93.1891 39.5L 93.5774 40.4215L 94.0993 40.2016L 94.1791 39.641L 93.1891 39.5ZM 22.7154 37.1043L 23.3059 37.9114L 23.6789 37.6385L 23.7127 37.1776L 22.7154 37.1043ZM 12.5166 6.00487L 12.4796 5.00556L 12.5166 6.00487ZM 0 37.1043L -1 37.1043L -1 37.575L -0.637364 37.8749L 0 37.1043ZM 58.7928 39.3325C 57.5546 32.0443 56.8253 22.3315 58.7648 14.4901C 59.7323 10.5784 61.3449 7.21137 63.813 4.82882C 66.2579 2.46852 69.6182 0.999995 74.2521 1L 74.2521 -1C 69.1512 -1.00001 65.277 0.635627 62.4239 3.38991C 59.5938 6.12194 57.8448 9.87991 56.8233 14.0099C 54.7847 22.2518 55.5676 32.2891 56.8211 39.6675L 58.7928 39.3325ZM 74.2521 1C 78.7107 1 82.1138 2.62677 84.7266 5.23851C 87.4157 7.90849 89.2292 11.5387 90.4886 15.6675C 93.0306 23.9396 93.0221 33.596 92.1991 39.359L 94.1791 39.641C 95.0171 33.7373 95.0086 23.6438 92.4011 15.0825C 91.0856 10.7946 89.037 6.73736 86.1405 3.82401C 83.1678 0.852411 79.2619 -0.999995 74.2521 -1L 74.2521 1ZM 92.8008 38.5785C 88.6932 40.3107 82.0891 42.3691 75.4328 42.9666C 68.7445 43.5725 62.3727 42.6643 58.5152 38.7941L 57.0987 40.2059C 61.6134 44.7357 68.7798 45.5775 75.6132 44.9584C 82.4785 44.3309 89.3793 42.1893 93.5774 40.4215L 92.8008 38.5785ZM 23.7127 37.1776C 24.1011 31.8774 24.0495 23.8677 22.6385 17.2603C 21.9292 13.951 20.8581 10.8841 19.2564 8.64598C 17.6308 6.37456 15.4039 4.89711 12.4796 5.00556L 12.5537 7.00418C 14.636 6.92696 16.2839 7.92896 17.63 9.80994C 19 11.7243 19.9977 14.4827 20.683 17.6795C 22.0612 24.0843 22.1023 31.81 21.7181 37.0311L 23.7127 37.1776ZM 12.4796 5.00556C 9.59043 5.1127 7.30611 6.68475 5.54399 8.975C 3.83117 11.214 2.50072 14.301 1.54316 17.585C -0.35761 24.1352 -0.999174 31.9578 -1 37.1043L 1 37.1043C 0.999174 32.0391 1.60927 24.4977 3.4635 18.1439C 4.38344 14.9759 5.55631 12.2259 7.12911 10.1946C 8.65262 8.21446 10.4362 7.08271 12.5537 7.00418L 12.4796 5.00556ZM -0.637364 37.8749C 3.13506 40.9952 13.1699 45.3279 23.3059 37.9114L 22.1249 36.2973C 12.976 42.9916 3.97316 39.093 0.637364 36.3338L -0.637364 37.8749Z"/>
<path id="path63_fill" d="M 0 0C 4.92754 7.54624 18.6261 18.111 34 0C 26.7729 3.67637 9.85507 8.82329 0 0Z"/>
<path id="path64_stroke" d="M 0 0L 0.66703 -0.745031L -0.837302 0.546741L 0 0ZM 34 0L 34.7624 0.64715L 33.5466 -0.891305L 34 0ZM -0.837302 0.546741C 1.7113 4.44977 6.56111 9.20124 12.8664 10.5978C 19.2816 12.0187 26.9024 9.90648 34.7624 0.64715L 33.2376 -0.64715C 25.7237 8.20448 18.8083 9.86539 13.2989 8.64511C 7.67947 7.40048 3.21624 3.09646 0.837302 -0.546741L -0.837302 0.546741ZM 33.5466 -0.891305C 29.9874 0.921251 24.1266 3.06934 17.8849 3.69244C 11.6538 4.3223 5.2964 3.39966 0.66703 -0.745031L -0.66703 0.745031C 4.55867 5.42363 11.5877 6.33918 18.0861 5.6823C 24.5739 5.01868 30.7855 2.75512 34.4534 0.891305L 33.5466 -0.891305Z"/>
<path id="path65_fill" d="M 8 4C 8 6.20914 6.20914 8 4 8C 1.79086 8 0 6.20914 0 4C 0 1.79086 1.79086 0 4 0C 6.20914 0 8 1.79086 8 4Z"/>
<path id="path66_fill" d="M 6 4C 6 6.20914 4.65685 8 3 8C 1.34315 8 0 6.20914 0 4C 0 1.79086 1.34315 0 3 0C 4.65685 0 6 1.79086 6 4Z"/>
<path id="path67_fill" d="M 160.719 125.545C 133.719 33.5448 13.6192 47.6448 7.21924 66.0448C 0.019238 66.0448 -0.447429 66.3781 0.219238 63.5448C 4.55257 42.8781 51.7192 -12.4552 100.219 2.54478C 161.186 21.4005 185.219 55.5448 173.719 119.045C 167.719 138.545 162.92 133.045 160.719 125.545Z"/>
<path id="path68_stroke" d="M 7.21924 66.0448L 7.21924 66.5448L 7.57471 66.5448L 7.69149 66.2091L 7.21924 66.0448ZM 160.719 125.545L 160.239 125.686L 160.719 125.545ZM 0.219238 63.5448L 0.706091 63.6594L 0.708596 63.6474L 0.219238 63.5448ZM 100.219 2.54478L 100.072 3.02246L 100.219 2.54478ZM 173.719 119.045L 174.197 119.192L 174.206 119.163L 174.211 119.134L 173.719 119.045ZM 7.69149 66.2091C 8.42339 64.1048 10.8418 61.948 14.7679 59.9927C 18.6823 58.0417 23.9406 56.3619 30.2031 55.1323C 42.7457 52.6665 59.1124 52.0563 76.1624 54.888C 110.242 60.543 146.811 79.9282 160.239 125.686L 161.199 125.404C 147.628 79.1614 110.647 59.5966 76.3261 53.9015C 59.176 51.0583 42.6303 51.6731 30.0103 54.151C 23.6916 55.3934 18.3061 57.1151 14.3221 59.0976C 10.3498 61.0759 7.61508 63.3848 6.74699 65.8805L 7.69149 66.2091ZM 0.708596 63.6474C 1.77014 58.5847 5.48118 51.3201 11.2546 43.482C 17.0259 35.6453 24.7977 27.3083 33.9668 20.0621C 52.3034 5.56721 76.0483 -4.40739 100.072 3.02246L 100.367 2.0671C 75.8902 -5.503 51.8017 4.68908 33.3467 19.2776C 24.12 26.573 16.2563 35.0068 10.4495 42.8889C 4.64479 50.7695 0.835003 58.1716 -0.270121 63.4422L 0.708596 63.6474ZM 100.072 3.02246C 130.5 12.4334 151.623 25.6336 163.725 44.3249C 175.822 63.0101 178.964 87.2766 173.227 118.956L 174.211 119.134C 179.974 87.313 176.85 62.7573 164.564 43.7814C 152.282 24.8117 130.905 11.5118 100.367 2.0671L 100.072 3.02246ZM -0.267471 63.4303C -0.427946 64.1123 -0.556457 64.7283 -0.473673 65.2146C -0.426017 65.4658 -0.285193 65.7532 -0.10712 65.9382C 0.0935722 66.1347 0.350251 66.2563 0.629897 66.3375C 1.17182 66.4947 1.95145 66.5397 2.98801 66.5526C 4.04073 66.5656 5.42301 66.5448 7.21924 66.5448L 7.21924 65.5448C 5.41546 65.5448 4.03941 65.5656 3.00046 65.5526C 1.94536 65.5395 1.29999 65.4907 0.908579 65.3771C 0.721558 65.3228 0.634487 65.2648 0.592471 65.2237C 0.527836 65.171 0.526993 65.1629 0.512148 65.0468C 0.469933 64.7988 0.533088 64.394 0.705946 63.6593L -0.267471 63.4303ZM 160.239 125.686C 160.797 127.585 161.541 129.405 162.421 130.715C 163.3 132.019 164.435 132.997 165.823 132.919C 167.192 132.842 168.543 131.746 169.889 129.608C 171.237 127.465 172.689 124.092 174.197 119.192L 173.241 118.898C 171.75 123.747 170.352 127 169.043 129.075C 167.733 131.156 166.622 131.873 165.767 131.921C 164.929 131.968 164.077 131.383 163.25 130.156C 162.423 128.934 161.742 127.255 161.199 125.404L 160.239 125.686Z"/>
<path id="path69_fill" d="M 160.719 77.7623C 133.866 -13.7377 13.6192 -0.637789 7.21924 17.7622C 0.0192375 17.7622 -0.447429 18.0955 0.219238 15.2622C -4.28076 5.26223 127.556 -35.2377 160.719 77.7623Z"/>
<path id="path70_stroke" d="M 7.21924 17.7622L 7.21924 18.2622L 7.57471 18.2622L 7.69149 17.9265L 7.21924 17.7622ZM 0.219238 15.2622L 0.705946 15.3767L 0.744786 15.2117L 0.675199 15.057L 0.219238 15.2622ZM 7.69149 17.9265C 8.42286 15.8238 10.8418 13.6824 14.7714 11.7534C 18.6892 9.82859 23.9523 8.18558 30.2205 6.9988C 42.7744 4.61865 59.1553 4.11729 76.2148 7.04258C 110.315 12.8848 146.884 32.3956 160.239 77.9031L 161.199 77.6215C 147.701 31.629 110.72 11.9398 76.3837 6.05694C 59.2249 3.11971 42.6657 3.62457 30.0343 6.01628C 23.7097 7.21543 18.3187 8.89975 14.3307 10.8558C 10.3544 12.8077 7.61561 15.1007 6.74699 17.5979L 7.69149 17.9265ZM -0.26747 15.1477C -0.427946 15.8297 -0.556457 16.4457 -0.473673 16.9321C -0.426017 17.1832 -0.285193 17.4706 -0.10712 17.6556C 0.0935726 17.8521 0.350252 17.9738 0.629897 18.0549C 1.17182 18.2122 1.95145 18.2571 2.98801 18.27C 4.04073 18.283 5.42301 18.2622 7.21924 18.2622L 7.21924 17.2622C 5.41546 17.2622 4.03941 17.283 3.00046 17.2701C 1.94536 17.2569 1.29999 17.2081 0.908578 17.0945C 0.721557 17.0403 0.634486 16.9822 0.592471 16.9411C 0.527836 16.8884 0.526993 16.8803 0.512148 16.7643C 0.469933 16.5162 0.533088 16.1114 0.705946 15.3767L -0.26747 15.1477ZM 0.675199 15.057C 0.520522 14.7133 0.598812 14.1849 1.28973 13.4067C 1.9633 12.6479 3.11065 11.7873 4.71088 10.8764C 7.91946 9.04867 12.7733 7.11077 18.8705 5.39988C 31.084 1.97016 48.0916 -0.488032 66.3081 0.885858C 84.5327 2.25518 103.853 7.43387 120.73 19.3274C 137.584 31.1952 151.978 49.7537 160.239 77.9031L 161.199 77.6215C 152.879 49.2709 138.357 30.5169 121.306 18.5097C 104.277 6.5282 84.7006 1.26937 66.3831 -0.111322C 48.0575 -1.48745 30.8769 0.991834 18.6002 4.4371C 12.4523 6.1637 7.48565 8.14767 4.21618 10.0074C 2.57738 10.9402 1.32134 11.8648 0.541897 12.7428C -0.220203 13.6012 -0.644546 14.5611 -0.236723 15.4674L 0.675199 15.057Z"/>
<path id="path71_fill" d="M 20 46C 56.5 68 71 103.5 77 123.5C 91 64 74 21 0 0C 26.4 10.8 26.1667 36.3333 20 46Z"/>
<path id="path72_fill" d="M 27 0.248718C 12 -2.75131 0.166667 22.2487 0 28.7487C 4 29.7487 6.5 29.7487 6.5 29.7487C 6.5 15.2487 15.5 3.3836 27 0.248718Z"/>
<path id="path73_stroke" d="M 7.21924 66.0448L 7.21924 67.0448L 7.93018 67.0448L 8.16373 66.3733L 7.21924 66.0448ZM 160.719 125.545L 159.76 125.826L 160.719 125.545ZM 0.219238 63.5448L 1.19265 63.7738L 1.19545 63.762L 1.19795 63.75L 0.219238 63.5448ZM 100.219 2.54478L 99.9238 3.50013L 100.219 2.54478ZM 173.719 119.045L 174.675 119.339L 174.693 119.282L 174.703 119.223L 173.719 119.045ZM 8.16373 66.3733C 8.82755 64.4649 11.0878 62.3841 14.9908 60.4403C 18.8704 58.5049 24.0651 56.8461 30.2995 55.6229C 42.8033 53.1631 59.0807 52.5553 76.0805 55.3813C 110.039 61.0163 146.402 80.3116 159.76 125.826L 161.679 125.263C 148.036 78.778 110.849 59.1233 76.4079 53.4083C 59.2078 50.5593 42.5726 51.1765 29.9139 53.6604C 23.5671 54.9091 18.118 56.6518 14.0992 58.65C 10.1038 60.6399 7.21093 63.0247 6.27474 65.7163L 8.16373 66.3733ZM 1.19795 63.75C 2.23771 58.7912 5.89938 51.5955 11.6572 43.7785C 17.4107 35.9646 25.1365 27.676 34.2769 20.4543C 52.5542 6.00628 76.1273 -3.85958 99.9238 3.50013L 100.515 1.58943C 75.8112 -6.05081 51.5509 4.25001 33.0366 18.8853C 23.7811 26.2053 15.8715 34.6875 10.0469 42.5924C 4.22659 50.4941 0.367435 57.9651 -0.759479 63.3396L 1.19795 63.75ZM 99.9238 3.50013C 130.298 12.8942 151.294 26.0445 163.305 44.5966C 175.308 63.1365 178.46 87.2585 172.735 118.867L 174.703 119.223C 180.479 87.3311 177.364 62.631 164.984 43.5097C 152.612 24.4007 131.107 11.051 100.515 1.58943L 99.9238 3.50013ZM -0.754179 63.3158C -0.908463 63.9715 -1.06965 64.693 -0.966583 65.2985C -0.902523 65.6173 -0.691708 66.0443 -0.456916 66.2955C -0.176885 66.5696 0.164598 66.7231 0.490555 66.8177C 1.10774 66.9968 1.9545 67.0397 2.98179 67.0525C 4.0414 67.0656 5.42679 67.0448 7.21924 67.0448L 7.21924 65.0448C 5.41169 65.0448 4.03874 65.0656 3.00669 65.0527C 1.94231 65.0394 1.36407 64.9886 1.04792 64.8969C 0.908721 64.8617 0.932779 64.8421 0.942267 64.8664C 0.950183 64.8529 1.0035 65.0114 1.00506 64.9629C 0.983128 64.8341 1.01361 64.5348 1.19265 63.7738L -0.754179 63.3158ZM 159.76 125.826C 160.325 127.75 161.1 129.64 162.006 130.994C 162.912 132.338 164.188 133.512 165.851 133.418C 167.478 133.327 168.949 132.041 170.313 129.874C 171.679 127.698 173.158 124.265 174.675 119.339L 172.763 118.751C 171.281 123.575 169.909 126.767 168.62 128.809C 167.328 130.862 166.337 131.388 165.739 131.421C 165.176 131.453 164.465 131.064 163.665 129.876C 162.865 128.699 162.214 127.09 161.679 125.263L 159.76 125.826Z"/>
<path id="path74_fill" d="M 0.220861 23.6666C -0.179139 26.4666 0.054194 31.5 0.220861 33.6666C 20.7207 17.1666 125.721 -5.33337 162.221 103.667C 167.821 105.267 170.554 99.6666 171.221 96.6666C 157.721 26.1666 63.7207 -35.3334 0.220861 23.6666Z"/>
<path id="path75_stroke" d="M 0.220861 33.6666L -0.277667 33.705L -0.204884 34.6511L 0.534367 34.0561L 0.220861 33.6666ZM 0.220861 23.6666L -0.119476 23.3003L -0.249092 23.4208L -0.274114 23.5959L 0.220861 23.6666ZM 171.221 96.6666L 171.709 96.7751L 171.731 96.6741L 171.712 96.5726L 171.221 96.6666ZM 162.221 103.667L 161.747 103.825L 161.83 104.075L 162.083 104.147L 162.221 103.667ZM 0.719388 33.6283C 0.552505 31.4588 0.324555 26.4763 0.715835 23.7373L -0.274114 23.5959C -0.682833 26.457 -0.444117 31.5411 -0.277667 33.705L 0.719388 33.6283ZM 0.561197 24.0329C 32.1234 -5.29266 71.261 -4.69069 104.244 12.05C 137.249 28.8012 164.012 61.6805 170.73 96.7607L 171.712 96.5726C 164.929 61.1527 137.943 28.032 104.697 11.1583C 71.4305 -5.72607 31.8182 -6.3741 -0.119476 23.3003L 0.561197 24.0329ZM 170.733 96.5581C 170.409 98.02 169.615 100.05 168.205 101.551C 166.84 103.016 164.944 103.925 162.358 103.186L 162.083 104.147C 165.098 105.009 167.368 103.917 168.937 102.232C 170.46 100.584 171.365 98.3132 171.709 96.7751L 170.733 96.5581ZM 162.695 103.508C 144.385 48.8278 108.857 27.0802 75.3083 21.1119C 58.5625 18.1362 42.2807 19.0928 28.9485 21.8253C 15.6156 24.5592 5.1208 29.0809 -0.0926455 33.2771L 0.534367 34.0561C 5.57085 30.0023 15.8885 25.524 29.1493 22.8049C 42.4108 20.0842 58.5039 19.1345 75.1331 22.0964C 108.335 28.0031 143.557 49.5054 161.747 103.825L 162.695 103.508Z"/>
<path id="path76_fill" d="M 48 0.177113C 70.9973 -1.69317 102.326 11.4478 120 30.1771C 96 16.1771 69 15.3857 45 18.6771C 25.0718 21.4101 7.78691 25.5981 0 32.6771L 0 23.1771C 9.6845 13.0202 27.4076 1.85181 48 0.177113Z"/>
<path id="path77_stroke" d="M 0.220861 33.6666L -0.776194 33.7433L -0.630629 35.6357L 0.847873 34.4456L 0.220861 33.6666ZM 0.220861 23.6666L -0.459813 22.934L -0.719046 23.1749L -0.769089 23.5252L 0.220861 23.6666ZM 171.221 96.6666L 172.197 96.8835L 172.242 96.6817L 172.203 96.4785L 171.221 96.6666ZM 162.221 103.667L 161.272 103.984L 161.44 104.483L 161.946 104.628L 162.221 103.667ZM 1.21792 33.5899C 1.05082 31.4177 0.828249 26.486 1.21081 23.8081L -0.769089 23.5252C -1.18653 26.4473 -0.942429 31.5823 -0.776194 33.7433L 1.21792 33.5899ZM 0.901534 24.3992C 32.276 -4.75194 71.1762 -4.173 104.018 12.4958C 136.902 29.1858 163.554 61.9445 170.239 96.8547L 172.203 96.4785C 165.388 60.8888 138.29 27.6475 104.923 10.7124C 71.5153 -6.24375 31.6656 -6.91482 -0.459813 22.934L 0.901534 24.3992ZM 170.245 96.4497C 169.931 97.8734 169.192 99.7828 167.839 101.21C 166.577 102.565 164.867 103.383 162.495 102.705L 161.946 104.628C 165.175 105.551 167.631 104.368 169.303 102.573C 170.883 100.85 171.843 98.4598 172.197 96.8835L 170.245 96.4497ZM 163.169 103.349C 144.798 48.489 109.117 26.6187 75.3959 20.6196C 58.5918 17.6371 42.2156 18.597 28.848 21.3354C 15.4791 24.0768 4.89577 28.6202 -0.406152 32.8876L 0.847873 34.4456C 5.79587 30.4631 16.025 26.0065 29.2498 23.2947C 42.4759 20.58 58.4746 19.6337 75.0456 22.5887C 108.074 28.4645 143.143 49.8443 161.272 103.984L 163.169 103.349Z"/>
<path id="path78_fill" d="M 41.5 2.29177C 12.5 -7.70825 2.5 17.4585 0 30.7918C 6 30.2917 7 30.2917 15 30.7918C 16.1667 20.7918 25 0.296959 41.5 2.29177Z"/>
<path id="path79_fill" d="M 34 0.406331C 17.6 -0.393669 8.5 20.073 6 30.4063L 0 30.4063C 5.6 2.00634 25 -1.427 34 0.406331Z"/>
<path id="path80_stroke" d="M 0 30.7918L -0.982872 30.6075L -1.22471 31.8973L 0.0830537 31.7883L 0 30.7918ZM 41.5 2.29177L 41.38 3.28454L 41.826 1.3464L 41.5 2.29177ZM 15 30.7918L 14.9376 31.7899L 15.8834 31.849L 15.9933 30.9077L 15 30.7918ZM 0.982872 30.9761C 2.21749 24.3915 5.29165 14.9892 11.534 8.48417C 17.6895 2.06975 27.0259 -1.64154 41.174 3.23715L 41.826 1.3464C 26.9741 -3.77494 16.8105 0.0971199 10.091 7.09938C 3.45835 14.0111 0.282511 23.8588 -0.982872 30.6075L 0.982872 30.9761ZM 15.9933 30.9077C 16.5581 26.0659 19.0005 18.6059 23.3111 12.6287C 27.6164 6.65873 33.6361 2.34833 41.38 3.28454L 41.62 1.299C 32.8639 0.240404 26.2169 5.18002 21.6889 11.4588C 17.1662 17.7303 14.6085 25.5177 14.0067 30.6759L 15.9933 30.9077ZM 0.0830537 31.7883C 6.04156 31.2909 6.96879 31.2913 14.9376 31.7899L 15.0624 29.7937C 7.03121 29.2922 5.95844 29.2926 -0.0830537 29.7953L 0.0830537 31.7883Z"/>
<path id="path81_fill" d="M 30.7188 0C 40.7188 58 18.2188 81.5 0.71875 81.5C -0.947917 88 -0.78125 102.4 13.2188 108C 61.2188 81.5 60.2188 40 30.7188 0Z"/>
<path id="path82_stroke" d="M 0.71875 81.5L 0.71875 80.5L -0.0571896 80.5L -0.249914 81.2516L 0.71875 81.5ZM 30.7188 0L 31.5236 -0.593542L 29.7333 0.169907L 30.7188 0ZM 13.2188 108L 12.8474 108.928L 13.2873 109.104L 13.7021 108.875L 13.2188 108ZM 0.71875 82.5C 9.93711 82.5 20.2379 76.3227 26.9257 62.9472C 33.6138 49.5709 36.7269 28.9619 31.7042 -0.169907L 29.7333 0.169907C 34.7106 29.0381 31.5737 49.1791 25.1368 62.0528C 18.6996 74.9273 9.00039 80.5 0.71875 80.5L 0.71875 82.5ZM 29.9139 0.593542C 44.5849 20.4864 52.0615 40.612 50.0373 58.9528C 48.0192 77.2376 36.5291 93.9885 12.7354 107.125L 13.7021 108.875C 37.9084 95.5115 49.9183 78.2624 52.0252 59.1722C 54.126 40.138 46.3526 19.5136 31.5236 -0.593542L 29.9139 0.593542ZM -0.249914 81.2516C -1.1016 84.5894 -1.48305 90.0891 0.138511 95.3833C 1.79909 100.745 5.5317 106.002 12.8474 108.928L 13.5901 107.072C 6.9058 104.398 3.55507 99.6547 2.04899 94.7917C 0.503887 89.8609 0.872432 84.9106 1.68741 81.7484L -0.249914 81.2516Z"/>
<path id="path83_fill" d="M 0 91.5C 46 59.5 38.8333 17.1667 29.5 0C 56.6845 50 36.5 71 5 94.5C 2.6 94.9 0.666667 92.6667 0 91.5Z"/>
<path id="path84_fill" d="M 17.8969 33C -1.70309 28.2 -1.43667 9.33333 1.39666 0C 2.47146 0.63004 3.47208 1.29854 4.40403 2C 0.409683 20.4 11.4792 28 17.5133 29.5C 17.6568 30.7448 17.7768 31.9193 17.8969 33Z"/>
<path id="path85_stroke" d="M 1.39666 0L 1.64952 -0.431351L 1.10243 -0.75205L 0.91822 -0.145241L 1.39666 0ZM 17.8969 33L 17.778 33.4856L 18.4729 33.6558L 18.3939 32.9448L 17.8969 33ZM 4.40403 2L 4.89265 2.10607L 4.96059 1.79311L 4.70472 1.60051L 4.40403 2ZM 17.5133 29.5L 18.01 29.4428L 17.9703 29.0984L 17.6339 29.0148L 17.5133 29.5ZM 0.91822 -0.145241C -0.50983 4.5663 -1.2926 11.7651 0.757114 18.3494C 2.83561 24.9901 7.79828 31.0416 17.778 33.4856L 18.0158 32.5144C 8.39555 30.1584 3.69143 24.3766 1.71146 18.0506C -0.29729 11.6683 0.469817 4.76703 1.8751 0.145241L 0.91822 -0.145241ZM 4.70472 1.60051C 3.76142 0.890759 2.73688 0.206305 1.64952 -0.431351L 1.1438 0.431351C 2.20604 1.05378 3.18275 1.70632 4.10335 2.39949L 4.70472 1.60051ZM 1.11978 0.416339L 4.12716 2.41634L 4.68091 1.58366L 1.67354 -0.416339L 1.11978 0.416339ZM 18.3939 32.9448C 18.274 31.8662 18.1538 30.6908 18.01 29.4428L 17.0166 29.5572C 17.1597 30.7989 17.2797 31.9723 17.4 33.0552L 18.3939 32.9448ZM 17.6339 29.0148C 14.7214 28.2908 10.5552 26.0797 7.60978 21.8039C 4.67567 17.5445 2.92085 11.1892 4.89265 2.10607L 3.91541 1.89393C 1.89287 11.2108 3.67565 17.8555 6.78625 22.3711C 9.8855 26.8703 14.2711 29.2092 17.3927 29.9852L 17.6339 29.0148Z"/>
<path id="path86_fill" d="M 16.5 17.5C 11 15 1.5 8 0 0C 0 7.5 5.5 17 16.5 19.5L 16.5 17.5Z"/>
<path id="path87_stroke" d="M 0.353553 2.35355C 0.574658 2.13245 0.852739 1.70334 1.06746 1.29537C 1.17754 1.08586 1.28504 0.852347 1.36013 0.648495C 1.43319 0.448995 1.5 0.21516 1.5 0L 0.5 0C 0.5 0.0348396 0.483476 0.134338 0.421116 0.30463C 0.36079 0.470569 0.280795 0.643307 0.182541 0.829627C -0.0194052 1.21332 -0.241324 1.53422 -0.353553 1.64645L 0.353553 2.35355Z"/>
<path id="path88_stroke" d="M 0.211443 7.95309C 1.48142 7.35989 3.54198 6.16442 5.57015 4.77494C 7.59668 3.38581 9.6466 1.76038 10.8796 0.325396L 10.1204 -0.325396C 8.95341 1.03962 7.00332 2.58086 5.00485 3.95006C 3.00802 5.31891 1.01858 6.47345 -0.211443 7.04691L 0.211443 7.95309Z"/>
<path id="path89_stroke" d="M 0.320092 4.88411C 0.837169 4.45254 1.86149 3.42877 2.74424 2.46213C 3.18607 1.97816 3.60485 1.49478 3.90972 1.10459C 4.06398 0.906885 4.20096 0.716489 4.29462 0.565351C 4.34357 0.485689 4.39291 0.394508 4.42426 0.323919C 4.45418 0.255428 4.5 0.136699 4.5 0L 3.5 0C 3.5 -0.0741988 3.52238 -0.109594 3.50787 -0.0763609C 3.49478 -0.0452239 3.47869 -0.0162878 3.44366 0.040118C 3.36936 0.161115 3.26415 0.306657 3.12153 0.489158C 2.83265 0.859388 2.43893 1.31351 2.00576 1.78787C 1.13851 2.7379 0.162831 3.71412 -0.320092 4.11589L 0.320092 4.88411Z"/>
<path id="path90_fill" d="M 24.4242 71.5C 10.7576 66.8333 -11.7758 46 7.42422 0C 4.26379 16.135 5.71858 50.6642 36.7411 59.9456C 36.8129 59.9488 36.8742 59.9666 36.9243 60C 36.8631 59.982 36.8021 59.9638 36.7411 59.9456C 35.0937 59.8724 27.9378 67.5073 24.4242 71.5Z"/>
<path id="path91_fill" d="M 23.353 51C 1.35297 38.2 -1.14703 11.6667 0.35297 0C 3.15292 32 21.853 43 30.853 44.5L 23.353 51Z"/>
<path id="path92_stroke" d="M 24.4242 71.5L 24.1011 72.4464L 24.7335 72.6623L 25.1749 72.1606L 24.4242 71.5ZM 7.42422 0L 8.40557 0.192222L 6.50138 -0.385185L 7.42422 0ZM 36.9243 60L 36.6415 60.9592L 37.479 59.1679L 36.9243 60ZM 24.7474 70.5536C 18.1542 68.3023 9.33762 62.1119 4.5185 50.8564C -0.290723 39.6241 -1.17746 23.2043 8.34706 0.385185L 6.50138 -0.385185C -3.1741 22.7957 -2.39418 39.7926 2.67993 51.6436C 7.74415 63.4715 17.0275 70.031 24.1011 72.4464L 24.7474 70.5536ZM 6.44287 -0.192222C 4.84733 7.97014 4.42591 20.9243 8.33637 32.9235C 12.2855 44.992 20.6584 56.2462 36.6415 60.9592L 37.2071 59.0408C 21.9902 54.5538 14.0297 43.8913 10.2372 32.3015C 6.40594 20.6424 6.83447 8.19653 8.40557 0.192222L 6.44287 -0.192222ZM 25.1749 72.1606C 27.0012 70.0853 29.8001 67.0382 32.2974 64.6034C 33.5428 63.3888 34.6779 62.3578 35.5853 61.6698C 36.0275 61.3332 36.348 61.1217 36.6151 61.0001C 36.728 60.9458 36.7918 60.9427 36.7608 60.9425C 36.7472 60.9443 36.5708 60.9662 36.3696 60.8321L 37.479 59.1679C 37.1278 58.9338 36.7512 58.9255 36.4921 58.9606C 36.2776 58.9941 35.9888 59.0874 35.771 59.187C 35.3767 59.3734 34.8753 59.6985 34.3758 60.077C 33.3999 60.8193 32.1724 61.932 30.9011 63.1716C 28.365 65.6452 25.514 68.748 23.6735 70.8394L 25.1749 72.1606Z"/>
</defs>
</svg>
