<svg width="160" height="160" viewBox="0 0 160 160" version="1.1" xmlns="http://www.w3.org/2000/svg" xmlns:xlink="http://www.w3.org/1999/xlink">
<title>tafl-helm-1</title>
<desc>Created using Figma</desc>
<g id="Canvas" transform="translate(-3837 -913)">
<g id="tafl-helm-1">
<g id="Vector">
<use xlink:href="#path0_fill" transform="translate(3860.34 957.667)" fill="#BDBDBD"/>
<use xlink:href="#path1_stroke" transform="translate(3860.34 957.667)"/>
</g>
<g id="Vector 29">
<use xlink:href="#path2_fill" transform="translate(3959.37 929)" fill="#FFFFFF"/>
<use xlink:href="#path3_stroke" transform="translate(3959.37 929)"/>
</g>
<g id="Vector 29">
<use xlink:href="#path2_fill" transform="matrix(-1 0 0 1 3874.63 929)" fill="#FFFFFF"/>
<use xlink:href="#path3_stroke" transform="matrix(-1 0 0 1 3874.63 929)"/>
</g>
<g id="Vector">
<use xlink:href="#path4_fill" transform="translate(3859.79 1020.5)" fill="#E0E0E0"/>
<use xlink:href="#path5_stroke" transform="translate(3859.79 1020.5)"/>
</g>
<g id="Vector">
<use xlink:href="#path6_fill" transform="translate(3909.34 955.619)" fill="#E0E0E0"/>
<use xlink:href="#path7_stroke" transform="translate(3909.34 955.619)"/>
</g>
<g id="dots">
<g id="Ellipse 13">
<use xlink:href="#path8_fill" transform="translate(3871 1026)"/>
</g>
<g id="Ellipse 13">
<use xlink:href="#path8_fill" transform="translate(3888 1028)"/>
</g>
<g id="Ellipse 13">
<use xlink:href="#path8_fill" transform="translate(3915.5 1029)"/>
</g>
<g id="Ellipse 13">
<use xlink:href="#path8_fill" transform="translate(3915.5 1003)"/>
</g>
<g id="Ellipse 13">
<use xlink:href="#path8_fill" transform="translate(3915.5 975)"/>
</g>
<g id="Ellipse 13">
<use xlink:href="#path8_fill" transform="matrix(-1 0 0 1 3964 1026)"/>
</g>
<g id="Ellipse 13">
<use xlink:href="#path8_fill" transform="matrix(-1 0 0 1 3945 1028)"/>
</g>
</g>
</g>
</g>
<defs>
<path id="path0_fill" d="M 57.1748 0C 5.33347 3.23131 -2.22672 50.4892 0.473346 73.7143C 19.0583 77.8095 67.7578 83.5428 113.876 73.7143C 116.576 50.4892 109.016 3.23131 57.1748 0Z"/>
<path id="path1_stroke" d="M 0.473346 73.7143L -1.51327 73.9452L -1.34871 75.3607L 0.042965 75.6674L 0.473346 73.7143ZM 57.1748 0L 57.2992 -1.99613L 57.1748 -2.00388L 57.0504 -1.99613L 57.1748 0ZM 113.876 73.7143L 114.293 75.6703L 115.697 75.3711L 115.863 73.9452L 113.876 73.7143ZM 2.45997 73.4833C 1.12276 62.0548 2.26124 45.031 10.1373 30.2977C 17.8593 15.7612 32.1048 3.56652 57.2992 1.99613L 57.0504 -1.99613C 30.4035 -0.335207 14.9482 12.7147 6.60479 28.4212C -1.58456 43.931 -2.87614 62.1486 -1.51327 73.9452L 2.45997 73.4833ZM 115.863 73.9452C 117.226 62.1486 115.934 43.931 107.745 28.4212C 99.4014 12.7147 83.9461 -0.335207 57.2992 -1.99613L 57.0504 1.99613C 82.2449 3.56652 96.4903 15.7612 104.212 30.2977C 112.088 45.031 113.227 62.0548 111.89 73.4833L 115.863 73.9452ZM 0.042965 75.6674C 18.8156 79.804 67.8164 85.5752 114.293 75.6703L 113.459 71.7582C 67.6991 81.5104 19.3009 75.815 0.903726 71.7611L 0.042965 75.6674Z"/>
<path id="path2_fill" d="M 19.9901 0C 25.882 22.4653 9.11831 41.2557 0 47.8428C 2.45493 50.9629 7.99606 58.8674 10.5211 65.5238C 41.6637 41.3944 29.8099 11.7873 19.9901 0Z"/>
<path id="path3_stroke" d="M 0 47.8428L -1.17117 46.2215L -2.86032 47.4418L -1.57181 49.0795L 0 47.8428ZM 19.9901 0L 21.5268 -1.28013L 18.0556 0.507369L 19.9901 0ZM 10.5211 65.5238L 8.65115 66.2332L 9.60971 68.76L 11.7461 67.1048L 10.5211 65.5238ZM 1.17117 49.464C 5.84848 46.0782 12.6222 39.4147 17.3751 30.8417C 22.1425 22.1986 25.0354 11.3536 21.9247 -0.507369L 18.0556 0.507369C 20.8367 11.1117 18.2937 20.8945 13.8726 28.9098C 9.43706 36.9951 3.26984 43.0203 -1.17117 46.2215L 1.17117 49.464ZM 18.4535 1.28013C 23.1418 6.90783 28.3327 16.8371 28.6171 28.1837C 28.8983 39.4021 24.3946 52.2444 9.29618 63.9428L 11.7461 67.1048C 27.7902 54.6737 32.9308 40.6478 32.6159 28.0835C 32.3041 15.6474 26.6582 4.87952 21.5268 -1.28013L 18.4535 1.28013ZM -1.57181 49.0795C 0.849569 52.1558 6.22857 59.8033 8.65115 66.2332L 12.3911 64.8144C 9.76355 57.9315 4.06029 49.7701 1.57181 46.6061L -1.57181 49.0795Z"/>
<path id="path4_fill" d="M 114.418 10.8809C 68.2998 20.7094 19.6003 14.9761 1.01538 10.8809C 0.206299 9.5 -0.79375 5 1.01538 0C 22.2204 4.5 74.5879 10.8 114.418 0C 115.156 1.58724 116.188 5.98555 114.418 10.8809Z"/>
<path id="path5_stroke" d="M 1.01538 10.8809L -0.710223 11.8919L -0.268429 12.6459L 0.585003 12.834L 1.01538 10.8809ZM 114.418 10.8809L 114.835 12.8369L 115.922 12.6054L 116.299 11.5608L 114.418 10.8809ZM 1.01538 0L 1.43057 -1.95643L -0.272827 -2.31792L -0.865295 -0.680479L 1.01538 0ZM 114.418 0L 116.232 -0.842608L 115.522 -2.37146L 113.895 -1.9303L 114.418 0ZM 0.585003 12.834C 19.3577 16.9706 68.3584 22.7418 114.835 12.8369L 114.001 8.92479C 68.2412 18.677 19.843 12.9816 1.44576 8.92772L 0.585003 12.834ZM 2.74099 9.86978C 2.55002 9.54386 2.14284 8.41355 2.02934 6.66784C 1.90845 4.89503 2.06431 2.92878 2.89606 0.680479L -0.865295 -0.680479C -1.84268 2.07122 -2.09135 4.85497 -1.96223 6.92737C -1.82573 9.02688 -1.32834 10.837 -0.710223 11.8919L 2.74099 9.86978ZM 0.6002 1.95643C 21.9151 6.47976 74.6546 12.8541 114.942 1.9303L 113.895 -1.9303C 74.5213 8.74585 22.5256 2.52024 1.43057 -1.95643L 0.6002 1.95643ZM 112.604 0.842608C 113.149 2.01417 114.105 5.8639 112.537 10.2009L 116.299 11.5608C 118.271 6.1072 117.163 1.16031 116.232 -0.842608L 112.604 0.842608Z"/>
<path id="path6_fill" d="M 0 94.82L 0 1.9292C 2.72261 0.473381 9.8014 -1.56477 16.3357 1.9292L 16.3357 94.82L 8.16783 102.381L 0 94.82Z"/>
<path id="path7_stroke" d="M 0 1.9292L -0.943074 0.16551L -2 0.730665L -2 1.9292L 0 1.9292ZM 0 94.82L -2 94.82L -2 95.694L -1.35863 96.2877L 0 94.82ZM 8.16783 102.381L 6.8092 103.849L 8.16783 105.106L 9.52646 103.849L 8.16783 102.381ZM 16.3357 1.9292L 18.3357 1.9292L 18.3357 0.730665L 17.2787 0.16551L 16.3357 1.9292ZM 16.3357 94.82L 17.6943 96.2877L 18.3357 95.694L 18.3357 94.82L 16.3357 94.82ZM -2 1.9292L -2 94.82L 2 94.82L 2 1.9292L -2 1.9292ZM -1.35863 96.2877L 6.8092 103.849L 9.52646 100.913L 1.35863 93.3523L -1.35863 96.2877ZM 14.3357 1.9292L 14.3357 94.82L 18.3357 94.82L 18.3357 1.9292L 14.3357 1.9292ZM 14.977 93.3523L 6.8092 100.913L 9.52646 103.849L 17.6943 96.2877L 14.977 93.3523ZM 0.943074 3.6929C 3.32648 2.41845 9.66003 0.627607 15.3926 3.6929L 17.2787 0.16551C 9.94277 -3.75715 2.11874 -1.47169 -0.943074 0.16551L 0.943074 3.6929Z"/>
<path id="path8_fill" d="M 4 2C 4 3.10457 3.10457 4 2 4C 0.895431 4 0 3.10457 0 2C 0 0.895431 0.895431 0 2 0C 3.10457 0 4 0.895431 4 2Z"/>
</defs>
</svg>
